M48
; DRILL file {KiCad 9.0.8+dfsg-1} date 2026-09-29T16:27:20+0200
; FORMAT={-:-/ absolute / metric / decimal}
; #@! TF.CreationDate,2026-09-29T16:27:20+02:00
; #@! TF.GenerationSoftware,Kicad,Pcbnew,9.0.8+dfsg-1
; #@! TF.FileFunction,Plated,1,6,PTH
FMAT,2
METRIC
; #@! TA.AperFunction,Plated,PTH,ViaDrill
T1C0.150
; #@! TA.AperFunction,Plated,PTH,ViaDrill
T2C0.200
; #@! TA.AperFunction,Plated,PTH,ViaDrill
T3C0.250
; #@! TA.AperFunction,Plated,PTH,ViaDrill
T4C0.300
; #@! TA.AperFunction,Plated,PTH,ComponentDrill
T5C0.305
; #@! TA.AperFunction,Plated,PTH,ViaDrill
T6C0.400
; #@! TA.AperFunction,Plated,PTH,ComponentDrill
T7C2.000
%
G90
G05
T1
X126.32Y-77.4
X145.338Y-75.21
X147.028Y-76.04
X148.3Y-81.23
X150.267Y-81.915
X150.528Y-130.565
X150.6Y-78.06
X151.34Y-55.23
X152.688Y-69.74
X153.78Y-69.55
X155.35Y-73.81
X155.35Y-78.56
X155.85Y-78.06
X157.38Y-80.61
T2
X122.5Y-81.3
X123.205Y-62.108
X124.6Y-122.6
X125.605Y-61.6
X129.1Y-63.8
X131.9Y-58.6
X142.4Y-78.0
X146.1Y-77.5
X147.6Y-81.0
X147.8Y-78.0
X148.3Y-75.1
X148.8Y-79.7
X149.85Y-74.31
X151.35Y-78.56
X151.6Y-103.9
X152.35Y-72.06
X152.35Y-78.56
X158.9Y-81.4
X159.4Y-128.2
T3
X120.6Y-72.938
X120.6Y-73.938
X120.6Y-74.938
X120.6Y-75.938
X120.6Y-76.938
X121.2Y-71.48
X121.28Y-66.4
X121.557Y-69.897
X121.561Y-68.876
X121.686Y-76.96
X121.701Y-63.88
X121.9Y-61.88
X121.9Y-62.52
X122.0Y-54.0
X122.0Y-56.0
X122.0Y-58.0
X122.0Y-60.0
X122.0Y-78.0
X122.0Y-88.0
X122.0Y-90.0
X122.0Y-92.0
X122.0Y-94.0
X122.0Y-96.0
X122.0Y-98.0
X122.0Y-100.0
X122.0Y-102.0
X122.0Y-104.0
X122.0Y-106.0
X122.0Y-108.0
X122.0Y-110.0
X122.0Y-112.0
X122.0Y-114.0
X122.0Y-116.0
X122.0Y-118.0
X122.0Y-120.0
X122.0Y-124.0
X122.0Y-130.0
X122.0Y-134.0
X122.008Y-83.807
X122.555Y-67.27
X122.735Y-70.425
X122.746Y-71.481
X122.764Y-65.621
X122.775Y-60.594
X122.864Y-66.719
X123.051Y-82.909
X123.212Y-77.08
X123.53Y-76.236
X123.6Y-71.938
X123.6Y-72.938
X123.6Y-77.938
X124.0Y-54.0
X124.0Y-56.0
X124.0Y-58.0
X124.0Y-60.0
X124.0Y-62.0
X124.0Y-68.0
X124.0Y-90.0
X124.0Y-92.0
X124.0Y-94.0
X124.0Y-96.0
X124.0Y-106.0
X124.0Y-108.0
X124.0Y-110.0
X124.0Y-112.0
X124.0Y-120.0
X124.0Y-122.0
X124.0Y-126.0
X124.0Y-128.0
X124.0Y-130.0
X124.0Y-136.0
X124.0Y-138.0
X124.0Y-140.0
X124.03Y-75.046
X124.051Y-83.909
X124.302Y-78.209
X124.4Y-121.4
X124.471Y-127.477
X124.5Y-79.8
X124.575Y-86.505
X124.6Y-71.938
X124.6Y-72.938
X124.755Y-79.13
X124.8Y-128.4
X124.9Y-76.7
X124.9Y-122.0
X124.937Y-65.321
X125.01Y-88.347
X125.6Y-71.938
X125.6Y-74.938
X125.81Y-85.48
X125.897Y-80.022
X126.0Y-54.0
X126.0Y-56.0
X126.0Y-58.0
X126.0Y-68.0
X126.0Y-74.0
X126.0Y-90.0
X126.0Y-92.0
X126.0Y-94.0
X126.0Y-136.0
X126.0Y-144.0
X126.0Y-148.0
X126.032Y-61.21
X126.09Y-88.2
X126.2Y-84.7
X126.449Y-61.936
X126.49Y-115.67
X126.6Y-62.6
X126.6Y-63.8
X126.6Y-72.938
X126.6Y-74.938
X126.6Y-83.909
X126.647Y-82.716
X126.8Y-88.2
X126.84Y-99.532
X126.84Y-103.0
X127.114Y-95.465
X127.114Y-96.465
X127.114Y-97.465
X127.275Y-127.293
X127.3Y-87.2
X127.361Y-63.471
X127.382Y-57.009
X127.406Y-82.178
X127.77Y-123.89
X127.9Y-62.9
X127.9Y-65.0
X127.96Y-139.66
X128.0Y-62.0
X128.0Y-78.0
X128.0Y-90.0
X128.0Y-92.0
X128.0Y-96.0
X128.0Y-108.0
X128.0Y-110.0
X128.0Y-112.0
X128.0Y-136.0
X128.0Y-144.0
X128.0Y-148.0
X128.066Y-57.738
X128.114Y-98.465
X128.3Y-84.7
X128.442Y-67.852
X128.442Y-73.693
X128.513Y-55.949
X128.76Y-76.76
X128.898Y-118.234
X129.114Y-95.465
X129.114Y-97.465
X129.114Y-98.465
X129.302Y-78.209
X129.359Y-56.795
X129.51Y-76.76
X129.6Y-56.41
X129.898Y-116.234
X129.898Y-117.234
X130.0Y-56.0
X130.0Y-62.0
X130.0Y-86.0
X130.0Y-90.0
X130.0Y-92.0
X130.0Y-98.0
X130.0Y-100.0
X130.0Y-106.0
X130.0Y-108.0
X130.0Y-110.0
X130.0Y-112.0
X130.0Y-114.0
X130.0Y-118.0
X130.0Y-148.0
X130.071Y-77.029
X130.114Y-96.465
X130.465Y-129.732
X130.6Y-142.1
X130.871Y-134.606
X131.059Y-78.891
X131.1Y-56.725
X131.167Y-68.236
X131.167Y-114.323
X131.201Y-71.833
X131.609Y-62.235
X131.731Y-134.751
X131.737Y-84.267
X131.737Y-86.692
X131.768Y-66.067
X131.768Y-67.067
X131.836Y-126.829
X131.898Y-116.234
X131.898Y-117.234
X132.0Y-60.0
X132.0Y-90.0
X132.0Y-96.0
X132.0Y-98.0
X132.0Y-100.0
X132.0Y-102.0
X132.0Y-112.0
X132.0Y-118.0
X132.0Y-130.0
X132.2Y-142.1
X132.4Y-85.5
X132.406Y-127.506
X132.45Y-147.92
X132.48Y-75.52
X132.588Y-84.537
X132.64Y-59.18
X132.768Y-65.067
X132.768Y-66.067
X132.836Y-126.829
X132.898Y-117.234
X132.898Y-118.234
X132.9Y-87.95
X133.0Y-84.325
X133.1Y-56.725
X133.1Y-60.2
X133.15Y-58.88
X133.215Y-61.62
X133.225Y-82.57
X133.302Y-77.209
X133.768Y-66.067
X133.805Y-66.995
X133.805Y-68.545
X133.82Y-77.487
X133.836Y-126.829
X133.86Y-107.8
X133.86Y-117.849
X134.0Y-54.0
X134.0Y-76.0
X134.0Y-94.0
X134.0Y-96.0
X134.0Y-98.0
X134.0Y-100.0
X134.0Y-102.0
X134.0Y-103.4
X134.0Y-128.0
X134.0Y-138.0
X134.0Y-142.0
X134.0Y-148.0
X134.125Y-132.183
X134.302Y-77.209
X134.481Y-123.341
X134.481Y-124.341
X134.502Y-76.314
X134.55Y-85.2
X134.634Y-95.114
X134.634Y-119.285
X134.775Y-59.062
X134.805Y-66.995
X134.805Y-68.545
X134.82Y-75.487
X134.82Y-77.487
X134.836Y-126.829
X134.836Y-127.829
X134.914Y-129.731
X135.302Y-77.209
X135.47Y-130.29
X135.47Y-131.04
X135.481Y-121.341
X135.805Y-66.995
X135.805Y-68.545
X135.82Y-74.487
X135.82Y-75.487
X135.82Y-76.487
X135.82Y-77.487
X135.85Y-62.6
X135.866Y-131.964
X136.0Y-70.0
X136.0Y-72.0
X136.0Y-84.0
X136.0Y-86.0
X136.0Y-92.0
X136.0Y-100.0
X136.0Y-102.0
X136.0Y-112.0
X136.0Y-114.0
X136.0Y-116.0
X136.0Y-118.0
X136.0Y-122.0
X136.0Y-138.0
X136.0Y-142.0
X136.0Y-144.0
X136.0Y-146.0
X136.0Y-148.0
X136.025Y-65.9
X136.1Y-58.275
X136.105Y-64.9
X136.302Y-77.209
X136.439Y-129.59
X136.439Y-132.59
X136.701Y-131.008
X136.82Y-74.487
X136.82Y-75.487
X136.82Y-76.487
X136.82Y-77.487
X136.85Y-73.647
X137.298Y-124.724
X137.302Y-77.209
X137.439Y-131.59
X137.485Y-87.868
X137.575Y-58.78
X137.575Y-67.07
X137.82Y-74.487
X137.82Y-75.487
X137.82Y-76.487
X137.82Y-77.487
X137.82Y-121.776
X137.936Y-122.405
X138.0Y-54.0
X138.0Y-58.0
X138.0Y-68.0
X138.0Y-70.0
X138.0Y-72.0
X138.0Y-90.0
X138.0Y-94.0
X138.0Y-96.0
X138.0Y-98.0
X138.0Y-106.0
X138.0Y-108.0
X138.0Y-110.0
X138.0Y-112.0
X138.0Y-114.0
X138.0Y-138.0
X138.0Y-144.0
X138.069Y-56.191
X138.122Y-78.923
X138.243Y-123.168
X138.325Y-100.67
X138.439Y-129.59
X138.755Y-85.949
X139.069Y-58.191
X139.499Y-73.487
X139.862Y-89.721
X140.0Y-58.0
X140.0Y-68.0
X140.0Y-72.0
X140.0Y-92.0
X140.0Y-94.0
X140.0Y-96.0
X140.0Y-106.0
X140.0Y-108.0
X140.0Y-110.0
X140.0Y-112.0
X140.0Y-114.0
X140.0Y-138.0
X140.025Y-73.688
X140.3Y-56.81
X140.3Y-63.2
X140.394Y-81.686
X140.462Y-84.172
X140.462Y-85.172
X140.462Y-86.172
X140.462Y-87.172
X140.462Y-88.172
X140.7Y-100.67
X140.7Y-117.5
X140.7Y-133.5
X140.8Y-141.9
X140.9Y-96.65
X141.0Y-68.5
X141.003Y-75.475
X141.395Y-130.03
X141.4Y-124.3
X141.677Y-68.838
X142.0Y-56.0
X142.0Y-84.0
X142.0Y-86.0
X142.0Y-90.0
X142.0Y-92.0
X142.0Y-94.0
X142.0Y-96.0
X142.0Y-106.0
X142.0Y-108.0
X142.0Y-110.0
X142.0Y-112.0
X142.0Y-114.0
X142.0Y-146.0
X142.133Y-74.345
X142.302Y-77.209
X142.462Y-85.172
X142.9Y-81.8
X142.944Y-80.498
X142.945Y-145.033
X143.301Y-121.214
X143.462Y-89.172
X143.612Y-143.642
X143.7Y-80.4
X143.724Y-73.685
X143.91Y-135.427
X144.0Y-44.0
X144.0Y-56.0
X144.0Y-58.0
X144.0Y-82.0
X144.0Y-84.0
X144.0Y-86.0
X144.0Y-87.2
X144.0Y-88.0
X144.0Y-90.0
X144.0Y-92.0
X144.0Y-94.0
X144.0Y-102.0
X144.0Y-106.0
X144.0Y-108.0
X144.0Y-110.0
X144.0Y-112.0
X144.0Y-114.0
X144.0Y-116.0
X144.067Y-134.499
X144.12Y-73.38
X144.125Y-72.18
X144.13Y-76.24
X144.14Y-77.05
X144.4Y-80.359
X144.444Y-141.998
X144.519Y-142.675
X144.73Y-71.993
X144.8Y-49.2
X144.8Y-74.08
X144.8Y-74.58
X145.033Y-82.183
X145.13Y-135.434
X145.5Y-49.5
X145.8Y-69.8
X145.8Y-81.8
X145.861Y-78.593
X146.0Y-52.444
X146.0Y-62.0
X146.0Y-84.0
X146.0Y-86.0
X146.0Y-88.0
X146.0Y-90.0
X146.0Y-92.0
X146.0Y-100.0
X146.0Y-102.0
X146.0Y-106.0
X146.0Y-108.0
X146.0Y-110.0
X146.0Y-112.0
X146.0Y-114.0
X146.0Y-116.0
X146.0Y-118.0
X146.0Y-124.0
X146.0Y-126.0
X146.0Y-130.0
X146.0Y-132.0
X146.0Y-138.0
X146.025Y-47.2
X146.35Y-49.102
X146.378Y-63.371
X146.444Y-78.72
X146.617Y-121.24
X146.7Y-80.32
X146.748Y-135.07
X146.748Y-136.308
X146.85Y-49.102
X146.905Y-48.04
X147.218Y-125.298
X147.218Y-126.298
X147.218Y-127.298
X147.218Y-129.298
X147.218Y-130.298
X147.218Y-131.298
X147.438Y-70.164
X147.726Y-133.465
X147.85Y-52.545
X148.0Y-48.0
X148.0Y-64.0
X148.0Y-66.0
X148.0Y-116.0
X148.0Y-118.0
X148.218Y-126.298
X148.218Y-127.298
X148.218Y-129.298
X148.218Y-130.298
X148.262Y-79.307
X148.28Y-74.1
X148.46Y-80.23
X148.5Y-78.0
X148.537Y-52.592
X148.68Y-76.17
X148.836Y-67.63
X148.952Y-106.247
X148.964Y-94.163
X148.97Y-70.35
X149.07Y-69.62
X149.218Y-125.298
X149.346Y-71.659
X149.35Y-74.56
X149.5Y-98.2
X149.5Y-113.2
X149.737Y-71.178
X149.804Y-72.161
X149.845Y-45.53
X149.849Y-74.81
X149.849Y-75.31
X149.849Y-76.31
X149.85Y-75.81
X150.0Y-44.0
X150.0Y-50.0
X150.0Y-52.0
X150.113Y-141.351
X150.12Y-97.367
X150.27Y-47.88
X150.584Y-96.284
X150.584Y-120.94
X150.598Y-72.56
X150.659Y-63.238
X150.712Y-74.009
X150.851Y-90.187
X150.851Y-91.187
X150.903Y-146.659
X150.956Y-89.164
X151.09Y-71.79
X151.108Y-97.729
X151.108Y-128.467
X151.119Y-82.768
X151.186Y-64.901
X151.409Y-67.171
X151.597Y-72.533
X151.599Y-78.06
X151.975Y-134.938
X151.975Y-144.053
X152.0Y-44.0
X152.0Y-46.0
X152.0Y-50.0
X152.0Y-60.0
X152.0Y-62.0
X152.0Y-66.0
X152.0Y-96.0
X152.0Y-98.0
X152.0Y-118.0
X152.0Y-118.8
X152.0Y-146.0
X152.0Y-148.0
X152.004Y-95.221
X152.004Y-97.221
X152.099Y-72.56
X152.099Y-78.06
X152.122Y-100.027
X152.282Y-92.285
X152.4Y-98.6
X152.548Y-99.228
X152.559Y-81.226
X152.56Y-112.578
X152.599Y-72.56
X152.599Y-78.06
X152.6Y-80.4
X152.6Y-94.1
X152.774Y-63.963
X152.774Y-66.963
X152.785Y-104.596
X152.8Y-75.31
X152.888Y-90.684
X152.888Y-92.684
X153.004Y-96.221
X153.004Y-108.221
X153.004Y-109.221
X153.004Y-110.221
X153.004Y-111.221
X153.099Y-72.56
X153.099Y-78.06
X153.1Y-112.1
X153.18Y-139.66
X153.2Y-132.9
X153.231Y-97.079
X153.349Y-72.06
X153.37Y-68.266
X153.4Y-65.2
X153.42Y-123.89
X153.42Y-126.265
X153.45Y-55.98
X153.554Y-89.564
X153.599Y-72.56
X153.609Y-78.074
X153.631Y-95.147
X153.65Y-131.64
X154.0Y-48.0
X154.0Y-64.0
X154.0Y-66.0
X154.0Y-68.2
X154.0Y-90.0
X154.0Y-136.0
X154.0Y-148.0
X154.109Y-78.06
X154.166Y-100.34
X154.166Y-119.541
X154.435Y-135.112
X154.51Y-62.39
X154.609Y-78.06
X154.69Y-115.67
X154.69Y-118.045
X154.7Y-68.0
X154.7Y-107.4
X154.716Y-128.424
X154.8Y-112.1
X154.812Y-99.252
X154.851Y-89.187
X154.882Y-72.755
X154.967Y-55.678
X155.35Y-75.81
X155.35Y-76.31
X155.35Y-76.81
X155.35Y-77.31
X155.353Y-55.282
X155.359Y-80.88
X155.4Y-70.38
X155.511Y-80.075
X155.555Y-139.66
X155.849Y-73.56
X155.971Y-55.031
X156.0Y-50.0
X156.0Y-62.0
X156.0Y-64.0
X156.0Y-66.0
X156.0Y-92.0
X156.0Y-102.0
X156.0Y-106.0
X156.0Y-108.0
X156.0Y-110.0
X156.0Y-112.0
X156.0Y-120.0
X156.0Y-144.0
X156.0Y-148.0
X156.228Y-87.908
X156.25Y-67.98
X156.32Y-76.55
X156.4Y-77.06
X156.413Y-134.69
X156.46Y-56.239
X156.76Y-127.05
X156.812Y-101.252
X156.812Y-102.252
X156.812Y-104.252
X156.812Y-105.252
X156.87Y-57.225
X156.88Y-106.88
X156.936Y-125.531
X157.003Y-102.779
X157.013Y-76.506
X157.2Y-72.5
X157.294Y-94.482
X157.435Y-84.777
X157.46Y-57.239
X157.624Y-53.923
X157.812Y-101.252
X157.812Y-103.252
X157.812Y-105.252
X157.916Y-95.152
X158.0Y-50.0
X158.0Y-52.0
X158.0Y-60.0
X158.0Y-62.0
X158.0Y-64.0
X158.0Y-66.0
X158.0Y-100.0
X158.0Y-102.0
X158.0Y-104.0
X158.0Y-108.0
X158.0Y-110.0
X158.0Y-112.0
X158.0Y-114.0
X158.0Y-118.0
X158.0Y-120.0
X158.0Y-122.0
X158.245Y-96.111
X158.309Y-74.861
X158.361Y-78.292
X158.438Y-76.4
X158.88Y-72.91
X158.9Y-105.6
X159.425Y-82.708
X159.487Y-129.009
X159.487Y-131.009
X159.487Y-132.009
X159.487Y-133.009
X159.753Y-130.497
X160.0Y-52.0
X160.0Y-54.0
X160.0Y-56.0
X160.0Y-58.0
X160.0Y-60.0
X160.0Y-62.0
X160.0Y-64.0
X160.0Y-66.0
X160.0Y-68.0
X160.0Y-70.0
X160.0Y-72.0
X160.0Y-74.0
X160.0Y-75.9
X160.0Y-84.0
X160.0Y-88.0
X160.0Y-124.0
X160.0Y-128.0
X160.0Y-130.0
X160.382Y-80.16
X160.382Y-81.16
X160.5Y-98.2
T4
X121.91Y-82.96
X122.21Y-52.11
X122.826Y-85.866
X123.107Y-80.138
X123.26Y-52.11
X124.54Y-52.13
X125.74Y-52.08
X125.993Y-83.305
X126.993Y-81.426
X127.0Y-52.08
X127.917Y-76.353
X128.12Y-52.08
X129.03Y-74.954
X129.31Y-52.08
X130.34Y-54.12
X130.36Y-53.09
X130.38Y-52.04
X130.61Y-55.38
X131.55Y-56.12
X132.52Y-56.84
X133.03Y-52.08
X133.7Y-52.88
X133.96Y-59.03
X133.96Y-59.665
X133.96Y-60.3
X133.96Y-60.935
X133.96Y-61.57
X134.5Y-52.11
X135.19Y-52.99
X135.84Y-52.11
X136.05Y-56.54
X136.24Y-53.64
X136.87Y-52.78
X136.94Y-57.02
X137.27Y-56.14
X137.38Y-54.19
X137.71Y-52.17
X137.95Y-53.26
X138.13Y-57.13
X138.3Y-58.56
X138.95Y-52.27
X139.52Y-58.69
X139.73Y-52.93
X140.45Y-52.21
X141.45Y-58.75
X141.567Y-82.032
X141.69Y-55.36
X141.73Y-52.17
X142.41Y-57.71
X142.709Y-55.36
X142.91Y-52.19
X143.51Y-59.436
X143.729Y-55.36
X144.13Y-52.21
X144.17Y-50.82
X144.19Y-49.62
X144.22Y-46.85
X144.25Y-48.2
X144.749Y-55.36
X145.741Y-80.77
X145.769Y-55.36
X146.431Y-44.323
X146.431Y-46.355
X146.492Y-56.083
X146.839Y-54.167
X146.965Y-148.945
X147.32Y-44.323
X147.32Y-46.355
X147.85Y-53.69
X147.93Y-60.38
X147.93Y-61.015
X147.93Y-61.65
X147.93Y-62.285
X147.93Y-62.92
X148.209Y-44.323
X148.209Y-46.355
X148.304Y-95.177
X148.771Y-71.308
X149.06Y-127.347
X149.18Y-77.62
X149.584Y-135.236
X149.584Y-138.441
X149.591Y-122.628
X149.821Y-80.652
X150.267Y-82.956
X150.66Y-63.95
X150.66Y-64.585
X150.66Y-65.22
X150.66Y-65.855
X150.7Y-54.74
X151.125Y-58.515
X151.39Y-54.07
X152.4Y-43.307
X152.517Y-53.452
X152.715Y-79.268
X152.955Y-53.076
X153.162Y-43.307
X153.517Y-52.864
X153.52Y-87.03
X153.924Y-43.307
X153.924Y-44.069
X153.924Y-44.831
X153.924Y-45.593
X153.924Y-46.355
X153.95Y-52.449
X154.497Y-53.49
X154.75Y-87.06
X155.225Y-71.438
X155.26Y-78.99
X155.46Y-82.07
X155.97Y-54.14
X156.17Y-56.86
X157.225Y-134.01
X157.48Y-55.48
X157.85Y-139.6
X158.06Y-134.02
X159.69Y-119.16
X160.5Y-79.25
T5
X150.8Y-73.51
X150.8Y-74.71
X150.8Y-75.91
X150.8Y-77.11
X152.0Y-73.51
X152.0Y-74.71
X152.0Y-75.91
X152.0Y-77.11
X153.2Y-73.51
X153.2Y-74.71
X153.2Y-75.91
X153.2Y-77.11
X154.4Y-73.51
X154.4Y-74.71
X154.4Y-75.91
X154.4Y-77.11
T6
X142.367Y-59.436
X158.69Y-80.63
T7
X122.0Y-126.23
X123.75Y-47.91
X127.0Y-146.0
X134.57Y-64.0
X154.8Y-146.0
X157.65Y-47.91
X159.5Y-126.2
M30
