%TF.GenerationSoftware,KiCad,Pcbnew,9.0.8+dfsg-1*%
%TF.CreationDate,2026-09-29T16:27:19+02:00*%
%TF.ProjectId,Mesh3310,4d657368-3333-4313-902e-6b696361645f,A*%
%TF.SameCoordinates,Original*%
%TF.FileFunction,Legend,Bot*%
%TF.FilePolarity,Positive*%
%FSLAX46Y46*%
G04 Gerber Fmt 4.6, Leading zero omitted, Abs format (unit mm)*
G04 Created by KiCad (PCBNEW 9.0.8+dfsg-1) date 2026-09-29 16:27:19*
%MOMM*%
%LPD*%
G01*
G04 APERTURE LIST*
%ADD10C,0.150000*%
%ADD11C,0.120000*%
%ADD12C,0.350000*%
%ADD13C,0.305000*%
G04 APERTURE END LIST*
D10*
X149756751Y-130306668D02*
X149804370Y-130449525D01*
X149804370Y-130449525D02*
X149804370Y-130687620D01*
X149804370Y-130687620D02*
X149756751Y-130782858D01*
X149756751Y-130782858D02*
X149709131Y-130830477D01*
X149709131Y-130830477D02*
X149613893Y-130878096D01*
X149613893Y-130878096D02*
X149518655Y-130878096D01*
X149518655Y-130878096D02*
X149423417Y-130830477D01*
X149423417Y-130830477D02*
X149375798Y-130782858D01*
X149375798Y-130782858D02*
X149328179Y-130687620D01*
X149328179Y-130687620D02*
X149280560Y-130497144D01*
X149280560Y-130497144D02*
X149232941Y-130401906D01*
X149232941Y-130401906D02*
X149185322Y-130354287D01*
X149185322Y-130354287D02*
X149090084Y-130306668D01*
X149090084Y-130306668D02*
X148994846Y-130306668D01*
X148994846Y-130306668D02*
X148899608Y-130354287D01*
X148899608Y-130354287D02*
X148851989Y-130401906D01*
X148851989Y-130401906D02*
X148804370Y-130497144D01*
X148804370Y-130497144D02*
X148804370Y-130735239D01*
X148804370Y-130735239D02*
X148851989Y-130878096D01*
X148804370Y-131211430D02*
X149804370Y-131449525D01*
X149804370Y-131449525D02*
X149090084Y-131640001D01*
X149090084Y-131640001D02*
X149804370Y-131830477D01*
X149804370Y-131830477D02*
X148804370Y-132068573D01*
X148804370Y-132878096D02*
X148804370Y-132687620D01*
X148804370Y-132687620D02*
X148851989Y-132592382D01*
X148851989Y-132592382D02*
X148899608Y-132544763D01*
X148899608Y-132544763D02*
X149042465Y-132449525D01*
X149042465Y-132449525D02*
X149232941Y-132401906D01*
X149232941Y-132401906D02*
X149613893Y-132401906D01*
X149613893Y-132401906D02*
X149709131Y-132449525D01*
X149709131Y-132449525D02*
X149756751Y-132497144D01*
X149756751Y-132497144D02*
X149804370Y-132592382D01*
X149804370Y-132592382D02*
X149804370Y-132782858D01*
X149804370Y-132782858D02*
X149756751Y-132878096D01*
X149756751Y-132878096D02*
X149709131Y-132925715D01*
X149709131Y-132925715D02*
X149613893Y-132973334D01*
X149613893Y-132973334D02*
X149375798Y-132973334D01*
X149375798Y-132973334D02*
X149280560Y-132925715D01*
X149280560Y-132925715D02*
X149232941Y-132878096D01*
X149232941Y-132878096D02*
X149185322Y-132782858D01*
X149185322Y-132782858D02*
X149185322Y-132592382D01*
X149185322Y-132592382D02*
X149232941Y-132497144D01*
X149232941Y-132497144D02*
X149280560Y-132449525D01*
X149280560Y-132449525D02*
X149375798Y-132401906D01*
X154513333Y-136016751D02*
X154370476Y-136064370D01*
X154370476Y-136064370D02*
X154132381Y-136064370D01*
X154132381Y-136064370D02*
X154037143Y-136016751D01*
X154037143Y-136016751D02*
X153989524Y-135969131D01*
X153989524Y-135969131D02*
X153941905Y-135873893D01*
X153941905Y-135873893D02*
X153941905Y-135778655D01*
X153941905Y-135778655D02*
X153989524Y-135683417D01*
X153989524Y-135683417D02*
X154037143Y-135635798D01*
X154037143Y-135635798D02*
X154132381Y-135588179D01*
X154132381Y-135588179D02*
X154322857Y-135540560D01*
X154322857Y-135540560D02*
X154418095Y-135492941D01*
X154418095Y-135492941D02*
X154465714Y-135445322D01*
X154465714Y-135445322D02*
X154513333Y-135350084D01*
X154513333Y-135350084D02*
X154513333Y-135254846D01*
X154513333Y-135254846D02*
X154465714Y-135159608D01*
X154465714Y-135159608D02*
X154418095Y-135111989D01*
X154418095Y-135111989D02*
X154322857Y-135064370D01*
X154322857Y-135064370D02*
X154084762Y-135064370D01*
X154084762Y-135064370D02*
X153941905Y-135111989D01*
X153608571Y-135064370D02*
X153370476Y-136064370D01*
X153370476Y-136064370D02*
X153180000Y-135350084D01*
X153180000Y-135350084D02*
X152989524Y-136064370D01*
X152989524Y-136064370D02*
X152751429Y-135064370D01*
X152465714Y-135064370D02*
X151799048Y-135064370D01*
X151799048Y-135064370D02*
X152227619Y-136064370D01*
X126069526Y-136366751D02*
X125926669Y-136414370D01*
X125926669Y-136414370D02*
X125688574Y-136414370D01*
X125688574Y-136414370D02*
X125593336Y-136366751D01*
X125593336Y-136366751D02*
X125545717Y-136319131D01*
X125545717Y-136319131D02*
X125498098Y-136223893D01*
X125498098Y-136223893D02*
X125498098Y-136128655D01*
X125498098Y-136128655D02*
X125545717Y-136033417D01*
X125545717Y-136033417D02*
X125593336Y-135985798D01*
X125593336Y-135985798D02*
X125688574Y-135938179D01*
X125688574Y-135938179D02*
X125879050Y-135890560D01*
X125879050Y-135890560D02*
X125974288Y-135842941D01*
X125974288Y-135842941D02*
X126021907Y-135795322D01*
X126021907Y-135795322D02*
X126069526Y-135700084D01*
X126069526Y-135700084D02*
X126069526Y-135604846D01*
X126069526Y-135604846D02*
X126021907Y-135509608D01*
X126021907Y-135509608D02*
X125974288Y-135461989D01*
X125974288Y-135461989D02*
X125879050Y-135414370D01*
X125879050Y-135414370D02*
X125640955Y-135414370D01*
X125640955Y-135414370D02*
X125498098Y-135461989D01*
X125164764Y-135414370D02*
X124926669Y-136414370D01*
X124926669Y-136414370D02*
X124736193Y-135700084D01*
X124736193Y-135700084D02*
X124545717Y-136414370D01*
X124545717Y-136414370D02*
X124307622Y-135414370D01*
X123402860Y-136414370D02*
X123974288Y-136414370D01*
X123688574Y-136414370D02*
X123688574Y-135414370D01*
X123688574Y-135414370D02*
X123783812Y-135557227D01*
X123783812Y-135557227D02*
X123879050Y-135652465D01*
X123879050Y-135652465D02*
X123974288Y-135700084D01*
X123069526Y-135414370D02*
X122402860Y-135414370D01*
X122402860Y-135414370D02*
X122831431Y-136414370D01*
X136806751Y-116166668D02*
X136854370Y-116309525D01*
X136854370Y-116309525D02*
X136854370Y-116547620D01*
X136854370Y-116547620D02*
X136806751Y-116642858D01*
X136806751Y-116642858D02*
X136759131Y-116690477D01*
X136759131Y-116690477D02*
X136663893Y-116738096D01*
X136663893Y-116738096D02*
X136568655Y-116738096D01*
X136568655Y-116738096D02*
X136473417Y-116690477D01*
X136473417Y-116690477D02*
X136425798Y-116642858D01*
X136425798Y-116642858D02*
X136378179Y-116547620D01*
X136378179Y-116547620D02*
X136330560Y-116357144D01*
X136330560Y-116357144D02*
X136282941Y-116261906D01*
X136282941Y-116261906D02*
X136235322Y-116214287D01*
X136235322Y-116214287D02*
X136140084Y-116166668D01*
X136140084Y-116166668D02*
X136044846Y-116166668D01*
X136044846Y-116166668D02*
X135949608Y-116214287D01*
X135949608Y-116214287D02*
X135901989Y-116261906D01*
X135901989Y-116261906D02*
X135854370Y-116357144D01*
X135854370Y-116357144D02*
X135854370Y-116595239D01*
X135854370Y-116595239D02*
X135901989Y-116738096D01*
X135854370Y-117071430D02*
X136854370Y-117309525D01*
X136854370Y-117309525D02*
X136140084Y-117500001D01*
X136140084Y-117500001D02*
X136854370Y-117690477D01*
X136854370Y-117690477D02*
X135854370Y-117928573D01*
X136854370Y-118357144D02*
X136854370Y-118547620D01*
X136854370Y-118547620D02*
X136806751Y-118642858D01*
X136806751Y-118642858D02*
X136759131Y-118690477D01*
X136759131Y-118690477D02*
X136616274Y-118785715D01*
X136616274Y-118785715D02*
X136425798Y-118833334D01*
X136425798Y-118833334D02*
X136044846Y-118833334D01*
X136044846Y-118833334D02*
X135949608Y-118785715D01*
X135949608Y-118785715D02*
X135901989Y-118738096D01*
X135901989Y-118738096D02*
X135854370Y-118642858D01*
X135854370Y-118642858D02*
X135854370Y-118452382D01*
X135854370Y-118452382D02*
X135901989Y-118357144D01*
X135901989Y-118357144D02*
X135949608Y-118309525D01*
X135949608Y-118309525D02*
X136044846Y-118261906D01*
X136044846Y-118261906D02*
X136282941Y-118261906D01*
X136282941Y-118261906D02*
X136378179Y-118309525D01*
X136378179Y-118309525D02*
X136425798Y-118357144D01*
X136425798Y-118357144D02*
X136473417Y-118452382D01*
X136473417Y-118452382D02*
X136473417Y-118642858D01*
X136473417Y-118642858D02*
X136425798Y-118738096D01*
X136425798Y-118738096D02*
X136378179Y-118785715D01*
X136378179Y-118785715D02*
X136282941Y-118833334D01*
X137416740Y-49810476D02*
X138131025Y-49810476D01*
X138131025Y-49810476D02*
X138273882Y-49762857D01*
X138273882Y-49762857D02*
X138369121Y-49667619D01*
X138369121Y-49667619D02*
X138416740Y-49524762D01*
X138416740Y-49524762D02*
X138416740Y-49429524D01*
X138416740Y-50810476D02*
X138416740Y-50239048D01*
X138416740Y-50524762D02*
X137416740Y-50524762D01*
X137416740Y-50524762D02*
X137559597Y-50429524D01*
X137559597Y-50429524D02*
X137654835Y-50334286D01*
X137654835Y-50334286D02*
X137702454Y-50239048D01*
X137416740Y-51429524D02*
X137416740Y-51524762D01*
X137416740Y-51524762D02*
X137464359Y-51620000D01*
X137464359Y-51620000D02*
X137511978Y-51667619D01*
X137511978Y-51667619D02*
X137607216Y-51715238D01*
X137607216Y-51715238D02*
X137797692Y-51762857D01*
X137797692Y-51762857D02*
X138035787Y-51762857D01*
X138035787Y-51762857D02*
X138226263Y-51715238D01*
X138226263Y-51715238D02*
X138321501Y-51667619D01*
X138321501Y-51667619D02*
X138369121Y-51620000D01*
X138369121Y-51620000D02*
X138416740Y-51524762D01*
X138416740Y-51524762D02*
X138416740Y-51429524D01*
X138416740Y-51429524D02*
X138369121Y-51334286D01*
X138369121Y-51334286D02*
X138321501Y-51286667D01*
X138321501Y-51286667D02*
X138226263Y-51239048D01*
X138226263Y-51239048D02*
X138035787Y-51191429D01*
X138035787Y-51191429D02*
X137797692Y-51191429D01*
X137797692Y-51191429D02*
X137607216Y-51239048D01*
X137607216Y-51239048D02*
X137511978Y-51286667D01*
X137511978Y-51286667D02*
X137464359Y-51334286D01*
X137464359Y-51334286D02*
X137416740Y-51429524D01*
X136806751Y-139690475D02*
X136854370Y-139833332D01*
X136854370Y-139833332D02*
X136854370Y-140071427D01*
X136854370Y-140071427D02*
X136806751Y-140166665D01*
X136806751Y-140166665D02*
X136759131Y-140214284D01*
X136759131Y-140214284D02*
X136663893Y-140261903D01*
X136663893Y-140261903D02*
X136568655Y-140261903D01*
X136568655Y-140261903D02*
X136473417Y-140214284D01*
X136473417Y-140214284D02*
X136425798Y-140166665D01*
X136425798Y-140166665D02*
X136378179Y-140071427D01*
X136378179Y-140071427D02*
X136330560Y-139880951D01*
X136330560Y-139880951D02*
X136282941Y-139785713D01*
X136282941Y-139785713D02*
X136235322Y-139738094D01*
X136235322Y-139738094D02*
X136140084Y-139690475D01*
X136140084Y-139690475D02*
X136044846Y-139690475D01*
X136044846Y-139690475D02*
X135949608Y-139738094D01*
X135949608Y-139738094D02*
X135901989Y-139785713D01*
X135901989Y-139785713D02*
X135854370Y-139880951D01*
X135854370Y-139880951D02*
X135854370Y-140119046D01*
X135854370Y-140119046D02*
X135901989Y-140261903D01*
X135854370Y-140595237D02*
X136854370Y-140833332D01*
X136854370Y-140833332D02*
X136140084Y-141023808D01*
X136140084Y-141023808D02*
X136854370Y-141214284D01*
X136854370Y-141214284D02*
X135854370Y-141452380D01*
X136854370Y-142357141D02*
X136854370Y-141785713D01*
X136854370Y-142071427D02*
X135854370Y-142071427D01*
X135854370Y-142071427D02*
X135997227Y-141976189D01*
X135997227Y-141976189D02*
X136092465Y-141880951D01*
X136092465Y-141880951D02*
X136140084Y-141785713D01*
X135949608Y-142738094D02*
X135901989Y-142785713D01*
X135901989Y-142785713D02*
X135854370Y-142880951D01*
X135854370Y-142880951D02*
X135854370Y-143119046D01*
X135854370Y-143119046D02*
X135901989Y-143214284D01*
X135901989Y-143214284D02*
X135949608Y-143261903D01*
X135949608Y-143261903D02*
X136044846Y-143309522D01*
X136044846Y-143309522D02*
X136140084Y-143309522D01*
X136140084Y-143309522D02*
X136282941Y-143261903D01*
X136282941Y-143261903D02*
X136854370Y-142690475D01*
X136854370Y-142690475D02*
X136854370Y-143309522D01*
X149006751Y-103166668D02*
X149054370Y-103309525D01*
X149054370Y-103309525D02*
X149054370Y-103547620D01*
X149054370Y-103547620D02*
X149006751Y-103642858D01*
X149006751Y-103642858D02*
X148959131Y-103690477D01*
X148959131Y-103690477D02*
X148863893Y-103738096D01*
X148863893Y-103738096D02*
X148768655Y-103738096D01*
X148768655Y-103738096D02*
X148673417Y-103690477D01*
X148673417Y-103690477D02*
X148625798Y-103642858D01*
X148625798Y-103642858D02*
X148578179Y-103547620D01*
X148578179Y-103547620D02*
X148530560Y-103357144D01*
X148530560Y-103357144D02*
X148482941Y-103261906D01*
X148482941Y-103261906D02*
X148435322Y-103214287D01*
X148435322Y-103214287D02*
X148340084Y-103166668D01*
X148340084Y-103166668D02*
X148244846Y-103166668D01*
X148244846Y-103166668D02*
X148149608Y-103214287D01*
X148149608Y-103214287D02*
X148101989Y-103261906D01*
X148101989Y-103261906D02*
X148054370Y-103357144D01*
X148054370Y-103357144D02*
X148054370Y-103595239D01*
X148054370Y-103595239D02*
X148101989Y-103738096D01*
X148054370Y-104071430D02*
X149054370Y-104309525D01*
X149054370Y-104309525D02*
X148340084Y-104500001D01*
X148340084Y-104500001D02*
X149054370Y-104690477D01*
X149054370Y-104690477D02*
X148054370Y-104928573D01*
X148054370Y-105214287D02*
X148054370Y-105833334D01*
X148054370Y-105833334D02*
X148435322Y-105500001D01*
X148435322Y-105500001D02*
X148435322Y-105642858D01*
X148435322Y-105642858D02*
X148482941Y-105738096D01*
X148482941Y-105738096D02*
X148530560Y-105785715D01*
X148530560Y-105785715D02*
X148625798Y-105833334D01*
X148625798Y-105833334D02*
X148863893Y-105833334D01*
X148863893Y-105833334D02*
X148959131Y-105785715D01*
X148959131Y-105785715D02*
X149006751Y-105738096D01*
X149006751Y-105738096D02*
X149054370Y-105642858D01*
X149054370Y-105642858D02*
X149054370Y-105357144D01*
X149054370Y-105357144D02*
X149006751Y-105261906D01*
X149006751Y-105261906D02*
X148959131Y-105214287D01*
X122597203Y-113860475D02*
X122644822Y-114003332D01*
X122644822Y-114003332D02*
X122644822Y-114241427D01*
X122644822Y-114241427D02*
X122597203Y-114336665D01*
X122597203Y-114336665D02*
X122549583Y-114384284D01*
X122549583Y-114384284D02*
X122454345Y-114431903D01*
X122454345Y-114431903D02*
X122359107Y-114431903D01*
X122359107Y-114431903D02*
X122263869Y-114384284D01*
X122263869Y-114384284D02*
X122216250Y-114336665D01*
X122216250Y-114336665D02*
X122168631Y-114241427D01*
X122168631Y-114241427D02*
X122121012Y-114050951D01*
X122121012Y-114050951D02*
X122073393Y-113955713D01*
X122073393Y-113955713D02*
X122025774Y-113908094D01*
X122025774Y-113908094D02*
X121930536Y-113860475D01*
X121930536Y-113860475D02*
X121835298Y-113860475D01*
X121835298Y-113860475D02*
X121740060Y-113908094D01*
X121740060Y-113908094D02*
X121692441Y-113955713D01*
X121692441Y-113955713D02*
X121644822Y-114050951D01*
X121644822Y-114050951D02*
X121644822Y-114289046D01*
X121644822Y-114289046D02*
X121692441Y-114431903D01*
X121644822Y-114765237D02*
X122644822Y-115003332D01*
X122644822Y-115003332D02*
X121930536Y-115193808D01*
X121930536Y-115193808D02*
X122644822Y-115384284D01*
X122644822Y-115384284D02*
X121644822Y-115622380D01*
X122644822Y-116527141D02*
X122644822Y-115955713D01*
X122644822Y-116241427D02*
X121644822Y-116241427D01*
X121644822Y-116241427D02*
X121787679Y-116146189D01*
X121787679Y-116146189D02*
X121882917Y-116050951D01*
X121882917Y-116050951D02*
X121930536Y-115955713D01*
X121978155Y-117384284D02*
X122644822Y-117384284D01*
X121597203Y-117146189D02*
X122311488Y-116908094D01*
X122311488Y-116908094D02*
X122311488Y-117527141D01*
X151052883Y-120597204D02*
X150910026Y-120644823D01*
X150910026Y-120644823D02*
X150671931Y-120644823D01*
X150671931Y-120644823D02*
X150576693Y-120597204D01*
X150576693Y-120597204D02*
X150529074Y-120549584D01*
X150529074Y-120549584D02*
X150481455Y-120454346D01*
X150481455Y-120454346D02*
X150481455Y-120359108D01*
X150481455Y-120359108D02*
X150529074Y-120263870D01*
X150529074Y-120263870D02*
X150576693Y-120216251D01*
X150576693Y-120216251D02*
X150671931Y-120168632D01*
X150671931Y-120168632D02*
X150862407Y-120121013D01*
X150862407Y-120121013D02*
X150957645Y-120073394D01*
X150957645Y-120073394D02*
X151005264Y-120025775D01*
X151005264Y-120025775D02*
X151052883Y-119930537D01*
X151052883Y-119930537D02*
X151052883Y-119835299D01*
X151052883Y-119835299D02*
X151005264Y-119740061D01*
X151005264Y-119740061D02*
X150957645Y-119692442D01*
X150957645Y-119692442D02*
X150862407Y-119644823D01*
X150862407Y-119644823D02*
X150624312Y-119644823D01*
X150624312Y-119644823D02*
X150481455Y-119692442D01*
X150148121Y-119644823D02*
X149910026Y-120644823D01*
X149910026Y-120644823D02*
X149719550Y-119930537D01*
X149719550Y-119930537D02*
X149529074Y-120644823D01*
X149529074Y-120644823D02*
X149290979Y-119644823D01*
X148433836Y-119644823D02*
X148910026Y-119644823D01*
X148910026Y-119644823D02*
X148957645Y-120121013D01*
X148957645Y-120121013D02*
X148910026Y-120073394D01*
X148910026Y-120073394D02*
X148814788Y-120025775D01*
X148814788Y-120025775D02*
X148576693Y-120025775D01*
X148576693Y-120025775D02*
X148481455Y-120073394D01*
X148481455Y-120073394D02*
X148433836Y-120121013D01*
X148433836Y-120121013D02*
X148386217Y-120216251D01*
X148386217Y-120216251D02*
X148386217Y-120454346D01*
X148386217Y-120454346D02*
X148433836Y-120549584D01*
X148433836Y-120549584D02*
X148481455Y-120597204D01*
X148481455Y-120597204D02*
X148576693Y-120644823D01*
X148576693Y-120644823D02*
X148814788Y-120644823D01*
X148814788Y-120644823D02*
X148910026Y-120597204D01*
X148910026Y-120597204D02*
X148957645Y-120549584D01*
X129966963Y-106466666D02*
X130014582Y-106609523D01*
X130014582Y-106609523D02*
X130014582Y-106847618D01*
X130014582Y-106847618D02*
X129966963Y-106942856D01*
X129966963Y-106942856D02*
X129919343Y-106990475D01*
X129919343Y-106990475D02*
X129824105Y-107038094D01*
X129824105Y-107038094D02*
X129728867Y-107038094D01*
X129728867Y-107038094D02*
X129633629Y-106990475D01*
X129633629Y-106990475D02*
X129586010Y-106942856D01*
X129586010Y-106942856D02*
X129538391Y-106847618D01*
X129538391Y-106847618D02*
X129490772Y-106657142D01*
X129490772Y-106657142D02*
X129443153Y-106561904D01*
X129443153Y-106561904D02*
X129395534Y-106514285D01*
X129395534Y-106514285D02*
X129300296Y-106466666D01*
X129300296Y-106466666D02*
X129205058Y-106466666D01*
X129205058Y-106466666D02*
X129109820Y-106514285D01*
X129109820Y-106514285D02*
X129062201Y-106561904D01*
X129062201Y-106561904D02*
X129014582Y-106657142D01*
X129014582Y-106657142D02*
X129014582Y-106895237D01*
X129014582Y-106895237D02*
X129062201Y-107038094D01*
X129014582Y-107371428D02*
X130014582Y-107609523D01*
X130014582Y-107609523D02*
X129300296Y-107799999D01*
X129300296Y-107799999D02*
X130014582Y-107990475D01*
X130014582Y-107990475D02*
X129014582Y-108228571D01*
X129443153Y-108752380D02*
X129395534Y-108657142D01*
X129395534Y-108657142D02*
X129347915Y-108609523D01*
X129347915Y-108609523D02*
X129252677Y-108561904D01*
X129252677Y-108561904D02*
X129205058Y-108561904D01*
X129205058Y-108561904D02*
X129109820Y-108609523D01*
X129109820Y-108609523D02*
X129062201Y-108657142D01*
X129062201Y-108657142D02*
X129014582Y-108752380D01*
X129014582Y-108752380D02*
X129014582Y-108942856D01*
X129014582Y-108942856D02*
X129062201Y-109038094D01*
X129062201Y-109038094D02*
X129109820Y-109085713D01*
X129109820Y-109085713D02*
X129205058Y-109133332D01*
X129205058Y-109133332D02*
X129252677Y-109133332D01*
X129252677Y-109133332D02*
X129347915Y-109085713D01*
X129347915Y-109085713D02*
X129395534Y-109038094D01*
X129395534Y-109038094D02*
X129443153Y-108942856D01*
X129443153Y-108942856D02*
X129443153Y-108752380D01*
X129443153Y-108752380D02*
X129490772Y-108657142D01*
X129490772Y-108657142D02*
X129538391Y-108609523D01*
X129538391Y-108609523D02*
X129633629Y-108561904D01*
X129633629Y-108561904D02*
X129824105Y-108561904D01*
X129824105Y-108561904D02*
X129919343Y-108609523D01*
X129919343Y-108609523D02*
X129966963Y-108657142D01*
X129966963Y-108657142D02*
X130014582Y-108752380D01*
X130014582Y-108752380D02*
X130014582Y-108942856D01*
X130014582Y-108942856D02*
X129966963Y-109038094D01*
X129966963Y-109038094D02*
X129919343Y-109085713D01*
X129919343Y-109085713D02*
X129824105Y-109133332D01*
X129824105Y-109133332D02*
X129633629Y-109133332D01*
X129633629Y-109133332D02*
X129538391Y-109085713D01*
X129538391Y-109085713D02*
X129490772Y-109038094D01*
X129490772Y-109038094D02*
X129443153Y-108942856D01*
X145733327Y-104777648D02*
X145590470Y-104825267D01*
X145590470Y-104825267D02*
X145352375Y-104825267D01*
X145352375Y-104825267D02*
X145257137Y-104777648D01*
X145257137Y-104777648D02*
X145209518Y-104730028D01*
X145209518Y-104730028D02*
X145161899Y-104634790D01*
X145161899Y-104634790D02*
X145161899Y-104539552D01*
X145161899Y-104539552D02*
X145209518Y-104444314D01*
X145209518Y-104444314D02*
X145257137Y-104396695D01*
X145257137Y-104396695D02*
X145352375Y-104349076D01*
X145352375Y-104349076D02*
X145542851Y-104301457D01*
X145542851Y-104301457D02*
X145638089Y-104253838D01*
X145638089Y-104253838D02*
X145685708Y-104206219D01*
X145685708Y-104206219D02*
X145733327Y-104110981D01*
X145733327Y-104110981D02*
X145733327Y-104015743D01*
X145733327Y-104015743D02*
X145685708Y-103920505D01*
X145685708Y-103920505D02*
X145638089Y-103872886D01*
X145638089Y-103872886D02*
X145542851Y-103825267D01*
X145542851Y-103825267D02*
X145304756Y-103825267D01*
X145304756Y-103825267D02*
X145161899Y-103872886D01*
X144828565Y-103825267D02*
X144590470Y-104825267D01*
X144590470Y-104825267D02*
X144399994Y-104110981D01*
X144399994Y-104110981D02*
X144209518Y-104825267D01*
X144209518Y-104825267D02*
X143971423Y-103825267D01*
X143638089Y-103920505D02*
X143590470Y-103872886D01*
X143590470Y-103872886D02*
X143495232Y-103825267D01*
X143495232Y-103825267D02*
X143257137Y-103825267D01*
X143257137Y-103825267D02*
X143161899Y-103872886D01*
X143161899Y-103872886D02*
X143114280Y-103920505D01*
X143114280Y-103920505D02*
X143066661Y-104015743D01*
X143066661Y-104015743D02*
X143066661Y-104110981D01*
X143066661Y-104110981D02*
X143114280Y-104253838D01*
X143114280Y-104253838D02*
X143685708Y-104825267D01*
X143685708Y-104825267D02*
X143066661Y-104825267D01*
X136806751Y-123690476D02*
X136854370Y-123833333D01*
X136854370Y-123833333D02*
X136854370Y-124071428D01*
X136854370Y-124071428D02*
X136806751Y-124166666D01*
X136806751Y-124166666D02*
X136759131Y-124214285D01*
X136759131Y-124214285D02*
X136663893Y-124261904D01*
X136663893Y-124261904D02*
X136568655Y-124261904D01*
X136568655Y-124261904D02*
X136473417Y-124214285D01*
X136473417Y-124214285D02*
X136425798Y-124166666D01*
X136425798Y-124166666D02*
X136378179Y-124071428D01*
X136378179Y-124071428D02*
X136330560Y-123880952D01*
X136330560Y-123880952D02*
X136282941Y-123785714D01*
X136282941Y-123785714D02*
X136235322Y-123738095D01*
X136235322Y-123738095D02*
X136140084Y-123690476D01*
X136140084Y-123690476D02*
X136044846Y-123690476D01*
X136044846Y-123690476D02*
X135949608Y-123738095D01*
X135949608Y-123738095D02*
X135901989Y-123785714D01*
X135901989Y-123785714D02*
X135854370Y-123880952D01*
X135854370Y-123880952D02*
X135854370Y-124119047D01*
X135854370Y-124119047D02*
X135901989Y-124261904D01*
X135854370Y-124595238D02*
X136854370Y-124833333D01*
X136854370Y-124833333D02*
X136140084Y-125023809D01*
X136140084Y-125023809D02*
X136854370Y-125214285D01*
X136854370Y-125214285D02*
X135854370Y-125452381D01*
X136854370Y-126357142D02*
X136854370Y-125785714D01*
X136854370Y-126071428D02*
X135854370Y-126071428D01*
X135854370Y-126071428D02*
X135997227Y-125976190D01*
X135997227Y-125976190D02*
X136092465Y-125880952D01*
X136092465Y-125880952D02*
X136140084Y-125785714D01*
X135854370Y-126976190D02*
X135854370Y-127071428D01*
X135854370Y-127071428D02*
X135901989Y-127166666D01*
X135901989Y-127166666D02*
X135949608Y-127214285D01*
X135949608Y-127214285D02*
X136044846Y-127261904D01*
X136044846Y-127261904D02*
X136235322Y-127309523D01*
X136235322Y-127309523D02*
X136473417Y-127309523D01*
X136473417Y-127309523D02*
X136663893Y-127261904D01*
X136663893Y-127261904D02*
X136759131Y-127214285D01*
X136759131Y-127214285D02*
X136806751Y-127166666D01*
X136806751Y-127166666D02*
X136854370Y-127071428D01*
X136854370Y-127071428D02*
X136854370Y-126976190D01*
X136854370Y-126976190D02*
X136806751Y-126880952D01*
X136806751Y-126880952D02*
X136759131Y-126833333D01*
X136759131Y-126833333D02*
X136663893Y-126785714D01*
X136663893Y-126785714D02*
X136473417Y-126738095D01*
X136473417Y-126738095D02*
X136235322Y-126738095D01*
X136235322Y-126738095D02*
X136044846Y-126785714D01*
X136044846Y-126785714D02*
X135949608Y-126833333D01*
X135949608Y-126833333D02*
X135901989Y-126880952D01*
X135901989Y-126880952D02*
X135854370Y-126976190D01*
X125879074Y-120597203D02*
X125736217Y-120644822D01*
X125736217Y-120644822D02*
X125498122Y-120644822D01*
X125498122Y-120644822D02*
X125402884Y-120597203D01*
X125402884Y-120597203D02*
X125355265Y-120549583D01*
X125355265Y-120549583D02*
X125307646Y-120454345D01*
X125307646Y-120454345D02*
X125307646Y-120359107D01*
X125307646Y-120359107D02*
X125355265Y-120263869D01*
X125355265Y-120263869D02*
X125402884Y-120216250D01*
X125402884Y-120216250D02*
X125498122Y-120168631D01*
X125498122Y-120168631D02*
X125688598Y-120121012D01*
X125688598Y-120121012D02*
X125783836Y-120073393D01*
X125783836Y-120073393D02*
X125831455Y-120025774D01*
X125831455Y-120025774D02*
X125879074Y-119930536D01*
X125879074Y-119930536D02*
X125879074Y-119835298D01*
X125879074Y-119835298D02*
X125831455Y-119740060D01*
X125831455Y-119740060D02*
X125783836Y-119692441D01*
X125783836Y-119692441D02*
X125688598Y-119644822D01*
X125688598Y-119644822D02*
X125450503Y-119644822D01*
X125450503Y-119644822D02*
X125307646Y-119692441D01*
X124974312Y-119644822D02*
X124736217Y-120644822D01*
X124736217Y-120644822D02*
X124545741Y-119930536D01*
X124545741Y-119930536D02*
X124355265Y-120644822D01*
X124355265Y-120644822D02*
X124117170Y-119644822D01*
X123212408Y-120644822D02*
X123783836Y-120644822D01*
X123498122Y-120644822D02*
X123498122Y-119644822D01*
X123498122Y-119644822D02*
X123593360Y-119787679D01*
X123593360Y-119787679D02*
X123688598Y-119882917D01*
X123688598Y-119882917D02*
X123783836Y-119930536D01*
X122307646Y-119644822D02*
X122783836Y-119644822D01*
X122783836Y-119644822D02*
X122831455Y-120121012D01*
X122831455Y-120121012D02*
X122783836Y-120073393D01*
X122783836Y-120073393D02*
X122688598Y-120025774D01*
X122688598Y-120025774D02*
X122450503Y-120025774D01*
X122450503Y-120025774D02*
X122355265Y-120073393D01*
X122355265Y-120073393D02*
X122307646Y-120121012D01*
X122307646Y-120121012D02*
X122260027Y-120216250D01*
X122260027Y-120216250D02*
X122260027Y-120454345D01*
X122260027Y-120454345D02*
X122307646Y-120549583D01*
X122307646Y-120549583D02*
X122355265Y-120597203D01*
X122355265Y-120597203D02*
X122450503Y-120644822D01*
X122450503Y-120644822D02*
X122688598Y-120644822D01*
X122688598Y-120644822D02*
X122783836Y-120597203D01*
X122783836Y-120597203D02*
X122831455Y-120549583D01*
X134492319Y-61266666D02*
X135206604Y-61266666D01*
X135206604Y-61266666D02*
X135349461Y-61219047D01*
X135349461Y-61219047D02*
X135444700Y-61123809D01*
X135444700Y-61123809D02*
X135492319Y-60980952D01*
X135492319Y-60980952D02*
X135492319Y-60885714D01*
X134492319Y-61647619D02*
X134492319Y-62314285D01*
X134492319Y-62314285D02*
X135492319Y-61885714D01*
X150796751Y-114336668D02*
X150844370Y-114479525D01*
X150844370Y-114479525D02*
X150844370Y-114717620D01*
X150844370Y-114717620D02*
X150796751Y-114812858D01*
X150796751Y-114812858D02*
X150749131Y-114860477D01*
X150749131Y-114860477D02*
X150653893Y-114908096D01*
X150653893Y-114908096D02*
X150558655Y-114908096D01*
X150558655Y-114908096D02*
X150463417Y-114860477D01*
X150463417Y-114860477D02*
X150415798Y-114812858D01*
X150415798Y-114812858D02*
X150368179Y-114717620D01*
X150368179Y-114717620D02*
X150320560Y-114527144D01*
X150320560Y-114527144D02*
X150272941Y-114431906D01*
X150272941Y-114431906D02*
X150225322Y-114384287D01*
X150225322Y-114384287D02*
X150130084Y-114336668D01*
X150130084Y-114336668D02*
X150034846Y-114336668D01*
X150034846Y-114336668D02*
X149939608Y-114384287D01*
X149939608Y-114384287D02*
X149891989Y-114431906D01*
X149891989Y-114431906D02*
X149844370Y-114527144D01*
X149844370Y-114527144D02*
X149844370Y-114765239D01*
X149844370Y-114765239D02*
X149891989Y-114908096D01*
X149844370Y-115241430D02*
X150844370Y-115479525D01*
X150844370Y-115479525D02*
X150130084Y-115670001D01*
X150130084Y-115670001D02*
X150844370Y-115860477D01*
X150844370Y-115860477D02*
X149844370Y-116098573D01*
X150177703Y-116908096D02*
X150844370Y-116908096D01*
X149796751Y-116670001D02*
X150511036Y-116431906D01*
X150511036Y-116431906D02*
X150511036Y-117050953D01*
X149895655Y-142357266D02*
X149324227Y-142357266D01*
X149609941Y-143357266D02*
X149609941Y-142357266D01*
X148990893Y-143357266D02*
X148990893Y-142357266D01*
X148990893Y-142357266D02*
X148609941Y-142357266D01*
X148609941Y-142357266D02*
X148514703Y-142404885D01*
X148514703Y-142404885D02*
X148467084Y-142452504D01*
X148467084Y-142452504D02*
X148419465Y-142547742D01*
X148419465Y-142547742D02*
X148419465Y-142690599D01*
X148419465Y-142690599D02*
X148467084Y-142785837D01*
X148467084Y-142785837D02*
X148514703Y-142833456D01*
X148514703Y-142833456D02*
X148609941Y-142881075D01*
X148609941Y-142881075D02*
X148990893Y-142881075D01*
X147467084Y-143357266D02*
X148038512Y-143357266D01*
X147752798Y-143357266D02*
X147752798Y-142357266D01*
X147752798Y-142357266D02*
X147848036Y-142500123D01*
X147848036Y-142500123D02*
X147943274Y-142595361D01*
X147943274Y-142595361D02*
X148038512Y-142642980D01*
X147133750Y-142357266D02*
X146514703Y-142357266D01*
X146514703Y-142357266D02*
X146848036Y-142738218D01*
X146848036Y-142738218D02*
X146705179Y-142738218D01*
X146705179Y-142738218D02*
X146609941Y-142785837D01*
X146609941Y-142785837D02*
X146562322Y-142833456D01*
X146562322Y-142833456D02*
X146514703Y-142928694D01*
X146514703Y-142928694D02*
X146514703Y-143166789D01*
X146514703Y-143166789D02*
X146562322Y-143262027D01*
X146562322Y-143262027D02*
X146609941Y-143309647D01*
X146609941Y-143309647D02*
X146705179Y-143357266D01*
X146705179Y-143357266D02*
X146990893Y-143357266D01*
X146990893Y-143357266D02*
X147086131Y-143309647D01*
X147086131Y-143309647D02*
X147133750Y-143262027D01*
X122947203Y-101190476D02*
X122994822Y-101333333D01*
X122994822Y-101333333D02*
X122994822Y-101571428D01*
X122994822Y-101571428D02*
X122947203Y-101666666D01*
X122947203Y-101666666D02*
X122899583Y-101714285D01*
X122899583Y-101714285D02*
X122804345Y-101761904D01*
X122804345Y-101761904D02*
X122709107Y-101761904D01*
X122709107Y-101761904D02*
X122613869Y-101714285D01*
X122613869Y-101714285D02*
X122566250Y-101666666D01*
X122566250Y-101666666D02*
X122518631Y-101571428D01*
X122518631Y-101571428D02*
X122471012Y-101380952D01*
X122471012Y-101380952D02*
X122423393Y-101285714D01*
X122423393Y-101285714D02*
X122375774Y-101238095D01*
X122375774Y-101238095D02*
X122280536Y-101190476D01*
X122280536Y-101190476D02*
X122185298Y-101190476D01*
X122185298Y-101190476D02*
X122090060Y-101238095D01*
X122090060Y-101238095D02*
X122042441Y-101285714D01*
X122042441Y-101285714D02*
X121994822Y-101380952D01*
X121994822Y-101380952D02*
X121994822Y-101619047D01*
X121994822Y-101619047D02*
X122042441Y-101761904D01*
X121994822Y-102095238D02*
X122994822Y-102333333D01*
X122994822Y-102333333D02*
X122280536Y-102523809D01*
X122280536Y-102523809D02*
X122994822Y-102714285D01*
X122994822Y-102714285D02*
X121994822Y-102952381D01*
X122994822Y-103857142D02*
X122994822Y-103285714D01*
X122994822Y-103571428D02*
X121994822Y-103571428D01*
X121994822Y-103571428D02*
X122137679Y-103476190D01*
X122137679Y-103476190D02*
X122232917Y-103380952D01*
X122232917Y-103380952D02*
X122280536Y-103285714D01*
X121994822Y-104190476D02*
X121994822Y-104809523D01*
X121994822Y-104809523D02*
X122375774Y-104476190D01*
X122375774Y-104476190D02*
X122375774Y-104619047D01*
X122375774Y-104619047D02*
X122423393Y-104714285D01*
X122423393Y-104714285D02*
X122471012Y-104761904D01*
X122471012Y-104761904D02*
X122566250Y-104809523D01*
X122566250Y-104809523D02*
X122804345Y-104809523D01*
X122804345Y-104809523D02*
X122899583Y-104761904D01*
X122899583Y-104761904D02*
X122947203Y-104714285D01*
X122947203Y-104714285D02*
X122994822Y-104619047D01*
X122994822Y-104619047D02*
X122994822Y-104333333D01*
X122994822Y-104333333D02*
X122947203Y-104238095D01*
X122947203Y-104238095D02*
X122899583Y-104190476D01*
X132207597Y-129907489D02*
X132255216Y-130050346D01*
X132255216Y-130050346D02*
X132255216Y-130288441D01*
X132255216Y-130288441D02*
X132207597Y-130383679D01*
X132207597Y-130383679D02*
X132159977Y-130431298D01*
X132159977Y-130431298D02*
X132064739Y-130478917D01*
X132064739Y-130478917D02*
X131969501Y-130478917D01*
X131969501Y-130478917D02*
X131874263Y-130431298D01*
X131874263Y-130431298D02*
X131826644Y-130383679D01*
X131826644Y-130383679D02*
X131779025Y-130288441D01*
X131779025Y-130288441D02*
X131731406Y-130097965D01*
X131731406Y-130097965D02*
X131683787Y-130002727D01*
X131683787Y-130002727D02*
X131636168Y-129955108D01*
X131636168Y-129955108D02*
X131540930Y-129907489D01*
X131540930Y-129907489D02*
X131445692Y-129907489D01*
X131445692Y-129907489D02*
X131350454Y-129955108D01*
X131350454Y-129955108D02*
X131302835Y-130002727D01*
X131302835Y-130002727D02*
X131255216Y-130097965D01*
X131255216Y-130097965D02*
X131255216Y-130336060D01*
X131255216Y-130336060D02*
X131302835Y-130478917D01*
X131255216Y-130812251D02*
X132255216Y-131050346D01*
X132255216Y-131050346D02*
X131540930Y-131240822D01*
X131540930Y-131240822D02*
X132255216Y-131431298D01*
X132255216Y-131431298D02*
X131255216Y-131669394D01*
X132255216Y-132574155D02*
X132255216Y-132002727D01*
X132255216Y-132288441D02*
X131255216Y-132288441D01*
X131255216Y-132288441D02*
X131398073Y-132193203D01*
X131398073Y-132193203D02*
X131493311Y-132097965D01*
X131493311Y-132097965D02*
X131540930Y-132002727D01*
X131255216Y-133431298D02*
X131255216Y-133240822D01*
X131255216Y-133240822D02*
X131302835Y-133145584D01*
X131302835Y-133145584D02*
X131350454Y-133097965D01*
X131350454Y-133097965D02*
X131493311Y-133002727D01*
X131493311Y-133002727D02*
X131683787Y-132955108D01*
X131683787Y-132955108D02*
X132064739Y-132955108D01*
X132064739Y-132955108D02*
X132159977Y-133002727D01*
X132159977Y-133002727D02*
X132207597Y-133050346D01*
X132207597Y-133050346D02*
X132255216Y-133145584D01*
X132255216Y-133145584D02*
X132255216Y-133336060D01*
X132255216Y-133336060D02*
X132207597Y-133431298D01*
X132207597Y-133431298D02*
X132159977Y-133478917D01*
X132159977Y-133478917D02*
X132064739Y-133526536D01*
X132064739Y-133526536D02*
X131826644Y-133526536D01*
X131826644Y-133526536D02*
X131731406Y-133478917D01*
X131731406Y-133478917D02*
X131683787Y-133431298D01*
X131683787Y-133431298D02*
X131636168Y-133336060D01*
X131636168Y-133336060D02*
X131636168Y-133145584D01*
X131636168Y-133145584D02*
X131683787Y-133050346D01*
X131683787Y-133050346D02*
X131731406Y-133002727D01*
X131731406Y-133002727D02*
X131826644Y-132955108D01*
X136806751Y-131690477D02*
X136854370Y-131833334D01*
X136854370Y-131833334D02*
X136854370Y-132071429D01*
X136854370Y-132071429D02*
X136806751Y-132166667D01*
X136806751Y-132166667D02*
X136759131Y-132214286D01*
X136759131Y-132214286D02*
X136663893Y-132261905D01*
X136663893Y-132261905D02*
X136568655Y-132261905D01*
X136568655Y-132261905D02*
X136473417Y-132214286D01*
X136473417Y-132214286D02*
X136425798Y-132166667D01*
X136425798Y-132166667D02*
X136378179Y-132071429D01*
X136378179Y-132071429D02*
X136330560Y-131880953D01*
X136330560Y-131880953D02*
X136282941Y-131785715D01*
X136282941Y-131785715D02*
X136235322Y-131738096D01*
X136235322Y-131738096D02*
X136140084Y-131690477D01*
X136140084Y-131690477D02*
X136044846Y-131690477D01*
X136044846Y-131690477D02*
X135949608Y-131738096D01*
X135949608Y-131738096D02*
X135901989Y-131785715D01*
X135901989Y-131785715D02*
X135854370Y-131880953D01*
X135854370Y-131880953D02*
X135854370Y-132119048D01*
X135854370Y-132119048D02*
X135901989Y-132261905D01*
X135854370Y-132595239D02*
X136854370Y-132833334D01*
X136854370Y-132833334D02*
X136140084Y-133023810D01*
X136140084Y-133023810D02*
X136854370Y-133214286D01*
X136854370Y-133214286D02*
X135854370Y-133452382D01*
X136854370Y-134357143D02*
X136854370Y-133785715D01*
X136854370Y-134071429D02*
X135854370Y-134071429D01*
X135854370Y-134071429D02*
X135997227Y-133976191D01*
X135997227Y-133976191D02*
X136092465Y-133880953D01*
X136092465Y-133880953D02*
X136140084Y-133785715D01*
X136854370Y-135309524D02*
X136854370Y-134738096D01*
X136854370Y-135023810D02*
X135854370Y-135023810D01*
X135854370Y-135023810D02*
X135997227Y-134928572D01*
X135997227Y-134928572D02*
X136092465Y-134833334D01*
X136092465Y-134833334D02*
X136140084Y-134738096D01*
D11*
%TO.C,TP6*%
X147880000Y-147480000D02*
G75*
G02*
X145480000Y-147480000I-1200000J0D01*
G01*
X145480000Y-147480000D02*
G75*
G02*
X147880000Y-147480000I1200000J0D01*
G01*
%TO.C,TP8*%
X150420000Y-147570000D02*
G75*
G02*
X148020000Y-147570000I-1200000J0D01*
G01*
X148020000Y-147570000D02*
G75*
G02*
X150420000Y-147570000I1200000J0D01*
G01*
%TO.C,TP10*%
X144210000Y-145370000D02*
G75*
G02*
X141810000Y-145370000I-1200000J0D01*
G01*
X141810000Y-145370000D02*
G75*
G02*
X144210000Y-145370000I1200000J0D01*
G01*
%TO.C,TP11*%
X146690000Y-145300000D02*
G75*
G02*
X144290000Y-145300000I-1200000J0D01*
G01*
X144290000Y-145300000D02*
G75*
G02*
X146690000Y-145300000I1200000J0D01*
G01*
%TO.C,TP9*%
X142990000Y-147420000D02*
G75*
G02*
X140590000Y-147420000I-1200000J0D01*
G01*
X140590000Y-147420000D02*
G75*
G02*
X142990000Y-147420000I1200000J0D01*
G01*
%TO.C,TP13*%
X151750000Y-145300000D02*
G75*
G02*
X149350000Y-145300000I-1200000J0D01*
G01*
X149350000Y-145300000D02*
G75*
G02*
X151750000Y-145300000I1200000J0D01*
G01*
%TO.C,TP7*%
X149190000Y-145330000D02*
G75*
G02*
X146790000Y-145330000I-1200000J0D01*
G01*
X146790000Y-145330000D02*
G75*
G02*
X149190000Y-145330000I1200000J0D01*
G01*
%TO.C,TP12*%
X145450000Y-147510000D02*
G75*
G02*
X143050000Y-147510000I-1200000J0D01*
G01*
X143050000Y-147510000D02*
G75*
G02*
X145450000Y-147510000I1200000J0D01*
G01*
%TD*%
D12*
X154800000Y-146000000D03*
X127000000Y-146000000D03*
X157650000Y-47910000D03*
X134570000Y-64000000D03*
X159500000Y-126200000D03*
X122000000Y-126230000D03*
D13*
X150800000Y-73510000D03*
X150800000Y-74710000D03*
X150800000Y-75910000D03*
X150800000Y-77110000D03*
X152000000Y-73510000D03*
X152000000Y-74710000D03*
X152000000Y-75910000D03*
X152000000Y-77110000D03*
X153200000Y-73510000D03*
X153200000Y-74710000D03*
X153200000Y-75910000D03*
X153200000Y-77110000D03*
X154400000Y-73510000D03*
X154400000Y-74710000D03*
X154400000Y-75910000D03*
X154400000Y-77110000D03*
D12*
X123750000Y-47910000D03*
M02*
