%TF.GenerationSoftware,KiCad,Pcbnew,9.0.8+dfsg-1*%
%TF.CreationDate,2026-09-29T16:27:19+02:00*%
%TF.ProjectId,Mesh3310,4d657368-3333-4313-902e-6b696361645f,A*%
%TF.SameCoordinates,Original*%
%TF.FileFunction,Profile,NP*%
%FSLAX46Y46*%
G04 Gerber Fmt 4.6, Leading zero omitted, Abs format (unit mm)*
G04 Created by KiCad (PCBNEW 9.0.8+dfsg-1) date 2026-09-29 16:27:19*
%MOMM*%
%LPD*%
G01*
G04 APERTURE LIST*
%TA.AperFunction,Profile*%
%ADD10C,0.250000*%
%TD*%
%TA.AperFunction,Profile*%
%ADD11C,0.050000*%
%TD*%
%TA.AperFunction,Profile*%
%ADD12C,0.120000*%
%TD*%
%ADD13C,0.350000*%
%ADD14C,0.305000*%
G04 APERTURE END LIST*
D10*
X120000000Y-55600000D02*
X120600000Y-51900000D01*
X120000000Y-124000000D02*
X120000000Y-55600000D01*
X120000000Y-124000000D02*
X122240048Y-140418208D01*
X120600000Y-51900000D02*
X122300000Y-45700000D01*
X122240048Y-140418208D02*
G75*
G02*
X123529848Y-141379217I-39748J-1399392D01*
G01*
X122300000Y-45700000D02*
X125400000Y-45700000D01*
D11*
X124100000Y-132800000D02*
G75*
G02*
X122300000Y-132800000I-900000J0D01*
G01*
X122300000Y-132800000D02*
G75*
G02*
X124100000Y-132800000I900000J0D01*
G01*
D10*
X123529841Y-141379219D02*
X124243158Y-147058832D01*
X126300000Y-42000000D02*
X126300000Y-44800000D01*
X126300000Y-42000000D02*
X145800000Y-42000000D01*
X126300000Y-44800000D02*
G75*
G02*
X125400000Y-45700000I-995400J95400D01*
G01*
D11*
X127700000Y-43600000D02*
X127700000Y-44600000D01*
X127700000Y-43600000D02*
G75*
G02*
X129500000Y-43600000I900000J0D01*
G01*
D10*
X128000000Y-150000000D02*
G75*
G02*
X124243133Y-147058838I-55100J3799600D01*
G01*
X128000000Y-150000000D02*
X154000000Y-150000000D01*
D11*
X129500000Y-44600000D02*
G75*
G02*
X127700000Y-44600000I-900000J0D01*
G01*
X129500000Y-44600000D02*
X129500000Y-43600000D01*
X137400000Y-145800000D02*
X137400000Y-148300000D01*
X137400000Y-145800000D02*
G75*
G02*
X139600000Y-145800000I1100000J0D01*
G01*
X139600000Y-148300000D02*
G75*
G02*
X137400000Y-148300000I-1100000J0D01*
G01*
X139600000Y-148300000D02*
X139600000Y-145800000D01*
D10*
X146500000Y-42700000D02*
G75*
G02*
X145800000Y-42000000I0J700000D01*
G01*
X150900000Y-42700000D02*
X146500000Y-42700000D01*
X151600000Y-42000000D02*
G75*
G02*
X150900000Y-42700000I-700000J0D01*
G01*
X151600000Y-42000000D02*
X155000000Y-42000000D01*
X155000000Y-42000000D02*
X155000000Y-44800000D01*
X156000000Y-45700000D02*
G75*
G02*
X155000000Y-44800000I-5000J1000000D01*
G01*
X156000000Y-45700000D02*
X159000000Y-45700000D01*
X157402612Y-147068970D02*
G75*
G02*
X153999996Y-149999951I-3702112J857270D01*
G01*
X158145089Y-141353467D02*
X157402612Y-147068970D01*
X158145089Y-141353467D02*
G75*
G02*
X159399998Y-140400024I1174911J-243833D01*
G01*
X159000000Y-45700000D02*
X160800000Y-52000000D01*
X160800000Y-52000000D02*
X161400000Y-55800000D01*
X161400000Y-55800000D02*
X161400000Y-124000000D01*
X161400000Y-124000000D02*
X159400000Y-140400000D01*
D12*
%TO.C,D9*%
X157400000Y-98100000D02*
G75*
G02*
X155000000Y-98100000I-1200000J0D01*
G01*
X155000000Y-98100000D02*
G75*
G02*
X157400000Y-98100000I1200000J0D01*
G01*
%TO.C,D6*%
X137600000Y-98100000D02*
G75*
G02*
X135200000Y-98100000I-1200000J0D01*
G01*
X135200000Y-98100000D02*
G75*
G02*
X137600000Y-98100000I1200000J0D01*
G01*
%TO.C,D11*%
X149700000Y-124000000D02*
G75*
G02*
X147300000Y-124000000I-1200000J0D01*
G01*
X147300000Y-124000000D02*
G75*
G02*
X149700000Y-124000000I1200000J0D01*
G01*
%TO.C,D13*%
X149700000Y-137000000D02*
G75*
G02*
X147300000Y-137000000I-1200000J0D01*
G01*
X147300000Y-137000000D02*
G75*
G02*
X149700000Y-137000000I1200000J0D01*
G01*
%TO.C,D5*%
X126300000Y-98100000D02*
G75*
G02*
X123900000Y-98100000I-1200000J0D01*
G01*
X123900000Y-98100000D02*
G75*
G02*
X126300000Y-98100000I1200000J0D01*
G01*
%TO.C,D10*%
X134000000Y-124000000D02*
G75*
G02*
X131600000Y-124000000I-1200000J0D01*
G01*
X131600000Y-124000000D02*
G75*
G02*
X134000000Y-124000000I1200000J0D01*
G01*
%TO.C,D7*%
X146200000Y-98100000D02*
G75*
G02*
X143800000Y-98100000I-1200000J0D01*
G01*
X143800000Y-98100000D02*
G75*
G02*
X146200000Y-98100000I1200000J0D01*
G01*
%TO.C,D12*%
X134000000Y-137000000D02*
G75*
G02*
X131600000Y-137000000I-1200000J0D01*
G01*
X131600000Y-137000000D02*
G75*
G02*
X134000000Y-137000000I1200000J0D01*
G01*
%TD*%
D13*
X154800000Y-146000000D03*
X127000000Y-146000000D03*
X157650000Y-47910000D03*
X134570000Y-64000000D03*
X159500000Y-126200000D03*
X122000000Y-126230000D03*
D14*
X150800000Y-73510000D03*
X150800000Y-74710000D03*
X150800000Y-75910000D03*
X150800000Y-77110000D03*
X152000000Y-73510000D03*
X152000000Y-74710000D03*
X152000000Y-75910000D03*
X152000000Y-77110000D03*
X153200000Y-73510000D03*
X153200000Y-74710000D03*
X153200000Y-75910000D03*
X153200000Y-77110000D03*
X154400000Y-73510000D03*
X154400000Y-74710000D03*
X154400000Y-75910000D03*
X154400000Y-77110000D03*
D13*
X123750000Y-47910000D03*
M02*
