%TF.GenerationSoftware,KiCad,Pcbnew,9.0.8+dfsg-1*%
%TF.CreationDate,2026-09-29T16:27:19+02:00*%
%TF.ProjectId,Mesh3310,4d657368-3333-4313-902e-6b696361645f,A*%
%TF.SameCoordinates,Original*%
%TF.FileFunction,Soldermask,Top*%
%TF.FilePolarity,Negative*%
%FSLAX46Y46*%
G04 Gerber Fmt 4.6, Leading zero omitted, Abs format (unit mm)*
G04 Created by KiCad (PCBNEW 9.0.8+dfsg-1) date 2026-09-29 16:27:19*
%MOMM*%
%LPD*%
G01*
G04 APERTURE LIST*
G04 Aperture macros list*
%AMRoundRect*
0 Rectangle with rounded corners*
0 $1 Rounding radius*
0 $2 $3 $4 $5 $6 $7 $8 $9 X,Y pos of 4 corners*
0 Add a 4 corners polygon primitive as box body*
4,1,4,$2,$3,$4,$5,$6,$7,$8,$9,$2,$3,0*
0 Add four circle primitives for the rounded corners*
1,1,$1+$1,$2,$3*
1,1,$1+$1,$4,$5*
1,1,$1+$1,$6,$7*
1,1,$1+$1,$8,$9*
0 Add four rect primitives between the rounded corners*
20,1,$1+$1,$2,$3,$4,$5,0*
20,1,$1+$1,$4,$5,$6,$7,0*
20,1,$1+$1,$6,$7,$8,$9,0*
20,1,$1+$1,$8,$9,$2,$3,0*%
%AMFreePoly0*
4,1,12,0.742426,0.642426,0.760000,0.600000,0.760000,-1.800000,0.742426,-1.842426,0.700000,-1.860000,0.657574,-1.842426,-1.742426,0.557574,-1.760000,0.600000,-1.742426,0.642426,-1.700000,0.660000,0.700000,0.660000,0.742426,0.642426,0.742426,0.642426,$1*%
G04 Aperture macros list end*
%ADD10C,0.010000*%
%ADD11C,0.000000*%
%ADD12RoundRect,0.100000X0.130000X0.100000X-0.130000X0.100000X-0.130000X-0.100000X0.130000X-0.100000X0*%
%ADD13RoundRect,0.100000X-0.100000X0.130000X-0.100000X-0.130000X0.100000X-0.130000X0.100000X0.130000X0*%
%ADD14RoundRect,0.100000X0.100000X-0.130000X0.100000X0.130000X-0.100000X0.130000X-0.100000X-0.130000X0*%
%ADD15RoundRect,0.112500X0.187500X0.112500X-0.187500X0.112500X-0.187500X-0.112500X0.187500X-0.112500X0*%
%ADD16RoundRect,0.100000X-0.130000X-0.100000X0.130000X-0.100000X0.130000X0.100000X-0.130000X0.100000X0*%
%ADD17R,1.250000X1.080000*%
%ADD18RoundRect,0.140000X-0.140000X-0.170000X0.140000X-0.170000X0.140000X0.170000X-0.140000X0.170000X0*%
%ADD19RoundRect,0.140000X0.170000X-0.140000X0.170000X0.140000X-0.170000X0.140000X-0.170000X-0.140000X0*%
%ADD20C,2.600000*%
%ADD21R,0.900000X0.800000*%
%ADD22R,1.800000X1.000000*%
%ADD23RoundRect,0.062500X-0.387500X-0.062500X0.387500X-0.062500X0.387500X0.062500X-0.387500X0.062500X0*%
%ADD24R,0.200000X1.600000*%
%ADD25RoundRect,0.150000X-0.512500X-0.150000X0.512500X-0.150000X0.512500X0.150000X-0.512500X0.150000X0*%
%ADD26RoundRect,0.225000X0.250000X-0.225000X0.250000X0.225000X-0.250000X0.225000X-0.250000X-0.225000X0*%
%ADD27RoundRect,0.225000X-0.250000X0.225000X-0.250000X-0.225000X0.250000X-0.225000X0.250000X0.225000X0*%
%ADD28RoundRect,0.112500X-0.187500X-0.112500X0.187500X-0.112500X0.187500X0.112500X-0.187500X0.112500X0*%
%ADD29RoundRect,0.218750X-0.218750X-0.256250X0.218750X-0.256250X0.218750X0.256250X-0.218750X0.256250X0*%
%ADD30RoundRect,0.150000X-0.150000X0.587500X-0.150000X-0.587500X0.150000X-0.587500X0.150000X0.587500X0*%
%ADD31R,4.700000X3.000000*%
%ADD32RoundRect,0.300000X0.700000X-1.200000X0.700000X1.200000X-0.700000X1.200000X-0.700000X-1.200000X0*%
%ADD33RoundRect,0.315000X0.735000X-1.585000X0.735000X1.585000X-0.735000X1.585000X-0.735000X-1.585000X0*%
%ADD34RoundRect,0.330000X0.770000X-0.920000X0.770000X0.920000X-0.770000X0.920000X-0.770000X-0.920000X0*%
%ADD35RoundRect,0.300000X0.700000X-1.100000X0.700000X1.100000X-0.700000X1.100000X-0.700000X-1.100000X0*%
%ADD36RoundRect,0.140000X-0.170000X0.140000X-0.170000X-0.140000X0.170000X-0.140000X0.170000X0.140000X0*%
%ADD37RoundRect,0.102000X-0.220000X0.520000X-0.220000X-0.520000X0.220000X-0.520000X0.220000X0.520000X0*%
%ADD38RoundRect,0.102000X-2.000000X1.700000X-2.000000X-1.700000X2.000000X-1.700000X2.000000X1.700000X0*%
%ADD39R,1.050000X1.000000*%
%ADD40R,2.200000X1.050000*%
%ADD41RoundRect,0.250000X-0.250000X-0.475000X0.250000X-0.475000X0.250000X0.475000X-0.250000X0.475000X0*%
%ADD42RoundRect,0.062500X-0.062500X0.350000X-0.062500X-0.350000X0.062500X-0.350000X0.062500X0.350000X0*%
%ADD43R,2.000000X1.200000*%
%ADD44RoundRect,0.250000X-0.375000X-1.075000X0.375000X-1.075000X0.375000X1.075000X-0.375000X1.075000X0*%
%ADD45RoundRect,0.250000X0.525000X0.250000X-0.525000X0.250000X-0.525000X-0.250000X0.525000X-0.250000X0*%
%ADD46FreePoly0,0.000000*%
%ADD47R,4.100000X1.700000*%
%ADD48R,2.450000X2.850000*%
%ADD49RoundRect,0.150000X0.587500X0.150000X-0.587500X0.150000X-0.587500X-0.150000X0.587500X-0.150000X0*%
%ADD50RoundRect,0.062500X0.350000X0.062500X-0.350000X0.062500X-0.350000X-0.062500X0.350000X-0.062500X0*%
%ADD51RoundRect,0.062500X0.062500X0.350000X-0.062500X0.350000X-0.062500X-0.350000X0.062500X-0.350000X0*%
%ADD52R,1.230000X1.230000*%
%ADD53RoundRect,0.225000X-0.225000X-0.250000X0.225000X-0.250000X0.225000X0.250000X-0.225000X0.250000X0*%
%ADD54RoundRect,0.112500X0.112500X-0.187500X0.112500X0.187500X-0.112500X0.187500X-0.112500X-0.187500X0*%
%ADD55R,1.000000X1.050000*%
%ADD56R,1.050000X2.200000*%
%ADD57RoundRect,0.218750X0.256250X-0.218750X0.256250X0.218750X-0.256250X0.218750X-0.256250X-0.218750X0*%
%ADD58R,1.950000X7.700000*%
%ADD59RoundRect,0.102000X-0.255000X0.355000X-0.255000X-0.355000X0.255000X-0.355000X0.255000X0.355000X0*%
%ADD60RoundRect,0.102000X-1.850000X1.800000X-1.850000X-1.800000X1.850000X-1.800000X1.850000X1.800000X0*%
%ADD61RoundRect,0.062500X0.062500X-0.375000X0.062500X0.375000X-0.062500X0.375000X-0.062500X-0.375000X0*%
%ADD62RoundRect,0.062500X0.375000X-0.062500X0.375000X0.062500X-0.375000X0.062500X-0.375000X-0.062500X0*%
%ADD63R,1.600000X1.600000*%
%ADD64R,0.900000X0.350000*%
%ADD65RoundRect,0.150000X-0.587500X-0.150000X0.587500X-0.150000X0.587500X0.150000X-0.587500X0.150000X0*%
%ADD66RoundRect,0.250000X0.275000X0.250000X-0.275000X0.250000X-0.275000X-0.250000X0.275000X-0.250000X0*%
%ADD67RoundRect,0.250000X0.850000X0.275000X-0.850000X0.275000X-0.850000X-0.275000X0.850000X-0.275000X0*%
%ADD68R,1.500000X3.000000*%
%ADD69O,1.500000X3.000000*%
%ADD70RoundRect,0.093750X-0.093750X0.156250X-0.093750X-0.156250X0.093750X-0.156250X0.093750X0.156250X0*%
%ADD71RoundRect,0.075000X-0.075000X0.250000X-0.075000X-0.250000X0.075000X-0.250000X0.075000X0.250000X0*%
%ADD72RoundRect,0.085000X-2.425000X-2.425000X2.425000X-2.425000X2.425000X2.425000X-2.425000X2.425000X0*%
%ADD73C,0.479000*%
%ADD74R,0.600000X1.500000*%
%ADD75R,2.500000X3.500000*%
%ADD76R,0.280000X0.660000*%
%ADD77R,0.660000X0.280000*%
%ADD78R,2.550000X2.550000*%
%ADD79RoundRect,0.250000X0.250000X-0.275000X0.250000X0.275000X-0.250000X0.275000X-0.250000X-0.275000X0*%
%ADD80RoundRect,0.250000X0.275000X-0.850000X0.275000X0.850000X-0.275000X0.850000X-0.275000X-0.850000X0*%
%ADD81RoundRect,0.102000X1.000000X-0.625000X1.000000X0.625000X-1.000000X0.625000X-1.000000X-0.625000X0*%
%ADD82C,0.350000*%
%ADD83C,0.305000*%
G04 APERTURE END LIST*
D10*
%TO.C,U8*%
X131548000Y-59511000D02*
X131174000Y-59511000D01*
X131174000Y-58849000D01*
X131548000Y-58849000D01*
X131548000Y-59511000D01*
G36*
X131548000Y-59511000D02*
G01*
X131174000Y-59511000D01*
X131174000Y-58849000D01*
X131548000Y-58849000D01*
X131548000Y-59511000D01*
G37*
X131548000Y-61551000D02*
X131174000Y-61551000D01*
X131174000Y-60889000D01*
X131548000Y-60889000D01*
X131548000Y-61551000D01*
G36*
X131548000Y-61551000D02*
G01*
X131174000Y-61551000D01*
X131174000Y-60889000D01*
X131548000Y-60889000D01*
X131548000Y-61551000D01*
G37*
X132088000Y-59511000D02*
X131714000Y-59511000D01*
X131714000Y-58849000D01*
X132088000Y-58849000D01*
X132088000Y-59511000D01*
G36*
X132088000Y-59511000D02*
G01*
X131714000Y-59511000D01*
X131714000Y-58849000D01*
X132088000Y-58849000D01*
X132088000Y-59511000D01*
G37*
X132088000Y-61551000D02*
X131714000Y-61551000D01*
X131714000Y-60889000D01*
X132088000Y-60889000D01*
X132088000Y-61551000D01*
G36*
X132088000Y-61551000D02*
G01*
X131714000Y-61551000D01*
X131714000Y-60889000D01*
X132088000Y-60889000D01*
X132088000Y-61551000D01*
G37*
X132600000Y-60741000D02*
X131200000Y-60741000D01*
X131200000Y-59660000D01*
X132600000Y-59660000D01*
X132600000Y-60741000D01*
G36*
X132600000Y-60741000D02*
G01*
X131200000Y-60741000D01*
X131200000Y-59660000D01*
X132600000Y-59660000D01*
X132600000Y-60741000D01*
G37*
X132628000Y-59511000D02*
X132254000Y-59511000D01*
X132254000Y-58849000D01*
X132628000Y-58849000D01*
X132628000Y-59511000D01*
G36*
X132628000Y-59511000D02*
G01*
X132254000Y-59511000D01*
X132254000Y-58849000D01*
X132628000Y-58849000D01*
X132628000Y-59511000D01*
G37*
X132628000Y-61551000D02*
X132254000Y-61551000D01*
X132254000Y-60889000D01*
X132628000Y-60889000D01*
X132628000Y-61551000D01*
G36*
X132628000Y-61551000D02*
G01*
X132254000Y-61551000D01*
X132254000Y-60889000D01*
X132628000Y-60889000D01*
X132628000Y-61551000D01*
G37*
%TO.C,J11*%
G36*
X129115000Y-61340000D02*
G01*
X127025000Y-61340000D01*
X127025000Y-59460000D01*
X129115000Y-59460000D01*
X129115000Y-61340000D01*
G37*
%TO.C,U12*%
X122429999Y-66470000D02*
X121879998Y-66470000D01*
X121879999Y-66070000D01*
X122429999Y-66070000D01*
X122429999Y-66470000D01*
G36*
X122429999Y-66470000D02*
G01*
X121879998Y-66470000D01*
X121879999Y-66070000D01*
X122429999Y-66070000D01*
X122429999Y-66470000D01*
G37*
X122429999Y-67970000D02*
X121879998Y-67970000D01*
X121879999Y-67570000D01*
X122429999Y-67569999D01*
X122429999Y-67970000D01*
G36*
X122429999Y-67970000D02*
G01*
X121879998Y-67970000D01*
X121879999Y-67570000D01*
X122429999Y-67569999D01*
X122429999Y-67970000D01*
G37*
X122429999Y-70470000D02*
X121879998Y-70470000D01*
X121879999Y-70070000D01*
X122429999Y-70070000D01*
X122429999Y-70470000D01*
G36*
X122429999Y-70470000D02*
G01*
X121879998Y-70470000D01*
X121879999Y-70070000D01*
X122429999Y-70070000D01*
X122429999Y-70470000D01*
G37*
X122429999Y-72970000D02*
X121879998Y-72970000D01*
X121879999Y-72570000D01*
X122429999Y-72570000D01*
X122429999Y-72970000D01*
G36*
X122429999Y-72970000D02*
G01*
X121879998Y-72970000D01*
X121879999Y-72570000D01*
X122429999Y-72570000D01*
X122429999Y-72970000D01*
G37*
X122679999Y-64920000D02*
X121879999Y-64920000D01*
X121879998Y-64120000D01*
X122679999Y-64120000D01*
X122679999Y-64920000D01*
G36*
X122679999Y-64920000D02*
G01*
X121879999Y-64920000D01*
X121879998Y-64120000D01*
X122679999Y-64120000D01*
X122679999Y-64920000D01*
G37*
X122429999Y-65470000D02*
X121879999Y-65470001D01*
X121879999Y-65070000D01*
X122430000Y-65070000D01*
X122429999Y-65470000D01*
G36*
X122429999Y-65470000D02*
G01*
X121879999Y-65470001D01*
X121879999Y-65070000D01*
X122430000Y-65070000D01*
X122429999Y-65470000D01*
G37*
X122430000Y-65970000D02*
X121879999Y-65970000D01*
X121879999Y-65570000D01*
X122429999Y-65570000D01*
X122430000Y-65970000D01*
G36*
X122430000Y-65970000D02*
G01*
X121879999Y-65970000D01*
X121879999Y-65570000D01*
X122429999Y-65570000D01*
X122430000Y-65970000D01*
G37*
X122429999Y-66970000D02*
X121879999Y-66970000D01*
X121879999Y-66570000D01*
X122430000Y-66570000D01*
X122429999Y-66970000D01*
G36*
X122429999Y-66970000D02*
G01*
X121879999Y-66970000D01*
X121879999Y-66570000D01*
X122430000Y-66570000D01*
X122429999Y-66970000D01*
G37*
X122429999Y-67470000D02*
X121879999Y-67470000D01*
X121879998Y-67070000D01*
X122429999Y-67070000D01*
X122429999Y-67470000D01*
G36*
X122429999Y-67470000D02*
G01*
X121879999Y-67470000D01*
X121879998Y-67070000D01*
X122429999Y-67070000D01*
X122429999Y-67470000D01*
G37*
X122430000Y-68470000D02*
X121879999Y-68470000D01*
X121879999Y-68070000D01*
X122429999Y-68070000D01*
X122430000Y-68470000D01*
G36*
X122430000Y-68470000D02*
G01*
X121879999Y-68470000D01*
X121879999Y-68070000D01*
X122429999Y-68070000D01*
X122430000Y-68470000D01*
G37*
X122429999Y-68970000D02*
X121879999Y-68969999D01*
X121879999Y-68570000D01*
X122429999Y-68570000D01*
X122429999Y-68970000D01*
G36*
X122429999Y-68970000D02*
G01*
X121879999Y-68969999D01*
X121879999Y-68570000D01*
X122429999Y-68570000D01*
X122429999Y-68970000D01*
G37*
X122429999Y-69470000D02*
X121879999Y-69470000D01*
X121879999Y-69070000D01*
X122430000Y-69070000D01*
X122429999Y-69470000D01*
G36*
X122429999Y-69470000D02*
G01*
X121879999Y-69470000D01*
X121879999Y-69070000D01*
X122430000Y-69070000D01*
X122429999Y-69470000D01*
G37*
X122429999Y-69970000D02*
X121879999Y-69970000D01*
X121879998Y-69570000D01*
X122429999Y-69570000D01*
X122429999Y-69970000D01*
G36*
X122429999Y-69970000D02*
G01*
X121879999Y-69970000D01*
X121879998Y-69570000D01*
X122429999Y-69570000D01*
X122429999Y-69970000D01*
G37*
X122430000Y-70970000D02*
X121879999Y-70970000D01*
X121879999Y-70570000D01*
X122429999Y-70570000D01*
X122430000Y-70970000D01*
G36*
X122430000Y-70970000D02*
G01*
X121879999Y-70970000D01*
X121879999Y-70570000D01*
X122429999Y-70570000D01*
X122430000Y-70970000D01*
G37*
X122429999Y-71470000D02*
X121879999Y-71470000D01*
X121879999Y-71070001D01*
X122429999Y-71070000D01*
X122429999Y-71470000D01*
G36*
X122429999Y-71470000D02*
G01*
X121879999Y-71470000D01*
X121879999Y-71070001D01*
X122429999Y-71070000D01*
X122429999Y-71470000D01*
G37*
X122429999Y-71970000D02*
X121879999Y-71970000D01*
X121879999Y-71570000D01*
X122430000Y-71570000D01*
X122429999Y-71970000D01*
G36*
X122429999Y-71970000D02*
G01*
X121879999Y-71970000D01*
X121879999Y-71570000D01*
X122430000Y-71570000D01*
X122429999Y-71970000D01*
G37*
X122429999Y-72470001D02*
X121879999Y-72470000D01*
X121879998Y-72070000D01*
X122429999Y-72070000D01*
X122429999Y-72470001D01*
G36*
X122429999Y-72470001D02*
G01*
X121879999Y-72470000D01*
X121879998Y-72070000D01*
X122429999Y-72070000D01*
X122429999Y-72470001D01*
G37*
X122430000Y-73470000D02*
X121879999Y-73470000D01*
X121879999Y-73070000D01*
X122429999Y-73070000D01*
X122430000Y-73470000D01*
G36*
X122430000Y-73470000D02*
G01*
X121879999Y-73470000D01*
X121879999Y-73070000D01*
X122429999Y-73070000D01*
X122430000Y-73470000D01*
G37*
X122429999Y-73970000D02*
X121879999Y-73970000D01*
X121879998Y-73570000D01*
X122429999Y-73570000D01*
X122429999Y-73970000D01*
G36*
X122429999Y-73970000D02*
G01*
X121879999Y-73970000D01*
X121879998Y-73570000D01*
X122429999Y-73570000D01*
X122429999Y-73970000D01*
G37*
X122429999Y-74470000D02*
X121879999Y-74470000D01*
X121879999Y-74070000D01*
X122430000Y-74070000D01*
X122429999Y-74470000D01*
G36*
X122429999Y-74470000D02*
G01*
X121879999Y-74470000D01*
X121879999Y-74070000D01*
X122430000Y-74070000D01*
X122429999Y-74470000D01*
G37*
X122429999Y-74570000D02*
X122430000Y-74970000D01*
X121879999Y-74970000D01*
X121879999Y-74569999D01*
X122429999Y-74570000D01*
G36*
X122429999Y-74570000D02*
G01*
X122430000Y-74970000D01*
X121879999Y-74970000D01*
X121879999Y-74569999D01*
X122429999Y-74570000D01*
G37*
X124729999Y-70870000D02*
X122679999Y-70870000D01*
X122679999Y-69170000D01*
X124729999Y-69170000D01*
X124729999Y-70870000D01*
G36*
X124729999Y-70870000D02*
G01*
X122679999Y-70870000D01*
X122679999Y-69170000D01*
X124729999Y-69170000D01*
X124729999Y-70870000D01*
G37*
X123229999Y-64670000D02*
X122829999Y-64670000D01*
X122829999Y-64120000D01*
X123230000Y-64120000D01*
X123229999Y-64670000D01*
G36*
X123229999Y-64670000D02*
G01*
X122829999Y-64670000D01*
X122829999Y-64120000D01*
X123230000Y-64120000D01*
X123229999Y-64670000D01*
G37*
X123230000Y-75920000D02*
X122829999Y-75920000D01*
X122829999Y-75370000D01*
X123229999Y-75370000D01*
X123230000Y-75920000D01*
G36*
X123230000Y-75920000D02*
G01*
X122829999Y-75920000D01*
X122829999Y-75370000D01*
X123229999Y-75370000D01*
X123230000Y-75920000D01*
G37*
X123729999Y-64670000D02*
X123329999Y-64670000D01*
X123329999Y-64120000D01*
X123729999Y-64120000D01*
X123729999Y-64670000D01*
G36*
X123729999Y-64670000D02*
G01*
X123329999Y-64670000D01*
X123329999Y-64120000D01*
X123729999Y-64120000D01*
X123729999Y-64670000D01*
G37*
X123729999Y-75920000D02*
X123329999Y-75920000D01*
X123329999Y-75370000D01*
X123729999Y-75370000D01*
X123729999Y-75920000D01*
G36*
X123729999Y-75920000D02*
G01*
X123329999Y-75920000D01*
X123329999Y-75370000D01*
X123729999Y-75370000D01*
X123729999Y-75920000D01*
G37*
X125279999Y-68020000D02*
X123579998Y-68020000D01*
X123579999Y-66320000D01*
X125279999Y-66319999D01*
X125279999Y-68020000D01*
G36*
X125279999Y-68020000D02*
G01*
X123579998Y-68020000D01*
X123579999Y-66320000D01*
X125279999Y-66319999D01*
X125279999Y-68020000D01*
G37*
X125279999Y-73720001D02*
X123579999Y-73720000D01*
X123579998Y-72020000D01*
X125279999Y-72020000D01*
X125279999Y-73720001D01*
G36*
X125279999Y-73720001D02*
G01*
X123579999Y-73720000D01*
X123579998Y-72020000D01*
X125279999Y-72020000D01*
X125279999Y-73720001D01*
G37*
X124079999Y-66120000D02*
X123679999Y-66120000D01*
X123679999Y-65720000D01*
X124079999Y-65720000D01*
X124079999Y-66120000D01*
G36*
X124079999Y-66120000D02*
G01*
X123679999Y-66120000D01*
X123679999Y-65720000D01*
X124079999Y-65720000D01*
X124079999Y-66120000D01*
G37*
X124079999Y-74320000D02*
X123679999Y-74320000D01*
X123679999Y-73920000D01*
X124079999Y-73920000D01*
X124079999Y-74320000D01*
G36*
X124079999Y-74320000D02*
G01*
X123679999Y-74320000D01*
X123679999Y-73920000D01*
X124079999Y-73920000D01*
X124079999Y-74320000D01*
G37*
X124229999Y-64670000D02*
X123829999Y-64670000D01*
X123830000Y-64120000D01*
X124229999Y-64120000D01*
X124229999Y-64670000D01*
G36*
X124229999Y-64670000D02*
G01*
X123829999Y-64670000D01*
X123830000Y-64120000D01*
X124229999Y-64120000D01*
X124229999Y-64670000D01*
G37*
X124229999Y-75920000D02*
X123830000Y-75920000D01*
X123829999Y-75370000D01*
X124229999Y-75370000D01*
X124229999Y-75920000D01*
G36*
X124229999Y-75920000D02*
G01*
X123830000Y-75920000D01*
X123829999Y-75370000D01*
X124229999Y-75370000D01*
X124229999Y-75920000D01*
G37*
X124629999Y-66120001D02*
X124229999Y-66120000D01*
X124229999Y-65720000D01*
X124629999Y-65720000D01*
X124629999Y-66120001D01*
G36*
X124629999Y-66120001D02*
G01*
X124229999Y-66120000D01*
X124229999Y-65720000D01*
X124629999Y-65720000D01*
X124629999Y-66120001D01*
G37*
X124629999Y-74320000D02*
X124229999Y-74320000D01*
X124229999Y-73920000D01*
X124629999Y-73919999D01*
X124629999Y-74320000D01*
G36*
X124629999Y-74320000D02*
G01*
X124229999Y-74320000D01*
X124229999Y-73920000D01*
X124629999Y-73919999D01*
X124629999Y-74320000D01*
G37*
X124729999Y-64670000D02*
X124329999Y-64670000D01*
X124329999Y-64120000D01*
X124729999Y-64120000D01*
X124729999Y-64670000D01*
G36*
X124729999Y-64670000D02*
G01*
X124329999Y-64670000D01*
X124329999Y-64120000D01*
X124729999Y-64120000D01*
X124729999Y-64670000D01*
G37*
X124729999Y-75920000D02*
X124329999Y-75920000D01*
X124329999Y-75370000D01*
X124729999Y-75370000D01*
X124729999Y-75920000D01*
G36*
X124729999Y-75920000D02*
G01*
X124329999Y-75920000D01*
X124329999Y-75370000D01*
X124729999Y-75370000D01*
X124729999Y-75920000D01*
G37*
X125179999Y-66120000D02*
X124779999Y-66120001D01*
X124779999Y-65720000D01*
X125179999Y-65720000D01*
X125179999Y-66120000D01*
G36*
X125179999Y-66120000D02*
G01*
X124779999Y-66120001D01*
X124779999Y-65720000D01*
X125179999Y-65720000D01*
X125179999Y-66120000D01*
G37*
X125179999Y-73920000D02*
X125179999Y-74320000D01*
X124779999Y-74320000D01*
X124779999Y-73919999D01*
X125179999Y-73920000D01*
G36*
X125179999Y-73920000D02*
G01*
X125179999Y-74320000D01*
X124779999Y-74320000D01*
X124779999Y-73919999D01*
X125179999Y-73920000D01*
G37*
X125229999Y-75920000D02*
X124829998Y-75920000D01*
X124829999Y-75370000D01*
X125229999Y-75370000D01*
X125229999Y-75920000D01*
G36*
X125229999Y-75920000D02*
G01*
X124829998Y-75920000D01*
X124829999Y-75370000D01*
X125229999Y-75370000D01*
X125229999Y-75920000D01*
G37*
X125229999Y-64670000D02*
X124829999Y-64670000D01*
X124829998Y-64120000D01*
X125229999Y-64120000D01*
X125229999Y-64670000D01*
G36*
X125229999Y-64670000D02*
G01*
X124829999Y-64670000D01*
X124829998Y-64120000D01*
X125229999Y-64120000D01*
X125229999Y-64670000D01*
G37*
X125329999Y-69670000D02*
X124929999Y-69670001D01*
X124929999Y-69270000D01*
X125329999Y-69270000D01*
X125329999Y-69670000D01*
G36*
X125329999Y-69670000D02*
G01*
X124929999Y-69670001D01*
X124929999Y-69270000D01*
X125329999Y-69270000D01*
X125329999Y-69670000D01*
G37*
X125329999Y-70220000D02*
X124929999Y-70219999D01*
X124929999Y-69820001D01*
X125329999Y-69820000D01*
X125329999Y-70220000D01*
G36*
X125329999Y-70220000D02*
G01*
X124929999Y-70219999D01*
X124929999Y-69820001D01*
X125329999Y-69820000D01*
X125329999Y-70220000D01*
G37*
X125329999Y-70370000D02*
X125329999Y-70770000D01*
X124929999Y-70770000D01*
X124929999Y-70369999D01*
X125329999Y-70370000D01*
G36*
X125329999Y-70370000D02*
G01*
X125329999Y-70770000D01*
X124929999Y-70770000D01*
X124929999Y-70369999D01*
X125329999Y-70370000D01*
G37*
X125729999Y-64670000D02*
X125329999Y-64670000D01*
X125329999Y-64120000D01*
X125729998Y-64120000D01*
X125729999Y-64670000D01*
G36*
X125729999Y-64670000D02*
G01*
X125329999Y-64670000D01*
X125329999Y-64120000D01*
X125729998Y-64120000D01*
X125729999Y-64670000D01*
G37*
X125729998Y-75920000D02*
X125329999Y-75920000D01*
X125329999Y-75370000D01*
X125729999Y-75370000D01*
X125729998Y-75920000D01*
G36*
X125729998Y-75920000D02*
G01*
X125329999Y-75920000D01*
X125329999Y-75370000D01*
X125729999Y-75370000D01*
X125729998Y-75920000D01*
G37*
X126229999Y-64670000D02*
X125829999Y-64670000D01*
X125829999Y-64120000D01*
X126229999Y-64120000D01*
X126229999Y-64670000D01*
G36*
X126229999Y-64670000D02*
G01*
X125829999Y-64670000D01*
X125829999Y-64120000D01*
X126229999Y-64120000D01*
X126229999Y-64670000D01*
G37*
X126229999Y-75920000D02*
X125829999Y-75920000D01*
X125829999Y-75370000D01*
X126229999Y-75370000D01*
X126229999Y-75920000D01*
G36*
X126229999Y-75920000D02*
G01*
X125829999Y-75920000D01*
X125829999Y-75370000D01*
X126229999Y-75370000D01*
X126229999Y-75920000D01*
G37*
X126729999Y-64670000D02*
X126329999Y-64670000D01*
X126330000Y-64120000D01*
X126729999Y-64120000D01*
X126729999Y-64670000D01*
G36*
X126729999Y-64670000D02*
G01*
X126329999Y-64670000D01*
X126330000Y-64120000D01*
X126729999Y-64120000D01*
X126729999Y-64670000D01*
G37*
X126729999Y-75920000D02*
X126330000Y-75920000D01*
X126329999Y-75370000D01*
X126729999Y-75370000D01*
X126729999Y-75920000D01*
G36*
X126729999Y-75920000D02*
G01*
X126330000Y-75920000D01*
X126329999Y-75370000D01*
X126729999Y-75370000D01*
X126729999Y-75920000D01*
G37*
X128129999Y-68020000D02*
X126429999Y-68020000D01*
X126429999Y-66320000D01*
X128129999Y-66320000D01*
X128129999Y-68020000D01*
G36*
X128129999Y-68020000D02*
G01*
X126429999Y-68020000D01*
X126429999Y-66320000D01*
X128129999Y-66320000D01*
X128129999Y-68020000D01*
G37*
X128129999Y-70870000D02*
X126429999Y-70870000D01*
X126429999Y-69170000D01*
X128129999Y-69170000D01*
X128129999Y-70870000D01*
G36*
X128129999Y-70870000D02*
G01*
X126429999Y-70870000D01*
X126429999Y-69170000D01*
X128129999Y-69170000D01*
X128129999Y-70870000D01*
G37*
X128129999Y-73720000D02*
X126429999Y-73720000D01*
X126429999Y-72020000D01*
X128129999Y-72020000D01*
X128129999Y-73720000D01*
G36*
X128129999Y-73720000D02*
G01*
X126429999Y-73720000D01*
X126429999Y-72020000D01*
X128129999Y-72020000D01*
X128129999Y-73720000D01*
G37*
X126929999Y-66120000D02*
X126529998Y-66120000D01*
X126529999Y-65720000D01*
X126929999Y-65720000D01*
X126929999Y-66120000D01*
G36*
X126929999Y-66120000D02*
G01*
X126529998Y-66120000D01*
X126529999Y-65720000D01*
X126929999Y-65720000D01*
X126929999Y-66120000D01*
G37*
X126929999Y-74320000D02*
X126529999Y-74320000D01*
X126529998Y-73920000D01*
X126929999Y-73920000D01*
X126929999Y-74320000D01*
G36*
X126929999Y-74320000D02*
G01*
X126529999Y-74320000D01*
X126529998Y-73920000D01*
X126929999Y-73920000D01*
X126929999Y-74320000D01*
G37*
X127229999Y-64670000D02*
X126829999Y-64670000D01*
X126829999Y-64120000D01*
X127229999Y-64120000D01*
X127229999Y-64670000D01*
G36*
X127229999Y-64670000D02*
G01*
X126829999Y-64670000D01*
X126829999Y-64120000D01*
X127229999Y-64120000D01*
X127229999Y-64670000D01*
G37*
X127229999Y-75920000D02*
X126829999Y-75920000D01*
X126829999Y-75370000D01*
X127229999Y-75370000D01*
X127229999Y-75920000D01*
G36*
X127229999Y-75920000D02*
G01*
X126829999Y-75920000D01*
X126829999Y-75370000D01*
X127229999Y-75370000D01*
X127229999Y-75920000D01*
G37*
X127479999Y-66120000D02*
X127079999Y-66120000D01*
X127079999Y-65720000D01*
X127479999Y-65720000D01*
X127479999Y-66120000D01*
G36*
X127479999Y-66120000D02*
G01*
X127079999Y-66120000D01*
X127079999Y-65720000D01*
X127479999Y-65720000D01*
X127479999Y-66120000D01*
G37*
X127479999Y-74320000D02*
X127079999Y-74320000D01*
X127079999Y-73920000D01*
X127479999Y-73920000D01*
X127479999Y-74320000D01*
G36*
X127479999Y-74320000D02*
G01*
X127079999Y-74320000D01*
X127079999Y-73920000D01*
X127479999Y-73920000D01*
X127479999Y-74320000D01*
G37*
X127729999Y-64670000D02*
X127329999Y-64670000D01*
X127329999Y-64120000D01*
X127729999Y-64120000D01*
X127729999Y-64670000D01*
G36*
X127729999Y-64670000D02*
G01*
X127329999Y-64670000D01*
X127329999Y-64120000D01*
X127729999Y-64120000D01*
X127729999Y-64670000D01*
G37*
X127729999Y-75920000D02*
X127329999Y-75920000D01*
X127329999Y-75370000D01*
X127729999Y-75370000D01*
X127729999Y-75920000D01*
G36*
X127729999Y-75920000D02*
G01*
X127329999Y-75920000D01*
X127329999Y-75370000D01*
X127729999Y-75370000D01*
X127729999Y-75920000D01*
G37*
X128030000Y-66120000D02*
X127629999Y-66120000D01*
X127629999Y-65720000D01*
X128029999Y-65720000D01*
X128030000Y-66120000D01*
G36*
X128030000Y-66120000D02*
G01*
X127629999Y-66120000D01*
X127629999Y-65720000D01*
X128029999Y-65720000D01*
X128030000Y-66120000D01*
G37*
X128029999Y-74320000D02*
X127629999Y-74320000D01*
X127629999Y-73920000D01*
X128030000Y-73920000D01*
X128029999Y-74320000D01*
G36*
X128029999Y-74320000D02*
G01*
X127629999Y-74320000D01*
X127629999Y-73920000D01*
X128030000Y-73920000D01*
X128029999Y-74320000D01*
G37*
X128229999Y-64670000D02*
X127829999Y-64670000D01*
X127829999Y-64120000D01*
X128229998Y-64120000D01*
X128229999Y-64670000D01*
G36*
X128229999Y-64670000D02*
G01*
X127829999Y-64670000D01*
X127829999Y-64120000D01*
X128229998Y-64120000D01*
X128229999Y-64670000D01*
G37*
X128229998Y-75920000D02*
X127829999Y-75920000D01*
X127829999Y-75370000D01*
X128229999Y-75370000D01*
X128229998Y-75920000D01*
G36*
X128229998Y-75920000D02*
G01*
X127829999Y-75920000D01*
X127829999Y-75370000D01*
X128229999Y-75370000D01*
X128229998Y-75920000D01*
G37*
X128729999Y-64670000D02*
X128329999Y-64670000D01*
X128329999Y-64120000D01*
X128729999Y-64120000D01*
X128729999Y-64670000D01*
G36*
X128729999Y-64670000D02*
G01*
X128329999Y-64670000D01*
X128329999Y-64120000D01*
X128729999Y-64120000D01*
X128729999Y-64670000D01*
G37*
X128729999Y-75920000D02*
X128329999Y-75920000D01*
X128329999Y-75370000D01*
X128729999Y-75370000D01*
X128729999Y-75920000D01*
G36*
X128729999Y-75920000D02*
G01*
X128329999Y-75920000D01*
X128329999Y-75370000D01*
X128729999Y-75370000D01*
X128729999Y-75920000D01*
G37*
X129229999Y-64670000D02*
X128829999Y-64670000D01*
X128830000Y-64120000D01*
X129229999Y-64120000D01*
X129229999Y-64670000D01*
G36*
X129229999Y-64670000D02*
G01*
X128829999Y-64670000D01*
X128830000Y-64120000D01*
X129229999Y-64120000D01*
X129229999Y-64670000D01*
G37*
X129229999Y-75920000D02*
X128830000Y-75920000D01*
X128829999Y-75370000D01*
X129229999Y-75370000D01*
X129229999Y-75920000D01*
G36*
X129229999Y-75920000D02*
G01*
X128830000Y-75920000D01*
X128829999Y-75370000D01*
X129229999Y-75370000D01*
X129229999Y-75920000D01*
G37*
X129629999Y-69670001D02*
X129229999Y-69670000D01*
X129229999Y-69270000D01*
X129629999Y-69270000D01*
X129629999Y-69670001D01*
G36*
X129629999Y-69670001D02*
G01*
X129229999Y-69670000D01*
X129229999Y-69270000D01*
X129629999Y-69270000D01*
X129629999Y-69670001D01*
G37*
X129629999Y-69820001D02*
X129629999Y-70219999D01*
X129229999Y-70220000D01*
X129229999Y-69820000D01*
X129629999Y-69820001D01*
G36*
X129629999Y-69820001D02*
G01*
X129629999Y-70219999D01*
X129229999Y-70220000D01*
X129229999Y-69820000D01*
X129629999Y-69820001D01*
G37*
X129629999Y-70770000D02*
X129229999Y-70770000D01*
X129229999Y-70370000D01*
X129629999Y-70369999D01*
X129629999Y-70770000D01*
G36*
X129629999Y-70770000D02*
G01*
X129229999Y-70770000D01*
X129229999Y-70370000D01*
X129629999Y-70369999D01*
X129629999Y-70770000D01*
G37*
X130979999Y-66320000D02*
X130980000Y-68020000D01*
X129279999Y-68020000D01*
X129279999Y-66319999D01*
X130979999Y-66320000D01*
G36*
X130979999Y-66320000D02*
G01*
X130980000Y-68020000D01*
X129279999Y-68020000D01*
X129279999Y-66319999D01*
X130979999Y-66320000D01*
G37*
X130979999Y-73720000D02*
X129279999Y-73720001D01*
X129279999Y-72020000D01*
X130980000Y-72020000D01*
X130979999Y-73720000D01*
G36*
X130979999Y-73720000D02*
G01*
X129279999Y-73720001D01*
X129279999Y-72020000D01*
X130980000Y-72020000D01*
X130979999Y-73720000D01*
G37*
X129729999Y-64670000D02*
X129329999Y-64670000D01*
X129329999Y-64120000D01*
X129730000Y-64120000D01*
X129729999Y-64670000D01*
G36*
X129729999Y-64670000D02*
G01*
X129329999Y-64670000D01*
X129329999Y-64120000D01*
X129730000Y-64120000D01*
X129729999Y-64670000D01*
G37*
X129730000Y-75920000D02*
X129329999Y-75920000D01*
X129329999Y-75370000D01*
X129729999Y-75370000D01*
X129730000Y-75920000D01*
G36*
X129730000Y-75920000D02*
G01*
X129329999Y-75920000D01*
X129329999Y-75370000D01*
X129729999Y-75370000D01*
X129730000Y-75920000D01*
G37*
X129779999Y-66120001D02*
X129379999Y-66120000D01*
X129379999Y-65720000D01*
X129779999Y-65720000D01*
X129779999Y-66120001D01*
G36*
X129779999Y-66120001D02*
G01*
X129379999Y-66120000D01*
X129379999Y-65720000D01*
X129779999Y-65720000D01*
X129779999Y-66120001D01*
G37*
X129779999Y-74320000D02*
X129379999Y-74320000D01*
X129379999Y-73920000D01*
X129779999Y-73919999D01*
X129779999Y-74320000D01*
G36*
X129779999Y-74320000D02*
G01*
X129379999Y-74320000D01*
X129379999Y-73920000D01*
X129779999Y-73919999D01*
X129779999Y-74320000D01*
G37*
X130229999Y-64670000D02*
X129829999Y-64670000D01*
X129829999Y-64120000D01*
X130229999Y-64120000D01*
X130229999Y-64670000D01*
G36*
X130229999Y-64670000D02*
G01*
X129829999Y-64670000D01*
X129829999Y-64120000D01*
X130229999Y-64120000D01*
X130229999Y-64670000D01*
G37*
X131879999Y-70870000D02*
X129829999Y-70870000D01*
X129829999Y-69170000D01*
X131879999Y-69170000D01*
X131879999Y-70870000D01*
G36*
X131879999Y-70870000D02*
G01*
X129829999Y-70870000D01*
X129829999Y-69170000D01*
X131879999Y-69170000D01*
X131879999Y-70870000D01*
G37*
X130229999Y-75920000D02*
X129829999Y-75920000D01*
X129829999Y-75370000D01*
X130229999Y-75370000D01*
X130229999Y-75920000D01*
G36*
X130229999Y-75920000D02*
G01*
X129829999Y-75920000D01*
X129829999Y-75370000D01*
X130229999Y-75370000D01*
X130229999Y-75920000D01*
G37*
X130329999Y-66120000D02*
X129929999Y-66120001D01*
X129929999Y-65720000D01*
X130329999Y-65720000D01*
X130329999Y-66120000D01*
G36*
X130329999Y-66120000D02*
G01*
X129929999Y-66120001D01*
X129929999Y-65720000D01*
X130329999Y-65720000D01*
X130329999Y-66120000D01*
G37*
X130329999Y-73920000D02*
X130329999Y-74320000D01*
X129929999Y-74320000D01*
X129929999Y-73919999D01*
X130329999Y-73920000D01*
G36*
X130329999Y-73920000D02*
G01*
X130329999Y-74320000D01*
X129929999Y-74320000D01*
X129929999Y-73919999D01*
X130329999Y-73920000D01*
G37*
X130729999Y-64670000D02*
X130329999Y-64670000D01*
X130329999Y-64120000D01*
X130729998Y-64120000D01*
X130729999Y-64670000D01*
G36*
X130729999Y-64670000D02*
G01*
X130329999Y-64670000D01*
X130329999Y-64120000D01*
X130729998Y-64120000D01*
X130729999Y-64670000D01*
G37*
X130729998Y-75920000D02*
X130329999Y-75920000D01*
X130329999Y-75370000D01*
X130729999Y-75370000D01*
X130729998Y-75920000D01*
G36*
X130729998Y-75920000D02*
G01*
X130329999Y-75920000D01*
X130329999Y-75370000D01*
X130729999Y-75370000D01*
X130729998Y-75920000D01*
G37*
X130879999Y-66120000D02*
X130479999Y-66120000D01*
X130479999Y-65720000D01*
X130879999Y-65720000D01*
X130879999Y-66120000D01*
G36*
X130879999Y-66120000D02*
G01*
X130479999Y-66120000D01*
X130479999Y-65720000D01*
X130879999Y-65720000D01*
X130879999Y-66120000D01*
G37*
X130879999Y-74320000D02*
X130479999Y-74320000D01*
X130479999Y-73920000D01*
X130879999Y-73920000D01*
X130879999Y-74320000D01*
G36*
X130879999Y-74320000D02*
G01*
X130479999Y-74320000D01*
X130479999Y-73920000D01*
X130879999Y-73920000D01*
X130879999Y-74320000D01*
G37*
X131229999Y-64670000D02*
X130829999Y-64670000D01*
X130829999Y-64120000D01*
X131229999Y-64120000D01*
X131229999Y-64670000D01*
G36*
X131229999Y-64670000D02*
G01*
X130829999Y-64670000D01*
X130829999Y-64120000D01*
X131229999Y-64120000D01*
X131229999Y-64670000D01*
G37*
X131229999Y-75920000D02*
X130829999Y-75920000D01*
X130829999Y-75370000D01*
X131229999Y-75370000D01*
X131229999Y-75920000D01*
G36*
X131229999Y-75920000D02*
G01*
X130829999Y-75920000D01*
X130829999Y-75370000D01*
X131229999Y-75370000D01*
X131229999Y-75920000D01*
G37*
X131729999Y-75920000D02*
X131329998Y-75920000D01*
X131329999Y-75370000D01*
X131729999Y-75370000D01*
X131729999Y-75920000D01*
G36*
X131729999Y-75920000D02*
G01*
X131329998Y-75920000D01*
X131329999Y-75370000D01*
X131729999Y-75370000D01*
X131729999Y-75920000D01*
G37*
X131729999Y-64670000D02*
X131329999Y-64670000D01*
X131329998Y-64120000D01*
X131729999Y-64120000D01*
X131729999Y-64670000D01*
G36*
X131729999Y-64670000D02*
G01*
X131329999Y-64670000D01*
X131329998Y-64120000D01*
X131729999Y-64120000D01*
X131729999Y-64670000D01*
G37*
X132679999Y-64920000D02*
X131879999Y-64920000D01*
X131879999Y-64120000D01*
X132680000Y-64120000D01*
X132679999Y-64920000D01*
G36*
X132679999Y-64920000D02*
G01*
X131879999Y-64920000D01*
X131879999Y-64120000D01*
X132680000Y-64120000D01*
X132679999Y-64920000D01*
G37*
X132680000Y-75920000D02*
X131879999Y-75920000D01*
X131879999Y-75120000D01*
X132679999Y-75120000D01*
X132680000Y-75920000D01*
G36*
X132680000Y-75920000D02*
G01*
X131879999Y-75920000D01*
X131879999Y-75120000D01*
X132679999Y-75120000D01*
X132680000Y-75920000D01*
G37*
X132679999Y-65970000D02*
X132129998Y-65970000D01*
X132129999Y-65570000D01*
X132679999Y-65570000D01*
X132679999Y-65970000D01*
G36*
X132679999Y-65970000D02*
G01*
X132129998Y-65970000D01*
X132129999Y-65570000D01*
X132679999Y-65570000D01*
X132679999Y-65970000D01*
G37*
X132679999Y-68470000D02*
X132129998Y-68470000D01*
X132129999Y-68070000D01*
X132679999Y-68070000D01*
X132679999Y-68470000D01*
G36*
X132679999Y-68470000D02*
G01*
X132129998Y-68470000D01*
X132129999Y-68070000D01*
X132679999Y-68070000D01*
X132679999Y-68470000D01*
G37*
X132679999Y-70970000D02*
X132129998Y-70970000D01*
X132129999Y-70570000D01*
X132679999Y-70570000D01*
X132679999Y-70970000D01*
G36*
X132679999Y-70970000D02*
G01*
X132129998Y-70970000D01*
X132129999Y-70570000D01*
X132679999Y-70570000D01*
X132679999Y-70970000D01*
G37*
X132679999Y-73470000D02*
X132129998Y-73470000D01*
X132129999Y-73070000D01*
X132679999Y-73070000D01*
X132679999Y-73470000D01*
G36*
X132679999Y-73470000D02*
G01*
X132129998Y-73470000D01*
X132129999Y-73070000D01*
X132679999Y-73070000D01*
X132679999Y-73470000D01*
G37*
X132679999Y-74970000D02*
X132129998Y-74970000D01*
X132129999Y-74570000D01*
X132679999Y-74569999D01*
X132679999Y-74970000D01*
G36*
X132679999Y-74970000D02*
G01*
X132129998Y-74970000D01*
X132129999Y-74570000D01*
X132679999Y-74569999D01*
X132679999Y-74970000D01*
G37*
X132679999Y-65470001D02*
X132129999Y-65470000D01*
X132129998Y-65070000D01*
X132679999Y-65070000D01*
X132679999Y-65470001D01*
G36*
X132679999Y-65470001D02*
G01*
X132129999Y-65470000D01*
X132129998Y-65070000D01*
X132679999Y-65070000D01*
X132679999Y-65470001D01*
G37*
X132680000Y-66470000D02*
X132129999Y-66470000D01*
X132129999Y-66070000D01*
X132679999Y-66070000D01*
X132680000Y-66470000D01*
G36*
X132680000Y-66470000D02*
G01*
X132129999Y-66470000D01*
X132129999Y-66070000D01*
X132679999Y-66070000D01*
X132680000Y-66470000D01*
G37*
X132679999Y-66970000D02*
X132129999Y-66970000D01*
X132129998Y-66570000D01*
X132679999Y-66570000D01*
X132679999Y-66970000D01*
G36*
X132679999Y-66970000D02*
G01*
X132129999Y-66970000D01*
X132129998Y-66570000D01*
X132679999Y-66570000D01*
X132679999Y-66970000D01*
G37*
X132679999Y-67470000D02*
X132129999Y-67470000D01*
X132129999Y-67070000D01*
X132680000Y-67070000D01*
X132679999Y-67470000D01*
G36*
X132679999Y-67470000D02*
G01*
X132129999Y-67470000D01*
X132129999Y-67070000D01*
X132680000Y-67070000D01*
X132679999Y-67470000D01*
G37*
X132679999Y-67570000D02*
X132680000Y-67970000D01*
X132129999Y-67970000D01*
X132129999Y-67569999D01*
X132679999Y-67570000D01*
G36*
X132679999Y-67570000D02*
G01*
X132680000Y-67970000D01*
X132129999Y-67970000D01*
X132129999Y-67569999D01*
X132679999Y-67570000D01*
G37*
X132679999Y-68969999D02*
X132129999Y-68970000D01*
X132129999Y-68570000D01*
X132679999Y-68570000D01*
X132679999Y-68969999D01*
G36*
X132679999Y-68969999D02*
G01*
X132129999Y-68970000D01*
X132129999Y-68570000D01*
X132679999Y-68570000D01*
X132679999Y-68969999D01*
G37*
X132679999Y-69470000D02*
X132129999Y-69470000D01*
X132129998Y-69070000D01*
X132679999Y-69070000D01*
X132679999Y-69470000D01*
G36*
X132679999Y-69470000D02*
G01*
X132129999Y-69470000D01*
X132129998Y-69070000D01*
X132679999Y-69070000D01*
X132679999Y-69470000D01*
G37*
X132679999Y-69970000D02*
X132129999Y-69970000D01*
X132129999Y-69570000D01*
X132680000Y-69570000D01*
X132679999Y-69970000D01*
G36*
X132679999Y-69970000D02*
G01*
X132129999Y-69970000D01*
X132129999Y-69570000D01*
X132680000Y-69570000D01*
X132679999Y-69970000D01*
G37*
X132680000Y-70470000D02*
X132129999Y-70470000D01*
X132129999Y-70070000D01*
X132679999Y-70070000D01*
X132680000Y-70470000D01*
G36*
X132680000Y-70470000D02*
G01*
X132129999Y-70470000D01*
X132129999Y-70070000D01*
X132679999Y-70070000D01*
X132680000Y-70470000D01*
G37*
X132679999Y-71070001D02*
X132679999Y-71470000D01*
X132129999Y-71470000D01*
X132129999Y-71070000D01*
X132679999Y-71070001D01*
G36*
X132679999Y-71070001D02*
G01*
X132679999Y-71470000D01*
X132129999Y-71470000D01*
X132129999Y-71070000D01*
X132679999Y-71070001D01*
G37*
X132679999Y-71970000D02*
X132129999Y-71970000D01*
X132129998Y-71570000D01*
X132679999Y-71570000D01*
X132679999Y-71970000D01*
G36*
X132679999Y-71970000D02*
G01*
X132129999Y-71970000D01*
X132129998Y-71570000D01*
X132679999Y-71570000D01*
X132679999Y-71970000D01*
G37*
X132679999Y-72470000D02*
X132129999Y-72470001D01*
X132129999Y-72070000D01*
X132680000Y-72070000D01*
X132679999Y-72470000D01*
G36*
X132679999Y-72470000D02*
G01*
X132129999Y-72470001D01*
X132129999Y-72070000D01*
X132680000Y-72070000D01*
X132679999Y-72470000D01*
G37*
X132680000Y-72970000D02*
X132129999Y-72970000D01*
X132129999Y-72570000D01*
X132679999Y-72570000D01*
X132680000Y-72970000D01*
G36*
X132680000Y-72970000D02*
G01*
X132129999Y-72970000D01*
X132129999Y-72570000D01*
X132679999Y-72570000D01*
X132680000Y-72970000D01*
G37*
X132679999Y-73970000D02*
X132129999Y-73970000D01*
X132129999Y-73570000D01*
X132680000Y-73570000D01*
X132679999Y-73970000D01*
G36*
X132679999Y-73970000D02*
G01*
X132129999Y-73970000D01*
X132129999Y-73570000D01*
X132680000Y-73570000D01*
X132679999Y-73970000D01*
G37*
X132679999Y-74470000D02*
X132129999Y-74470000D01*
X132129998Y-74070000D01*
X132679999Y-74070000D01*
X132679999Y-74470000D01*
G36*
X132679999Y-74470000D02*
G01*
X132129999Y-74470000D01*
X132129998Y-74070000D01*
X132679999Y-74070000D01*
X132679999Y-74470000D01*
G37*
X122679999Y-75398000D02*
X122679999Y-75920000D01*
X121879998Y-75920000D01*
X121879999Y-75120000D01*
X122402000Y-75120000D01*
X122679999Y-75398000D01*
G36*
X122679999Y-75398000D02*
G01*
X122679999Y-75920000D01*
X121879998Y-75920000D01*
X121879999Y-75120000D01*
X122402000Y-75120000D01*
X122679999Y-75398000D01*
G37*
D11*
%TO.C,J8*%
G36*
X128274999Y-55290000D02*
G01*
X126395001Y-55290000D01*
X126395000Y-53200000D01*
X128275000Y-53200000D01*
X128274999Y-55290000D01*
G37*
%TD*%
D12*
%TO.C,R28*%
X147670000Y-78720000D03*
X147030000Y-78720000D03*
%TD*%
D13*
%TO.C,C11*%
X130650000Y-58380000D03*
X130650000Y-59020000D03*
%TD*%
D14*
%TO.C,C94*%
X129600000Y-57500000D03*
X129600000Y-56860000D03*
%TD*%
D13*
%TO.C,C31*%
X145337540Y-71970000D03*
X145337540Y-72610000D03*
%TD*%
D12*
%TO.C,C87*%
X131970000Y-54300000D03*
X131330000Y-54300000D03*
%TD*%
D15*
%TO.C,D17*%
X135125000Y-82570000D03*
X133025000Y-82570000D03*
%TD*%
D16*
%TO.C,C12*%
X127980000Y-63330000D03*
X128620000Y-63330000D03*
%TD*%
%TO.C,R20*%
X151730000Y-128590000D03*
X152370000Y-128590000D03*
%TD*%
D13*
%TO.C,C76*%
X149810000Y-57730000D03*
X149810000Y-58370000D03*
%TD*%
D14*
%TO.C,R60*%
X145420000Y-71100000D03*
X145420000Y-70460000D03*
%TD*%
D17*
%TO.C,D9*%
X156200000Y-99660000D03*
X156200000Y-96540000D03*
%TD*%
D18*
%TO.C,C40*%
X156420000Y-80610000D03*
X157380000Y-80610000D03*
%TD*%
D19*
%TO.C,C50*%
X146400000Y-81230000D03*
X146400000Y-80270000D03*
%TD*%
D16*
%TO.C,R24*%
X131980000Y-121080000D03*
X132620000Y-121080000D03*
%TD*%
D17*
%TO.C,D6*%
X136400000Y-99660000D03*
X136400000Y-96540000D03*
%TD*%
D14*
%TO.C,C32*%
X145337540Y-75210000D03*
X145337540Y-74570000D03*
%TD*%
D20*
%TO.C,H2*%
X154800000Y-146000000D03*
%TD*%
D13*
%TO.C,C26*%
X129310000Y-76760000D03*
X129310000Y-77400000D03*
%TD*%
D16*
%TO.C,C41*%
X147007540Y-71150000D03*
X147647540Y-71150000D03*
%TD*%
D21*
%TO.C,X2*%
X156677540Y-69030000D03*
X158077540Y-69030000D03*
X158077540Y-67930000D03*
X156677540Y-67930000D03*
%TD*%
D13*
%TO.C,R15*%
X134750000Y-128430000D03*
X134750000Y-129070000D03*
%TD*%
D14*
%TO.C,R35*%
X156650000Y-140250000D03*
X156650000Y-139610000D03*
%TD*%
D13*
%TO.C,C10*%
X126320000Y-76760000D03*
X126320000Y-77400000D03*
%TD*%
D16*
%TO.C,R27*%
X147740000Y-134060000D03*
X148380000Y-134060000D03*
%TD*%
D22*
%TO.C,X4*%
X146897540Y-72340706D03*
X146897540Y-74840704D03*
%TD*%
D16*
%TO.C,R49*%
X157527540Y-79000000D03*
X158167540Y-79000000D03*
%TD*%
D12*
%TO.C,C81*%
X146745000Y-56940000D03*
X146105000Y-56940000D03*
%TD*%
D23*
%TO.C,U2*%
X122755000Y-61100000D03*
X122755000Y-61600000D03*
X122755000Y-62100000D03*
X122755000Y-62600000D03*
X125605000Y-62600000D03*
X125605000Y-62100000D03*
X125605000Y-61600000D03*
X125605000Y-61100000D03*
D24*
X124180000Y-61850000D03*
%TD*%
D14*
%TO.C,C70*%
X151250001Y-60901863D03*
X151250001Y-60261863D03*
%TD*%
D12*
%TO.C,L1*%
X159610000Y-78240000D03*
X158970000Y-78240000D03*
%TD*%
D25*
%TO.C,D1*%
X138232500Y-130537501D03*
X138232500Y-131487500D03*
X138232500Y-132437499D03*
X140507500Y-132437499D03*
X140507500Y-130537501D03*
%TD*%
D14*
%TO.C,C19*%
X157059999Y-58760001D03*
X157059999Y-58120001D03*
%TD*%
%TO.C,R32*%
X156650000Y-119800000D03*
X156650000Y-119160000D03*
%TD*%
D26*
%TO.C,C89*%
X121150000Y-80475000D03*
X121150000Y-78925000D03*
%TD*%
D14*
%TO.C,R34*%
X158750000Y-134650000D03*
X158750000Y-134010000D03*
%TD*%
D13*
%TO.C,C69*%
X156799999Y-54680001D03*
X156799999Y-55320001D03*
%TD*%
D26*
%TO.C,C90*%
X120950000Y-83575000D03*
X120950000Y-82025000D03*
%TD*%
D27*
%TO.C,C16*%
X146300000Y-59570000D03*
X146300000Y-61120000D03*
%TD*%
%TO.C,C17*%
X135090000Y-59547500D03*
X135090000Y-61097500D03*
%TD*%
D14*
%TO.C,R61*%
X136800000Y-63820000D03*
X136800000Y-63180000D03*
%TD*%
D28*
%TO.C,D4*%
X126310000Y-125340000D03*
X128410000Y-125340000D03*
%TD*%
D14*
%TO.C,L16*%
X148290000Y-57580000D03*
X148290000Y-56940000D03*
%TD*%
D19*
%TO.C,C39*%
X155200000Y-70350000D03*
X155200000Y-69390000D03*
%TD*%
D13*
%TO.C,C4*%
X131520000Y-76750000D03*
X131520000Y-77390000D03*
%TD*%
D16*
%TO.C,R14*%
X126580000Y-63330000D03*
X127220000Y-63330000D03*
%TD*%
D12*
%TO.C,C21*%
X150275000Y-49190000D03*
X149635000Y-49190000D03*
%TD*%
D29*
%TO.C,FB1*%
X122962500Y-77080000D03*
X124537500Y-77080000D03*
%TD*%
D17*
%TO.C,D11*%
X148500000Y-125560000D03*
X148500000Y-122440000D03*
%TD*%
D30*
%TO.C,Q7*%
X152392500Y-130352500D03*
X150492500Y-130352500D03*
X151442500Y-132227500D03*
%TD*%
D16*
%TO.C,R7*%
X122400000Y-83680000D03*
X123040000Y-83680000D03*
%TD*%
D31*
%TO.C,J2*%
X132250000Y-144650000D03*
X132250000Y-147920000D03*
%TD*%
D32*
%TO.C,J4*%
X148690000Y-147220000D03*
D33*
X146540000Y-141220000D03*
D34*
X142630000Y-143220000D03*
D35*
X143910000Y-140040000D03*
X141330000Y-140040000D03*
%TD*%
D36*
%TO.C,C35*%
X148300000Y-80270000D03*
X148300000Y-81230000D03*
%TD*%
D37*
%TO.C,U4*%
X156055000Y-82117501D03*
X154785000Y-82117501D03*
X153515000Y-82117501D03*
X152245000Y-82117501D03*
X152245000Y-87807501D03*
X153515000Y-87807501D03*
X154785000Y-87807501D03*
X156055000Y-87807501D03*
D38*
X154150000Y-84962501D03*
%TD*%
D12*
%TO.C,L4*%
X159610000Y-79760000D03*
X158970000Y-79760000D03*
%TD*%
%TO.C,L15*%
X149760000Y-56930000D03*
X149120000Y-56930000D03*
%TD*%
D14*
%TO.C,C58*%
X153780000Y-70190000D03*
X153780000Y-69550000D03*
%TD*%
%TO.C,C13*%
X121700000Y-62520000D03*
X121700000Y-61880000D03*
%TD*%
D12*
%TO.C,C1*%
X147667540Y-76040000D03*
X147027540Y-76040000D03*
%TD*%
%TO.C,R36*%
X135270000Y-131800000D03*
X134630000Y-131800000D03*
%TD*%
%TO.C,C30*%
X159610000Y-79000000D03*
X158970000Y-79000000D03*
%TD*%
D14*
%TO.C,R8*%
X140700000Y-97290000D03*
X140700000Y-96650000D03*
%TD*%
D17*
%TO.C,D13*%
X148500000Y-138560000D03*
X148500000Y-135440000D03*
%TD*%
D39*
%TO.C,RF4*%
X135790000Y-55190000D03*
D40*
X134270000Y-53890000D03*
X134270000Y-56490000D03*
%TD*%
D14*
%TO.C,R59*%
X144660000Y-71100000D03*
X144660000Y-70460000D03*
%TD*%
D16*
%TO.C,R50*%
X157527540Y-79760000D03*
X158167540Y-79760000D03*
%TD*%
%TO.C,R25*%
X147680000Y-121090000D03*
X148320000Y-121090000D03*
%TD*%
D13*
%TO.C,C34*%
X155609000Y-80239999D03*
X155609000Y-80879999D03*
%TD*%
D12*
%TO.C,R10*%
X147670000Y-79460000D03*
X147030000Y-79460000D03*
%TD*%
D13*
%TO.C,C77*%
X149050000Y-57730000D03*
X149050000Y-58370000D03*
%TD*%
D41*
%TO.C,C28*%
X131200000Y-78750000D03*
X133100000Y-78750000D03*
%TD*%
D16*
%TO.C,C14*%
X134640000Y-132550000D03*
X135280000Y-132550000D03*
%TD*%
D13*
%TO.C,R17*%
X129890000Y-119090000D03*
X129890000Y-119730000D03*
%TD*%
D14*
%TO.C,R31*%
X156240000Y-107560000D03*
X156240000Y-106920000D03*
%TD*%
D17*
%TO.C,D5*%
X125100000Y-99660000D03*
X125100000Y-96540000D03*
%TD*%
D12*
%TO.C,C46*%
X158167540Y-74720000D03*
X157527540Y-74720000D03*
%TD*%
%TO.C,C29*%
X156697540Y-70389999D03*
X156057540Y-70389999D03*
%TD*%
D19*
%TO.C,C3*%
X121000000Y-71480000D03*
X121000000Y-70520000D03*
%TD*%
D14*
%TO.C,L6*%
X150507540Y-70380000D03*
X150507540Y-69740000D03*
%TD*%
D17*
%TO.C,D10*%
X132800000Y-125560000D03*
X132800000Y-122440000D03*
%TD*%
D42*
%TO.C,U14*%
X131537500Y-84267499D03*
X131037499Y-84267499D03*
X130537500Y-84267499D03*
X130037501Y-84267499D03*
X129537500Y-84267499D03*
X129537500Y-86692499D03*
X130037501Y-86692499D03*
X130537500Y-86692499D03*
X131037499Y-86692499D03*
X131537500Y-86692499D03*
D43*
X130537500Y-85479999D03*
%TD*%
D12*
%TO.C,L18*%
X143080000Y-56910000D03*
X142440000Y-56910000D03*
%TD*%
D14*
%TO.C,R33*%
X156020000Y-127690000D03*
X156020000Y-127050000D03*
%TD*%
D20*
%TO.C,H1*%
X127000000Y-146000000D03*
%TD*%
D16*
%TO.C,R52*%
X134655000Y-81220000D03*
X135295000Y-81220000D03*
%TD*%
D44*
%TO.C,L2*%
X128397501Y-81780000D03*
X131197499Y-81780000D03*
%TD*%
D12*
%TO.C,R3*%
X158167540Y-73960000D03*
X157527540Y-73960000D03*
%TD*%
D45*
%TO.C,SW18*%
X144595000Y-45530000D03*
X144595000Y-43830000D03*
X149845000Y-45530000D03*
X149845000Y-43830000D03*
%TD*%
D12*
%TO.C,L17*%
X146745000Y-57700000D03*
X146105000Y-57700000D03*
%TD*%
D16*
%TO.C,R30*%
X134630000Y-131040000D03*
X135270000Y-131040000D03*
%TD*%
%TO.C,R9*%
X134630000Y-130290000D03*
X135270000Y-130290000D03*
%TD*%
D12*
%TO.C,R6*%
X137790000Y-55210000D03*
X137150000Y-55210000D03*
%TD*%
D20*
%TO.C,H7*%
X157650000Y-47910000D03*
%TD*%
D12*
%TO.C,C18*%
X147545000Y-47840000D03*
X146905000Y-47840000D03*
%TD*%
%TO.C,C45*%
X158167540Y-71360000D03*
X157527540Y-71360000D03*
%TD*%
D13*
%TO.C,C84*%
X141650000Y-56940000D03*
X141650000Y-57580000D03*
%TD*%
D16*
%TO.C,R4*%
X122400000Y-79310000D03*
X123040000Y-79310000D03*
%TD*%
D12*
%TO.C,R22*%
X145810000Y-95120000D03*
X145170000Y-95120000D03*
%TD*%
D13*
%TO.C,L13*%
X149780000Y-55070000D03*
X149780000Y-55710000D03*
%TD*%
D46*
%TO.C,BT2*%
X147860000Y-82490000D03*
D47*
X146510000Y-86440001D03*
%TD*%
D29*
%TO.C,L5*%
X148962500Y-68610000D03*
X150537500Y-68610000D03*
%TD*%
D13*
%TO.C,C71*%
X155639999Y-60261862D03*
X155639999Y-60901862D03*
%TD*%
D48*
%TO.C,J9*%
X138950000Y-65160000D03*
X142050000Y-65160000D03*
X145850000Y-65160000D03*
X148950000Y-65160000D03*
%TD*%
D12*
%TO.C,C49*%
X158167540Y-72124187D03*
X157527540Y-72124187D03*
%TD*%
D13*
%TO.C,C43*%
X133199999Y-58880000D03*
X133199999Y-59520000D03*
%TD*%
D14*
%TO.C,R13*%
X125580000Y-77400000D03*
X125580000Y-76760000D03*
%TD*%
D20*
%TO.C,H5*%
X134570000Y-64000000D03*
%TD*%
%TO.C,H4*%
X159500000Y-126200000D03*
%TD*%
D14*
%TO.C,R12*%
X127070000Y-77400000D03*
X127070000Y-76760000D03*
%TD*%
D12*
%TO.C,R26*%
X133380000Y-134040000D03*
X132740000Y-134040000D03*
%TD*%
D49*
%TO.C,Q4*%
X133007500Y-129100000D03*
X133007500Y-127200000D03*
X131132500Y-128150000D03*
%TD*%
D12*
%TO.C,C15*%
X135275000Y-133300000D03*
X134635000Y-133300000D03*
%TD*%
D50*
%TO.C,U5*%
X148537500Y-51090000D03*
X148537500Y-50590000D03*
X148537500Y-50090000D03*
X148537500Y-49590000D03*
D51*
X147850000Y-48902500D03*
X147350000Y-48902500D03*
X146850000Y-48902500D03*
X146350000Y-48902500D03*
D50*
X145662500Y-49590000D03*
X145662500Y-50090000D03*
X145662500Y-50590000D03*
X145662500Y-51090000D03*
D51*
X146350000Y-51777500D03*
X146850000Y-51777500D03*
X147350000Y-51777500D03*
X147850000Y-51777500D03*
D52*
X147100000Y-50340000D03*
%TD*%
D17*
%TO.C,D7*%
X145000000Y-99660000D03*
X145000000Y-96540000D03*
%TD*%
D12*
%TO.C,C83*%
X144540000Y-56920000D03*
X143900000Y-56920000D03*
%TD*%
D14*
%TO.C,C80*%
X147530000Y-57570000D03*
X147530000Y-56930000D03*
%TD*%
D12*
%TO.C,C93*%
X136800000Y-66300000D03*
X136160000Y-66300000D03*
%TD*%
%TO.C,R44*%
X139720000Y-56780000D03*
X139080000Y-56780000D03*
%TD*%
D14*
%TO.C,L19*%
X131955000Y-53500000D03*
X131955000Y-52860000D03*
%TD*%
D12*
%TO.C,R55*%
X158167540Y-78240000D03*
X157527540Y-78240000D03*
%TD*%
%TO.C,R51*%
X126090000Y-88000000D03*
X125450000Y-88000000D03*
%TD*%
D53*
%TO.C,C20*%
X144275000Y-47200000D03*
X145825000Y-47200000D03*
%TD*%
D54*
%TO.C,D8*%
X154330000Y-132670000D03*
X154330000Y-130570000D03*
%TD*%
D12*
%TO.C,R29*%
X147670000Y-77980000D03*
X147030000Y-77980000D03*
%TD*%
D13*
%TO.C,R57*%
X151497540Y-80240000D03*
X151497540Y-80880000D03*
%TD*%
D16*
%TO.C,C22*%
X157527539Y-70400000D03*
X158167539Y-70400000D03*
%TD*%
D12*
%TO.C,R45*%
X140730000Y-53650000D03*
X140090000Y-53650000D03*
%TD*%
D17*
%TO.C,D12*%
X132800000Y-138560000D03*
X132800000Y-135440000D03*
%TD*%
D55*
%TO.C,RF3*%
X159210000Y-75000000D03*
D56*
X157910000Y-76520000D03*
X160510000Y-76520000D03*
%TD*%
D49*
%TO.C,Q1*%
X133007500Y-132670000D03*
X133007500Y-130770000D03*
X131132499Y-131720000D03*
%TD*%
D57*
%TO.C,L3*%
X158350000Y-56187500D03*
X158350000Y-54612500D03*
%TD*%
D58*
%TO.C,J5*%
X126300000Y-130600000D03*
X128700000Y-130600000D03*
%TD*%
D12*
%TO.C,R37*%
X150270000Y-48440000D03*
X149630000Y-48440000D03*
%TD*%
D13*
%TO.C,C79*%
X147560000Y-55070000D03*
X147560000Y-55710000D03*
%TD*%
D19*
%TO.C,C47*%
X147350000Y-81230000D03*
X147350000Y-80270000D03*
%TD*%
D12*
%TO.C,C88*%
X131970000Y-52050000D03*
X131330000Y-52050000D03*
%TD*%
D13*
%TO.C,C2*%
X128560000Y-76760000D03*
X128560000Y-77400000D03*
%TD*%
D14*
%TO.C,C33*%
X121080000Y-66400000D03*
X121080000Y-65760000D03*
%TD*%
D41*
%TO.C,C7*%
X134350000Y-85100000D03*
X136250000Y-85100000D03*
%TD*%
D59*
%TO.C,U6*%
X140025000Y-73488209D03*
X138755000Y-73488209D03*
X137485000Y-73488209D03*
X136215000Y-73488209D03*
X136215000Y-78588209D03*
X137485000Y-78588209D03*
X138755000Y-78588209D03*
X140025000Y-78588209D03*
D60*
X138120000Y-76038209D03*
%TD*%
D61*
%TO.C,U3*%
X123897500Y-82897500D03*
X124397500Y-82897500D03*
X124897500Y-82897500D03*
X125397500Y-82897500D03*
D62*
X126085000Y-82210000D03*
X126085000Y-81710000D03*
X126085000Y-81210000D03*
X126085000Y-80710000D03*
D61*
X125397500Y-80022500D03*
X124897500Y-80022500D03*
X124397500Y-80022500D03*
X123897500Y-80022500D03*
D62*
X123210000Y-80710000D03*
X123210000Y-81210000D03*
X123210000Y-81710000D03*
X123210000Y-82210000D03*
D63*
X124647500Y-81460000D03*
%TD*%
D64*
%TO.C,U1*%
X140670000Y-55860000D03*
X140669999Y-55210000D03*
X140670000Y-54560000D03*
X139070000Y-54560000D03*
X139070001Y-55210000D03*
X139070000Y-55860000D03*
%TD*%
D16*
%TO.C,C78*%
X148350000Y-55740001D03*
X148990000Y-55740001D03*
%TD*%
D65*
%TO.C,Q6*%
X126517500Y-121417000D03*
X126517500Y-123317000D03*
X128392500Y-122367000D03*
%TD*%
D13*
%TO.C,R5*%
X122105000Y-81570000D03*
X122105000Y-82210000D03*
%TD*%
D12*
%TO.C,R19*%
X125920000Y-95210000D03*
X125280000Y-95210000D03*
%TD*%
D66*
%TO.C,J11*%
X129650000Y-60400000D03*
D67*
X128125000Y-61875000D03*
X128125000Y-58925000D03*
%TD*%
D12*
%TO.C,R21*%
X137250000Y-95140000D03*
X136610000Y-95140000D03*
%TD*%
D13*
%TO.C,C48*%
X152687540Y-69740000D03*
X152687540Y-70380000D03*
%TD*%
D26*
%TO.C,C92*%
X132800000Y-85875000D03*
X132800000Y-84325000D03*
%TD*%
D13*
%TO.C,R58*%
X150737540Y-80240000D03*
X150737540Y-80880000D03*
%TD*%
D68*
%TO.C,J3*%
X136870000Y-126599999D03*
X139370000Y-126599999D03*
X141870000Y-126599999D03*
X136870000Y-136200001D03*
X139370000Y-136200001D03*
D69*
X141870000Y-136200001D03*
%TD*%
D21*
%TO.C,X1*%
X152770001Y-61131863D03*
X154170001Y-61131863D03*
X154170001Y-60031863D03*
X152770001Y-60031863D03*
%TD*%
D70*
%TO.C,U7*%
X150805000Y-81990000D03*
D71*
X150267500Y-81915000D03*
D70*
X149730000Y-81990000D03*
X149730000Y-83690000D03*
D71*
X150267500Y-83765000D03*
D70*
X150805000Y-83690000D03*
%TD*%
D20*
%TO.C,H3*%
X122000000Y-126230000D03*
%TD*%
D14*
%TO.C,C38*%
X151267540Y-70380000D03*
X151267540Y-69740000D03*
%TD*%
D16*
%TO.C,R23*%
X155390000Y-95220000D03*
X156030000Y-95220000D03*
%TD*%
D72*
%TO.C,U13*%
X152600000Y-75310000D03*
D73*
X151350000Y-72060000D03*
X151850000Y-72060000D03*
X152350000Y-72060000D03*
X152850000Y-72060000D03*
X153350000Y-72060000D03*
X153850000Y-72060000D03*
X154350000Y-72060000D03*
X154850000Y-72060000D03*
X155350000Y-72060000D03*
X155850000Y-77560000D03*
X149850000Y-77810000D03*
X150600000Y-78060000D03*
X151600000Y-78060000D03*
X152100000Y-78060000D03*
X152600000Y-78060000D03*
X153100000Y-78060000D03*
X153600000Y-78060000D03*
X154100000Y-78060000D03*
X154600000Y-78060000D03*
X155850000Y-78060000D03*
X149850000Y-78560000D03*
X150350000Y-78560000D03*
X150850000Y-78560000D03*
X151350000Y-78560000D03*
X151850000Y-78560000D03*
X152350000Y-78560000D03*
X152850000Y-78560000D03*
X153350000Y-78560000D03*
X153850000Y-78560000D03*
X154350000Y-78560000D03*
X154850000Y-78560000D03*
X155350000Y-78560000D03*
X149350000Y-72560000D03*
X150100000Y-72560000D03*
X150600000Y-72560000D03*
X151100000Y-72560000D03*
X151600000Y-72560000D03*
X152100000Y-72560000D03*
X152600000Y-72560000D03*
X153100000Y-72560000D03*
X153600000Y-72560000D03*
X154100000Y-72560000D03*
X155850000Y-72560000D03*
X149350000Y-73060000D03*
X149850000Y-73310000D03*
X155350000Y-73310000D03*
X155850000Y-73560000D03*
X149850000Y-73810000D03*
X155350000Y-73810000D03*
X149350000Y-74060000D03*
X149850000Y-74310000D03*
X155350000Y-74310000D03*
X149350000Y-74560000D03*
X155850000Y-74560000D03*
X149850000Y-74810000D03*
X149350000Y-75060000D03*
X155850000Y-75060000D03*
X149850000Y-75310000D03*
X149350000Y-75560000D03*
X155850000Y-75560000D03*
X149850000Y-75810000D03*
X155350000Y-75810000D03*
X149350000Y-76060000D03*
X155850000Y-76060000D03*
X149850000Y-76310000D03*
X155350000Y-76310000D03*
X149350000Y-76560000D03*
X155850000Y-76560000D03*
X155350000Y-76810000D03*
X149350000Y-77060000D03*
X155850000Y-77060000D03*
X149850000Y-77310000D03*
X155350000Y-77310000D03*
%TD*%
D16*
%TO.C,C85*%
X139080000Y-57540000D03*
X139720000Y-57540000D03*
%TD*%
D74*
%TO.C,ANT2*%
X158500000Y-83180001D03*
X158500000Y-86679999D03*
X160100000Y-86679999D03*
X160100000Y-83180001D03*
%TD*%
D41*
%TO.C,C6*%
X132700000Y-88000000D03*
X134600000Y-88000000D03*
%TD*%
D75*
%TO.C,J6*%
X156300000Y-136800000D03*
X157000000Y-130400000D03*
%TD*%
D12*
%TO.C,C86*%
X139270000Y-53650000D03*
X138630000Y-53650000D03*
%TD*%
D76*
%TO.C,U10*%
X151999999Y-57889999D03*
X152499999Y-57890000D03*
X152999999Y-57890000D03*
X153499999Y-57890000D03*
X153999999Y-57890000D03*
X154499999Y-57889999D03*
D77*
X155159998Y-57230000D03*
X155159999Y-56730000D03*
X155159999Y-56230000D03*
X155159999Y-55730000D03*
X155159999Y-55230000D03*
X155159998Y-54730000D03*
D76*
X154499999Y-54070001D03*
X153999999Y-54070000D03*
X153499999Y-54070000D03*
X152999999Y-54070000D03*
X152499999Y-54070000D03*
X151999999Y-54070001D03*
D77*
X151340000Y-54730000D03*
X151339999Y-55230000D03*
X151339999Y-55730000D03*
X151339999Y-56230000D03*
X151339999Y-56730000D03*
X151340000Y-57230000D03*
D78*
X153249999Y-55980000D03*
%TD*%
D14*
%TO.C,R38*%
X149600000Y-50615000D03*
X149600000Y-49975000D03*
%TD*%
D16*
%TO.C,C5*%
X129920000Y-88000000D03*
X130560000Y-88000000D03*
%TD*%
D19*
%TO.C,C36*%
X159000000Y-72879999D03*
X159000000Y-71919999D03*
%TD*%
D49*
%TO.C,Q5*%
X128392500Y-119761000D03*
X128392500Y-117861000D03*
X126517500Y-118811000D03*
%TD*%
D53*
%TO.C,C91*%
X122425000Y-84800000D03*
X123975000Y-84800000D03*
%TD*%
D20*
%TO.C,H6*%
X123750000Y-47910000D03*
%TD*%
D13*
%TO.C,R18*%
X124900000Y-122700000D03*
X124900000Y-123340000D03*
%TD*%
D18*
%TO.C,C37*%
X148770000Y-70350000D03*
X149730000Y-70350000D03*
%TD*%
D16*
%TO.C,C75*%
X148350000Y-55010000D03*
X148990000Y-55010000D03*
%TD*%
D19*
%TO.C,C8*%
X133600000Y-73780000D03*
X133600000Y-72820000D03*
%TD*%
D14*
%TO.C,R16*%
X130660000Y-119730000D03*
X130660000Y-119090000D03*
%TD*%
%TO.C,C27*%
X146180000Y-71100000D03*
X146180000Y-70460000D03*
%TD*%
D13*
%TO.C,C82*%
X145320000Y-56930000D03*
X145320000Y-57570000D03*
%TD*%
D27*
%TO.C,C9*%
X149820000Y-60185000D03*
X149820000Y-61735000D03*
%TD*%
D79*
%TO.C,J8*%
X127335000Y-55825000D03*
D80*
X125860000Y-54300000D03*
X128810000Y-54300000D03*
%TD*%
D12*
%TO.C,R11*%
X125395000Y-78930000D03*
X124755000Y-78930000D03*
%TD*%
D25*
%TO.C,U9*%
X125610000Y-84530000D03*
X125610000Y-85479999D03*
X125610000Y-86429998D03*
X127885000Y-86429998D03*
X127885000Y-85479999D03*
X127885000Y-84530000D03*
%TD*%
D81*
%TO.C,ANT1*%
X131950000Y-49794999D03*
X131950000Y-43045001D03*
%TD*%
D82*
X154800000Y-146000000D03*
X127000000Y-146000000D03*
X157650000Y-47910000D03*
X134570000Y-64000000D03*
X159500000Y-126200000D03*
X122000000Y-126230000D03*
D83*
X150800000Y-73510000D03*
X150800000Y-74710000D03*
X150800000Y-75910000D03*
X150800000Y-77110000D03*
X152000000Y-73510000D03*
X152000000Y-74710000D03*
X152000000Y-75910000D03*
X152000000Y-77110000D03*
X153200000Y-73510000D03*
X153200000Y-74710000D03*
X153200000Y-75910000D03*
X153200000Y-77110000D03*
X154400000Y-73510000D03*
X154400000Y-74710000D03*
X154400000Y-75910000D03*
X154400000Y-77110000D03*
D82*
X123750000Y-47910000D03*
M02*
