%TF.GenerationSoftware,KiCad,Pcbnew,9.0.8+dfsg-1*%
%TF.CreationDate,2026-09-29T16:27:19+02:00*%
%TF.ProjectId,Mesh3310,4d657368-3333-4313-902e-6b696361645f,A*%
%TF.SameCoordinates,Original*%
%TF.FileFunction,Legend,Top*%
%TF.FilePolarity,Positive*%
%FSLAX46Y46*%
G04 Gerber Fmt 4.6, Leading zero omitted, Abs format (unit mm)*
G04 Created by KiCad (PCBNEW 9.0.8+dfsg-1) date 2026-09-29 16:27:19*
%MOMM*%
%LPD*%
G01*
G04 APERTURE LIST*
%ADD10C,0.000000*%
%ADD11C,0.150000*%
%ADD12C,0.200000*%
%ADD13C,0.120000*%
%ADD14C,0.360000*%
%ADD15C,0.127000*%
%ADD16C,0.130000*%
%ADD17C,0.100000*%
%ADD18C,0.300000*%
%ADD19C,0.250000*%
%ADD20C,0.240000*%
%ADD21C,0.010000*%
%ADD22C,0.350000*%
%ADD23C,0.305000*%
G04 APERTURE END LIST*
D10*
G36*
X140901322Y-109281361D02*
G01*
X139965332Y-109821957D01*
X139964697Y-108740553D01*
X140901322Y-109281361D01*
G37*
G36*
X138927106Y-113503265D02*
G01*
X138819367Y-113503265D01*
X138819368Y-112935363D01*
X138927107Y-112935363D01*
X138927106Y-113503265D01*
G37*
G36*
X138927529Y-113503265D02*
G01*
X138822754Y-113503265D01*
X138822755Y-112935363D01*
X138927530Y-112935363D01*
X138927529Y-113503265D01*
G37*
G36*
X139938027Y-108538834D02*
G01*
X139804040Y-108461576D01*
X139803407Y-108594926D01*
X139803195Y-108460941D01*
X139938027Y-108538834D01*
G37*
G36*
X143578481Y-112529809D02*
G01*
X143295695Y-112529809D01*
X143295695Y-110995226D01*
X143578481Y-110995226D01*
X143578481Y-112529809D01*
G37*
G36*
X143838196Y-113030824D02*
G01*
X143683257Y-113030825D01*
X143683257Y-113501359D01*
X143579327Y-113501360D01*
X143579328Y-113030824D01*
X143424388Y-113030825D01*
X143424388Y-112933458D01*
X143838196Y-112933457D01*
X143838196Y-113030824D01*
G37*
G36*
X137749817Y-113032729D02*
G01*
X137516983Y-113032730D01*
X137516984Y-113146394D01*
X137729497Y-113146394D01*
X137729497Y-113242067D01*
X137516984Y-113242067D01*
X137516983Y-113405898D01*
X137753838Y-113405898D01*
X137753839Y-113503265D01*
X137413055Y-113503264D01*
X137413054Y-112935363D01*
X137749817Y-112935363D01*
X137749817Y-113032729D01*
G37*
G36*
X137837446Y-112049750D02*
G01*
X137839563Y-112049750D01*
X137839564Y-110995226D01*
X138120233Y-110995226D01*
X138120021Y-112529809D01*
X137859249Y-112529809D01*
X137113759Y-111477402D01*
X137111642Y-111477402D01*
X137111642Y-112529809D01*
X136830971Y-112529809D01*
X136830971Y-110995226D01*
X137091957Y-110995226D01*
X137837446Y-112049750D01*
G37*
G36*
X141006309Y-113325676D02*
G01*
X141007155Y-113325676D01*
X141007155Y-112935363D01*
X141111083Y-112935363D01*
X141111083Y-113503265D01*
X141014563Y-113503265D01*
X140738762Y-113113798D01*
X140737915Y-113113798D01*
X140737915Y-113503264D01*
X140633987Y-113503265D01*
X140633987Y-112935363D01*
X140730507Y-112935363D01*
X141006309Y-113325676D01*
G37*
G36*
X142114382Y-106942445D02*
G01*
X141177969Y-106399097D01*
X142069932Y-105884324D01*
X142072819Y-105882624D01*
X142075761Y-105881005D01*
X142078752Y-105879452D01*
X142081787Y-105877946D01*
X142094274Y-105872047D01*
X142101259Y-105868448D01*
X142104561Y-105867059D01*
X142107822Y-105865749D01*
X142109450Y-105865124D01*
X142111082Y-105864520D01*
X142112726Y-105863933D01*
X142114382Y-105863368D01*
X142114382Y-106942445D01*
G37*
G36*
X138282369Y-113256038D02*
G01*
X138284064Y-113256038D01*
X138412967Y-112934728D01*
X138489169Y-112934728D01*
X138590980Y-113502630D01*
X138486204Y-113502629D01*
X138431172Y-113135811D01*
X138429479Y-113135812D01*
X138321317Y-113418174D01*
X138245964Y-113418174D01*
X138138014Y-113135811D01*
X138136320Y-113135811D01*
X138080652Y-113502629D01*
X137975877Y-113502629D01*
X138077688Y-112934728D01*
X138154098Y-112934728D01*
X138282369Y-113256038D01*
G37*
G36*
X142667256Y-108871573D02*
G01*
X143288921Y-109230561D01*
X143287799Y-109231662D01*
X143286659Y-109232746D01*
X143285497Y-109233816D01*
X143284318Y-109234873D01*
X143283116Y-109235921D01*
X143281896Y-109236961D01*
X143280656Y-109237995D01*
X143279395Y-109239028D01*
X142682708Y-109594839D01*
X142301708Y-109811585D01*
X142291739Y-109817780D01*
X142282442Y-109823211D01*
X142273774Y-109827913D01*
X142265691Y-109831923D01*
X142258152Y-109835272D01*
X142254573Y-109836712D01*
X142251114Y-109837999D01*
X142247768Y-109839139D01*
X142244533Y-109840136D01*
X142241400Y-109840996D01*
X142238367Y-109841722D01*
X142235426Y-109842318D01*
X142232573Y-109842787D01*
X142229802Y-109843137D01*
X142227107Y-109843371D01*
X142224485Y-109843492D01*
X142221929Y-109843506D01*
X142219435Y-109843415D01*
X142216995Y-109843226D01*
X142212262Y-109842569D01*
X142207686Y-109841568D01*
X142203226Y-109840260D01*
X142198839Y-109838678D01*
X142192065Y-109835504D01*
X142188721Y-109834078D01*
X142185476Y-109832673D01*
X142183948Y-109831983D01*
X142182509Y-109831307D01*
X142181186Y-109830646D01*
X142180000Y-109830000D01*
X139938026Y-108538834D01*
X139803406Y-108461152D01*
X139803404Y-108594926D01*
X139803195Y-108651229D01*
X139804040Y-109784070D01*
X139804040Y-109826826D01*
X138819157Y-109251516D01*
X138811177Y-109246742D01*
X138803600Y-109241490D01*
X138796440Y-109235781D01*
X138789715Y-109229644D01*
X138783439Y-109223105D01*
X138777625Y-109216190D01*
X138772292Y-109208920D01*
X138767457Y-109201325D01*
X138763131Y-109193431D01*
X138759331Y-109185261D01*
X138756075Y-109176843D01*
X138753375Y-109168202D01*
X138751248Y-109159364D01*
X138749709Y-109150354D01*
X138748775Y-109141199D01*
X138748460Y-109131924D01*
X138748458Y-106635316D01*
X138748460Y-106609916D01*
X142667256Y-108871573D01*
G37*
G36*
X139861560Y-105852123D02*
G01*
X139873904Y-105853149D01*
X139886281Y-105855058D01*
X139898734Y-105857852D01*
X139911316Y-105861533D01*
X139924072Y-105866102D01*
X139937047Y-105871565D01*
X139950291Y-105877919D01*
X139963850Y-105885169D01*
X140182502Y-106007936D01*
X140856024Y-106398884D01*
X142275672Y-107222479D01*
X142275673Y-105859134D01*
X142282062Y-105861118D01*
X142288369Y-105863259D01*
X142294592Y-105865553D01*
X142300728Y-105867999D01*
X142306776Y-105870592D01*
X142312731Y-105873333D01*
X142318592Y-105876217D01*
X142324356Y-105879243D01*
X143200443Y-106387667D01*
X143215201Y-106396424D01*
X143229210Y-106406076D01*
X143242442Y-106416576D01*
X143254873Y-106427873D01*
X143266469Y-106439921D01*
X143277206Y-106452671D01*
X143287055Y-106466075D01*
X143295985Y-106480086D01*
X143303972Y-106494654D01*
X143310985Y-106509732D01*
X143316996Y-106525272D01*
X143321978Y-106541227D01*
X143325901Y-106557547D01*
X143328739Y-106574185D01*
X143330460Y-106591094D01*
X143331042Y-106608223D01*
X143331043Y-109068636D01*
X141023665Y-107736406D01*
X141021337Y-107735136D01*
X138801377Y-106453494D01*
X138805405Y-106448273D01*
X138809549Y-106443171D01*
X138813809Y-106438186D01*
X138818181Y-106433326D01*
X138822663Y-106428594D01*
X138827254Y-106423989D01*
X138831950Y-106419519D01*
X138836752Y-106415183D01*
X138841653Y-106410987D01*
X138846655Y-106406933D01*
X138851754Y-106403022D01*
X138856949Y-106399261D01*
X138862236Y-106395652D01*
X138867615Y-106392197D01*
X138873081Y-106388899D01*
X138878635Y-106385761D01*
X138880329Y-106384703D01*
X139727206Y-105892366D01*
X139730321Y-105890420D01*
X139733473Y-105888546D01*
X139736660Y-105886738D01*
X139739880Y-105884984D01*
X139743128Y-105883281D01*
X139746405Y-105881621D01*
X139753030Y-105878396D01*
X139753541Y-105878156D01*
X139754047Y-105877914D01*
X139754539Y-105877670D01*
X139755018Y-105877427D01*
X139755913Y-105876957D01*
X139756707Y-105876518D01*
X139757058Y-105876316D01*
X139757372Y-105876128D01*
X139757648Y-105875958D01*
X139757882Y-105875806D01*
X139758069Y-105875676D01*
X139758207Y-105875570D01*
X139758291Y-105875488D01*
X139758314Y-105875456D01*
X139758322Y-105875433D01*
X139772103Y-105869476D01*
X139785540Y-105864384D01*
X139798679Y-105860158D01*
X139811569Y-105856803D01*
X139824254Y-105854319D01*
X139836783Y-105852710D01*
X139849203Y-105851978D01*
X139861560Y-105852123D01*
G37*
G36*
X145636114Y-111097733D02*
G01*
X145639757Y-111097905D01*
X145643214Y-111098189D01*
X145646489Y-111098579D01*
X145649588Y-111099071D01*
X145652514Y-111099661D01*
X145655273Y-111100344D01*
X145657868Y-111101116D01*
X145660304Y-111101973D01*
X145662587Y-111102909D01*
X145664720Y-111103922D01*
X145666707Y-111105007D01*
X145668554Y-111106158D01*
X145670264Y-111107373D01*
X145671842Y-111108647D01*
X145673294Y-111109976D01*
X145674621Y-111111354D01*
X145675831Y-111112779D01*
X145676929Y-111114246D01*
X145677916Y-111115749D01*
X145678798Y-111117286D01*
X145679580Y-111118851D01*
X145680860Y-111122052D01*
X145681795Y-111125313D01*
X145682416Y-111128606D01*
X145682764Y-111131891D01*
X145682872Y-111135137D01*
X145682839Y-111137599D01*
X145682702Y-111139982D01*
X145682462Y-111142288D01*
X145682119Y-111144513D01*
X145681672Y-111146662D01*
X145681120Y-111148734D01*
X145680467Y-111150725D01*
X145679710Y-111152640D01*
X145678849Y-111154477D01*
X145677886Y-111156235D01*
X145676820Y-111157915D01*
X145675652Y-111159516D01*
X145674383Y-111161039D01*
X145673009Y-111162485D01*
X145671536Y-111163852D01*
X145669960Y-111165141D01*
X145668281Y-111166353D01*
X145666502Y-111167485D01*
X145664621Y-111168540D01*
X145662639Y-111169517D01*
X145660556Y-111170415D01*
X145658371Y-111171237D01*
X145656087Y-111171978D01*
X145653701Y-111172642D01*
X145651215Y-111173228D01*
X145648629Y-111173736D01*
X145645942Y-111174166D01*
X145643156Y-111174518D01*
X145640269Y-111174792D01*
X145637283Y-111174988D01*
X145634197Y-111175104D01*
X145631013Y-111175143D01*
X145567935Y-111175143D01*
X145567935Y-111165618D01*
X145577673Y-111165618D01*
X145631225Y-111165618D01*
X145634641Y-111165570D01*
X145637874Y-111165432D01*
X145640925Y-111165202D01*
X145643799Y-111164890D01*
X145646505Y-111164494D01*
X145649044Y-111164020D01*
X145651422Y-111163470D01*
X145653644Y-111162850D01*
X145655717Y-111162159D01*
X145657644Y-111161405D01*
X145659432Y-111160588D01*
X145661083Y-111159712D01*
X145662604Y-111158782D01*
X145664002Y-111157801D01*
X145665278Y-111156771D01*
X145666441Y-111155695D01*
X145667493Y-111154579D01*
X145668440Y-111153424D01*
X145669288Y-111152236D01*
X145670041Y-111151015D01*
X145670706Y-111149765D01*
X145671286Y-111148491D01*
X145672212Y-111145883D01*
X145672861Y-111143217D01*
X145673276Y-111140519D01*
X145673494Y-111137817D01*
X145673558Y-111135137D01*
X145673477Y-111131931D01*
X145673287Y-111129966D01*
X145672916Y-111127826D01*
X145672645Y-111126706D01*
X145672304Y-111125562D01*
X145671890Y-111124400D01*
X145671393Y-111123227D01*
X145670805Y-111122049D01*
X145670120Y-111120872D01*
X145669329Y-111119703D01*
X145668425Y-111118548D01*
X145667402Y-111117413D01*
X145666250Y-111116305D01*
X145664962Y-111115232D01*
X145663533Y-111114196D01*
X145661953Y-111113207D01*
X145660215Y-111112271D01*
X145658309Y-111111393D01*
X145656234Y-111110582D01*
X145653977Y-111109841D01*
X145651532Y-111109177D01*
X145648893Y-111108600D01*
X145646049Y-111108112D01*
X145642995Y-111107721D01*
X145639723Y-111107434D01*
X145636226Y-111107258D01*
X145632495Y-111107197D01*
X145577673Y-111107197D01*
X145577673Y-111165618D01*
X145567935Y-111165618D01*
X145567935Y-111165617D01*
X145567936Y-111097673D01*
X145632283Y-111097673D01*
X145636114Y-111097733D01*
G37*
G36*
X142171109Y-112933458D02*
G01*
X142171109Y-113271066D01*
X142171252Y-113278659D01*
X142171674Y-113286078D01*
X142172375Y-113293316D01*
X142173350Y-113300369D01*
X142174595Y-113307234D01*
X142176103Y-113313907D01*
X142177876Y-113320384D01*
X142179907Y-113326659D01*
X142182192Y-113332727D01*
X142184725Y-113338587D01*
X142187507Y-113344232D01*
X142190532Y-113349658D01*
X142193794Y-113354862D01*
X142197291Y-113359839D01*
X142201020Y-113364584D01*
X142204976Y-113369094D01*
X142209155Y-113373364D01*
X142213554Y-113377389D01*
X142218166Y-113381167D01*
X142222993Y-113384689D01*
X142228025Y-113387956D01*
X142233263Y-113390961D01*
X142238700Y-113393701D01*
X142244332Y-113396171D01*
X142250158Y-113398365D01*
X142256172Y-113400282D01*
X142262370Y-113401915D01*
X142268749Y-113403261D01*
X142275304Y-113404316D01*
X142282033Y-113405074D01*
X142288931Y-113405532D01*
X142295993Y-113405685D01*
X142302997Y-113405532D01*
X142309838Y-113405073D01*
X142316512Y-113404316D01*
X142323018Y-113403261D01*
X142329347Y-113401915D01*
X142335500Y-113400282D01*
X142341470Y-113398365D01*
X142347253Y-113396171D01*
X142352846Y-113393701D01*
X142358245Y-113390961D01*
X142363447Y-113387957D01*
X142368445Y-113384689D01*
X142373239Y-113381167D01*
X142377824Y-113377390D01*
X142382194Y-113373364D01*
X142386348Y-113369095D01*
X142390280Y-113364584D01*
X142393987Y-113359838D01*
X142397462Y-113354862D01*
X142400708Y-113349658D01*
X142403714Y-113344232D01*
X142406482Y-113338586D01*
X142409002Y-113332728D01*
X142411275Y-113326659D01*
X142413295Y-113320383D01*
X142415057Y-113313907D01*
X142416561Y-113307234D01*
X142417799Y-113300370D01*
X142418769Y-113293316D01*
X142419467Y-113286077D01*
X142419889Y-113278659D01*
X142420029Y-113271066D01*
X142420029Y-112933458D01*
X142529673Y-112933458D01*
X142529673Y-113277416D01*
X142529423Y-113290735D01*
X142528679Y-113303743D01*
X142527442Y-113316432D01*
X142525718Y-113328793D01*
X142523511Y-113340820D01*
X142520823Y-113352506D01*
X142517661Y-113363843D01*
X142514027Y-113374825D01*
X142509925Y-113385443D01*
X142505361Y-113395692D01*
X142500337Y-113405562D01*
X142494859Y-113415048D01*
X142488927Y-113424142D01*
X142482551Y-113432836D01*
X142475731Y-113441124D01*
X142468474Y-113448999D01*
X142460783Y-113456451D01*
X142452659Y-113463475D01*
X142444108Y-113470065D01*
X142435137Y-113476210D01*
X142425746Y-113481907D01*
X142415940Y-113487146D01*
X142405725Y-113491920D01*
X142395102Y-113496223D01*
X142384079Y-113500046D01*
X142372657Y-113503383D01*
X142360840Y-113506228D01*
X142348635Y-113508570D01*
X142336042Y-113510405D01*
X142323069Y-113511724D01*
X142309716Y-113512522D01*
X142295992Y-113512790D01*
X142282190Y-113512522D01*
X142268767Y-113511725D01*
X142255726Y-113510405D01*
X142243072Y-113508571D01*
X142230807Y-113506227D01*
X142218936Y-113503384D01*
X142207465Y-113500046D01*
X142196393Y-113496223D01*
X142185728Y-113491921D01*
X142175473Y-113487146D01*
X142165634Y-113481907D01*
X142156210Y-113476210D01*
X142147207Y-113470065D01*
X142138631Y-113463476D01*
X142130483Y-113456451D01*
X142122771Y-113448998D01*
X142115494Y-113441124D01*
X142108657Y-113432836D01*
X142102268Y-113424142D01*
X142096325Y-113415048D01*
X142090837Y-113405562D01*
X142085805Y-113395692D01*
X142081234Y-113385443D01*
X142077127Y-113374825D01*
X142073488Y-113363843D01*
X142070322Y-113352506D01*
X142067632Y-113340820D01*
X142065421Y-113328793D01*
X142063698Y-113316431D01*
X142062461Y-113303743D01*
X142061716Y-113290735D01*
X142061467Y-113277415D01*
X142061467Y-112933457D01*
X142171109Y-112933458D01*
G37*
G36*
X141565780Y-112933770D02*
G01*
X141581404Y-112934703D01*
X141596722Y-112936251D01*
X141611720Y-112938405D01*
X141626386Y-112941159D01*
X141640704Y-112944507D01*
X141654663Y-112948441D01*
X141668247Y-112952954D01*
X141681439Y-112958041D01*
X141694230Y-112963693D01*
X141706605Y-112969903D01*
X141718546Y-112976667D01*
X141730043Y-112983974D01*
X141741080Y-112991822D01*
X141751644Y-113000199D01*
X141761719Y-113009103D01*
X141771294Y-113018523D01*
X141780354Y-113028454D01*
X141788881Y-113038889D01*
X141796867Y-113049822D01*
X141804294Y-113061247D01*
X141811149Y-113073152D01*
X141817417Y-113085537D01*
X141823086Y-113098390D01*
X141828142Y-113111705D01*
X141832568Y-113125477D01*
X141836352Y-113139698D01*
X141839478Y-113154363D01*
X141841936Y-113169461D01*
X141843707Y-113184988D01*
X141844782Y-113200938D01*
X141845143Y-113217302D01*
X141844782Y-113233687D01*
X141843708Y-113249654D01*
X141841936Y-113265199D01*
X141839477Y-113280313D01*
X141836352Y-113294991D01*
X141832568Y-113309226D01*
X141828142Y-113323011D01*
X141823087Y-113336338D01*
X141817417Y-113349202D01*
X141811149Y-113361595D01*
X141804294Y-113373511D01*
X141796867Y-113384942D01*
X141788881Y-113395883D01*
X141780354Y-113406325D01*
X141771294Y-113416262D01*
X141761720Y-113425688D01*
X141751644Y-113434596D01*
X141741081Y-113442978D01*
X141730042Y-113450829D01*
X141718546Y-113458139D01*
X141706605Y-113464905D01*
X141694231Y-113471118D01*
X141681439Y-113476772D01*
X141668246Y-113481859D01*
X141654663Y-113486375D01*
X141640704Y-113490310D01*
X141626386Y-113493657D01*
X141611719Y-113496412D01*
X141596722Y-113498566D01*
X141581404Y-113500113D01*
X141565782Y-113501047D01*
X141549869Y-113501359D01*
X141368046Y-113501359D01*
X141368046Y-113405687D01*
X141471975Y-113405687D01*
X141554735Y-113405686D01*
X141564244Y-113405495D01*
X141573589Y-113404919D01*
X141582763Y-113403963D01*
X141591756Y-113402628D01*
X141600561Y-113400913D01*
X141609167Y-113398824D01*
X141617565Y-113396357D01*
X141625747Y-113393518D01*
X141633703Y-113390309D01*
X141641424Y-113386727D01*
X141648900Y-113382778D01*
X141656121Y-113378462D01*
X141663081Y-113373782D01*
X141669770Y-113368734D01*
X141676175Y-113363326D01*
X141682292Y-113357558D01*
X141688108Y-113351431D01*
X141693617Y-113344946D01*
X141698807Y-113338105D01*
X141703669Y-113330910D01*
X141708197Y-113323362D01*
X141712377Y-113315464D01*
X141716205Y-113307215D01*
X141719668Y-113298619D01*
X141722758Y-113289677D01*
X141725465Y-113280390D01*
X141727782Y-113270758D01*
X141729697Y-113260787D01*
X141731204Y-113250474D01*
X141732291Y-113239824D01*
X141732950Y-113228836D01*
X141733171Y-113217514D01*
X141732949Y-113206192D01*
X141732290Y-113195205D01*
X141731203Y-113184555D01*
X141729698Y-113174242D01*
X141727782Y-113164271D01*
X141725466Y-113154639D01*
X141722758Y-113145352D01*
X141719667Y-113136409D01*
X141716204Y-113127814D01*
X141712377Y-113119565D01*
X141708196Y-113111667D01*
X141703669Y-113104119D01*
X141698807Y-113096924D01*
X141693616Y-113090082D01*
X141688109Y-113083597D01*
X141682291Y-113077471D01*
X141676175Y-113071701D01*
X141669769Y-113066295D01*
X141663081Y-113061249D01*
X141656120Y-113056566D01*
X141648900Y-113052251D01*
X141641424Y-113048302D01*
X141633703Y-113044720D01*
X141625748Y-113041510D01*
X141617566Y-113038671D01*
X141609166Y-113036205D01*
X141600561Y-113034115D01*
X141591757Y-113032401D01*
X141582763Y-113031066D01*
X141573589Y-113030110D01*
X141564244Y-113029534D01*
X141554736Y-113029343D01*
X141471975Y-113029342D01*
X141471975Y-113405687D01*
X141368046Y-113405687D01*
X141368046Y-113405686D01*
X141368047Y-112933458D01*
X141549868Y-112933458D01*
X141565780Y-112933770D01*
G37*
G36*
X142243089Y-110996071D02*
G01*
X142285287Y-110998593D01*
X142326664Y-111002772D01*
X142367183Y-111008592D01*
X142406804Y-111016034D01*
X142445491Y-111025079D01*
X142483205Y-111035708D01*
X142519907Y-111047904D01*
X142555560Y-111061648D01*
X142590125Y-111076922D01*
X142623564Y-111093706D01*
X142655838Y-111111982D01*
X142686911Y-111131733D01*
X142716743Y-111152939D01*
X142745297Y-111175582D01*
X142772534Y-111199643D01*
X142798416Y-111225105D01*
X142822904Y-111251949D01*
X142845962Y-111280156D01*
X142867550Y-111309709D01*
X142887631Y-111340586D01*
X142906165Y-111372773D01*
X142923117Y-111406250D01*
X142938445Y-111440996D01*
X142952112Y-111476997D01*
X142964082Y-111514229D01*
X142974314Y-111552680D01*
X142982773Y-111592326D01*
X142989418Y-111633152D01*
X142994211Y-111675138D01*
X142997114Y-111718266D01*
X142998091Y-111762519D01*
X142997114Y-111806769D01*
X142994211Y-111849897D01*
X142989417Y-111891884D01*
X142982773Y-111932709D01*
X142974315Y-111972356D01*
X142964082Y-112010806D01*
X142952113Y-112048040D01*
X142938445Y-112084039D01*
X142923117Y-112118786D01*
X142906165Y-112152262D01*
X142887631Y-112184450D01*
X142867551Y-112215327D01*
X142845962Y-112244879D01*
X142822904Y-112273086D01*
X142798415Y-112299930D01*
X142772535Y-112325392D01*
X142745298Y-112349454D01*
X142716743Y-112372098D01*
X142686912Y-112393303D01*
X142655838Y-112413053D01*
X142623564Y-112431330D01*
X142590125Y-112448114D01*
X142555560Y-112463387D01*
X142519907Y-112477130D01*
X142483204Y-112489327D01*
X142445490Y-112499957D01*
X142406804Y-112509002D01*
X142367182Y-112516444D01*
X142326664Y-112522264D01*
X142285287Y-112526443D01*
X142243089Y-112528964D01*
X142200109Y-112529809D01*
X141709042Y-112529809D01*
X141709042Y-112271152D01*
X141709042Y-111253882D01*
X141989500Y-111253882D01*
X141989500Y-112271152D01*
X142213020Y-112271152D01*
X142238707Y-112270633D01*
X142263957Y-112269078D01*
X142288749Y-112266490D01*
X142313054Y-112262875D01*
X142336850Y-112258238D01*
X142360109Y-112252582D01*
X142382809Y-112245912D01*
X142404926Y-112238232D01*
X142426431Y-112229547D01*
X142447302Y-112219861D01*
X142467512Y-112209179D01*
X142487038Y-112197506D01*
X142505854Y-112184844D01*
X142523937Y-112171198D01*
X142541259Y-112156576D01*
X142557799Y-112140978D01*
X142573527Y-112124411D01*
X142588423Y-112106877D01*
X142602459Y-112088384D01*
X142615609Y-112068933D01*
X142627853Y-112048529D01*
X142639162Y-112027179D01*
X142649512Y-112004886D01*
X142658878Y-111981652D01*
X142667236Y-111957486D01*
X142674562Y-111932387D01*
X142680827Y-111906365D01*
X142686010Y-111879420D01*
X142690085Y-111851558D01*
X142693026Y-111822785D01*
X142694808Y-111793104D01*
X142695406Y-111762519D01*
X142694808Y-111731932D01*
X142693026Y-111702252D01*
X142690085Y-111673477D01*
X142686010Y-111645615D01*
X142680827Y-111618672D01*
X142674562Y-111592649D01*
X142667237Y-111567550D01*
X142658878Y-111543383D01*
X142649512Y-111520151D01*
X142639162Y-111497856D01*
X142627853Y-111476505D01*
X142615610Y-111456102D01*
X142602459Y-111436652D01*
X142588423Y-111418158D01*
X142573527Y-111400625D01*
X142557798Y-111384057D01*
X142541259Y-111368461D01*
X142523937Y-111353836D01*
X142505855Y-111340191D01*
X142487038Y-111327530D01*
X142467512Y-111315857D01*
X142447300Y-111305175D01*
X142426430Y-111295489D01*
X142404924Y-111286803D01*
X142382809Y-111279123D01*
X142360109Y-111272453D01*
X142336849Y-111266797D01*
X142313053Y-111262161D01*
X142288747Y-111258546D01*
X142263957Y-111255958D01*
X142238706Y-111254402D01*
X142213019Y-111253882D01*
X141989500Y-111253882D01*
X141709042Y-111253882D01*
X141709042Y-110995226D01*
X142200109Y-110995226D01*
X142243089Y-110996071D01*
G37*
G36*
X140905852Y-110995776D02*
G01*
X140933408Y-110997411D01*
X140960268Y-111000115D01*
X140986416Y-111003869D01*
X141011842Y-111008653D01*
X141036527Y-111014451D01*
X141060460Y-111021242D01*
X141083626Y-111029009D01*
X141106010Y-111037733D01*
X141127602Y-111047396D01*
X141148383Y-111057981D01*
X141168343Y-111069464D01*
X141187464Y-111081833D01*
X141205737Y-111095065D01*
X141223142Y-111109145D01*
X141239670Y-111124051D01*
X141255304Y-111139767D01*
X141270033Y-111156273D01*
X141283838Y-111173552D01*
X141296710Y-111191586D01*
X141308632Y-111210354D01*
X141319592Y-111229839D01*
X141329575Y-111250022D01*
X141338565Y-111270886D01*
X141346551Y-111292409D01*
X141353518Y-111314576D01*
X141359451Y-111337368D01*
X141364337Y-111360766D01*
X141368161Y-111384751D01*
X141370911Y-111409305D01*
X141372569Y-111434410D01*
X141373127Y-111460046D01*
X141371569Y-111502105D01*
X141369634Y-111522604D01*
X141366937Y-111542731D01*
X141363487Y-111562474D01*
X141359293Y-111581822D01*
X141354359Y-111600763D01*
X141348694Y-111619281D01*
X141342308Y-111637368D01*
X141335208Y-111655007D01*
X141327399Y-111672190D01*
X141318890Y-111688902D01*
X141309689Y-111705131D01*
X141299803Y-111720864D01*
X141289241Y-111736090D01*
X141278009Y-111750796D01*
X141266115Y-111764969D01*
X141253568Y-111778596D01*
X141240374Y-111791667D01*
X141226541Y-111804168D01*
X141212077Y-111816085D01*
X141196990Y-111827407D01*
X141181286Y-111838124D01*
X141164976Y-111848219D01*
X141148064Y-111857682D01*
X141130559Y-111866501D01*
X141112468Y-111874664D01*
X141093799Y-111882155D01*
X141074561Y-111888965D01*
X141054761Y-111895081D01*
X141034406Y-111900491D01*
X141013504Y-111905180D01*
X141467318Y-112530020D01*
X141114258Y-112530021D01*
X140697910Y-111918092D01*
X140592711Y-111918093D01*
X140592711Y-112529809D01*
X140312042Y-112529809D01*
X140312042Y-111670443D01*
X140592711Y-111670443D01*
X140833799Y-111670443D01*
X140863203Y-111669548D01*
X140877159Y-111668437D01*
X140890619Y-111666888D01*
X140903586Y-111664908D01*
X140916061Y-111662500D01*
X140928045Y-111659667D01*
X140939540Y-111656416D01*
X140950549Y-111652751D01*
X140961070Y-111648676D01*
X140971109Y-111644194D01*
X140980663Y-111639312D01*
X140989736Y-111634032D01*
X140998332Y-111628361D01*
X141006448Y-111622301D01*
X141014087Y-111615859D01*
X141021252Y-111609037D01*
X141027943Y-111601842D01*
X141034162Y-111594277D01*
X141039909Y-111586344D01*
X141045190Y-111578053D01*
X141050002Y-111569403D01*
X141054350Y-111560401D01*
X141058232Y-111551053D01*
X141061653Y-111541360D01*
X141064612Y-111531329D01*
X141067112Y-111520964D01*
X141069153Y-111510269D01*
X141070738Y-111499249D01*
X141071868Y-111487907D01*
X141072771Y-111464279D01*
X141072546Y-111452688D01*
X141071869Y-111441336D01*
X141070739Y-111430232D01*
X141069153Y-111419384D01*
X141067112Y-111408800D01*
X141064612Y-111398489D01*
X141061653Y-111388459D01*
X141058232Y-111378721D01*
X141054350Y-111369278D01*
X141050003Y-111360144D01*
X141045190Y-111351325D01*
X141039910Y-111342829D01*
X141034162Y-111334664D01*
X141027940Y-111326842D01*
X141021251Y-111319367D01*
X141014087Y-111312250D01*
X141006447Y-111305499D01*
X140998330Y-111299122D01*
X140989737Y-111293128D01*
X140980663Y-111287526D01*
X140971106Y-111282322D01*
X140961070Y-111277527D01*
X140950548Y-111273150D01*
X140939540Y-111269196D01*
X140928044Y-111265676D01*
X140916061Y-111262597D01*
X140903585Y-111259971D01*
X140890619Y-111257801D01*
X140877159Y-111256099D01*
X140863202Y-111254874D01*
X140848750Y-111254133D01*
X140833800Y-111253882D01*
X140592712Y-111253882D01*
X140592711Y-111670443D01*
X140312042Y-111670443D01*
X140312042Y-111670442D01*
X140312042Y-110995226D01*
X140877615Y-110995225D01*
X140905852Y-110995776D01*
G37*
G36*
X145024669Y-112933661D02*
G01*
X145034865Y-112934267D01*
X145044808Y-112935268D01*
X145054484Y-112936659D01*
X145063892Y-112938431D01*
X145073027Y-112940578D01*
X145081882Y-112943093D01*
X145090453Y-112945969D01*
X145098734Y-112949201D01*
X145106721Y-112952779D01*
X145114410Y-112956697D01*
X145121792Y-112960951D01*
X145128866Y-112965531D01*
X145135624Y-112970429D01*
X145142063Y-112975642D01*
X145148175Y-112981163D01*
X145153957Y-112986981D01*
X145159403Y-112993094D01*
X145164509Y-112999491D01*
X145169268Y-113006167D01*
X145173677Y-113013115D01*
X145177729Y-113020328D01*
X145181419Y-113027801D01*
X145184744Y-113035524D01*
X145187696Y-113043492D01*
X145190272Y-113051698D01*
X145192465Y-113060135D01*
X145194270Y-113068796D01*
X145195685Y-113077674D01*
X145196701Y-113086762D01*
X145197315Y-113096054D01*
X145197520Y-113105543D01*
X145196942Y-113121124D01*
X145196227Y-113128717D01*
X145195229Y-113136172D01*
X145193951Y-113143484D01*
X145192398Y-113150650D01*
X145190572Y-113157664D01*
X145188475Y-113164522D01*
X145186109Y-113171219D01*
X145183480Y-113177750D01*
X145180589Y-113184111D01*
X145177440Y-113190296D01*
X145174033Y-113196303D01*
X145170372Y-113202126D01*
X145166461Y-113207761D01*
X145162303Y-113213203D01*
X145157900Y-113218446D01*
X145153254Y-113223487D01*
X145148371Y-113228320D01*
X145143250Y-113232943D01*
X145137895Y-113237347D01*
X145132309Y-113241532D01*
X145126495Y-113245493D01*
X145120457Y-113249222D01*
X145114196Y-113252716D01*
X145107715Y-113255972D01*
X145101018Y-113258983D01*
X145094106Y-113261745D01*
X145086984Y-113264256D01*
X145079655Y-113266507D01*
X145072120Y-113268497D01*
X145064381Y-113270219D01*
X145232444Y-113501571D01*
X145101846Y-113501571D01*
X144947752Y-113274876D01*
X144908806Y-113274876D01*
X144908807Y-113501359D01*
X144804878Y-113501359D01*
X144804877Y-113183225D01*
X144804877Y-113029131D01*
X144908806Y-113029131D01*
X144908806Y-113183225D01*
X144998129Y-113183225D01*
X145009029Y-113182895D01*
X145014202Y-113182483D01*
X145019191Y-113181912D01*
X145023995Y-113181180D01*
X145028617Y-113180291D01*
X145033057Y-113179245D01*
X145037314Y-113178046D01*
X145041392Y-113176692D01*
X145045287Y-113175186D01*
X145049004Y-113173530D01*
X145052542Y-113171727D01*
X145055899Y-113169778D01*
X145059081Y-113167682D01*
X145062084Y-113165444D01*
X145064911Y-113163064D01*
X145067561Y-113160542D01*
X145070036Y-113157883D01*
X145072335Y-113155088D01*
X145074462Y-113152157D01*
X145076414Y-113149091D01*
X145078194Y-113145894D01*
X145079800Y-113142567D01*
X145081235Y-113139111D01*
X145082499Y-113135528D01*
X145083593Y-113131820D01*
X145084516Y-113127987D01*
X145085270Y-113124033D01*
X145085854Y-113119958D01*
X145086273Y-113115763D01*
X145086606Y-113107024D01*
X145086523Y-113102722D01*
X145086272Y-113098510D01*
X145085855Y-113094392D01*
X145085270Y-113090369D01*
X145084516Y-113086444D01*
X145083592Y-113082623D01*
X145082499Y-113078906D01*
X145081234Y-113075298D01*
X145079800Y-113071800D01*
X145078194Y-113068417D01*
X145076414Y-113065152D01*
X145074462Y-113062008D01*
X145072335Y-113058987D01*
X145070036Y-113056091D01*
X145067561Y-113053326D01*
X145064910Y-113050695D01*
X145062084Y-113048198D01*
X145059081Y-113045840D01*
X145055899Y-113043626D01*
X145052542Y-113041554D01*
X145049004Y-113039633D01*
X145045288Y-113037860D01*
X145041392Y-113036243D01*
X145037315Y-113034783D01*
X145033056Y-113033484D01*
X145028617Y-113032347D01*
X145023995Y-113031378D01*
X145019191Y-113030577D01*
X145014201Y-113029949D01*
X145009030Y-113029496D01*
X145003673Y-113029223D01*
X144998128Y-113029131D01*
X144908806Y-113029131D01*
X144804877Y-113029131D01*
X144804877Y-112933458D01*
X145014216Y-112933458D01*
X145024669Y-112933661D01*
G37*
G36*
X139460155Y-112923397D02*
G01*
X139475777Y-112924310D01*
X139490879Y-112925800D01*
X139505475Y-112927842D01*
X139519583Y-112930406D01*
X139533216Y-112933466D01*
X139546389Y-112936997D01*
X139559117Y-112940971D01*
X139571416Y-112945362D01*
X139583302Y-112950143D01*
X139594787Y-112955288D01*
X139605891Y-112960770D01*
X139616627Y-112966561D01*
X139627009Y-112972635D01*
X139637052Y-112978966D01*
X139646772Y-112985528D01*
X139586660Y-113076332D01*
X139579960Y-113071793D01*
X139572957Y-113067326D01*
X139565652Y-113062957D01*
X139558044Y-113058722D01*
X139550135Y-113054648D01*
X139541922Y-113050768D01*
X139533407Y-113047111D01*
X139524588Y-113043710D01*
X139515467Y-113040594D01*
X139506044Y-113037793D01*
X139496318Y-113035338D01*
X139486290Y-113033262D01*
X139475958Y-113031593D01*
X139465324Y-113030364D01*
X139454389Y-113029603D01*
X139443149Y-113029343D01*
X139432896Y-113029558D01*
X139422815Y-113030201D01*
X139412921Y-113031264D01*
X139403221Y-113032743D01*
X139393725Y-113034632D01*
X139384443Y-113036924D01*
X139375385Y-113039616D01*
X139366563Y-113042698D01*
X139357983Y-113046167D01*
X139349659Y-113050016D01*
X139341598Y-113054241D01*
X139333810Y-113058833D01*
X139326306Y-113063789D01*
X139319095Y-113069103D01*
X139312188Y-113074767D01*
X139305593Y-113080778D01*
X139299321Y-113087128D01*
X139293384Y-113093812D01*
X139287788Y-113100826D01*
X139282546Y-113108159D01*
X139277665Y-113115811D01*
X139273158Y-113123773D01*
X139269032Y-113132040D01*
X139265301Y-113140607D01*
X139261970Y-113149466D01*
X139259051Y-113158613D01*
X139256554Y-113168042D01*
X139254490Y-113177747D01*
X139252866Y-113187721D01*
X139251693Y-113197961D01*
X139250983Y-113208459D01*
X139250745Y-113219208D01*
X139250983Y-113229959D01*
X139251692Y-113240456D01*
X139252861Y-113250694D01*
X139254481Y-113260669D01*
X139256539Y-113270374D01*
X139259033Y-113279802D01*
X139261946Y-113288949D01*
X139265271Y-113297809D01*
X139268996Y-113306375D01*
X139273116Y-113314643D01*
X139277616Y-113322605D01*
X139282490Y-113330256D01*
X139287726Y-113337591D01*
X139293316Y-113344603D01*
X139299248Y-113351288D01*
X139305513Y-113357638D01*
X139312103Y-113363649D01*
X139319007Y-113369313D01*
X139326213Y-113374627D01*
X139333716Y-113379583D01*
X139341504Y-113384176D01*
X139349565Y-113388400D01*
X139357891Y-113392250D01*
X139366474Y-113395718D01*
X139375301Y-113398801D01*
X139384365Y-113401491D01*
X139393653Y-113403783D01*
X139403160Y-113405673D01*
X139412872Y-113407151D01*
X139422781Y-113408215D01*
X139432877Y-113408858D01*
X139443150Y-113409073D01*
X139454426Y-113408813D01*
X139465394Y-113408053D01*
X139476055Y-113406822D01*
X139486408Y-113405154D01*
X139496455Y-113403077D01*
X139506193Y-113400623D01*
X139515624Y-113397822D01*
X139524746Y-113394706D01*
X139533563Y-113391304D01*
X139542071Y-113387647D01*
X139550271Y-113383767D01*
X139558164Y-113379694D01*
X139565750Y-113375459D01*
X139573027Y-113371090D01*
X139579997Y-113366623D01*
X139586660Y-113362082D01*
X139646773Y-113452888D01*
X139637052Y-113459484D01*
X139627009Y-113465841D01*
X139616627Y-113471934D01*
X139605891Y-113477735D01*
X139594787Y-113483221D01*
X139583302Y-113488365D01*
X139571415Y-113493141D01*
X139559116Y-113497524D01*
X139546388Y-113501486D01*
X139533214Y-113505006D01*
X139519582Y-113508053D01*
X139505475Y-113510604D01*
X139490877Y-113512633D01*
X139475776Y-113514115D01*
X139460154Y-113515021D01*
X139443997Y-113515331D01*
X139427342Y-113514989D01*
X139411008Y-113513974D01*
X139395003Y-113512293D01*
X139379344Y-113509960D01*
X139364045Y-113506979D01*
X139349118Y-113503366D01*
X139334578Y-113499126D01*
X139320440Y-113494272D01*
X139306715Y-113488813D01*
X139293419Y-113482759D01*
X139280564Y-113476120D01*
X139268167Y-113468906D01*
X139256240Y-113461127D01*
X139244795Y-113452794D01*
X139233849Y-113443913D01*
X139223414Y-113434499D01*
X139213503Y-113424560D01*
X139204133Y-113414104D01*
X139195314Y-113403144D01*
X139187064Y-113391688D01*
X139179393Y-113379747D01*
X139172317Y-113367330D01*
X139165848Y-113354449D01*
X139160003Y-113341111D01*
X139154793Y-113327328D01*
X139150233Y-113313109D01*
X139146336Y-113298465D01*
X139143117Y-113283405D01*
X139140588Y-113267940D01*
X139138766Y-113252077D01*
X139137662Y-113235831D01*
X139137292Y-113219207D01*
X139137662Y-113202585D01*
X139138766Y-113186337D01*
X139140588Y-113170476D01*
X139143117Y-113155010D01*
X139146336Y-113139950D01*
X139150233Y-113125306D01*
X139154793Y-113111088D01*
X139160003Y-113097305D01*
X139165849Y-113083966D01*
X139172316Y-113071085D01*
X139179392Y-113058669D01*
X139187064Y-113046727D01*
X139195315Y-113035271D01*
X139204133Y-113024310D01*
X139213504Y-113013855D01*
X139223413Y-113003917D01*
X139233849Y-112994501D01*
X139244795Y-112985622D01*
X139256239Y-112977288D01*
X139268167Y-112969509D01*
X139280564Y-112962296D01*
X139293418Y-112955657D01*
X139306715Y-112949602D01*
X139320440Y-112944143D01*
X139334579Y-112939289D01*
X139349118Y-112935050D01*
X139364045Y-112931435D01*
X139379343Y-112928456D01*
X139395004Y-112926121D01*
X139411007Y-112924441D01*
X139427343Y-112923426D01*
X139443997Y-112923085D01*
X139460155Y-112923397D01*
G37*
G36*
X143068224Y-112921491D02*
G01*
X143083846Y-112922406D01*
X143098949Y-112923896D01*
X143113546Y-112925936D01*
X143127652Y-112928501D01*
X143141285Y-112931561D01*
X143154458Y-112935092D01*
X143167187Y-112939066D01*
X143179485Y-112943458D01*
X143191371Y-112948238D01*
X143202859Y-112953383D01*
X143213961Y-112958865D01*
X143224696Y-112964656D01*
X143235077Y-112970731D01*
X143245121Y-112977061D01*
X143254842Y-112983623D01*
X143194730Y-113074427D01*
X143188030Y-113069888D01*
X143181028Y-113065420D01*
X143173721Y-113061052D01*
X143166115Y-113056816D01*
X143158205Y-113052743D01*
X143149992Y-113048863D01*
X143141476Y-113045206D01*
X143132657Y-113041805D01*
X143123538Y-113038688D01*
X143114113Y-113035888D01*
X143104387Y-113033433D01*
X143094360Y-113031357D01*
X143084029Y-113029688D01*
X143073395Y-113028458D01*
X143062458Y-113027698D01*
X143051218Y-113027438D01*
X143040965Y-113027653D01*
X143030884Y-113028296D01*
X143020991Y-113029359D01*
X143011288Y-113030838D01*
X143001794Y-113032728D01*
X142992513Y-113035020D01*
X142983456Y-113037711D01*
X142974632Y-113040794D01*
X142966054Y-113044261D01*
X142957729Y-113048111D01*
X142949667Y-113052336D01*
X142941879Y-113056928D01*
X142934375Y-113061884D01*
X142927164Y-113067198D01*
X142920257Y-113072862D01*
X142913663Y-113078873D01*
X142907390Y-113085223D01*
X142901453Y-113091908D01*
X142895857Y-113098921D01*
X142890616Y-113106255D01*
X142885736Y-113113906D01*
X142881227Y-113121868D01*
X142877103Y-113130135D01*
X142873370Y-113138702D01*
X142870039Y-113147561D01*
X142867121Y-113156708D01*
X142864623Y-113166137D01*
X142862558Y-113175843D01*
X142860936Y-113185816D01*
X142859764Y-113196055D01*
X142859054Y-113206553D01*
X142858815Y-113217304D01*
X142859052Y-113228053D01*
X142859761Y-113238551D01*
X142860931Y-113248789D01*
X142862550Y-113258764D01*
X142864611Y-113268469D01*
X142867103Y-113277898D01*
X142870015Y-113287044D01*
X142873340Y-113295904D01*
X142877065Y-113304470D01*
X142881185Y-113312738D01*
X142885685Y-113320700D01*
X142890560Y-113328351D01*
X142895796Y-113335687D01*
X142901385Y-113342699D01*
X142907316Y-113349383D01*
X142913584Y-113355733D01*
X142920173Y-113361743D01*
X142927077Y-113367408D01*
X142934282Y-113372722D01*
X142941785Y-113377678D01*
X142949572Y-113382272D01*
X142957635Y-113386495D01*
X142965961Y-113390344D01*
X142974543Y-113393813D01*
X142983371Y-113396897D01*
X142992434Y-113399586D01*
X143001724Y-113401880D01*
X143011229Y-113403768D01*
X143020942Y-113405246D01*
X143030850Y-113406311D01*
X143040946Y-113406953D01*
X143051219Y-113407168D01*
X143062496Y-113406908D01*
X143073463Y-113406147D01*
X143084124Y-113404918D01*
X143094478Y-113403249D01*
X143104525Y-113401172D01*
X143114263Y-113398718D01*
X143123694Y-113395917D01*
X143132815Y-113392801D01*
X143141633Y-113389399D01*
X143150140Y-113385744D01*
X143158340Y-113381862D01*
X143166234Y-113377789D01*
X143173819Y-113373554D01*
X143181096Y-113369185D01*
X143188066Y-113364717D01*
X143194729Y-113360178D01*
X143254842Y-113450983D01*
X143245122Y-113457579D01*
X143235078Y-113463936D01*
X143224696Y-113470029D01*
X143213961Y-113475831D01*
X143202857Y-113481317D01*
X143191370Y-113486460D01*
X143179485Y-113491237D01*
X143167185Y-113495619D01*
X143154458Y-113499581D01*
X143141285Y-113503100D01*
X143127652Y-113506148D01*
X143113546Y-113508700D01*
X143098949Y-113510728D01*
X143083846Y-113512210D01*
X143068224Y-113513116D01*
X143052066Y-113513425D01*
X143035413Y-113513103D01*
X143019078Y-113512106D01*
X143003073Y-113510442D01*
X142987414Y-113508123D01*
X142972114Y-113505158D01*
X142957188Y-113501557D01*
X142942649Y-113497329D01*
X142928509Y-113492486D01*
X142914784Y-113487037D01*
X142901489Y-113480990D01*
X142888635Y-113474358D01*
X142876238Y-113467150D01*
X142864310Y-113459375D01*
X142852864Y-113451044D01*
X142841918Y-113442167D01*
X142831484Y-113432752D01*
X142821572Y-113422812D01*
X142812202Y-113412356D01*
X142803385Y-113401392D01*
X142795133Y-113389933D01*
X142787463Y-113377985D01*
X142780387Y-113365563D01*
X142773918Y-113352672D01*
X142768072Y-113339326D01*
X142762862Y-113325531D01*
X142758302Y-113311302D01*
X142754405Y-113296644D01*
X142751187Y-113281569D01*
X142748659Y-113266088D01*
X142746835Y-113250210D01*
X142745733Y-113233945D01*
X142745362Y-113217302D01*
X142745733Y-113200680D01*
X142746836Y-113184432D01*
X142748659Y-113168570D01*
X142751187Y-113153105D01*
X142754405Y-113138046D01*
X142758302Y-113123401D01*
X142762862Y-113109183D01*
X142768072Y-113095399D01*
X142773919Y-113082062D01*
X142780387Y-113069179D01*
X142787463Y-113056763D01*
X142795134Y-113044822D01*
X142803385Y-113033366D01*
X142812202Y-113022405D01*
X142821573Y-113011951D01*
X142831484Y-113002011D01*
X142841918Y-112992597D01*
X142852864Y-112983717D01*
X142864310Y-112975383D01*
X142876237Y-112967605D01*
X142888634Y-112960391D01*
X142901488Y-112953752D01*
X142914784Y-112947697D01*
X142928508Y-112942238D01*
X142942649Y-112937384D01*
X142957188Y-112933145D01*
X142972114Y-112929532D01*
X142987415Y-112926551D01*
X143003073Y-112924216D01*
X143019078Y-112922536D01*
X143035412Y-112921522D01*
X143052067Y-112921180D01*
X143068224Y-112921491D01*
G37*
G36*
X144753720Y-110963042D02*
G01*
X144795941Y-110965504D01*
X144836751Y-110969522D01*
X144876192Y-110975023D01*
X144914308Y-110981936D01*
X144951141Y-110990190D01*
X144986732Y-110999716D01*
X145021122Y-111010440D01*
X145054353Y-111022293D01*
X145086469Y-111035204D01*
X145117509Y-111049102D01*
X145147516Y-111063915D01*
X145176532Y-111079574D01*
X145204601Y-111096005D01*
X145231762Y-111113139D01*
X145258057Y-111130905D01*
X145095920Y-111376438D01*
X145077846Y-111364161D01*
X145058950Y-111352073D01*
X145039231Y-111340255D01*
X145018688Y-111328790D01*
X144997320Y-111317765D01*
X144975131Y-111307259D01*
X144952117Y-111297359D01*
X144928279Y-111288147D01*
X144903618Y-111279707D01*
X144878134Y-111272120D01*
X144851827Y-111265472D01*
X144824695Y-111259846D01*
X144796740Y-111255326D01*
X144767962Y-111251992D01*
X144738360Y-111249932D01*
X144707934Y-111249226D01*
X144680205Y-111249808D01*
X144652951Y-111251544D01*
X144626200Y-111254418D01*
X144599979Y-111258416D01*
X144574315Y-111263518D01*
X144549233Y-111269714D01*
X144524760Y-111276982D01*
X144500922Y-111285313D01*
X144477746Y-111294685D01*
X144455259Y-111305087D01*
X144433486Y-111316501D01*
X144412455Y-111328912D01*
X144392191Y-111342305D01*
X144372724Y-111356662D01*
X144354075Y-111371971D01*
X144336275Y-111388212D01*
X144319348Y-111405372D01*
X144303321Y-111423435D01*
X144288220Y-111442384D01*
X144274073Y-111462205D01*
X144260906Y-111482883D01*
X144248746Y-111504398D01*
X144237617Y-111526739D01*
X144227547Y-111549889D01*
X144218563Y-111573831D01*
X144210692Y-111598550D01*
X144203957Y-111624030D01*
X144198388Y-111650258D01*
X144194011Y-111677213D01*
X144190851Y-111704884D01*
X144188938Y-111733255D01*
X144188293Y-111762306D01*
X144188938Y-111791358D01*
X144190852Y-111819728D01*
X144194011Y-111847398D01*
X144198389Y-111874355D01*
X144203957Y-111900582D01*
X144210692Y-111926062D01*
X144218563Y-111950781D01*
X144227547Y-111974723D01*
X144237617Y-111997872D01*
X144248745Y-112020214D01*
X144260907Y-112041730D01*
X144274073Y-112062407D01*
X144288220Y-112082228D01*
X144303321Y-112101177D01*
X144319348Y-112119240D01*
X144336275Y-112136402D01*
X144354076Y-112152642D01*
X144372724Y-112167949D01*
X144392191Y-112182307D01*
X144412455Y-112195699D01*
X144433486Y-112208110D01*
X144455258Y-112219525D01*
X144477745Y-112229927D01*
X144500922Y-112239300D01*
X144524760Y-112247630D01*
X144549233Y-112254899D01*
X144574315Y-112261093D01*
X144599979Y-112266198D01*
X144626200Y-112270194D01*
X144652950Y-112273069D01*
X144680204Y-112274805D01*
X144707935Y-112275386D01*
X144738360Y-112274681D01*
X144767962Y-112272620D01*
X144796741Y-112269287D01*
X144824696Y-112264766D01*
X144851826Y-112259140D01*
X144878135Y-112252492D01*
X144903619Y-112244906D01*
X144928279Y-112236465D01*
X144952117Y-112227254D01*
X144975130Y-112217354D01*
X144997320Y-112206849D01*
X145018687Y-112195822D01*
X145039231Y-112184358D01*
X145058950Y-112172541D01*
X145077845Y-112160451D01*
X145095919Y-112148175D01*
X145258057Y-112393707D01*
X145231759Y-112411510D01*
X145204593Y-112428677D01*
X145176515Y-112445137D01*
X145147487Y-112460819D01*
X145117466Y-112475653D01*
X145086412Y-112489568D01*
X145054285Y-112502492D01*
X145021042Y-112514358D01*
X144986643Y-112525091D01*
X144951049Y-112534623D01*
X144914216Y-112542882D01*
X144876103Y-112549798D01*
X144836673Y-112555300D01*
X144795881Y-112559318D01*
X144753686Y-112561781D01*
X144710051Y-112562617D01*
X144665045Y-112561698D01*
X144620901Y-112558955D01*
X144577653Y-112554417D01*
X144535337Y-112548111D01*
X144493996Y-112540062D01*
X144453662Y-112530299D01*
X144414375Y-112518848D01*
X144376171Y-112505735D01*
X144339087Y-112490988D01*
X144303162Y-112474634D01*
X144268433Y-112456699D01*
X144234936Y-112437213D01*
X144202710Y-112416195D01*
X144171790Y-112393681D01*
X144142217Y-112369691D01*
X144114025Y-112344257D01*
X144087252Y-112317402D01*
X144061936Y-112289155D01*
X144038113Y-112259543D01*
X144015824Y-112228592D01*
X143995103Y-112196328D01*
X143975987Y-112162780D01*
X143958514Y-112127973D01*
X143942722Y-112091935D01*
X143928649Y-112054691D01*
X143916332Y-112016271D01*
X143905807Y-111976698D01*
X143897110Y-111936004D01*
X143890283Y-111894211D01*
X143885360Y-111851347D01*
X143882378Y-111807441D01*
X143881376Y-111762518D01*
X143882377Y-111717595D01*
X143885360Y-111673687D01*
X143890283Y-111630821D01*
X143897110Y-111589023D01*
X143905807Y-111548323D01*
X143916332Y-111508745D01*
X143928649Y-111470319D01*
X143942723Y-111433068D01*
X143958515Y-111397022D01*
X143975987Y-111362208D01*
X143995103Y-111328650D01*
X144015824Y-111296376D01*
X144038114Y-111265415D01*
X144061936Y-111235793D01*
X144087251Y-111207537D01*
X144114025Y-111180673D01*
X144142217Y-111155227D01*
X144171791Y-111131229D01*
X144202709Y-111108704D01*
X144234936Y-111087680D01*
X144268433Y-111068181D01*
X144303162Y-111050239D01*
X144339086Y-111033875D01*
X144376170Y-111019122D01*
X144414375Y-111006001D01*
X144453661Y-110994545D01*
X144493996Y-110984775D01*
X144535336Y-110976723D01*
X144577653Y-110970411D01*
X144620901Y-110965871D01*
X144665046Y-110963127D01*
X144710051Y-110962207D01*
X144753720Y-110963042D01*
G37*
G36*
X145635457Y-111087937D02*
G01*
X145641700Y-111088110D01*
X145647710Y-111088635D01*
X145653464Y-111089514D01*
X145658940Y-111090750D01*
X145664113Y-111092348D01*
X145668959Y-111094309D01*
X145671253Y-111095428D01*
X145673455Y-111096640D01*
X145675566Y-111097943D01*
X145677580Y-111099339D01*
X145679493Y-111100831D01*
X145681306Y-111102415D01*
X145683013Y-111104095D01*
X145684613Y-111105869D01*
X145686100Y-111107738D01*
X145687474Y-111109703D01*
X145688732Y-111111764D01*
X145689869Y-111113921D01*
X145690884Y-111116176D01*
X145691771Y-111118529D01*
X145692532Y-111120980D01*
X145693162Y-111123528D01*
X145693654Y-111126175D01*
X145694012Y-111128922D01*
X145694227Y-111131769D01*
X145694301Y-111134714D01*
X145694188Y-111138508D01*
X145693845Y-111142186D01*
X145693266Y-111145736D01*
X145692441Y-111149154D01*
X145691367Y-111152430D01*
X145690735Y-111154013D01*
X145690037Y-111155558D01*
X145689273Y-111157063D01*
X145688442Y-111158528D01*
X145687542Y-111159950D01*
X145686574Y-111161331D01*
X145685538Y-111162669D01*
X145684430Y-111163963D01*
X145683252Y-111165210D01*
X145682001Y-111166411D01*
X145680678Y-111167565D01*
X145679282Y-111168669D01*
X145677810Y-111169725D01*
X145676262Y-111170732D01*
X145674640Y-111171685D01*
X145672939Y-111172586D01*
X145671161Y-111173434D01*
X145669303Y-111174228D01*
X145667367Y-111174965D01*
X145665348Y-111175647D01*
X145663250Y-111176270D01*
X145661068Y-111176836D01*
X145663692Y-111177552D01*
X145666308Y-111178441D01*
X145668894Y-111179525D01*
X145670169Y-111180147D01*
X145671427Y-111180825D01*
X145672668Y-111181561D01*
X145673887Y-111182359D01*
X145675082Y-111183223D01*
X145676250Y-111184152D01*
X145677387Y-111185150D01*
X145678493Y-111186218D01*
X145679563Y-111187363D01*
X145680596Y-111188583D01*
X145681586Y-111189884D01*
X145682534Y-111191266D01*
X145683434Y-111192733D01*
X145684287Y-111194286D01*
X145685086Y-111195929D01*
X145685830Y-111197665D01*
X145686516Y-111199495D01*
X145687142Y-111201422D01*
X145687707Y-111203449D01*
X145688202Y-111205579D01*
X145688633Y-111207814D01*
X145688989Y-111210156D01*
X145689271Y-111212609D01*
X145689476Y-111215173D01*
X145689602Y-111217853D01*
X145689644Y-111220651D01*
X145689644Y-111227847D01*
X145689673Y-111238726D01*
X145689744Y-111244052D01*
X145689881Y-111249147D01*
X145690108Y-111253894D01*
X145690448Y-111258178D01*
X145690920Y-111261883D01*
X145691214Y-111263481D01*
X145691550Y-111264889D01*
X145675674Y-111264889D01*
X145675237Y-111263373D01*
X145674872Y-111261695D01*
X145674575Y-111259867D01*
X145674338Y-111257904D01*
X145674156Y-111255823D01*
X145674022Y-111253639D01*
X145673876Y-111249014D01*
X145673846Y-111244153D01*
X145673888Y-111239173D01*
X145673981Y-111229330D01*
X145673981Y-111223403D01*
X145673840Y-111217940D01*
X145673660Y-111215394D01*
X145673404Y-111212970D01*
X145673073Y-111210663D01*
X145672663Y-111208470D01*
X145672170Y-111206392D01*
X145671596Y-111204425D01*
X145670937Y-111202568D01*
X145670191Y-111200815D01*
X145669358Y-111199166D01*
X145668433Y-111197619D01*
X145667417Y-111196170D01*
X145666305Y-111194819D01*
X145665099Y-111193561D01*
X145663794Y-111192393D01*
X145662389Y-111191316D01*
X145660884Y-111190326D01*
X145659274Y-111189421D01*
X145657559Y-111188597D01*
X145655735Y-111187854D01*
X145653803Y-111187187D01*
X145651759Y-111186596D01*
X145649601Y-111186077D01*
X145647332Y-111185627D01*
X145644943Y-111185246D01*
X145639806Y-111184677D01*
X145634180Y-111184350D01*
X145628048Y-111184244D01*
X145572805Y-111184244D01*
X145572804Y-111184457D01*
X145572804Y-111265101D01*
X145557353Y-111265101D01*
X145557353Y-111170486D01*
X145572804Y-111170486D01*
X145631013Y-111170486D01*
X145636706Y-111170356D01*
X145642036Y-111169966D01*
X145647002Y-111169312D01*
X145651604Y-111168390D01*
X145655841Y-111167198D01*
X145657824Y-111166498D01*
X145659715Y-111165732D01*
X145661514Y-111164894D01*
X145663221Y-111163988D01*
X145664837Y-111163012D01*
X145666362Y-111161966D01*
X145667793Y-111160850D01*
X145669134Y-111159661D01*
X145670382Y-111158403D01*
X145671540Y-111157072D01*
X145672602Y-111155667D01*
X145673576Y-111154192D01*
X145674457Y-111152642D01*
X145675245Y-111151019D01*
X145675939Y-111149323D01*
X145676542Y-111147553D01*
X145677054Y-111145707D01*
X145677470Y-111143787D01*
X145677796Y-111141791D01*
X145678029Y-111139720D01*
X145678166Y-111137573D01*
X145678215Y-111135349D01*
X145678167Y-111133319D01*
X145678028Y-111131354D01*
X145677798Y-111129454D01*
X145677474Y-111127619D01*
X145677058Y-111125850D01*
X145676552Y-111124147D01*
X145675953Y-111122510D01*
X145675265Y-111120936D01*
X145674484Y-111119428D01*
X145673616Y-111117986D01*
X145672656Y-111116607D01*
X145671605Y-111115294D01*
X145670468Y-111114046D01*
X145669239Y-111112863D01*
X145667924Y-111111745D01*
X145666519Y-111110691D01*
X145665027Y-111109701D01*
X145663446Y-111108776D01*
X145661780Y-111107914D01*
X145660024Y-111107117D01*
X145658182Y-111106386D01*
X145656255Y-111105716D01*
X145654240Y-111105112D01*
X145652140Y-111104571D01*
X145649953Y-111104095D01*
X145647683Y-111103682D01*
X145645327Y-111103334D01*
X145642886Y-111103048D01*
X145640361Y-111102827D01*
X145637751Y-111102668D01*
X145632283Y-111102541D01*
X145572805Y-111102541D01*
X145572804Y-111170486D01*
X145557353Y-111170486D01*
X145557353Y-111087936D01*
X145635457Y-111087937D01*
G37*
G36*
X139246406Y-110963151D02*
G01*
X139288170Y-110965966D01*
X139329218Y-110970619D01*
X139369499Y-110977078D01*
X139408974Y-110985311D01*
X139447597Y-110995287D01*
X139485323Y-111006976D01*
X139522112Y-111020341D01*
X139557916Y-111035356D01*
X139592691Y-111051986D01*
X139626395Y-111070201D01*
X139658981Y-111089967D01*
X139690411Y-111111255D01*
X139720634Y-111134033D01*
X139749610Y-111158267D01*
X139777293Y-111183928D01*
X139803639Y-111210981D01*
X139828606Y-111239397D01*
X139852146Y-111269145D01*
X139874220Y-111300190D01*
X139894781Y-111332504D01*
X139913785Y-111366052D01*
X139931188Y-111400805D01*
X139946947Y-111436729D01*
X139961015Y-111473795D01*
X139973353Y-111511968D01*
X139983911Y-111551219D01*
X139992651Y-111591515D01*
X139999524Y-111632826D01*
X140004488Y-111675117D01*
X140007499Y-111718358D01*
X140008511Y-111762519D01*
X140007498Y-111806679D01*
X140004485Y-111849920D01*
X139999519Y-111892212D01*
X139992642Y-111933520D01*
X139983899Y-111973816D01*
X139973335Y-112013068D01*
X139960991Y-112051242D01*
X139946916Y-112088307D01*
X139931151Y-112124230D01*
X139913742Y-112158983D01*
X139894732Y-112192532D01*
X139874165Y-112224845D01*
X139852084Y-112255892D01*
X139828537Y-112285638D01*
X139803565Y-112314054D01*
X139777212Y-112341109D01*
X139749525Y-112366769D01*
X139720545Y-112391003D01*
X139690320Y-112413780D01*
X139658889Y-112435068D01*
X139626301Y-112454835D01*
X139592597Y-112473049D01*
X139557822Y-112489680D01*
X139522022Y-112504694D01*
X139485239Y-112518061D01*
X139447519Y-112529748D01*
X139408904Y-112539724D01*
X139369439Y-112547957D01*
X139329169Y-112554416D01*
X139288136Y-112559069D01*
X139246389Y-112561884D01*
X139203967Y-112562829D01*
X139161551Y-112561884D01*
X139119819Y-112559069D01*
X139078816Y-112554417D01*
X139038586Y-112547957D01*
X138999168Y-112539724D01*
X138960611Y-112529748D01*
X138922954Y-112518060D01*
X138886241Y-112504694D01*
X138850518Y-112489680D01*
X138815826Y-112473050D01*
X138782210Y-112454835D01*
X138749714Y-112435068D01*
X138718379Y-112413780D01*
X138688249Y-112391003D01*
X138659368Y-112366770D01*
X138631778Y-112341109D01*
X138605526Y-112314055D01*
X138580653Y-112285638D01*
X138557201Y-112255891D01*
X138535216Y-112224845D01*
X138514739Y-112192533D01*
X138495817Y-112158983D01*
X138478490Y-112124230D01*
X138462802Y-112088307D01*
X138448797Y-112051242D01*
X138436521Y-112013067D01*
X138426012Y-111973817D01*
X138417317Y-111933520D01*
X138410479Y-111892212D01*
X138405541Y-111849919D01*
X138402547Y-111806678D01*
X138401539Y-111762519D01*
X138708454Y-111762519D01*
X138709061Y-111790806D01*
X138710864Y-111818509D01*
X138713840Y-111845606D01*
X138717965Y-111872076D01*
X138723216Y-111897898D01*
X138729570Y-111923051D01*
X138737001Y-111947517D01*
X138745487Y-111971274D01*
X138755004Y-111994302D01*
X138765528Y-112016580D01*
X138777035Y-112038087D01*
X138789503Y-112058805D01*
X138802907Y-112078712D01*
X138817224Y-112097785D01*
X138832429Y-112116008D01*
X138848499Y-112133358D01*
X138865411Y-112149814D01*
X138883141Y-112165358D01*
X138901664Y-112179968D01*
X138920959Y-112193623D01*
X138941000Y-112206303D01*
X138961764Y-112217989D01*
X138983227Y-112228659D01*
X139005365Y-112238292D01*
X139028159Y-112246868D01*
X139051578Y-112254367D01*
X139075601Y-112260769D01*
X139100208Y-112266053D01*
X139125370Y-112270199D01*
X139151068Y-112273185D01*
X139177274Y-112274991D01*
X139203967Y-112275598D01*
X139230846Y-112274991D01*
X139257215Y-112273184D01*
X139283051Y-112270198D01*
X139308332Y-112266053D01*
X139333037Y-112260769D01*
X139357141Y-112254367D01*
X139380622Y-112246868D01*
X139403459Y-112238291D01*
X139425627Y-112228659D01*
X139447105Y-112217989D01*
X139467873Y-112206304D01*
X139487904Y-112193624D01*
X139507178Y-112179968D01*
X139525672Y-112165358D01*
X139543362Y-112149814D01*
X139560227Y-112133359D01*
X139576246Y-112116008D01*
X139591394Y-112097785D01*
X139605649Y-112078711D01*
X139618988Y-112058805D01*
X139631390Y-112038087D01*
X139642831Y-112016581D01*
X139653291Y-111994302D01*
X139662744Y-111971275D01*
X139671169Y-111947517D01*
X139678545Y-111923052D01*
X139684848Y-111897897D01*
X139690055Y-111872075D01*
X139694143Y-111845606D01*
X139697093Y-111818509D01*
X139698876Y-111790806D01*
X139699477Y-111762519D01*
X139698876Y-111734229D01*
X139697093Y-111706526D01*
X139694143Y-111679431D01*
X139690054Y-111652960D01*
X139684848Y-111627139D01*
X139678545Y-111601984D01*
X139671169Y-111577520D01*
X139662744Y-111553762D01*
X139653290Y-111530735D01*
X139642831Y-111508456D01*
X139631390Y-111486948D01*
X139618988Y-111466231D01*
X139605648Y-111446326D01*
X139591394Y-111427251D01*
X139576245Y-111409029D01*
X139560228Y-111391678D01*
X139543362Y-111375221D01*
X139525672Y-111359678D01*
X139507177Y-111345069D01*
X139487904Y-111331412D01*
X139467873Y-111318733D01*
X139447106Y-111307048D01*
X139425627Y-111296377D01*
X139403458Y-111286745D01*
X139380623Y-111278168D01*
X139357141Y-111270668D01*
X139333037Y-111264266D01*
X139308332Y-111258984D01*
X139283051Y-111254838D01*
X139257214Y-111251852D01*
X139230846Y-111250046D01*
X139203966Y-111249438D01*
X139177274Y-111250046D01*
X139151068Y-111251851D01*
X139125371Y-111254837D01*
X139100208Y-111258982D01*
X139075601Y-111264266D01*
X139051578Y-111270668D01*
X139028159Y-111278167D01*
X139005367Y-111286744D01*
X138983227Y-111296377D01*
X138961764Y-111307046D01*
X138941000Y-111318731D01*
X138920959Y-111331412D01*
X138901665Y-111345067D01*
X138883141Y-111359678D01*
X138865411Y-111375220D01*
X138848499Y-111391678D01*
X138832429Y-111409027D01*
X138817224Y-111427250D01*
X138802907Y-111446324D01*
X138789503Y-111466230D01*
X138777036Y-111486948D01*
X138765528Y-111508456D01*
X138755004Y-111530733D01*
X138745487Y-111553761D01*
X138737001Y-111577518D01*
X138729570Y-111601985D01*
X138723216Y-111627139D01*
X138717965Y-111652961D01*
X138713840Y-111679430D01*
X138710864Y-111706526D01*
X138709061Y-111734229D01*
X138708454Y-111762519D01*
X138401539Y-111762519D01*
X138401539Y-111762518D01*
X138402546Y-111718358D01*
X138405539Y-111675116D01*
X138410473Y-111632825D01*
X138417309Y-111591515D01*
X138426000Y-111551219D01*
X138436502Y-111511969D01*
X138448773Y-111473795D01*
X138462772Y-111436730D01*
X138478454Y-111400806D01*
X138495774Y-111366052D01*
X138514691Y-111332504D01*
X138535159Y-111300191D01*
X138557139Y-111269144D01*
X138580584Y-111239397D01*
X138605451Y-111210982D01*
X138631700Y-111183927D01*
X138659284Y-111158266D01*
X138688161Y-111134032D01*
X138718287Y-111111255D01*
X138749621Y-111089967D01*
X138782117Y-111070200D01*
X138815734Y-111051986D01*
X138850427Y-111035356D01*
X138886153Y-111020341D01*
X138922868Y-111006976D01*
X138960532Y-110995287D01*
X138999099Y-110985311D01*
X139038525Y-110977078D01*
X139078769Y-110970619D01*
X139119785Y-110965966D01*
X139161532Y-110963151D01*
X139203966Y-110962207D01*
X139246406Y-110963151D01*
G37*
G36*
X140134081Y-112923435D02*
G01*
X140149547Y-112924476D01*
X140164745Y-112926198D01*
X140179659Y-112928586D01*
X140194274Y-112931633D01*
X140208573Y-112935322D01*
X140222540Y-112939646D01*
X140236158Y-112944590D01*
X140249411Y-112950143D01*
X140262287Y-112956296D01*
X140274763Y-112963033D01*
X140286825Y-112970346D01*
X140298457Y-112978222D01*
X140309644Y-112986648D01*
X140320369Y-112995614D01*
X140330616Y-113005106D01*
X140340366Y-113015116D01*
X140349607Y-113025630D01*
X140358318Y-113036635D01*
X140366487Y-113048123D01*
X140374097Y-113060079D01*
X140381129Y-113072492D01*
X140387569Y-113085351D01*
X140393401Y-113098643D01*
X140398607Y-113112358D01*
X140403171Y-113126484D01*
X140407080Y-113141009D01*
X140410313Y-113155921D01*
X140412856Y-113171209D01*
X140414693Y-113186860D01*
X140415807Y-113202864D01*
X140416182Y-113219207D01*
X140415807Y-113235551D01*
X140414692Y-113251555D01*
X140412855Y-113267206D01*
X140410313Y-113282493D01*
X140407080Y-113297405D01*
X140403171Y-113311931D01*
X140398607Y-113326056D01*
X140393401Y-113339772D01*
X140387570Y-113353064D01*
X140381129Y-113365923D01*
X140374097Y-113378336D01*
X140366487Y-113390292D01*
X140358318Y-113401779D01*
X140349607Y-113412785D01*
X140340367Y-113423299D01*
X140330615Y-113433309D01*
X140320370Y-113442801D01*
X140309644Y-113451768D01*
X140298457Y-113460193D01*
X140286824Y-113468069D01*
X140274763Y-113475381D01*
X140262287Y-113482119D01*
X140249412Y-113488271D01*
X140236159Y-113493824D01*
X140222541Y-113498769D01*
X140208573Y-113503092D01*
X140194274Y-113506782D01*
X140179659Y-113509828D01*
X140164745Y-113512217D01*
X140149546Y-113513939D01*
X140134081Y-113514979D01*
X140118366Y-113515329D01*
X140102671Y-113514979D01*
X140087230Y-113513939D01*
X140072059Y-113512217D01*
X140057171Y-113509827D01*
X140042584Y-113506783D01*
X140028317Y-113503092D01*
X140014381Y-113498770D01*
X140000796Y-113493824D01*
X139987575Y-113488271D01*
X139974737Y-113482118D01*
X139962295Y-113475381D01*
X139950268Y-113468069D01*
X139938671Y-113460193D01*
X139927520Y-113451767D01*
X139916832Y-113442801D01*
X139906619Y-113433307D01*
X139896904Y-113423298D01*
X139887696Y-113412786D01*
X139879017Y-113401779D01*
X139870880Y-113390292D01*
X139863301Y-113378336D01*
X139856296Y-113365923D01*
X139849883Y-113353064D01*
X139844075Y-113339772D01*
X139838893Y-113326055D01*
X139834348Y-113311930D01*
X139830458Y-113297405D01*
X139827239Y-113282493D01*
X139824708Y-113267205D01*
X139822879Y-113251555D01*
X139821771Y-113235551D01*
X139821398Y-113219207D01*
X139935061Y-113219207D01*
X139935287Y-113229679D01*
X139935955Y-113239931D01*
X139937056Y-113249960D01*
X139938582Y-113259756D01*
X139940523Y-113269314D01*
X139942874Y-113278622D01*
X139945623Y-113287677D01*
X139948761Y-113296469D01*
X139952283Y-113304990D01*
X139956175Y-113313235D01*
X139960433Y-113321194D01*
X139965044Y-113328860D01*
X139970003Y-113336226D01*
X139975299Y-113343284D01*
X139980923Y-113350028D01*
X139986869Y-113356446D01*
X139993124Y-113362536D01*
X139999684Y-113368287D01*
X140006536Y-113373692D01*
X140013674Y-113378745D01*
X140021088Y-113383436D01*
X140028768Y-113387760D01*
X140036709Y-113391707D01*
X140044899Y-113395271D01*
X140053330Y-113398444D01*
X140061994Y-113401218D01*
X140070881Y-113403587D01*
X140079983Y-113405541D01*
X140089292Y-113407075D01*
X140098798Y-113408179D01*
X140108492Y-113408848D01*
X140118366Y-113409073D01*
X140128315Y-113408848D01*
X140138076Y-113408179D01*
X140147638Y-113407075D01*
X140156994Y-113405541D01*
X140166134Y-113403587D01*
X140175054Y-113401219D01*
X140183743Y-113398444D01*
X140192192Y-113395271D01*
X140200394Y-113391707D01*
X140208339Y-113387760D01*
X140216022Y-113383436D01*
X140223431Y-113378745D01*
X140230560Y-113373692D01*
X140237402Y-113368287D01*
X140243945Y-113362536D01*
X140250182Y-113356447D01*
X140256105Y-113350028D01*
X140261708Y-113343285D01*
X140266978Y-113336226D01*
X140271912Y-113328860D01*
X140276497Y-113321195D01*
X140280727Y-113313235D01*
X140284594Y-113304991D01*
X140288089Y-113296469D01*
X140291206Y-113287677D01*
X140293931Y-113278623D01*
X140296261Y-113269314D01*
X140298185Y-113259756D01*
X140299698Y-113249961D01*
X140300788Y-113239931D01*
X140301448Y-113229679D01*
X140301669Y-113219207D01*
X140301448Y-113208736D01*
X140300788Y-113198483D01*
X140299698Y-113188454D01*
X140298185Y-113178658D01*
X140296262Y-113169101D01*
X140293932Y-113159792D01*
X140291206Y-113150737D01*
X140288090Y-113141947D01*
X140284594Y-113133425D01*
X140280727Y-113125180D01*
X140276496Y-113117221D01*
X140271912Y-113109554D01*
X140266978Y-113102189D01*
X140261708Y-113095130D01*
X140256106Y-113088388D01*
X140250182Y-113081968D01*
X140243944Y-113075880D01*
X140237402Y-113070127D01*
X140230560Y-113064723D01*
X140223432Y-113059670D01*
X140216022Y-113054978D01*
X140208339Y-113050656D01*
X140200394Y-113046708D01*
X140192192Y-113043143D01*
X140183742Y-113039971D01*
X140175054Y-113037197D01*
X140166134Y-113034828D01*
X140156994Y-113032873D01*
X140147637Y-113031340D01*
X140138076Y-113030236D01*
X140128315Y-113029567D01*
X140118366Y-113029343D01*
X140108492Y-113029567D01*
X140098798Y-113030235D01*
X140089292Y-113031340D01*
X140079983Y-113032873D01*
X140070881Y-113034828D01*
X140061993Y-113037197D01*
X140053330Y-113039971D01*
X140044899Y-113043143D01*
X140036709Y-113046707D01*
X140028769Y-113050655D01*
X140021088Y-113054979D01*
X140013674Y-113059671D01*
X140006536Y-113064722D01*
X139999684Y-113070127D01*
X139993124Y-113075880D01*
X139986869Y-113081968D01*
X139980924Y-113088388D01*
X139975298Y-113095131D01*
X139970003Y-113102189D01*
X139965044Y-113109555D01*
X139960432Y-113117221D01*
X139956175Y-113125180D01*
X139952283Y-113133425D01*
X139948762Y-113141946D01*
X139945623Y-113150737D01*
X139942873Y-113159793D01*
X139940523Y-113169102D01*
X139938582Y-113178658D01*
X139937056Y-113188454D01*
X139935955Y-113198483D01*
X139935287Y-113208736D01*
X139935061Y-113219207D01*
X139821398Y-113219207D01*
X139821771Y-113202863D01*
X139822880Y-113186860D01*
X139824707Y-113171210D01*
X139827239Y-113155921D01*
X139830458Y-113141009D01*
X139834348Y-113126484D01*
X139838892Y-113112358D01*
X139844075Y-113098643D01*
X139849882Y-113085351D01*
X139856296Y-113072492D01*
X139863301Y-113060077D01*
X139870880Y-113048121D01*
X139879017Y-113036635D01*
X139887697Y-113025629D01*
X139896904Y-113015115D01*
X139906620Y-113005107D01*
X139916832Y-112995613D01*
X139927520Y-112986648D01*
X139938671Y-112978222D01*
X139950269Y-112970346D01*
X139962295Y-112963034D01*
X139974737Y-112956295D01*
X139987575Y-112950143D01*
X140000796Y-112944589D01*
X140014381Y-112939646D01*
X140028317Y-112935322D01*
X140042584Y-112931633D01*
X140057171Y-112928586D01*
X140072059Y-112926198D01*
X140087230Y-112924477D01*
X140102671Y-112923436D01*
X140118367Y-112923085D01*
X140134081Y-112923435D01*
G37*
G36*
X144310264Y-112921532D02*
G01*
X144325730Y-112922574D01*
X144340927Y-112924298D01*
X144355842Y-112926690D01*
X144370456Y-112929740D01*
X144384756Y-112933435D01*
X144398723Y-112937764D01*
X144412342Y-112942714D01*
X144425596Y-112948274D01*
X144438469Y-112954433D01*
X144450945Y-112961177D01*
X144463008Y-112968497D01*
X144474641Y-112976378D01*
X144485828Y-112984811D01*
X144496552Y-112993782D01*
X144506798Y-113003281D01*
X144516549Y-113013295D01*
X144525789Y-113023812D01*
X144534501Y-113034821D01*
X144542671Y-113046310D01*
X144550279Y-113058268D01*
X144557311Y-113070680D01*
X144563752Y-113083538D01*
X144569583Y-113096828D01*
X144574790Y-113110538D01*
X144579355Y-113124658D01*
X144583261Y-113139176D01*
X144586496Y-113154077D01*
X144589038Y-113169353D01*
X144590874Y-113184990D01*
X144591989Y-113200977D01*
X144592365Y-113217302D01*
X144591990Y-113233646D01*
X144590875Y-113249650D01*
X144589039Y-113265301D01*
X144586496Y-113280588D01*
X144583261Y-113295501D01*
X144579355Y-113310025D01*
X144574790Y-113324151D01*
X144569584Y-113337866D01*
X144563752Y-113351160D01*
X144557312Y-113364018D01*
X144550280Y-113376432D01*
X144542671Y-113388387D01*
X144534502Y-113399874D01*
X144525788Y-113410881D01*
X144516548Y-113421395D01*
X144506798Y-113431403D01*
X144496551Y-113440897D01*
X144485828Y-113449863D01*
X144474641Y-113458288D01*
X144463008Y-113466163D01*
X144450945Y-113473476D01*
X144438469Y-113480215D01*
X144425596Y-113486366D01*
X144412342Y-113491919D01*
X144398723Y-113496865D01*
X144384755Y-113501187D01*
X144370456Y-113504878D01*
X144355842Y-113507923D01*
X144340927Y-113510314D01*
X144325730Y-113512034D01*
X144310265Y-113513074D01*
X144294550Y-113513423D01*
X144278855Y-113513074D01*
X144263414Y-113512034D01*
X144248241Y-113510313D01*
X144233354Y-113507923D01*
X144218768Y-113504877D01*
X144204500Y-113501187D01*
X144190564Y-113496864D01*
X144176978Y-113491919D01*
X144163758Y-113486365D01*
X144150919Y-113480215D01*
X144138478Y-113473476D01*
X144126451Y-113466164D01*
X144114855Y-113458288D01*
X144103703Y-113449861D01*
X144093014Y-113440896D01*
X144082802Y-113431404D01*
X144073087Y-113421393D01*
X144063879Y-113410881D01*
X144055200Y-113399874D01*
X144047062Y-113388388D01*
X144039484Y-113376431D01*
X144032480Y-113364018D01*
X144026065Y-113351160D01*
X144020259Y-113337867D01*
X144015075Y-113324151D01*
X144010530Y-113310026D01*
X144006641Y-113295501D01*
X144003421Y-113280588D01*
X144000890Y-113265301D01*
X143999062Y-113249650D01*
X143997954Y-113233646D01*
X143997580Y-113217302D01*
X144111246Y-113217302D01*
X144111471Y-113227773D01*
X144112137Y-113238027D01*
X144113238Y-113248056D01*
X144114765Y-113257852D01*
X144116707Y-113267409D01*
X144119058Y-113276718D01*
X144121807Y-113285772D01*
X144124945Y-113294564D01*
X144128465Y-113303086D01*
X144132358Y-113311331D01*
X144136615Y-113319290D01*
X144141228Y-113326955D01*
X144146187Y-113334321D01*
X144151483Y-113341379D01*
X144157106Y-113348123D01*
X144163052Y-113354542D01*
X144169308Y-113360631D01*
X144175867Y-113366382D01*
X144182720Y-113371787D01*
X144189856Y-113376840D01*
X144197271Y-113381531D01*
X144204952Y-113385855D01*
X144212892Y-113389802D01*
X144221081Y-113393366D01*
X144229513Y-113396540D01*
X144238176Y-113399314D01*
X144247063Y-113401683D01*
X144256165Y-113403636D01*
X144265474Y-113405171D01*
X144274981Y-113406275D01*
X144284676Y-113406943D01*
X144294549Y-113407168D01*
X144304499Y-113406943D01*
X144314258Y-113406275D01*
X144323820Y-113405171D01*
X144333176Y-113403636D01*
X144342318Y-113401683D01*
X144351238Y-113399314D01*
X144359925Y-113396540D01*
X144368376Y-113393366D01*
X144376577Y-113389802D01*
X144384523Y-113385855D01*
X144392206Y-113381531D01*
X144399615Y-113376840D01*
X144406743Y-113371787D01*
X144413585Y-113366382D01*
X144420128Y-113360631D01*
X144426366Y-113354542D01*
X144432288Y-113348123D01*
X144437891Y-113341379D01*
X144443162Y-113334321D01*
X144448094Y-113326955D01*
X144452681Y-113319289D01*
X144456911Y-113311331D01*
X144460778Y-113303086D01*
X144464274Y-113294564D01*
X144467387Y-113285772D01*
X144470115Y-113276718D01*
X144472444Y-113267409D01*
X144474370Y-113257852D01*
X144475882Y-113248056D01*
X144476969Y-113238026D01*
X144477632Y-113227774D01*
X144477853Y-113217302D01*
X144477632Y-113206832D01*
X144476970Y-113196578D01*
X144475882Y-113186549D01*
X144474369Y-113176753D01*
X144472444Y-113167197D01*
X144470114Y-113157888D01*
X144467389Y-113148833D01*
X144464274Y-113140041D01*
X144460778Y-113131520D01*
X144456911Y-113123275D01*
X144452681Y-113115316D01*
X144448094Y-113107650D01*
X144443163Y-113100284D01*
X144437890Y-113093226D01*
X144432287Y-113086483D01*
X144426366Y-113080063D01*
X144420128Y-113073975D01*
X144413585Y-113068224D01*
X144406744Y-113062817D01*
X144399614Y-113057766D01*
X144392206Y-113053073D01*
X144384523Y-113048750D01*
X144376577Y-113044802D01*
X144368376Y-113041238D01*
X144359926Y-113038066D01*
X144351238Y-113035291D01*
X144342318Y-113032924D01*
X144333176Y-113030968D01*
X144323821Y-113029435D01*
X144314259Y-113028330D01*
X144304499Y-113027662D01*
X144294550Y-113027437D01*
X144284676Y-113027662D01*
X144274981Y-113028332D01*
X144265474Y-113029440D01*
X144256165Y-113030978D01*
X144247064Y-113032936D01*
X144238177Y-113035309D01*
X144229513Y-113038089D01*
X144221081Y-113041269D01*
X144212892Y-113044839D01*
X144204952Y-113048793D01*
X144197270Y-113053123D01*
X144189857Y-113057821D01*
X144182719Y-113062879D01*
X144175866Y-113068292D01*
X144169308Y-113074049D01*
X144163052Y-113080142D01*
X144157106Y-113086567D01*
X144151480Y-113093313D01*
X144146187Y-113100376D01*
X144141228Y-113107743D01*
X144136615Y-113115410D01*
X144132358Y-113123370D01*
X144128466Y-113131611D01*
X144124946Y-113140130D01*
X144121807Y-113148917D01*
X144119057Y-113157966D01*
X144116707Y-113167267D01*
X144114764Y-113176815D01*
X144113239Y-113186598D01*
X144112138Y-113196613D01*
X144111471Y-113206851D01*
X144111246Y-113217302D01*
X143997580Y-113217302D01*
X143997954Y-113200958D01*
X143999062Y-113184956D01*
X144000890Y-113169305D01*
X144003421Y-113154016D01*
X144006641Y-113139104D01*
X144010530Y-113124579D01*
X144015074Y-113110454D01*
X144020259Y-113096738D01*
X144026065Y-113083446D01*
X144032480Y-113070587D01*
X144039484Y-113058172D01*
X144047063Y-113046217D01*
X144055200Y-113034730D01*
X144063879Y-113023725D01*
X144073087Y-113013210D01*
X144082803Y-113003201D01*
X144093014Y-112993709D01*
X144103703Y-112984742D01*
X144114855Y-112976317D01*
X144126451Y-112968442D01*
X144138479Y-112961128D01*
X144150919Y-112954391D01*
X144163758Y-112948238D01*
X144176978Y-112942685D01*
X144190563Y-112937741D01*
X144204500Y-112933417D01*
X144218768Y-112929728D01*
X144233354Y-112926681D01*
X144248241Y-112924292D01*
X144263414Y-112922571D01*
X144278855Y-112921531D01*
X144294550Y-112921180D01*
X144310264Y-112921532D01*
G37*
G36*
X145631377Y-111006029D02*
G01*
X145639885Y-111006679D01*
X145648272Y-111007748D01*
X145656528Y-111009228D01*
X145664638Y-111011107D01*
X145672595Y-111013374D01*
X145680389Y-111016017D01*
X145688008Y-111019030D01*
X145695440Y-111022396D01*
X145702676Y-111026109D01*
X145709705Y-111030157D01*
X145716515Y-111034529D01*
X145723099Y-111039215D01*
X145729443Y-111044204D01*
X145735537Y-111049485D01*
X145741370Y-111055048D01*
X145746934Y-111060882D01*
X145752215Y-111066976D01*
X145757204Y-111073320D01*
X145761890Y-111079904D01*
X145766262Y-111086714D01*
X145770310Y-111093743D01*
X145774023Y-111100979D01*
X145777391Y-111108411D01*
X145780402Y-111116030D01*
X145783046Y-111123823D01*
X145785312Y-111131781D01*
X145787191Y-111139891D01*
X145788671Y-111148147D01*
X145789740Y-111156534D01*
X145790390Y-111165042D01*
X145790610Y-111173661D01*
X145790390Y-111182282D01*
X145789741Y-111190789D01*
X145788671Y-111199176D01*
X145787191Y-111207430D01*
X145785313Y-111215542D01*
X145783046Y-111223499D01*
X145780402Y-111231294D01*
X145777390Y-111238910D01*
X145774023Y-111246343D01*
X145770310Y-111253579D01*
X145766262Y-111260608D01*
X145761890Y-111267419D01*
X145757204Y-111274002D01*
X145752214Y-111280345D01*
X145746934Y-111286440D01*
X145741371Y-111292273D01*
X145735535Y-111297836D01*
X145729443Y-111303117D01*
X145723097Y-111308106D01*
X145716516Y-111312792D01*
X145709704Y-111317166D01*
X145702676Y-111321213D01*
X145695440Y-111324926D01*
X145688008Y-111328293D01*
X145680390Y-111331304D01*
X145672595Y-111333950D01*
X145664639Y-111336215D01*
X145656528Y-111338094D01*
X145648272Y-111339575D01*
X145639886Y-111340644D01*
X145631377Y-111341294D01*
X145622758Y-111341512D01*
X145614137Y-111341294D01*
X145605630Y-111340644D01*
X145597243Y-111339575D01*
X145588989Y-111338095D01*
X145580877Y-111336215D01*
X145572920Y-111333949D01*
X145565127Y-111331304D01*
X145557509Y-111328293D01*
X145550076Y-111324926D01*
X145542840Y-111321213D01*
X145535812Y-111317165D01*
X145529000Y-111312792D01*
X145522417Y-111308106D01*
X145516073Y-111303118D01*
X145509979Y-111297836D01*
X145504146Y-111292273D01*
X145498583Y-111286440D01*
X145493300Y-111280345D01*
X145488313Y-111274002D01*
X145483627Y-111267419D01*
X145479254Y-111260608D01*
X145475206Y-111253579D01*
X145471493Y-111246343D01*
X145468126Y-111238910D01*
X145465115Y-111231292D01*
X145462469Y-111223499D01*
X145460204Y-111215542D01*
X145458324Y-111207430D01*
X145456846Y-111199176D01*
X145455775Y-111190789D01*
X145455125Y-111182282D01*
X145454907Y-111173661D01*
X145470357Y-111173661D01*
X145470557Y-111181492D01*
X145471146Y-111189220D01*
X145472117Y-111196839D01*
X145473460Y-111204335D01*
X145475164Y-111211702D01*
X145477222Y-111218929D01*
X145479621Y-111226006D01*
X145482353Y-111232925D01*
X145485409Y-111239674D01*
X145488779Y-111246244D01*
X145492454Y-111252626D01*
X145496422Y-111258809D01*
X145500673Y-111264785D01*
X145505203Y-111270545D01*
X145509996Y-111276078D01*
X145515046Y-111281373D01*
X145520340Y-111286423D01*
X145525874Y-111291216D01*
X145531633Y-111295745D01*
X145537610Y-111299997D01*
X145543793Y-111303965D01*
X145550175Y-111307640D01*
X145556745Y-111311010D01*
X145563495Y-111314066D01*
X145570413Y-111316798D01*
X145577490Y-111319197D01*
X145584716Y-111321254D01*
X145592084Y-111322959D01*
X145599580Y-111324303D01*
X145607199Y-111325273D01*
X145614927Y-111325862D01*
X145622757Y-111326061D01*
X145630588Y-111325862D01*
X145638318Y-111325272D01*
X145645935Y-111324303D01*
X145653432Y-111322960D01*
X145660798Y-111321254D01*
X145668027Y-111319197D01*
X145675104Y-111316799D01*
X145682022Y-111314065D01*
X145688770Y-111311010D01*
X145695340Y-111307640D01*
X145701723Y-111303965D01*
X145707907Y-111299997D01*
X145713883Y-111295744D01*
X145719642Y-111291216D01*
X145725174Y-111286423D01*
X145730469Y-111281373D01*
X145735519Y-111276078D01*
X145740314Y-111270545D01*
X145744841Y-111264785D01*
X145749094Y-111258810D01*
X145753063Y-111252625D01*
X145756737Y-111246243D01*
X145760106Y-111239674D01*
X145763162Y-111232925D01*
X145765896Y-111226006D01*
X145768295Y-111218929D01*
X145770352Y-111211702D01*
X145772057Y-111204335D01*
X145773398Y-111196839D01*
X145774369Y-111189220D01*
X145774960Y-111181491D01*
X145775157Y-111173661D01*
X145774960Y-111165830D01*
X145774370Y-111158101D01*
X145773398Y-111150484D01*
X145772056Y-111142987D01*
X145770352Y-111135619D01*
X145768295Y-111128392D01*
X145765895Y-111121315D01*
X145763163Y-111114397D01*
X145760106Y-111107649D01*
X145756737Y-111101078D01*
X145753063Y-111094696D01*
X145749094Y-111088514D01*
X145744842Y-111082536D01*
X145740314Y-111076778D01*
X145735519Y-111071245D01*
X145730469Y-111065950D01*
X145725174Y-111060900D01*
X145719641Y-111056105D01*
X145713883Y-111051577D01*
X145707906Y-111047325D01*
X145701723Y-111043356D01*
X145695341Y-111039682D01*
X145688770Y-111036313D01*
X145682022Y-111033256D01*
X145675104Y-111030524D01*
X145668027Y-111028124D01*
X145660799Y-111026067D01*
X145653432Y-111024363D01*
X145645935Y-111023021D01*
X145638318Y-111022049D01*
X145630589Y-111021459D01*
X145622757Y-111021261D01*
X145614928Y-111021459D01*
X145607199Y-111022050D01*
X145599580Y-111023021D01*
X145592084Y-111024362D01*
X145584717Y-111026067D01*
X145577490Y-111028124D01*
X145570413Y-111030523D01*
X145563495Y-111033257D01*
X145556744Y-111036313D01*
X145550176Y-111039682D01*
X145543794Y-111043356D01*
X145537609Y-111047325D01*
X145531634Y-111051578D01*
X145525874Y-111056105D01*
X145520341Y-111060900D01*
X145515046Y-111065950D01*
X145509996Y-111071245D01*
X145505203Y-111076777D01*
X145500675Y-111082536D01*
X145496422Y-111088512D01*
X145492454Y-111094696D01*
X145488779Y-111101080D01*
X145485409Y-111107649D01*
X145482354Y-111114397D01*
X145479620Y-111121315D01*
X145477222Y-111128392D01*
X145475164Y-111135620D01*
X145473459Y-111142987D01*
X145472117Y-111150484D01*
X145471147Y-111158101D01*
X145470557Y-111165831D01*
X145470357Y-111173661D01*
X145454907Y-111173661D01*
X145455125Y-111165042D01*
X145455775Y-111156533D01*
X145456846Y-111148146D01*
X145458325Y-111139891D01*
X145460204Y-111131780D01*
X145462469Y-111123824D01*
X145465115Y-111116029D01*
X145468126Y-111108411D01*
X145471493Y-111100979D01*
X145475206Y-111093743D01*
X145479253Y-111086715D01*
X145483627Y-111079903D01*
X145488312Y-111073321D01*
X145493302Y-111066976D01*
X145498582Y-111060883D01*
X145504146Y-111055048D01*
X145509979Y-111049485D01*
X145516074Y-111044205D01*
X145522417Y-111039215D01*
X145529000Y-111034529D01*
X145535812Y-111030157D01*
X145542840Y-111026109D01*
X145550076Y-111022396D01*
X145557509Y-111019029D01*
X145565127Y-111016017D01*
X145572920Y-111013374D01*
X145580877Y-111011106D01*
X145588989Y-111009228D01*
X145597243Y-111007748D01*
X145605630Y-111006678D01*
X145614137Y-111006030D01*
X145622758Y-111005809D01*
X145631377Y-111006029D01*
G37*
G36*
X145631633Y-111001167D02*
G01*
X145640395Y-111001834D01*
X145649029Y-111002934D01*
X145657526Y-111004455D01*
X145665877Y-111006387D01*
X145674068Y-111008719D01*
X145682088Y-111011437D01*
X145689928Y-111014535D01*
X145697578Y-111017997D01*
X145705024Y-111021816D01*
X145712258Y-111025980D01*
X145719266Y-111030476D01*
X145726039Y-111035295D01*
X145732566Y-111040427D01*
X145738836Y-111045859D01*
X145744836Y-111051583D01*
X145750560Y-111057583D01*
X145755992Y-111063853D01*
X145761124Y-111070380D01*
X145765944Y-111077153D01*
X145770441Y-111084163D01*
X145774602Y-111091394D01*
X145778421Y-111098842D01*
X145781886Y-111106490D01*
X145784982Y-111114331D01*
X145787700Y-111122351D01*
X145790032Y-111130542D01*
X145791964Y-111138893D01*
X145793485Y-111147390D01*
X145794585Y-111156024D01*
X145795252Y-111164786D01*
X145795479Y-111173661D01*
X145795252Y-111182538D01*
X145794585Y-111191297D01*
X145793485Y-111199932D01*
X145791964Y-111208430D01*
X145790032Y-111216779D01*
X145787701Y-111224970D01*
X145784982Y-111232992D01*
X145781886Y-111240832D01*
X145778422Y-111248481D01*
X145774604Y-111255927D01*
X145770441Y-111263160D01*
X145765943Y-111270169D01*
X145761124Y-111276941D01*
X145755992Y-111283468D01*
X145750560Y-111289738D01*
X145744836Y-111295740D01*
X145738836Y-111301462D01*
X145732565Y-111306894D01*
X145726039Y-111312026D01*
X145719266Y-111316846D01*
X145712257Y-111321343D01*
X145705025Y-111325507D01*
X145697578Y-111329325D01*
X145689929Y-111332788D01*
X145682089Y-111335884D01*
X145674068Y-111338604D01*
X145665875Y-111340934D01*
X145657527Y-111342866D01*
X145649028Y-111344388D01*
X145640394Y-111345487D01*
X145631633Y-111346156D01*
X145622758Y-111346381D01*
X145613882Y-111346156D01*
X145605121Y-111345487D01*
X145596487Y-111344388D01*
X145587990Y-111342866D01*
X145579639Y-111340934D01*
X145571449Y-111338603D01*
X145563428Y-111335884D01*
X145555586Y-111332788D01*
X145547938Y-111329325D01*
X145540492Y-111325506D01*
X145533259Y-111321343D01*
X145526250Y-111316847D01*
X145519477Y-111312026D01*
X145512951Y-111306894D01*
X145506681Y-111301462D01*
X145500679Y-111295740D01*
X145494957Y-111289738D01*
X145489524Y-111283469D01*
X145484393Y-111276942D01*
X145479572Y-111270169D01*
X145475076Y-111263160D01*
X145470913Y-111255927D01*
X145467095Y-111248482D01*
X145463631Y-111240833D01*
X145460535Y-111232991D01*
X145457816Y-111224970D01*
X145455485Y-111216780D01*
X145453553Y-111208429D01*
X145452031Y-111199932D01*
X145450932Y-111191298D01*
X145450263Y-111182538D01*
X145450038Y-111173661D01*
X145459775Y-111173661D01*
X145459988Y-111182043D01*
X145460619Y-111190316D01*
X145461658Y-111198469D01*
X145463097Y-111206492D01*
X145464922Y-111214376D01*
X145467125Y-111222107D01*
X145469694Y-111229678D01*
X145472619Y-111237079D01*
X145475891Y-111244298D01*
X145479500Y-111251324D01*
X145483432Y-111258149D01*
X145487680Y-111264762D01*
X145492232Y-111271154D01*
X145497078Y-111277311D01*
X145502206Y-111283225D01*
X145507610Y-111288888D01*
X145513277Y-111294285D01*
X145519196Y-111299409D01*
X145525357Y-111304249D01*
X145531750Y-111308795D01*
X145538364Y-111313036D01*
X145545189Y-111316962D01*
X145552214Y-111320563D01*
X145559430Y-111323829D01*
X145566826Y-111326748D01*
X145574391Y-111329312D01*
X145582115Y-111331511D01*
X145589988Y-111333331D01*
X145597998Y-111334766D01*
X145606137Y-111335803D01*
X145614394Y-111336432D01*
X145622758Y-111336644D01*
X145631140Y-111336431D01*
X145639413Y-111335800D01*
X145647565Y-111334761D01*
X145655589Y-111333322D01*
X145663472Y-111331497D01*
X145671204Y-111329294D01*
X145678775Y-111326725D01*
X145686175Y-111323800D01*
X145693394Y-111320527D01*
X145700421Y-111316920D01*
X145707247Y-111312987D01*
X145713860Y-111308739D01*
X145720249Y-111304187D01*
X145726408Y-111299341D01*
X145732323Y-111294211D01*
X145737984Y-111288809D01*
X145743382Y-111283142D01*
X145748507Y-111277223D01*
X145753347Y-111271062D01*
X145757893Y-111264669D01*
X145762134Y-111258056D01*
X145766060Y-111251230D01*
X145769661Y-111244206D01*
X145772925Y-111236990D01*
X145775846Y-111229593D01*
X145778410Y-111222029D01*
X145780606Y-111214304D01*
X145782429Y-111206431D01*
X145783862Y-111198421D01*
X145784900Y-111190281D01*
X145785530Y-111182026D01*
X145785742Y-111173662D01*
X145785549Y-111165279D01*
X145784935Y-111157006D01*
X145783912Y-111148854D01*
X145782488Y-111140830D01*
X145780678Y-111132947D01*
X145778488Y-111125215D01*
X145775931Y-111117644D01*
X145773014Y-111110244D01*
X145769753Y-111103025D01*
X145766153Y-111095998D01*
X145762227Y-111089172D01*
X145757984Y-111082560D01*
X145753438Y-111076170D01*
X145748593Y-111070011D01*
X145743466Y-111064096D01*
X145738064Y-111058435D01*
X145732397Y-111053037D01*
X145726476Y-111047914D01*
X145720313Y-111043073D01*
X145713916Y-111038527D01*
X145707296Y-111034286D01*
X145700464Y-111030360D01*
X145693430Y-111026760D01*
X145686204Y-111023494D01*
X145678799Y-111020573D01*
X145671222Y-111018011D01*
X145663485Y-111015812D01*
X145655597Y-111013992D01*
X145647570Y-111012558D01*
X145639415Y-111011520D01*
X145631141Y-111010891D01*
X145622757Y-111010677D01*
X145614376Y-111010890D01*
X145606103Y-111011522D01*
X145597950Y-111012562D01*
X145589927Y-111014000D01*
X145582045Y-111015825D01*
X145574312Y-111018028D01*
X145566741Y-111020597D01*
X145559340Y-111023523D01*
X145552121Y-111026796D01*
X145545095Y-111030402D01*
X145538270Y-111034335D01*
X145531657Y-111038583D01*
X145525265Y-111043136D01*
X145519109Y-111047981D01*
X145513194Y-111053111D01*
X145507531Y-111058515D01*
X145502133Y-111064181D01*
X145497009Y-111070100D01*
X145492170Y-111076260D01*
X145487623Y-111082652D01*
X145483383Y-111089266D01*
X145479456Y-111096092D01*
X145475856Y-111103117D01*
X145472591Y-111110333D01*
X145469671Y-111117728D01*
X145467107Y-111125293D01*
X145464908Y-111133019D01*
X145463086Y-111140890D01*
X145461653Y-111148903D01*
X145460616Y-111157041D01*
X145459986Y-111165298D01*
X145459775Y-111173661D01*
X145450038Y-111173661D01*
X145450263Y-111164786D01*
X145450932Y-111156025D01*
X145452031Y-111147391D01*
X145453553Y-111138892D01*
X145455485Y-111130544D01*
X145457815Y-111122351D01*
X145460535Y-111114330D01*
X145463631Y-111106490D01*
X145467095Y-111098841D01*
X145470912Y-111091394D01*
X145475076Y-111084162D01*
X145479573Y-111077153D01*
X145484393Y-111070380D01*
X145489524Y-111063853D01*
X145494957Y-111057583D01*
X145500679Y-111051583D01*
X145506681Y-111045859D01*
X145512951Y-111040427D01*
X145519478Y-111035295D01*
X145526251Y-111030476D01*
X145533259Y-111025979D01*
X145540492Y-111021815D01*
X145547938Y-111017997D01*
X145555586Y-111014535D01*
X145563427Y-111011437D01*
X145571449Y-111008718D01*
X145579640Y-111006387D01*
X145587989Y-111004455D01*
X145596487Y-111002934D01*
X145605122Y-111001834D01*
X145613882Y-111001167D01*
X145622758Y-111000941D01*
X145631633Y-111001167D01*
G37*
G36*
X145630825Y-111016809D02*
G01*
X145638789Y-111017416D01*
X145646636Y-111018417D01*
X145654361Y-111019802D01*
X145661952Y-111021558D01*
X145669399Y-111023680D01*
X145676692Y-111026152D01*
X145683821Y-111028969D01*
X145690773Y-111032120D01*
X145697546Y-111035594D01*
X145704121Y-111039380D01*
X145710496Y-111043471D01*
X145716655Y-111047854D01*
X145722591Y-111052522D01*
X145728293Y-111057464D01*
X145733751Y-111062667D01*
X145738955Y-111068126D01*
X145743897Y-111073827D01*
X145748564Y-111079763D01*
X145752948Y-111085923D01*
X145757037Y-111092296D01*
X145760825Y-111098873D01*
X145764299Y-111105643D01*
X145767448Y-111112598D01*
X145770265Y-111119727D01*
X145772739Y-111127020D01*
X145774859Y-111134466D01*
X145776615Y-111142056D01*
X145778000Y-111149781D01*
X145779002Y-111157630D01*
X145779610Y-111165594D01*
X145779815Y-111173660D01*
X145779609Y-111181729D01*
X145779002Y-111189691D01*
X145778001Y-111197540D01*
X145776616Y-111205265D01*
X145774859Y-111212855D01*
X145772739Y-111220303D01*
X145770266Y-111227594D01*
X145767449Y-111234723D01*
X145764299Y-111241678D01*
X145760825Y-111248450D01*
X145757038Y-111255025D01*
X145752948Y-111261398D01*
X145748563Y-111267559D01*
X145743897Y-111273493D01*
X145738956Y-111279195D01*
X145733750Y-111284654D01*
X145728292Y-111289859D01*
X145722591Y-111294800D01*
X145716655Y-111299466D01*
X145710496Y-111303850D01*
X145704122Y-111307941D01*
X145697546Y-111311727D01*
X145690775Y-111315201D01*
X145683821Y-111318351D01*
X145676692Y-111321169D01*
X145669400Y-111323642D01*
X145661953Y-111325762D01*
X145654362Y-111327519D01*
X145646637Y-111328903D01*
X145638789Y-111329905D01*
X145630825Y-111330512D01*
X145622758Y-111330717D01*
X145614691Y-111330512D01*
X145606728Y-111329904D01*
X145598879Y-111328903D01*
X145591154Y-111327519D01*
X145583563Y-111325762D01*
X145576117Y-111323642D01*
X145568823Y-111321169D01*
X145561696Y-111318351D01*
X145554741Y-111315201D01*
X145547970Y-111311727D01*
X145541392Y-111307941D01*
X145535020Y-111303850D01*
X145528861Y-111299466D01*
X145522924Y-111294799D01*
X145517224Y-111289858D01*
X145511765Y-111284654D01*
X145506561Y-111279195D01*
X145501620Y-111273493D01*
X145496952Y-111267558D01*
X145492568Y-111261398D01*
X145488478Y-111255025D01*
X145484690Y-111248450D01*
X145481218Y-111241678D01*
X145478067Y-111234723D01*
X145475250Y-111227594D01*
X145472777Y-111220302D01*
X145470656Y-111212855D01*
X145468898Y-111205265D01*
X145467515Y-111197540D01*
X145466512Y-111189691D01*
X145465905Y-111181729D01*
X145465700Y-111173662D01*
X145475226Y-111173662D01*
X145475419Y-111181236D01*
X145475989Y-111188713D01*
X145476929Y-111196082D01*
X145478232Y-111203336D01*
X145479883Y-111210465D01*
X145481876Y-111217458D01*
X145484201Y-111224307D01*
X145486848Y-111231003D01*
X145489808Y-111237536D01*
X145493072Y-111243895D01*
X145496631Y-111250073D01*
X145500474Y-111256060D01*
X145504594Y-111261846D01*
X145508979Y-111267423D01*
X145513622Y-111272780D01*
X145518510Y-111277908D01*
X145523639Y-111282797D01*
X145528996Y-111287440D01*
X145534573Y-111291825D01*
X145540359Y-111295945D01*
X145546346Y-111299788D01*
X145552524Y-111303347D01*
X145558883Y-111306611D01*
X145565416Y-111309571D01*
X145572112Y-111312218D01*
X145578961Y-111314543D01*
X145585954Y-111316536D01*
X145593083Y-111318187D01*
X145600336Y-111319489D01*
X145607706Y-111320430D01*
X145615183Y-111321000D01*
X145622757Y-111321193D01*
X145630332Y-111321000D01*
X145637809Y-111320430D01*
X145645179Y-111319489D01*
X145652434Y-111318187D01*
X145659562Y-111316536D01*
X145666555Y-111314543D01*
X145673405Y-111312218D01*
X145680099Y-111309571D01*
X145686631Y-111306611D01*
X145692991Y-111303347D01*
X145699168Y-111299788D01*
X145705156Y-111295945D01*
X145710943Y-111291825D01*
X145716518Y-111287440D01*
X145721876Y-111282797D01*
X145727004Y-111277908D01*
X145731893Y-111272780D01*
X145736536Y-111267423D01*
X145740922Y-111261846D01*
X145745041Y-111256060D01*
X145748883Y-111250073D01*
X145752443Y-111243895D01*
X145755707Y-111237536D01*
X145758667Y-111231003D01*
X145761315Y-111224307D01*
X145763640Y-111217458D01*
X145765633Y-111210465D01*
X145767283Y-111203336D01*
X145768585Y-111196082D01*
X145769526Y-111188713D01*
X145770096Y-111181236D01*
X145770289Y-111173662D01*
X145770096Y-111166087D01*
X145769526Y-111158610D01*
X145768584Y-111151240D01*
X145767284Y-111143985D01*
X145765633Y-111136857D01*
X145763640Y-111129864D01*
X145761315Y-111123014D01*
X145758667Y-111116320D01*
X145755707Y-111109788D01*
X145752443Y-111103428D01*
X145748884Y-111097250D01*
X145745041Y-111091263D01*
X145740922Y-111085476D01*
X145736536Y-111079900D01*
X145731893Y-111074544D01*
X145727003Y-111069415D01*
X145721875Y-111064526D01*
X145716519Y-111059883D01*
X145710943Y-111055497D01*
X145705156Y-111051378D01*
X145699169Y-111047535D01*
X145692991Y-111043976D01*
X145686631Y-111040712D01*
X145680099Y-111037752D01*
X145673405Y-111035104D01*
X145666555Y-111032779D01*
X145659562Y-111030786D01*
X145652434Y-111029135D01*
X145645179Y-111027835D01*
X145637809Y-111026893D01*
X145630332Y-111026323D01*
X145622757Y-111026130D01*
X145615183Y-111026323D01*
X145607706Y-111026893D01*
X145600337Y-111027834D01*
X145593083Y-111029136D01*
X145585954Y-111030786D01*
X145578961Y-111032779D01*
X145572112Y-111035104D01*
X145565416Y-111037752D01*
X145558883Y-111040712D01*
X145552524Y-111043976D01*
X145546345Y-111047535D01*
X145540359Y-111051378D01*
X145534573Y-111055497D01*
X145528995Y-111059883D01*
X145523639Y-111064526D01*
X145518511Y-111069415D01*
X145513622Y-111074543D01*
X145508978Y-111079900D01*
X145504594Y-111085476D01*
X145500474Y-111091263D01*
X145496630Y-111097250D01*
X145493072Y-111103428D01*
X145489808Y-111109788D01*
X145486848Y-111116320D01*
X145484201Y-111123014D01*
X145481876Y-111129864D01*
X145479883Y-111136857D01*
X145478232Y-111143985D01*
X145476930Y-111151240D01*
X145475989Y-111158610D01*
X145475419Y-111166087D01*
X145475226Y-111173662D01*
X145465700Y-111173662D01*
X145465700Y-111173661D01*
X145465701Y-111173660D01*
X145465905Y-111165594D01*
X145466514Y-111157630D01*
X145467515Y-111149781D01*
X145468899Y-111142056D01*
X145470656Y-111134466D01*
X145472777Y-111127019D01*
X145475250Y-111119727D01*
X145478066Y-111112598D01*
X145481217Y-111105643D01*
X145484690Y-111098873D01*
X145488478Y-111092296D01*
X145492567Y-111085923D01*
X145496952Y-111079763D01*
X145501619Y-111073828D01*
X145506560Y-111068127D01*
X145511765Y-111062667D01*
X145517222Y-111057464D01*
X145522925Y-111052522D01*
X145528860Y-111047856D01*
X145535019Y-111043472D01*
X145541393Y-111039380D01*
X145547969Y-111035594D01*
X145554741Y-111032120D01*
X145561695Y-111028969D01*
X145568824Y-111026152D01*
X145576116Y-111023680D01*
X145583562Y-111021558D01*
X145591154Y-111019802D01*
X145598878Y-111018417D01*
X145606728Y-111017417D01*
X145614690Y-111016809D01*
X145622757Y-111016604D01*
X145630825Y-111016809D01*
G37*
G36*
X145635246Y-111083280D02*
G01*
X145642517Y-111083504D01*
X145649399Y-111084170D01*
X145655884Y-111085270D01*
X145658972Y-111085981D01*
X145661956Y-111086794D01*
X145664835Y-111087713D01*
X145667608Y-111088734D01*
X145670271Y-111089858D01*
X145672826Y-111091081D01*
X145675269Y-111092404D01*
X145677600Y-111093825D01*
X145679816Y-111095343D01*
X145681919Y-111096958D01*
X145683903Y-111098668D01*
X145685772Y-111100470D01*
X145687520Y-111102365D01*
X145689147Y-111104353D01*
X145690651Y-111106431D01*
X145692034Y-111108596D01*
X145693290Y-111110852D01*
X145694420Y-111113194D01*
X145695423Y-111115621D01*
X145696296Y-111118133D01*
X145697039Y-111120730D01*
X145697650Y-111123410D01*
X145698128Y-111126168D01*
X145698470Y-111129009D01*
X145698677Y-111131928D01*
X145698746Y-111134926D01*
X145698647Y-111138631D01*
X145698351Y-111142206D01*
X145697859Y-111145648D01*
X145697172Y-111148955D01*
X145696291Y-111152126D01*
X145695219Y-111155159D01*
X145693955Y-111158053D01*
X145692500Y-111160802D01*
X145690861Y-111163409D01*
X145689030Y-111165870D01*
X145687014Y-111168183D01*
X145684816Y-111170348D01*
X145682433Y-111172359D01*
X145679867Y-111174219D01*
X145677120Y-111175923D01*
X145674193Y-111177472D01*
X145675404Y-111178226D01*
X145676579Y-111179018D01*
X145677716Y-111179852D01*
X145678815Y-111180725D01*
X145679877Y-111181637D01*
X145680901Y-111182589D01*
X145681888Y-111183580D01*
X145682837Y-111184611D01*
X145683750Y-111185681D01*
X145684623Y-111186791D01*
X145685458Y-111187939D01*
X145686255Y-111189128D01*
X145687014Y-111190355D01*
X145687735Y-111191622D01*
X145688418Y-111192927D01*
X145689063Y-111194272D01*
X145689669Y-111195656D01*
X145690236Y-111197078D01*
X145690765Y-111198541D01*
X145691255Y-111200041D01*
X145691705Y-111201581D01*
X145692117Y-111203160D01*
X145692491Y-111204777D01*
X145692826Y-111206433D01*
X145693377Y-111209862D01*
X145693773Y-111213444D01*
X145694011Y-111217182D01*
X145694090Y-111221074D01*
X145694089Y-111228270D01*
X145694120Y-111238769D01*
X145694190Y-111243950D01*
X145694328Y-111248909D01*
X145694555Y-111253510D01*
X145694893Y-111257620D01*
X145695112Y-111259448D01*
X145695366Y-111261105D01*
X145695660Y-111262571D01*
X145695995Y-111263831D01*
X145697900Y-111269969D01*
X145672076Y-111269970D01*
X145671017Y-111266582D01*
X145670611Y-111265221D01*
X145670258Y-111263764D01*
X145669958Y-111262215D01*
X145669705Y-111260583D01*
X145669495Y-111258875D01*
X145669324Y-111257095D01*
X145669086Y-111253354D01*
X145668957Y-111249415D01*
X145668904Y-111245329D01*
X145668901Y-111236949D01*
X145668901Y-111223615D01*
X145668793Y-111218765D01*
X145668456Y-111214362D01*
X145668194Y-111212324D01*
X145667868Y-111210390D01*
X145667473Y-111208558D01*
X145667009Y-111206827D01*
X145666471Y-111205193D01*
X145665858Y-111203655D01*
X145665165Y-111202211D01*
X145664392Y-111200858D01*
X145663535Y-111199594D01*
X145662591Y-111198415D01*
X145661559Y-111197321D01*
X145660435Y-111196310D01*
X145659216Y-111195376D01*
X145657901Y-111194520D01*
X145656485Y-111193739D01*
X145654969Y-111193030D01*
X145653348Y-111192391D01*
X145651618Y-111191820D01*
X145649779Y-111191315D01*
X145647827Y-111190872D01*
X145645759Y-111190490D01*
X145643574Y-111190166D01*
X145638840Y-111189686D01*
X145633601Y-111189411D01*
X145627838Y-111189324D01*
X145577250Y-111189324D01*
X145577249Y-111269969D01*
X145552273Y-111269969D01*
X145552273Y-111260446D01*
X145552273Y-111093016D01*
X145562222Y-111093016D01*
X145562222Y-111260446D01*
X145567937Y-111260446D01*
X145567937Y-111179800D01*
X145628049Y-111179800D01*
X145633920Y-111179891D01*
X145639461Y-111180181D01*
X145644665Y-111180708D01*
X145649528Y-111181500D01*
X145654040Y-111182593D01*
X145656162Y-111183262D01*
X145658194Y-111184020D01*
X145660135Y-111184867D01*
X145661988Y-111185811D01*
X145663745Y-111186855D01*
X145665409Y-111188002D01*
X145666980Y-111189257D01*
X145668454Y-111190624D01*
X145669833Y-111192107D01*
X145671114Y-111193711D01*
X145672299Y-111195439D01*
X145673385Y-111197296D01*
X145674372Y-111199284D01*
X145675259Y-111201410D01*
X145676043Y-111203676D01*
X145676727Y-111206087D01*
X145677308Y-111208647D01*
X145677784Y-111211361D01*
X145678157Y-111214231D01*
X145678424Y-111217262D01*
X145678585Y-111220460D01*
X145678638Y-111223827D01*
X145678639Y-111237161D01*
X145678652Y-111243329D01*
X145678744Y-111249517D01*
X145678845Y-111252501D01*
X145678994Y-111255348D01*
X145679205Y-111258011D01*
X145679485Y-111260444D01*
X145685834Y-111260444D01*
X145685485Y-111257178D01*
X145685223Y-111253601D01*
X145685034Y-111249762D01*
X145684908Y-111245708D01*
X145684793Y-111237138D01*
X145684777Y-111228272D01*
X145684777Y-111221075D01*
X145684736Y-111218362D01*
X145684614Y-111215781D01*
X145684417Y-111213323D01*
X145684145Y-111210989D01*
X145683804Y-111208775D01*
X145683395Y-111206675D01*
X145682925Y-111204689D01*
X145682392Y-111202812D01*
X145681801Y-111201042D01*
X145681158Y-111199374D01*
X145680463Y-111197805D01*
X145679720Y-111196332D01*
X145678933Y-111194952D01*
X145678104Y-111193662D01*
X145677238Y-111192457D01*
X145676335Y-111191335D01*
X145674442Y-111189327D01*
X145672446Y-111187610D01*
X145670376Y-111186155D01*
X145668256Y-111184939D01*
X145666113Y-111183934D01*
X145663972Y-111183112D01*
X145661859Y-111182449D01*
X145659800Y-111181916D01*
X145640749Y-111177260D01*
X145659800Y-111172603D01*
X145663412Y-111171604D01*
X145665128Y-111171037D01*
X145666786Y-111170428D01*
X145668384Y-111169776D01*
X145669923Y-111169079D01*
X145671403Y-111168339D01*
X145672824Y-111167552D01*
X145674186Y-111166724D01*
X145675489Y-111165849D01*
X145676733Y-111164931D01*
X145677919Y-111163967D01*
X145679046Y-111162960D01*
X145680116Y-111161906D01*
X145681125Y-111160809D01*
X145682078Y-111159665D01*
X145682971Y-111158476D01*
X145683807Y-111157243D01*
X145684584Y-111155964D01*
X145685303Y-111154638D01*
X145685963Y-111153268D01*
X145686568Y-111151851D01*
X145687113Y-111150388D01*
X145687600Y-111148881D01*
X145688031Y-111147325D01*
X145688403Y-111145724D01*
X145688717Y-111144077D01*
X145688976Y-111142382D01*
X145689176Y-111140641D01*
X145689319Y-111138855D01*
X145689433Y-111135138D01*
X145689323Y-111131685D01*
X145689005Y-111128421D01*
X145688488Y-111125345D01*
X145687782Y-111122450D01*
X145686899Y-111119730D01*
X145685849Y-111117181D01*
X145684643Y-111114797D01*
X145683290Y-111112573D01*
X145681805Y-111110502D01*
X145680197Y-111108579D01*
X145678476Y-111106801D01*
X145676652Y-111105160D01*
X145674738Y-111103652D01*
X145672743Y-111102272D01*
X145670680Y-111101012D01*
X145668558Y-111099869D01*
X145666386Y-111098837D01*
X145664179Y-111097912D01*
X145661947Y-111097085D01*
X145659699Y-111096354D01*
X145655198Y-111095155D01*
X145650768Y-111094271D01*
X145646491Y-111093658D01*
X145642456Y-111093272D01*
X145638750Y-111093073D01*
X145635456Y-111093016D01*
X145562222Y-111093016D01*
X145552273Y-111093016D01*
X145552273Y-111083279D01*
X145635246Y-111083280D01*
G37*
G36*
X137015387Y-112923055D02*
G01*
X137026024Y-112923586D01*
X137036652Y-112924461D01*
X137047265Y-112925670D01*
X137057858Y-112927202D01*
X137068423Y-112929047D01*
X137078953Y-112931198D01*
X137089442Y-112933644D01*
X137099885Y-112936374D01*
X137110276Y-112939380D01*
X137120605Y-112942652D01*
X137130867Y-112946181D01*
X137141057Y-112949957D01*
X137151165Y-112953969D01*
X137161190Y-112958210D01*
X137171120Y-112962668D01*
X137126459Y-113057706D01*
X137118430Y-113053686D01*
X137110456Y-113049886D01*
X137102541Y-113046308D01*
X137094685Y-113042962D01*
X137086890Y-113039851D01*
X137079156Y-113036982D01*
X137071488Y-113034358D01*
X137063885Y-113031988D01*
X137056347Y-113029877D01*
X137048880Y-113028028D01*
X137041482Y-113026448D01*
X137034154Y-113025143D01*
X137026901Y-113024117D01*
X137019723Y-113023380D01*
X137012621Y-113022931D01*
X137005597Y-113022781D01*
X136997849Y-113022970D01*
X136990714Y-113023530D01*
X136984171Y-113024450D01*
X136978208Y-113025719D01*
X136975441Y-113026479D01*
X136972810Y-113027324D01*
X136970319Y-113028250D01*
X136967962Y-113029256D01*
X136965739Y-113030339D01*
X136963646Y-113031502D01*
X136961684Y-113032740D01*
X136959851Y-113034052D01*
X136958141Y-113035439D01*
X136956558Y-113036895D01*
X136955095Y-113038423D01*
X136953752Y-113040021D01*
X136952527Y-113041685D01*
X136951421Y-113043416D01*
X136950428Y-113045212D01*
X136949547Y-113047071D01*
X136948779Y-113048992D01*
X136948118Y-113050972D01*
X136947115Y-113055112D01*
X136946524Y-113059477D01*
X136946329Y-113064057D01*
X136946367Y-113066100D01*
X136946483Y-113068101D01*
X136946675Y-113070064D01*
X136946945Y-113071993D01*
X136947293Y-113073888D01*
X136947725Y-113075754D01*
X136948236Y-113077593D01*
X136948830Y-113079407D01*
X136949506Y-113081198D01*
X136950267Y-113082970D01*
X136951114Y-113084725D01*
X136952045Y-113086466D01*
X136953064Y-113088197D01*
X136954170Y-113089918D01*
X136955365Y-113091635D01*
X136956649Y-113093346D01*
X136959490Y-113096771D01*
X136962699Y-113100217D01*
X136966289Y-113103700D01*
X136970262Y-113107246D01*
X136974626Y-113110876D01*
X136979389Y-113114611D01*
X136984561Y-113118469D01*
X136990145Y-113122476D01*
X137088359Y-113191481D01*
X137099881Y-113199572D01*
X137110712Y-113207758D01*
X137120846Y-113216071D01*
X137130271Y-113224547D01*
X137138985Y-113233217D01*
X137146977Y-113242120D01*
X137154243Y-113251284D01*
X137157601Y-113255978D01*
X137160774Y-113260748D01*
X137163762Y-113265603D01*
X137166565Y-113270544D01*
X137169178Y-113275577D01*
X137171605Y-113280706D01*
X137173842Y-113285936D01*
X137175889Y-113291271D01*
X137177746Y-113296713D01*
X137179411Y-113302268D01*
X137180884Y-113307940D01*
X137182163Y-113313735D01*
X137183247Y-113319655D01*
X137184136Y-113325705D01*
X137184831Y-113331888D01*
X137185326Y-113338211D01*
X137185625Y-113344676D01*
X137185724Y-113351288D01*
X137185507Y-113361181D01*
X137184857Y-113370778D01*
X137183779Y-113380078D01*
X137182282Y-113389078D01*
X137180366Y-113397779D01*
X137178044Y-113406178D01*
X137175316Y-113414276D01*
X137172188Y-113422071D01*
X137168668Y-113429561D01*
X137164759Y-113436745D01*
X137160468Y-113443622D01*
X137155800Y-113450193D01*
X137150758Y-113456452D01*
X137145355Y-113462402D01*
X137139589Y-113468042D01*
X137133469Y-113473368D01*
X137127000Y-113478380D01*
X137120188Y-113483077D01*
X137113038Y-113487457D01*
X137105555Y-113491521D01*
X137097744Y-113495267D01*
X137089612Y-113498693D01*
X137081165Y-113501798D01*
X137072408Y-113504581D01*
X137063345Y-113507041D01*
X137053982Y-113509178D01*
X137044327Y-113510987D01*
X137034383Y-113512471D01*
X137024158Y-113513627D01*
X137013654Y-113514455D01*
X137002879Y-113514953D01*
X136991839Y-113515118D01*
X136978047Y-113514902D01*
X136964385Y-113514185D01*
X136950868Y-113512983D01*
X136937513Y-113511311D01*
X136924333Y-113509183D01*
X136911345Y-113506616D01*
X136898564Y-113503623D01*
X136886005Y-113500221D01*
X136873685Y-113496426D01*
X136861618Y-113492249D01*
X136849820Y-113487711D01*
X136838307Y-113482822D01*
X136827094Y-113477600D01*
X136816198Y-113472059D01*
X136805631Y-113466215D01*
X136795411Y-113460085D01*
X136841767Y-113365046D01*
X136859195Y-113374892D01*
X136868165Y-113379599D01*
X136877290Y-113384125D01*
X136886560Y-113388445D01*
X136895966Y-113392530D01*
X136905495Y-113396355D01*
X136915135Y-113399891D01*
X136924878Y-113403114D01*
X136934712Y-113405992D01*
X136944625Y-113408503D01*
X136954607Y-113410618D01*
X136964648Y-113412308D01*
X136974737Y-113413551D01*
X136984863Y-113414315D01*
X136995014Y-113414576D01*
X137004742Y-113414304D01*
X137013843Y-113413500D01*
X137022322Y-113412183D01*
X137030173Y-113410372D01*
X137037398Y-113408088D01*
X137040775Y-113406772D01*
X137043996Y-113405345D01*
X137047060Y-113403810D01*
X137049967Y-113402166D01*
X137052719Y-113400418D01*
X137055311Y-113398568D01*
X137057749Y-113396619D01*
X137060028Y-113394573D01*
X137062150Y-113392431D01*
X137064116Y-113390196D01*
X137065926Y-113387869D01*
X137067578Y-113385457D01*
X137069072Y-113382958D01*
X137070410Y-113380375D01*
X137071590Y-113377712D01*
X137072612Y-113374970D01*
X137073478Y-113372152D01*
X137074187Y-113369260D01*
X137074738Y-113366297D01*
X137075132Y-113363265D01*
X137075447Y-113357002D01*
X137075385Y-113354292D01*
X137075199Y-113351636D01*
X137074894Y-113349030D01*
X137074465Y-113346474D01*
X137073918Y-113343961D01*
X137073253Y-113341491D01*
X137072469Y-113339060D01*
X137071571Y-113336667D01*
X137070556Y-113334304D01*
X137069427Y-113331973D01*
X137068184Y-113329669D01*
X137066829Y-113327390D01*
X137065364Y-113325131D01*
X137063789Y-113322890D01*
X137060312Y-113318453D01*
X137056410Y-113314052D01*
X137052088Y-113309665D01*
X137047359Y-113305268D01*
X137042228Y-113300836D01*
X137036705Y-113296345D01*
X137030800Y-113291771D01*
X137024520Y-113287093D01*
X137017874Y-113282284D01*
X136926222Y-113216456D01*
X136915303Y-113208610D01*
X136905087Y-113200624D01*
X136895577Y-113192486D01*
X136886772Y-113184181D01*
X136878669Y-113175698D01*
X136871274Y-113167026D01*
X136864581Y-113158154D01*
X136858594Y-113149067D01*
X136855864Y-113144439D01*
X136853310Y-113139755D01*
X136850933Y-113135011D01*
X136848732Y-113130204D01*
X136846707Y-113125336D01*
X136844858Y-113120404D01*
X136843185Y-113115406D01*
X136841687Y-113110343D01*
X136840366Y-113105210D01*
X136839222Y-113100005D01*
X136838253Y-113094731D01*
X136837460Y-113089383D01*
X136836845Y-113083961D01*
X136836403Y-113078463D01*
X136836052Y-113067231D01*
X136836228Y-113059033D01*
X136836754Y-113051030D01*
X136837627Y-113043226D01*
X136838845Y-113035627D01*
X136840410Y-113028235D01*
X136842315Y-113021055D01*
X136844560Y-113014092D01*
X136847141Y-113007350D01*
X136850058Y-113000832D01*
X136853307Y-112994545D01*
X136856889Y-112988492D01*
X136860798Y-112982675D01*
X136865035Y-112977102D01*
X136869595Y-112971774D01*
X136874477Y-112966697D01*
X136879682Y-112961875D01*
X136885203Y-112957311D01*
X136891041Y-112953012D01*
X136897192Y-112948981D01*
X136903655Y-112945222D01*
X136910427Y-112941739D01*
X136917508Y-112938535D01*
X136924893Y-112935617D01*
X136932582Y-112932988D01*
X136940571Y-112930653D01*
X136948859Y-112928615D01*
X136957446Y-112926878D01*
X136966326Y-112925448D01*
X136975498Y-112924328D01*
X136984961Y-112923523D01*
X136994713Y-112923037D01*
X137004750Y-112922874D01*
X137015387Y-112923055D01*
G37*
D11*
X131290475Y-62107295D02*
X131290475Y-62754914D01*
X131290475Y-62754914D02*
X131328570Y-62831104D01*
X131328570Y-62831104D02*
X131366665Y-62869200D01*
X131366665Y-62869200D02*
X131442856Y-62907295D01*
X131442856Y-62907295D02*
X131595237Y-62907295D01*
X131595237Y-62907295D02*
X131671427Y-62869200D01*
X131671427Y-62869200D02*
X131709522Y-62831104D01*
X131709522Y-62831104D02*
X131747618Y-62754914D01*
X131747618Y-62754914D02*
X131747618Y-62107295D01*
X132242855Y-62450152D02*
X132166665Y-62412057D01*
X132166665Y-62412057D02*
X132128570Y-62373961D01*
X132128570Y-62373961D02*
X132090474Y-62297771D01*
X132090474Y-62297771D02*
X132090474Y-62259676D01*
X132090474Y-62259676D02*
X132128570Y-62183485D01*
X132128570Y-62183485D02*
X132166665Y-62145390D01*
X132166665Y-62145390D02*
X132242855Y-62107295D01*
X132242855Y-62107295D02*
X132395236Y-62107295D01*
X132395236Y-62107295D02*
X132471427Y-62145390D01*
X132471427Y-62145390D02*
X132509522Y-62183485D01*
X132509522Y-62183485D02*
X132547617Y-62259676D01*
X132547617Y-62259676D02*
X132547617Y-62297771D01*
X132547617Y-62297771D02*
X132509522Y-62373961D01*
X132509522Y-62373961D02*
X132471427Y-62412057D01*
X132471427Y-62412057D02*
X132395236Y-62450152D01*
X132395236Y-62450152D02*
X132242855Y-62450152D01*
X132242855Y-62450152D02*
X132166665Y-62488247D01*
X132166665Y-62488247D02*
X132128570Y-62526342D01*
X132128570Y-62526342D02*
X132090474Y-62602533D01*
X132090474Y-62602533D02*
X132090474Y-62754914D01*
X132090474Y-62754914D02*
X132128570Y-62831104D01*
X132128570Y-62831104D02*
X132166665Y-62869200D01*
X132166665Y-62869200D02*
X132242855Y-62907295D01*
X132242855Y-62907295D02*
X132395236Y-62907295D01*
X132395236Y-62907295D02*
X132471427Y-62869200D01*
X132471427Y-62869200D02*
X132509522Y-62831104D01*
X132509522Y-62831104D02*
X132547617Y-62754914D01*
X132547617Y-62754914D02*
X132547617Y-62602533D01*
X132547617Y-62602533D02*
X132509522Y-62526342D01*
X132509522Y-62526342D02*
X132471427Y-62488247D01*
X132471427Y-62488247D02*
X132395236Y-62450152D01*
X137274819Y-83784285D02*
X136274819Y-83784285D01*
X136274819Y-83784285D02*
X136274819Y-83546190D01*
X136274819Y-83546190D02*
X136322438Y-83403333D01*
X136322438Y-83403333D02*
X136417676Y-83308095D01*
X136417676Y-83308095D02*
X136512914Y-83260476D01*
X136512914Y-83260476D02*
X136703390Y-83212857D01*
X136703390Y-83212857D02*
X136846247Y-83212857D01*
X136846247Y-83212857D02*
X137036723Y-83260476D01*
X137036723Y-83260476D02*
X137131961Y-83308095D01*
X137131961Y-83308095D02*
X137227200Y-83403333D01*
X137227200Y-83403333D02*
X137274819Y-83546190D01*
X137274819Y-83546190D02*
X137274819Y-83784285D01*
X137274819Y-82260476D02*
X137274819Y-82831904D01*
X137274819Y-82546190D02*
X136274819Y-82546190D01*
X136274819Y-82546190D02*
X136417676Y-82641428D01*
X136417676Y-82641428D02*
X136512914Y-82736666D01*
X136512914Y-82736666D02*
X136560533Y-82831904D01*
X136274819Y-81927142D02*
X136274819Y-81260476D01*
X136274819Y-81260476D02*
X137274819Y-81689047D01*
X155461905Y-101704819D02*
X155461905Y-100704819D01*
X155461905Y-100704819D02*
X155700000Y-100704819D01*
X155700000Y-100704819D02*
X155842857Y-100752438D01*
X155842857Y-100752438D02*
X155938095Y-100847676D01*
X155938095Y-100847676D02*
X155985714Y-100942914D01*
X155985714Y-100942914D02*
X156033333Y-101133390D01*
X156033333Y-101133390D02*
X156033333Y-101276247D01*
X156033333Y-101276247D02*
X155985714Y-101466723D01*
X155985714Y-101466723D02*
X155938095Y-101561961D01*
X155938095Y-101561961D02*
X155842857Y-101657200D01*
X155842857Y-101657200D02*
X155700000Y-101704819D01*
X155700000Y-101704819D02*
X155461905Y-101704819D01*
X156509524Y-101704819D02*
X156700000Y-101704819D01*
X156700000Y-101704819D02*
X156795238Y-101657200D01*
X156795238Y-101657200D02*
X156842857Y-101609580D01*
X156842857Y-101609580D02*
X156938095Y-101466723D01*
X156938095Y-101466723D02*
X156985714Y-101276247D01*
X156985714Y-101276247D02*
X156985714Y-100895295D01*
X156985714Y-100895295D02*
X156938095Y-100800057D01*
X156938095Y-100800057D02*
X156890476Y-100752438D01*
X156890476Y-100752438D02*
X156795238Y-100704819D01*
X156795238Y-100704819D02*
X156604762Y-100704819D01*
X156604762Y-100704819D02*
X156509524Y-100752438D01*
X156509524Y-100752438D02*
X156461905Y-100800057D01*
X156461905Y-100800057D02*
X156414286Y-100895295D01*
X156414286Y-100895295D02*
X156414286Y-101133390D01*
X156414286Y-101133390D02*
X156461905Y-101228628D01*
X156461905Y-101228628D02*
X156509524Y-101276247D01*
X156509524Y-101276247D02*
X156604762Y-101323866D01*
X156604762Y-101323866D02*
X156795238Y-101323866D01*
X156795238Y-101323866D02*
X156890476Y-101276247D01*
X156890476Y-101276247D02*
X156938095Y-101228628D01*
X156938095Y-101228628D02*
X156985714Y-101133390D01*
X135661905Y-101704819D02*
X135661905Y-100704819D01*
X135661905Y-100704819D02*
X135900000Y-100704819D01*
X135900000Y-100704819D02*
X136042857Y-100752438D01*
X136042857Y-100752438D02*
X136138095Y-100847676D01*
X136138095Y-100847676D02*
X136185714Y-100942914D01*
X136185714Y-100942914D02*
X136233333Y-101133390D01*
X136233333Y-101133390D02*
X136233333Y-101276247D01*
X136233333Y-101276247D02*
X136185714Y-101466723D01*
X136185714Y-101466723D02*
X136138095Y-101561961D01*
X136138095Y-101561961D02*
X136042857Y-101657200D01*
X136042857Y-101657200D02*
X135900000Y-101704819D01*
X135900000Y-101704819D02*
X135661905Y-101704819D01*
X137090476Y-100704819D02*
X136900000Y-100704819D01*
X136900000Y-100704819D02*
X136804762Y-100752438D01*
X136804762Y-100752438D02*
X136757143Y-100800057D01*
X136757143Y-100800057D02*
X136661905Y-100942914D01*
X136661905Y-100942914D02*
X136614286Y-101133390D01*
X136614286Y-101133390D02*
X136614286Y-101514342D01*
X136614286Y-101514342D02*
X136661905Y-101609580D01*
X136661905Y-101609580D02*
X136709524Y-101657200D01*
X136709524Y-101657200D02*
X136804762Y-101704819D01*
X136804762Y-101704819D02*
X136995238Y-101704819D01*
X136995238Y-101704819D02*
X137090476Y-101657200D01*
X137090476Y-101657200D02*
X137138095Y-101609580D01*
X137138095Y-101609580D02*
X137185714Y-101514342D01*
X137185714Y-101514342D02*
X137185714Y-101276247D01*
X137185714Y-101276247D02*
X137138095Y-101181009D01*
X137138095Y-101181009D02*
X137090476Y-101133390D01*
X137090476Y-101133390D02*
X136995238Y-101085771D01*
X136995238Y-101085771D02*
X136804762Y-101085771D01*
X136804762Y-101085771D02*
X136709524Y-101133390D01*
X136709524Y-101133390D02*
X136661905Y-101181009D01*
X136661905Y-101181009D02*
X136614286Y-101276247D01*
X152658826Y-146761904D02*
X151658826Y-146761904D01*
X152135016Y-146761904D02*
X152135016Y-146190476D01*
X152658826Y-146190476D02*
X151658826Y-146190476D01*
X151754064Y-145761904D02*
X151706445Y-145714285D01*
X151706445Y-145714285D02*
X151658826Y-145619047D01*
X151658826Y-145619047D02*
X151658826Y-145380952D01*
X151658826Y-145380952D02*
X151706445Y-145285714D01*
X151706445Y-145285714D02*
X151754064Y-145238095D01*
X151754064Y-145238095D02*
X151849302Y-145190476D01*
X151849302Y-145190476D02*
X151944540Y-145190476D01*
X151944540Y-145190476D02*
X152087397Y-145238095D01*
X152087397Y-145238095D02*
X152658826Y-145809523D01*
X152658826Y-145809523D02*
X152658826Y-145190476D01*
X156543015Y-65889819D02*
X157209681Y-66889819D01*
X157209681Y-65889819D02*
X156543015Y-66889819D01*
X157543015Y-65985057D02*
X157590634Y-65937438D01*
X157590634Y-65937438D02*
X157685872Y-65889819D01*
X157685872Y-65889819D02*
X157923967Y-65889819D01*
X157923967Y-65889819D02*
X158019205Y-65937438D01*
X158019205Y-65937438D02*
X158066824Y-65985057D01*
X158066824Y-65985057D02*
X158114443Y-66080295D01*
X158114443Y-66080295D02*
X158114443Y-66175533D01*
X158114443Y-66175533D02*
X158066824Y-66318390D01*
X158066824Y-66318390D02*
X157495396Y-66889819D01*
X157495396Y-66889819D02*
X158114443Y-66889819D01*
X143307359Y-74400228D02*
X144307359Y-73733562D01*
X143307359Y-73733562D02*
X144307359Y-74400228D01*
X143640692Y-72924038D02*
X144307359Y-72924038D01*
X143259740Y-73162133D02*
X143974025Y-73400228D01*
X143974025Y-73400228D02*
X143974025Y-72781181D01*
X123418095Y-59159819D02*
X123418095Y-59969342D01*
X123418095Y-59969342D02*
X123465714Y-60064580D01*
X123465714Y-60064580D02*
X123513333Y-60112200D01*
X123513333Y-60112200D02*
X123608571Y-60159819D01*
X123608571Y-60159819D02*
X123799047Y-60159819D01*
X123799047Y-60159819D02*
X123894285Y-60112200D01*
X123894285Y-60112200D02*
X123941904Y-60064580D01*
X123941904Y-60064580D02*
X123989523Y-59969342D01*
X123989523Y-59969342D02*
X123989523Y-59159819D01*
X124418095Y-59255057D02*
X124465714Y-59207438D01*
X124465714Y-59207438D02*
X124560952Y-59159819D01*
X124560952Y-59159819D02*
X124799047Y-59159819D01*
X124799047Y-59159819D02*
X124894285Y-59207438D01*
X124894285Y-59207438D02*
X124941904Y-59255057D01*
X124941904Y-59255057D02*
X124989523Y-59350295D01*
X124989523Y-59350295D02*
X124989523Y-59445533D01*
X124989523Y-59445533D02*
X124941904Y-59588390D01*
X124941904Y-59588390D02*
X124370476Y-60159819D01*
X124370476Y-60159819D02*
X124989523Y-60159819D01*
X143019819Y-132225594D02*
X142019819Y-132225594D01*
X142019819Y-132225594D02*
X142019819Y-131987499D01*
X142019819Y-131987499D02*
X142067438Y-131844642D01*
X142067438Y-131844642D02*
X142162676Y-131749404D01*
X142162676Y-131749404D02*
X142257914Y-131701785D01*
X142257914Y-131701785D02*
X142448390Y-131654166D01*
X142448390Y-131654166D02*
X142591247Y-131654166D01*
X142591247Y-131654166D02*
X142781723Y-131701785D01*
X142781723Y-131701785D02*
X142876961Y-131749404D01*
X142876961Y-131749404D02*
X142972200Y-131844642D01*
X142972200Y-131844642D02*
X143019819Y-131987499D01*
X143019819Y-131987499D02*
X143019819Y-132225594D01*
X143019819Y-130701785D02*
X143019819Y-131273213D01*
X143019819Y-130987499D02*
X142019819Y-130987499D01*
X142019819Y-130987499D02*
X142162676Y-131082737D01*
X142162676Y-131082737D02*
X142257914Y-131177975D01*
X142257914Y-131177975D02*
X142305533Y-131273213D01*
X148089580Y-60987857D02*
X148137200Y-61035476D01*
X148137200Y-61035476D02*
X148184819Y-61178333D01*
X148184819Y-61178333D02*
X148184819Y-61273571D01*
X148184819Y-61273571D02*
X148137200Y-61416428D01*
X148137200Y-61416428D02*
X148041961Y-61511666D01*
X148041961Y-61511666D02*
X147946723Y-61559285D01*
X147946723Y-61559285D02*
X147756247Y-61606904D01*
X147756247Y-61606904D02*
X147613390Y-61606904D01*
X147613390Y-61606904D02*
X147422914Y-61559285D01*
X147422914Y-61559285D02*
X147327676Y-61511666D01*
X147327676Y-61511666D02*
X147232438Y-61416428D01*
X147232438Y-61416428D02*
X147184819Y-61273571D01*
X147184819Y-61273571D02*
X147184819Y-61178333D01*
X147184819Y-61178333D02*
X147232438Y-61035476D01*
X147232438Y-61035476D02*
X147280057Y-60987857D01*
X148184819Y-60035476D02*
X148184819Y-60606904D01*
X148184819Y-60321190D02*
X147184819Y-60321190D01*
X147184819Y-60321190D02*
X147327676Y-60416428D01*
X147327676Y-60416428D02*
X147422914Y-60511666D01*
X147422914Y-60511666D02*
X147470533Y-60606904D01*
X147184819Y-59178333D02*
X147184819Y-59368809D01*
X147184819Y-59368809D02*
X147232438Y-59464047D01*
X147232438Y-59464047D02*
X147280057Y-59511666D01*
X147280057Y-59511666D02*
X147422914Y-59606904D01*
X147422914Y-59606904D02*
X147613390Y-59654523D01*
X147613390Y-59654523D02*
X147994342Y-59654523D01*
X147994342Y-59654523D02*
X148089580Y-59606904D01*
X148089580Y-59606904D02*
X148137200Y-59559285D01*
X148137200Y-59559285D02*
X148184819Y-59464047D01*
X148184819Y-59464047D02*
X148184819Y-59273571D01*
X148184819Y-59273571D02*
X148137200Y-59178333D01*
X148137200Y-59178333D02*
X148089580Y-59130714D01*
X148089580Y-59130714D02*
X147994342Y-59083095D01*
X147994342Y-59083095D02*
X147756247Y-59083095D01*
X147756247Y-59083095D02*
X147661009Y-59130714D01*
X147661009Y-59130714D02*
X147613390Y-59178333D01*
X147613390Y-59178333D02*
X147565771Y-59273571D01*
X147565771Y-59273571D02*
X147565771Y-59464047D01*
X147565771Y-59464047D02*
X147613390Y-59559285D01*
X147613390Y-59559285D02*
X147661009Y-59606904D01*
X147661009Y-59606904D02*
X147756247Y-59654523D01*
X136879580Y-60965357D02*
X136927200Y-61012976D01*
X136927200Y-61012976D02*
X136974819Y-61155833D01*
X136974819Y-61155833D02*
X136974819Y-61251071D01*
X136974819Y-61251071D02*
X136927200Y-61393928D01*
X136927200Y-61393928D02*
X136831961Y-61489166D01*
X136831961Y-61489166D02*
X136736723Y-61536785D01*
X136736723Y-61536785D02*
X136546247Y-61584404D01*
X136546247Y-61584404D02*
X136403390Y-61584404D01*
X136403390Y-61584404D02*
X136212914Y-61536785D01*
X136212914Y-61536785D02*
X136117676Y-61489166D01*
X136117676Y-61489166D02*
X136022438Y-61393928D01*
X136022438Y-61393928D02*
X135974819Y-61251071D01*
X135974819Y-61251071D02*
X135974819Y-61155833D01*
X135974819Y-61155833D02*
X136022438Y-61012976D01*
X136022438Y-61012976D02*
X136070057Y-60965357D01*
X136974819Y-60012976D02*
X136974819Y-60584404D01*
X136974819Y-60298690D02*
X135974819Y-60298690D01*
X135974819Y-60298690D02*
X136117676Y-60393928D01*
X136117676Y-60393928D02*
X136212914Y-60489166D01*
X136212914Y-60489166D02*
X136260533Y-60584404D01*
X135974819Y-59679642D02*
X135974819Y-59012976D01*
X135974819Y-59012976D02*
X136974819Y-59441547D01*
X147285714Y-127604819D02*
X147285714Y-126604819D01*
X147285714Y-126604819D02*
X147523809Y-126604819D01*
X147523809Y-126604819D02*
X147666666Y-126652438D01*
X147666666Y-126652438D02*
X147761904Y-126747676D01*
X147761904Y-126747676D02*
X147809523Y-126842914D01*
X147809523Y-126842914D02*
X147857142Y-127033390D01*
X147857142Y-127033390D02*
X147857142Y-127176247D01*
X147857142Y-127176247D02*
X147809523Y-127366723D01*
X147809523Y-127366723D02*
X147761904Y-127461961D01*
X147761904Y-127461961D02*
X147666666Y-127557200D01*
X147666666Y-127557200D02*
X147523809Y-127604819D01*
X147523809Y-127604819D02*
X147285714Y-127604819D01*
X148809523Y-127604819D02*
X148238095Y-127604819D01*
X148523809Y-127604819D02*
X148523809Y-126604819D01*
X148523809Y-126604819D02*
X148428571Y-126747676D01*
X148428571Y-126747676D02*
X148333333Y-126842914D01*
X148333333Y-126842914D02*
X148238095Y-126890533D01*
X149761904Y-127604819D02*
X149190476Y-127604819D01*
X149476190Y-127604819D02*
X149476190Y-126604819D01*
X149476190Y-126604819D02*
X149380952Y-126747676D01*
X149380952Y-126747676D02*
X149285714Y-126842914D01*
X149285714Y-126842914D02*
X149190476Y-126890533D01*
X135354819Y-146618333D02*
X136069104Y-146618333D01*
X136069104Y-146618333D02*
X136211961Y-146665952D01*
X136211961Y-146665952D02*
X136307200Y-146761190D01*
X136307200Y-146761190D02*
X136354819Y-146904047D01*
X136354819Y-146904047D02*
X136354819Y-146999285D01*
X135450057Y-146189761D02*
X135402438Y-146142142D01*
X135402438Y-146142142D02*
X135354819Y-146046904D01*
X135354819Y-146046904D02*
X135354819Y-145808809D01*
X135354819Y-145808809D02*
X135402438Y-145713571D01*
X135402438Y-145713571D02*
X135450057Y-145665952D01*
X135450057Y-145665952D02*
X135545295Y-145618333D01*
X135545295Y-145618333D02*
X135640533Y-145618333D01*
X135640533Y-145618333D02*
X135783390Y-145665952D01*
X135783390Y-145665952D02*
X136354819Y-146237380D01*
X136354819Y-146237380D02*
X136354819Y-145618333D01*
X150444819Y-144013333D02*
X151159104Y-144013333D01*
X151159104Y-144013333D02*
X151301961Y-144060952D01*
X151301961Y-144060952D02*
X151397200Y-144156190D01*
X151397200Y-144156190D02*
X151444819Y-144299047D01*
X151444819Y-144299047D02*
X151444819Y-144394285D01*
X150778152Y-143108571D02*
X151444819Y-143108571D01*
X150397200Y-143346666D02*
X151111485Y-143584761D01*
X151111485Y-143584761D02*
X151111485Y-142965714D01*
X153388095Y-79907320D02*
X153388095Y-80716843D01*
X153388095Y-80716843D02*
X153435714Y-80812081D01*
X153435714Y-80812081D02*
X153483333Y-80859701D01*
X153483333Y-80859701D02*
X153578571Y-80907320D01*
X153578571Y-80907320D02*
X153769047Y-80907320D01*
X153769047Y-80907320D02*
X153864285Y-80859701D01*
X153864285Y-80859701D02*
X153911904Y-80812081D01*
X153911904Y-80812081D02*
X153959523Y-80716843D01*
X153959523Y-80716843D02*
X153959523Y-79907320D01*
X154864285Y-80240653D02*
X154864285Y-80907320D01*
X154626190Y-79859701D02*
X154388095Y-80573986D01*
X154388095Y-80573986D02*
X155007142Y-80573986D01*
X148960714Y-140604819D02*
X148960714Y-139604819D01*
X148960714Y-139604819D02*
X149198809Y-139604819D01*
X149198809Y-139604819D02*
X149341666Y-139652438D01*
X149341666Y-139652438D02*
X149436904Y-139747676D01*
X149436904Y-139747676D02*
X149484523Y-139842914D01*
X149484523Y-139842914D02*
X149532142Y-140033390D01*
X149532142Y-140033390D02*
X149532142Y-140176247D01*
X149532142Y-140176247D02*
X149484523Y-140366723D01*
X149484523Y-140366723D02*
X149436904Y-140461961D01*
X149436904Y-140461961D02*
X149341666Y-140557200D01*
X149341666Y-140557200D02*
X149198809Y-140604819D01*
X149198809Y-140604819D02*
X148960714Y-140604819D01*
X150484523Y-140604819D02*
X149913095Y-140604819D01*
X150198809Y-140604819D02*
X150198809Y-139604819D01*
X150198809Y-139604819D02*
X150103571Y-139747676D01*
X150103571Y-139747676D02*
X150008333Y-139842914D01*
X150008333Y-139842914D02*
X149913095Y-139890533D01*
X150817857Y-139604819D02*
X151436904Y-139604819D01*
X151436904Y-139604819D02*
X151103571Y-139985771D01*
X151103571Y-139985771D02*
X151246428Y-139985771D01*
X151246428Y-139985771D02*
X151341666Y-140033390D01*
X151341666Y-140033390D02*
X151389285Y-140081009D01*
X151389285Y-140081009D02*
X151436904Y-140176247D01*
X151436904Y-140176247D02*
X151436904Y-140414342D01*
X151436904Y-140414342D02*
X151389285Y-140509580D01*
X151389285Y-140509580D02*
X151341666Y-140557200D01*
X151341666Y-140557200D02*
X151246428Y-140604819D01*
X151246428Y-140604819D02*
X150960714Y-140604819D01*
X150960714Y-140604819D02*
X150865476Y-140557200D01*
X150865476Y-140557200D02*
X150817857Y-140509580D01*
X136419761Y-58169819D02*
X136086428Y-57693628D01*
X135848333Y-58169819D02*
X135848333Y-57169819D01*
X135848333Y-57169819D02*
X136229285Y-57169819D01*
X136229285Y-57169819D02*
X136324523Y-57217438D01*
X136324523Y-57217438D02*
X136372142Y-57265057D01*
X136372142Y-57265057D02*
X136419761Y-57360295D01*
X136419761Y-57360295D02*
X136419761Y-57503152D01*
X136419761Y-57503152D02*
X136372142Y-57598390D01*
X136372142Y-57598390D02*
X136324523Y-57646009D01*
X136324523Y-57646009D02*
X136229285Y-57693628D01*
X136229285Y-57693628D02*
X135848333Y-57693628D01*
X137181666Y-57646009D02*
X136848333Y-57646009D01*
X136848333Y-58169819D02*
X136848333Y-57169819D01*
X136848333Y-57169819D02*
X137324523Y-57169819D01*
X138134047Y-57503152D02*
X138134047Y-58169819D01*
X137895952Y-57122200D02*
X137657857Y-57836485D01*
X137657857Y-57836485D02*
X138276904Y-57836485D01*
X124361905Y-101704819D02*
X124361905Y-100704819D01*
X124361905Y-100704819D02*
X124600000Y-100704819D01*
X124600000Y-100704819D02*
X124742857Y-100752438D01*
X124742857Y-100752438D02*
X124838095Y-100847676D01*
X124838095Y-100847676D02*
X124885714Y-100942914D01*
X124885714Y-100942914D02*
X124933333Y-101133390D01*
X124933333Y-101133390D02*
X124933333Y-101276247D01*
X124933333Y-101276247D02*
X124885714Y-101466723D01*
X124885714Y-101466723D02*
X124838095Y-101561961D01*
X124838095Y-101561961D02*
X124742857Y-101657200D01*
X124742857Y-101657200D02*
X124600000Y-101704819D01*
X124600000Y-101704819D02*
X124361905Y-101704819D01*
X125838095Y-100704819D02*
X125361905Y-100704819D01*
X125361905Y-100704819D02*
X125314286Y-101181009D01*
X125314286Y-101181009D02*
X125361905Y-101133390D01*
X125361905Y-101133390D02*
X125457143Y-101085771D01*
X125457143Y-101085771D02*
X125695238Y-101085771D01*
X125695238Y-101085771D02*
X125790476Y-101133390D01*
X125790476Y-101133390D02*
X125838095Y-101181009D01*
X125838095Y-101181009D02*
X125885714Y-101276247D01*
X125885714Y-101276247D02*
X125885714Y-101514342D01*
X125885714Y-101514342D02*
X125838095Y-101609580D01*
X125838095Y-101609580D02*
X125790476Y-101657200D01*
X125790476Y-101657200D02*
X125695238Y-101704819D01*
X125695238Y-101704819D02*
X125457143Y-101704819D01*
X125457143Y-101704819D02*
X125361905Y-101657200D01*
X125361905Y-101657200D02*
X125314286Y-101609580D01*
X126238095Y-144108825D02*
X126238095Y-143108825D01*
X126238095Y-143585015D02*
X126809523Y-143585015D01*
X126809523Y-144108825D02*
X126809523Y-143108825D01*
X127809523Y-144108825D02*
X127238095Y-144108825D01*
X127523809Y-144108825D02*
X127523809Y-143108825D01*
X127523809Y-143108825D02*
X127428571Y-143251682D01*
X127428571Y-143251682D02*
X127333333Y-143346920D01*
X127333333Y-143346920D02*
X127238095Y-143394539D01*
X153077200Y-46489523D02*
X153124819Y-46346666D01*
X153124819Y-46346666D02*
X153124819Y-46108571D01*
X153124819Y-46108571D02*
X153077200Y-46013333D01*
X153077200Y-46013333D02*
X153029580Y-45965714D01*
X153029580Y-45965714D02*
X152934342Y-45918095D01*
X152934342Y-45918095D02*
X152839104Y-45918095D01*
X152839104Y-45918095D02*
X152743866Y-45965714D01*
X152743866Y-45965714D02*
X152696247Y-46013333D01*
X152696247Y-46013333D02*
X152648628Y-46108571D01*
X152648628Y-46108571D02*
X152601009Y-46299047D01*
X152601009Y-46299047D02*
X152553390Y-46394285D01*
X152553390Y-46394285D02*
X152505771Y-46441904D01*
X152505771Y-46441904D02*
X152410533Y-46489523D01*
X152410533Y-46489523D02*
X152315295Y-46489523D01*
X152315295Y-46489523D02*
X152220057Y-46441904D01*
X152220057Y-46441904D02*
X152172438Y-46394285D01*
X152172438Y-46394285D02*
X152124819Y-46299047D01*
X152124819Y-46299047D02*
X152124819Y-46060952D01*
X152124819Y-46060952D02*
X152172438Y-45918095D01*
X152124819Y-45584761D02*
X153124819Y-45346666D01*
X153124819Y-45346666D02*
X152410533Y-45156190D01*
X152410533Y-45156190D02*
X153124819Y-44965714D01*
X153124819Y-44965714D02*
X152124819Y-44727619D01*
X153124819Y-43822857D02*
X153124819Y-44394285D01*
X153124819Y-44108571D02*
X152124819Y-44108571D01*
X152124819Y-44108571D02*
X152267676Y-44203809D01*
X152267676Y-44203809D02*
X152362914Y-44299047D01*
X152362914Y-44299047D02*
X152410533Y-44394285D01*
X152553390Y-43251428D02*
X152505771Y-43346666D01*
X152505771Y-43346666D02*
X152458152Y-43394285D01*
X152458152Y-43394285D02*
X152362914Y-43441904D01*
X152362914Y-43441904D02*
X152315295Y-43441904D01*
X152315295Y-43441904D02*
X152220057Y-43394285D01*
X152220057Y-43394285D02*
X152172438Y-43346666D01*
X152172438Y-43346666D02*
X152124819Y-43251428D01*
X152124819Y-43251428D02*
X152124819Y-43060952D01*
X152124819Y-43060952D02*
X152172438Y-42965714D01*
X152172438Y-42965714D02*
X152220057Y-42918095D01*
X152220057Y-42918095D02*
X152315295Y-42870476D01*
X152315295Y-42870476D02*
X152362914Y-42870476D01*
X152362914Y-42870476D02*
X152458152Y-42918095D01*
X152458152Y-42918095D02*
X152505771Y-42965714D01*
X152505771Y-42965714D02*
X152553390Y-43060952D01*
X152553390Y-43060952D02*
X152553390Y-43251428D01*
X152553390Y-43251428D02*
X152601009Y-43346666D01*
X152601009Y-43346666D02*
X152648628Y-43394285D01*
X152648628Y-43394285D02*
X152743866Y-43441904D01*
X152743866Y-43441904D02*
X152934342Y-43441904D01*
X152934342Y-43441904D02*
X153029580Y-43394285D01*
X153029580Y-43394285D02*
X153077200Y-43346666D01*
X153077200Y-43346666D02*
X153124819Y-43251428D01*
X153124819Y-43251428D02*
X153124819Y-43060952D01*
X153124819Y-43060952D02*
X153077200Y-42965714D01*
X153077200Y-42965714D02*
X153029580Y-42918095D01*
X153029580Y-42918095D02*
X152934342Y-42870476D01*
X152934342Y-42870476D02*
X152743866Y-42870476D01*
X152743866Y-42870476D02*
X152648628Y-42918095D01*
X152648628Y-42918095D02*
X152601009Y-42965714D01*
X152601009Y-42965714D02*
X152553390Y-43060952D01*
X155508825Y-48671904D02*
X154508825Y-48671904D01*
X154985015Y-48671904D02*
X154985015Y-48100476D01*
X155508825Y-48100476D02*
X154508825Y-48100476D01*
X154508825Y-47719523D02*
X154508825Y-47052857D01*
X154508825Y-47052857D02*
X155508825Y-47481428D01*
X145754285Y-88671010D02*
X145897142Y-88718629D01*
X145897142Y-88718629D02*
X145944761Y-88766248D01*
X145944761Y-88766248D02*
X145992380Y-88861486D01*
X145992380Y-88861486D02*
X145992380Y-89004343D01*
X145992380Y-89004343D02*
X145944761Y-89099581D01*
X145944761Y-89099581D02*
X145897142Y-89147201D01*
X145897142Y-89147201D02*
X145801904Y-89194820D01*
X145801904Y-89194820D02*
X145420952Y-89194820D01*
X145420952Y-89194820D02*
X145420952Y-88194820D01*
X145420952Y-88194820D02*
X145754285Y-88194820D01*
X145754285Y-88194820D02*
X145849523Y-88242439D01*
X145849523Y-88242439D02*
X145897142Y-88290058D01*
X145897142Y-88290058D02*
X145944761Y-88385296D01*
X145944761Y-88385296D02*
X145944761Y-88480534D01*
X145944761Y-88480534D02*
X145897142Y-88575772D01*
X145897142Y-88575772D02*
X145849523Y-88623391D01*
X145849523Y-88623391D02*
X145754285Y-88671010D01*
X145754285Y-88671010D02*
X145420952Y-88671010D01*
X146278095Y-88194820D02*
X146849523Y-88194820D01*
X146563809Y-89194820D02*
X146563809Y-88194820D01*
X147135238Y-88290058D02*
X147182857Y-88242439D01*
X147182857Y-88242439D02*
X147278095Y-88194820D01*
X147278095Y-88194820D02*
X147516190Y-88194820D01*
X147516190Y-88194820D02*
X147611428Y-88242439D01*
X147611428Y-88242439D02*
X147659047Y-88290058D01*
X147659047Y-88290058D02*
X147706666Y-88385296D01*
X147706666Y-88385296D02*
X147706666Y-88480534D01*
X147706666Y-88480534D02*
X147659047Y-88623391D01*
X147659047Y-88623391D02*
X147087619Y-89194820D01*
X147087619Y-89194820D02*
X147706666Y-89194820D01*
X147579819Y-68776666D02*
X147579819Y-69252856D01*
X147579819Y-69252856D02*
X146579819Y-69252856D01*
X146579819Y-67967142D02*
X146579819Y-68443332D01*
X146579819Y-68443332D02*
X147056009Y-68490951D01*
X147056009Y-68490951D02*
X147008390Y-68443332D01*
X147008390Y-68443332D02*
X146960771Y-68348094D01*
X146960771Y-68348094D02*
X146960771Y-68109999D01*
X146960771Y-68109999D02*
X147008390Y-68014761D01*
X147008390Y-68014761D02*
X147056009Y-67967142D01*
X147056009Y-67967142D02*
X147151247Y-67919523D01*
X147151247Y-67919523D02*
X147389342Y-67919523D01*
X147389342Y-67919523D02*
X147484580Y-67967142D01*
X147484580Y-67967142D02*
X147532200Y-68014761D01*
X147532200Y-68014761D02*
X147579819Y-68109999D01*
X147579819Y-68109999D02*
X147579819Y-68348094D01*
X147579819Y-68348094D02*
X147532200Y-68443332D01*
X147532200Y-68443332D02*
X147484580Y-68490951D01*
X143616666Y-67089819D02*
X143616666Y-67804104D01*
X143616666Y-67804104D02*
X143569047Y-67946961D01*
X143569047Y-67946961D02*
X143473809Y-68042200D01*
X143473809Y-68042200D02*
X143330952Y-68089819D01*
X143330952Y-68089819D02*
X143235714Y-68089819D01*
X144140476Y-68089819D02*
X144330952Y-68089819D01*
X144330952Y-68089819D02*
X144426190Y-68042200D01*
X144426190Y-68042200D02*
X144473809Y-67994580D01*
X144473809Y-67994580D02*
X144569047Y-67851723D01*
X144569047Y-67851723D02*
X144616666Y-67661247D01*
X144616666Y-67661247D02*
X144616666Y-67280295D01*
X144616666Y-67280295D02*
X144569047Y-67185057D01*
X144569047Y-67185057D02*
X144521428Y-67137438D01*
X144521428Y-67137438D02*
X144426190Y-67089819D01*
X144426190Y-67089819D02*
X144235714Y-67089819D01*
X144235714Y-67089819D02*
X144140476Y-67137438D01*
X144140476Y-67137438D02*
X144092857Y-67185057D01*
X144092857Y-67185057D02*
X144045238Y-67280295D01*
X144045238Y-67280295D02*
X144045238Y-67518390D01*
X144045238Y-67518390D02*
X144092857Y-67613628D01*
X144092857Y-67613628D02*
X144140476Y-67661247D01*
X144140476Y-67661247D02*
X144235714Y-67708866D01*
X144235714Y-67708866D02*
X144426190Y-67708866D01*
X144426190Y-67708866D02*
X144521428Y-67661247D01*
X144521428Y-67661247D02*
X144569047Y-67613628D01*
X144569047Y-67613628D02*
X144616666Y-67518390D01*
X133808095Y-66800812D02*
X133808095Y-65800812D01*
X133808095Y-66277002D02*
X134379523Y-66277002D01*
X134379523Y-66800812D02*
X134379523Y-65800812D01*
X135331904Y-65800812D02*
X134855714Y-65800812D01*
X134855714Y-65800812D02*
X134808095Y-66277002D01*
X134808095Y-66277002D02*
X134855714Y-66229383D01*
X134855714Y-66229383D02*
X134950952Y-66181764D01*
X134950952Y-66181764D02*
X135189047Y-66181764D01*
X135189047Y-66181764D02*
X135284285Y-66229383D01*
X135284285Y-66229383D02*
X135331904Y-66277002D01*
X135331904Y-66277002D02*
X135379523Y-66372240D01*
X135379523Y-66372240D02*
X135379523Y-66610335D01*
X135379523Y-66610335D02*
X135331904Y-66705573D01*
X135331904Y-66705573D02*
X135284285Y-66753193D01*
X135284285Y-66753193D02*
X135189047Y-66800812D01*
X135189047Y-66800812D02*
X134950952Y-66800812D01*
X134950952Y-66800812D02*
X134855714Y-66753193D01*
X134855714Y-66753193D02*
X134808095Y-66705573D01*
X156742101Y-124658825D02*
X156742101Y-123658825D01*
X156742101Y-124135015D02*
X157313529Y-124135015D01*
X157313529Y-124658825D02*
X157313529Y-123658825D01*
X158218291Y-123992158D02*
X158218291Y-124658825D01*
X157980196Y-123611206D02*
X157742101Y-124325491D01*
X157742101Y-124325491D02*
X158361148Y-124325491D01*
X143309819Y-51101904D02*
X144119342Y-51101904D01*
X144119342Y-51101904D02*
X144214580Y-51054285D01*
X144214580Y-51054285D02*
X144262200Y-51006666D01*
X144262200Y-51006666D02*
X144309819Y-50911428D01*
X144309819Y-50911428D02*
X144309819Y-50720952D01*
X144309819Y-50720952D02*
X144262200Y-50625714D01*
X144262200Y-50625714D02*
X144214580Y-50578095D01*
X144214580Y-50578095D02*
X144119342Y-50530476D01*
X144119342Y-50530476D02*
X143309819Y-50530476D01*
X143309819Y-49578095D02*
X143309819Y-50054285D01*
X143309819Y-50054285D02*
X143786009Y-50101904D01*
X143786009Y-50101904D02*
X143738390Y-50054285D01*
X143738390Y-50054285D02*
X143690771Y-49959047D01*
X143690771Y-49959047D02*
X143690771Y-49720952D01*
X143690771Y-49720952D02*
X143738390Y-49625714D01*
X143738390Y-49625714D02*
X143786009Y-49578095D01*
X143786009Y-49578095D02*
X143881247Y-49530476D01*
X143881247Y-49530476D02*
X144119342Y-49530476D01*
X144119342Y-49530476D02*
X144214580Y-49578095D01*
X144214580Y-49578095D02*
X144262200Y-49625714D01*
X144262200Y-49625714D02*
X144309819Y-49720952D01*
X144309819Y-49720952D02*
X144309819Y-49959047D01*
X144309819Y-49959047D02*
X144262200Y-50054285D01*
X144262200Y-50054285D02*
X144214580Y-50101904D01*
X144261905Y-101704819D02*
X144261905Y-100704819D01*
X144261905Y-100704819D02*
X144500000Y-100704819D01*
X144500000Y-100704819D02*
X144642857Y-100752438D01*
X144642857Y-100752438D02*
X144738095Y-100847676D01*
X144738095Y-100847676D02*
X144785714Y-100942914D01*
X144785714Y-100942914D02*
X144833333Y-101133390D01*
X144833333Y-101133390D02*
X144833333Y-101276247D01*
X144833333Y-101276247D02*
X144785714Y-101466723D01*
X144785714Y-101466723D02*
X144738095Y-101561961D01*
X144738095Y-101561961D02*
X144642857Y-101657200D01*
X144642857Y-101657200D02*
X144500000Y-101704819D01*
X144500000Y-101704819D02*
X144261905Y-101704819D01*
X145166667Y-100704819D02*
X145833333Y-100704819D01*
X145833333Y-100704819D02*
X145404762Y-101704819D01*
X142784579Y-47842857D02*
X142832199Y-47890476D01*
X142832199Y-47890476D02*
X142879818Y-48033333D01*
X142879818Y-48033333D02*
X142879818Y-48128571D01*
X142879818Y-48128571D02*
X142832199Y-48271428D01*
X142832199Y-48271428D02*
X142736960Y-48366666D01*
X142736960Y-48366666D02*
X142641722Y-48414285D01*
X142641722Y-48414285D02*
X142451246Y-48461904D01*
X142451246Y-48461904D02*
X142308389Y-48461904D01*
X142308389Y-48461904D02*
X142117913Y-48414285D01*
X142117913Y-48414285D02*
X142022675Y-48366666D01*
X142022675Y-48366666D02*
X141927437Y-48271428D01*
X141927437Y-48271428D02*
X141879818Y-48128571D01*
X141879818Y-48128571D02*
X141879818Y-48033333D01*
X141879818Y-48033333D02*
X141927437Y-47890476D01*
X141927437Y-47890476D02*
X141975056Y-47842857D01*
X141975056Y-47461904D02*
X141927437Y-47414285D01*
X141927437Y-47414285D02*
X141879818Y-47319047D01*
X141879818Y-47319047D02*
X141879818Y-47080952D01*
X141879818Y-47080952D02*
X141927437Y-46985714D01*
X141927437Y-46985714D02*
X141975056Y-46938095D01*
X141975056Y-46938095D02*
X142070294Y-46890476D01*
X142070294Y-46890476D02*
X142165532Y-46890476D01*
X142165532Y-46890476D02*
X142308389Y-46938095D01*
X142308389Y-46938095D02*
X142879818Y-47509523D01*
X142879818Y-47509523D02*
X142879818Y-46890476D01*
X141879818Y-46271428D02*
X141879818Y-46176190D01*
X141879818Y-46176190D02*
X141927437Y-46080952D01*
X141927437Y-46080952D02*
X141975056Y-46033333D01*
X141975056Y-46033333D02*
X142070294Y-45985714D01*
X142070294Y-45985714D02*
X142260770Y-45938095D01*
X142260770Y-45938095D02*
X142498865Y-45938095D01*
X142498865Y-45938095D02*
X142689341Y-45985714D01*
X142689341Y-45985714D02*
X142784579Y-46033333D01*
X142784579Y-46033333D02*
X142832199Y-46080952D01*
X142832199Y-46080952D02*
X142879818Y-46176190D01*
X142879818Y-46176190D02*
X142879818Y-46271428D01*
X142879818Y-46271428D02*
X142832199Y-46366666D01*
X142832199Y-46366666D02*
X142784579Y-46414285D01*
X142784579Y-46414285D02*
X142689341Y-46461904D01*
X142689341Y-46461904D02*
X142498865Y-46509523D01*
X142498865Y-46509523D02*
X142260770Y-46509523D01*
X142260770Y-46509523D02*
X142070294Y-46461904D01*
X142070294Y-46461904D02*
X141975056Y-46414285D01*
X141975056Y-46414285D02*
X141927437Y-46366666D01*
X141927437Y-46366666D02*
X141879818Y-46271428D01*
X131585714Y-140604819D02*
X131585714Y-139604819D01*
X131585714Y-139604819D02*
X131823809Y-139604819D01*
X131823809Y-139604819D02*
X131966666Y-139652438D01*
X131966666Y-139652438D02*
X132061904Y-139747676D01*
X132061904Y-139747676D02*
X132109523Y-139842914D01*
X132109523Y-139842914D02*
X132157142Y-140033390D01*
X132157142Y-140033390D02*
X132157142Y-140176247D01*
X132157142Y-140176247D02*
X132109523Y-140366723D01*
X132109523Y-140366723D02*
X132061904Y-140461961D01*
X132061904Y-140461961D02*
X131966666Y-140557200D01*
X131966666Y-140557200D02*
X131823809Y-140604819D01*
X131823809Y-140604819D02*
X131585714Y-140604819D01*
X133109523Y-140604819D02*
X132538095Y-140604819D01*
X132823809Y-140604819D02*
X132823809Y-139604819D01*
X132823809Y-139604819D02*
X132728571Y-139747676D01*
X132728571Y-139747676D02*
X132633333Y-139842914D01*
X132633333Y-139842914D02*
X132538095Y-139890533D01*
X133490476Y-139700057D02*
X133538095Y-139652438D01*
X133538095Y-139652438D02*
X133633333Y-139604819D01*
X133633333Y-139604819D02*
X133871428Y-139604819D01*
X133871428Y-139604819D02*
X133966666Y-139652438D01*
X133966666Y-139652438D02*
X134014285Y-139700057D01*
X134014285Y-139700057D02*
X134061904Y-139795295D01*
X134061904Y-139795295D02*
X134061904Y-139890533D01*
X134061904Y-139890533D02*
X134014285Y-140033390D01*
X134014285Y-140033390D02*
X133442857Y-140604819D01*
X133442857Y-140604819D02*
X134061904Y-140604819D01*
X158183333Y-53479819D02*
X157707143Y-53479819D01*
X157707143Y-53479819D02*
X157707143Y-52479819D01*
X158421429Y-52479819D02*
X159040476Y-52479819D01*
X159040476Y-52479819D02*
X158707143Y-52860771D01*
X158707143Y-52860771D02*
X158850000Y-52860771D01*
X158850000Y-52860771D02*
X158945238Y-52908390D01*
X158945238Y-52908390D02*
X158992857Y-52956009D01*
X158992857Y-52956009D02*
X159040476Y-53051247D01*
X159040476Y-53051247D02*
X159040476Y-53289342D01*
X159040476Y-53289342D02*
X158992857Y-53384580D01*
X158992857Y-53384580D02*
X158945238Y-53432200D01*
X158945238Y-53432200D02*
X158850000Y-53479819D01*
X158850000Y-53479819D02*
X158564286Y-53479819D01*
X158564286Y-53479819D02*
X158469048Y-53432200D01*
X158469048Y-53432200D02*
X158421429Y-53384580D01*
X123479819Y-130933333D02*
X124194104Y-130933333D01*
X124194104Y-130933333D02*
X124336961Y-130980952D01*
X124336961Y-130980952D02*
X124432200Y-131076190D01*
X124432200Y-131076190D02*
X124479819Y-131219047D01*
X124479819Y-131219047D02*
X124479819Y-131314285D01*
X123479819Y-129980952D02*
X123479819Y-130457142D01*
X123479819Y-130457142D02*
X123956009Y-130504761D01*
X123956009Y-130504761D02*
X123908390Y-130457142D01*
X123908390Y-130457142D02*
X123860771Y-130361904D01*
X123860771Y-130361904D02*
X123860771Y-130123809D01*
X123860771Y-130123809D02*
X123908390Y-130028571D01*
X123908390Y-130028571D02*
X123956009Y-129980952D01*
X123956009Y-129980952D02*
X124051247Y-129933333D01*
X124051247Y-129933333D02*
X124289342Y-129933333D01*
X124289342Y-129933333D02*
X124384580Y-129980952D01*
X124384580Y-129980952D02*
X124432200Y-130028571D01*
X124432200Y-130028571D02*
X124479819Y-130123809D01*
X124479819Y-130123809D02*
X124479819Y-130361904D01*
X124479819Y-130361904D02*
X124432200Y-130457142D01*
X124432200Y-130457142D02*
X124384580Y-130504761D01*
X139254580Y-85266666D02*
X139302200Y-85314285D01*
X139302200Y-85314285D02*
X139349819Y-85457142D01*
X139349819Y-85457142D02*
X139349819Y-85552380D01*
X139349819Y-85552380D02*
X139302200Y-85695237D01*
X139302200Y-85695237D02*
X139206961Y-85790475D01*
X139206961Y-85790475D02*
X139111723Y-85838094D01*
X139111723Y-85838094D02*
X138921247Y-85885713D01*
X138921247Y-85885713D02*
X138778390Y-85885713D01*
X138778390Y-85885713D02*
X138587914Y-85838094D01*
X138587914Y-85838094D02*
X138492676Y-85790475D01*
X138492676Y-85790475D02*
X138397438Y-85695237D01*
X138397438Y-85695237D02*
X138349819Y-85552380D01*
X138349819Y-85552380D02*
X138349819Y-85457142D01*
X138349819Y-85457142D02*
X138397438Y-85314285D01*
X138397438Y-85314285D02*
X138445057Y-85266666D01*
X138349819Y-84933332D02*
X138349819Y-84266666D01*
X138349819Y-84266666D02*
X139349819Y-84695237D01*
X133464866Y-77104875D02*
X134598200Y-77104875D01*
X134598200Y-77104875D02*
X134731533Y-77038209D01*
X134731533Y-77038209D02*
X134798200Y-76971542D01*
X134798200Y-76971542D02*
X134864866Y-76838209D01*
X134864866Y-76838209D02*
X134864866Y-76571542D01*
X134864866Y-76571542D02*
X134798200Y-76438209D01*
X134798200Y-76438209D02*
X134731533Y-76371542D01*
X134731533Y-76371542D02*
X134598200Y-76304875D01*
X134598200Y-76304875D02*
X133464866Y-76304875D01*
X133464866Y-75038208D02*
X133464866Y-75304875D01*
X133464866Y-75304875D02*
X133531533Y-75438208D01*
X133531533Y-75438208D02*
X133598200Y-75504875D01*
X133598200Y-75504875D02*
X133798200Y-75638208D01*
X133798200Y-75638208D02*
X134064866Y-75704875D01*
X134064866Y-75704875D02*
X134598200Y-75704875D01*
X134598200Y-75704875D02*
X134731533Y-75638208D01*
X134731533Y-75638208D02*
X134798200Y-75571542D01*
X134798200Y-75571542D02*
X134864866Y-75438208D01*
X134864866Y-75438208D02*
X134864866Y-75171542D01*
X134864866Y-75171542D02*
X134798200Y-75038208D01*
X134798200Y-75038208D02*
X134731533Y-74971542D01*
X134731533Y-74971542D02*
X134598200Y-74904875D01*
X134598200Y-74904875D02*
X134264866Y-74904875D01*
X134264866Y-74904875D02*
X134131533Y-74971542D01*
X134131533Y-74971542D02*
X134064866Y-75038208D01*
X134064866Y-75038208D02*
X133998200Y-75171542D01*
X133998200Y-75171542D02*
X133998200Y-75438208D01*
X133998200Y-75438208D02*
X134064866Y-75571542D01*
X134064866Y-75571542D02*
X134131533Y-75638208D01*
X134131533Y-75638208D02*
X134264866Y-75704875D01*
X142224819Y-55971903D02*
X143034342Y-55971903D01*
X143034342Y-55971903D02*
X143129580Y-55924284D01*
X143129580Y-55924284D02*
X143177200Y-55876665D01*
X143177200Y-55876665D02*
X143224819Y-55781427D01*
X143224819Y-55781427D02*
X143224819Y-55590951D01*
X143224819Y-55590951D02*
X143177200Y-55495713D01*
X143177200Y-55495713D02*
X143129580Y-55448094D01*
X143129580Y-55448094D02*
X143034342Y-55400475D01*
X143034342Y-55400475D02*
X142224819Y-55400475D01*
X143224819Y-54400475D02*
X143224819Y-54971903D01*
X143224819Y-54686189D02*
X142224819Y-54686189D01*
X142224819Y-54686189D02*
X142367676Y-54781427D01*
X142367676Y-54781427D02*
X142462914Y-54876665D01*
X142462914Y-54876665D02*
X142510533Y-54971903D01*
X124965476Y-56809819D02*
X124965476Y-57524104D01*
X124965476Y-57524104D02*
X124917857Y-57666961D01*
X124917857Y-57666961D02*
X124822619Y-57762200D01*
X124822619Y-57762200D02*
X124679762Y-57809819D01*
X124679762Y-57809819D02*
X124584524Y-57809819D01*
X125965476Y-57809819D02*
X125394048Y-57809819D01*
X125679762Y-57809819D02*
X125679762Y-56809819D01*
X125679762Y-56809819D02*
X125584524Y-56952676D01*
X125584524Y-56952676D02*
X125489286Y-57047914D01*
X125489286Y-57047914D02*
X125394048Y-57095533D01*
X126917857Y-57809819D02*
X126346429Y-57809819D01*
X126632143Y-57809819D02*
X126632143Y-56809819D01*
X126632143Y-56809819D02*
X126536905Y-56952676D01*
X126536905Y-56952676D02*
X126441667Y-57047914D01*
X126441667Y-57047914D02*
X126346429Y-57095533D01*
X133679818Y-71258094D02*
X134489341Y-71258094D01*
X134489341Y-71258094D02*
X134584579Y-71210475D01*
X134584579Y-71210475D02*
X134632199Y-71162856D01*
X134632199Y-71162856D02*
X134679818Y-71067618D01*
X134679818Y-71067618D02*
X134679818Y-70877142D01*
X134679818Y-70877142D02*
X134632199Y-70781904D01*
X134632199Y-70781904D02*
X134584579Y-70734285D01*
X134584579Y-70734285D02*
X134489341Y-70686666D01*
X134489341Y-70686666D02*
X133679818Y-70686666D01*
X134679818Y-69686666D02*
X134679818Y-70258094D01*
X134679818Y-69972380D02*
X133679818Y-69972380D01*
X133679818Y-69972380D02*
X133822675Y-70067618D01*
X133822675Y-70067618D02*
X133917913Y-70162856D01*
X133917913Y-70162856D02*
X133965532Y-70258094D01*
X133775056Y-69305713D02*
X133727437Y-69258094D01*
X133727437Y-69258094D02*
X133679818Y-69162856D01*
X133679818Y-69162856D02*
X133679818Y-68924761D01*
X133679818Y-68924761D02*
X133727437Y-68829523D01*
X133727437Y-68829523D02*
X133775056Y-68781904D01*
X133775056Y-68781904D02*
X133870294Y-68734285D01*
X133870294Y-68734285D02*
X133965532Y-68734285D01*
X133965532Y-68734285D02*
X134108389Y-68781904D01*
X134108389Y-68781904D02*
X134679818Y-69353332D01*
X134679818Y-69353332D02*
X134679818Y-68734285D01*
X139036666Y-123504817D02*
X139036666Y-124219102D01*
X139036666Y-124219102D02*
X138989047Y-124361959D01*
X138989047Y-124361959D02*
X138893809Y-124457198D01*
X138893809Y-124457198D02*
X138750952Y-124504817D01*
X138750952Y-124504817D02*
X138655714Y-124504817D01*
X139417619Y-123504817D02*
X140036666Y-123504817D01*
X140036666Y-123504817D02*
X139703333Y-123885769D01*
X139703333Y-123885769D02*
X139846190Y-123885769D01*
X139846190Y-123885769D02*
X139941428Y-123933388D01*
X139941428Y-123933388D02*
X139989047Y-123981007D01*
X139989047Y-123981007D02*
X140036666Y-124076245D01*
X140036666Y-124076245D02*
X140036666Y-124314340D01*
X140036666Y-124314340D02*
X139989047Y-124409578D01*
X139989047Y-124409578D02*
X139941428Y-124457198D01*
X139941428Y-124457198D02*
X139846190Y-124504817D01*
X139846190Y-124504817D02*
X139560476Y-124504817D01*
X139560476Y-124504817D02*
X139465238Y-124457198D01*
X139465238Y-124457198D02*
X139417619Y-124409578D01*
X154855477Y-62081682D02*
X155522143Y-63081682D01*
X155522143Y-62081682D02*
X154855477Y-63081682D01*
X156426905Y-63081682D02*
X155855477Y-63081682D01*
X156141191Y-63081682D02*
X156141191Y-62081682D01*
X156141191Y-62081682D02*
X156045953Y-62224539D01*
X156045953Y-62224539D02*
X155950715Y-62319777D01*
X155950715Y-62319777D02*
X155855477Y-62367396D01*
X149505595Y-84689819D02*
X149505595Y-85499342D01*
X149505595Y-85499342D02*
X149553214Y-85594580D01*
X149553214Y-85594580D02*
X149600833Y-85642200D01*
X149600833Y-85642200D02*
X149696071Y-85689819D01*
X149696071Y-85689819D02*
X149886547Y-85689819D01*
X149886547Y-85689819D02*
X149981785Y-85642200D01*
X149981785Y-85642200D02*
X150029404Y-85594580D01*
X150029404Y-85594580D02*
X150077023Y-85499342D01*
X150077023Y-85499342D02*
X150077023Y-84689819D01*
X150457976Y-84689819D02*
X151124642Y-84689819D01*
X151124642Y-84689819D02*
X150696071Y-85689819D01*
X123234088Y-128680812D02*
X123234088Y-127680812D01*
X123234088Y-128157002D02*
X123805516Y-128157002D01*
X123805516Y-128680812D02*
X123805516Y-127680812D01*
X124186469Y-127680812D02*
X124805516Y-127680812D01*
X124805516Y-127680812D02*
X124472183Y-128061764D01*
X124472183Y-128061764D02*
X124615040Y-128061764D01*
X124615040Y-128061764D02*
X124710278Y-128109383D01*
X124710278Y-128109383D02*
X124757897Y-128157002D01*
X124757897Y-128157002D02*
X124805516Y-128252240D01*
X124805516Y-128252240D02*
X124805516Y-128490335D01*
X124805516Y-128490335D02*
X124757897Y-128585573D01*
X124757897Y-128585573D02*
X124710278Y-128633193D01*
X124710278Y-128633193D02*
X124615040Y-128680812D01*
X124615040Y-128680812D02*
X124329326Y-128680812D01*
X124329326Y-128680812D02*
X124234088Y-128633193D01*
X124234088Y-128633193D02*
X124186469Y-128585573D01*
X136854580Y-88166666D02*
X136902200Y-88214285D01*
X136902200Y-88214285D02*
X136949819Y-88357142D01*
X136949819Y-88357142D02*
X136949819Y-88452380D01*
X136949819Y-88452380D02*
X136902200Y-88595237D01*
X136902200Y-88595237D02*
X136806961Y-88690475D01*
X136806961Y-88690475D02*
X136711723Y-88738094D01*
X136711723Y-88738094D02*
X136521247Y-88785713D01*
X136521247Y-88785713D02*
X136378390Y-88785713D01*
X136378390Y-88785713D02*
X136187914Y-88738094D01*
X136187914Y-88738094D02*
X136092676Y-88690475D01*
X136092676Y-88690475D02*
X135997438Y-88595237D01*
X135997438Y-88595237D02*
X135949819Y-88452380D01*
X135949819Y-88452380D02*
X135949819Y-88357142D01*
X135949819Y-88357142D02*
X135997438Y-88214285D01*
X135997438Y-88214285D02*
X136045057Y-88166666D01*
X135949819Y-87309523D02*
X135949819Y-87499999D01*
X135949819Y-87499999D02*
X135997438Y-87595237D01*
X135997438Y-87595237D02*
X136045057Y-87642856D01*
X136045057Y-87642856D02*
X136187914Y-87738094D01*
X136187914Y-87738094D02*
X136378390Y-87785713D01*
X136378390Y-87785713D02*
X136759342Y-87785713D01*
X136759342Y-87785713D02*
X136854580Y-87738094D01*
X136854580Y-87738094D02*
X136902200Y-87690475D01*
X136902200Y-87690475D02*
X136949819Y-87595237D01*
X136949819Y-87595237D02*
X136949819Y-87404761D01*
X136949819Y-87404761D02*
X136902200Y-87309523D01*
X136902200Y-87309523D02*
X136854580Y-87261904D01*
X136854580Y-87261904D02*
X136759342Y-87214285D01*
X136759342Y-87214285D02*
X136521247Y-87214285D01*
X136521247Y-87214285D02*
X136426009Y-87261904D01*
X136426009Y-87261904D02*
X136378390Y-87309523D01*
X136378390Y-87309523D02*
X136330771Y-87404761D01*
X136330771Y-87404761D02*
X136330771Y-87595237D01*
X136330771Y-87595237D02*
X136378390Y-87690475D01*
X136378390Y-87690475D02*
X136426009Y-87738094D01*
X136426009Y-87738094D02*
X136521247Y-87785713D01*
X154016666Y-127404819D02*
X154016666Y-128119104D01*
X154016666Y-128119104D02*
X153969047Y-128261961D01*
X153969047Y-128261961D02*
X153873809Y-128357200D01*
X153873809Y-128357200D02*
X153730952Y-128404819D01*
X153730952Y-128404819D02*
X153635714Y-128404819D01*
X154921428Y-127404819D02*
X154730952Y-127404819D01*
X154730952Y-127404819D02*
X154635714Y-127452438D01*
X154635714Y-127452438D02*
X154588095Y-127500057D01*
X154588095Y-127500057D02*
X154492857Y-127642914D01*
X154492857Y-127642914D02*
X154445238Y-127833390D01*
X154445238Y-127833390D02*
X154445238Y-128214342D01*
X154445238Y-128214342D02*
X154492857Y-128309580D01*
X154492857Y-128309580D02*
X154540476Y-128357200D01*
X154540476Y-128357200D02*
X154635714Y-128404819D01*
X154635714Y-128404819D02*
X154826190Y-128404819D01*
X154826190Y-128404819D02*
X154921428Y-128357200D01*
X154921428Y-128357200D02*
X154969047Y-128309580D01*
X154969047Y-128309580D02*
X155016666Y-128214342D01*
X155016666Y-128214342D02*
X155016666Y-127976247D01*
X155016666Y-127976247D02*
X154969047Y-127881009D01*
X154969047Y-127881009D02*
X154921428Y-127833390D01*
X154921428Y-127833390D02*
X154826190Y-127785771D01*
X154826190Y-127785771D02*
X154635714Y-127785771D01*
X154635714Y-127785771D02*
X154540476Y-127833390D01*
X154540476Y-127833390D02*
X154492857Y-127881009D01*
X154492857Y-127881009D02*
X154445238Y-127976247D01*
X152011904Y-51889819D02*
X152011904Y-52699342D01*
X152011904Y-52699342D02*
X152059523Y-52794580D01*
X152059523Y-52794580D02*
X152107142Y-52842200D01*
X152107142Y-52842200D02*
X152202380Y-52889819D01*
X152202380Y-52889819D02*
X152392856Y-52889819D01*
X152392856Y-52889819D02*
X152488094Y-52842200D01*
X152488094Y-52842200D02*
X152535713Y-52794580D01*
X152535713Y-52794580D02*
X152583332Y-52699342D01*
X152583332Y-52699342D02*
X152583332Y-51889819D01*
X153583332Y-52889819D02*
X153011904Y-52889819D01*
X153297618Y-52889819D02*
X153297618Y-51889819D01*
X153297618Y-51889819D02*
X153202380Y-52032676D01*
X153202380Y-52032676D02*
X153107142Y-52127914D01*
X153107142Y-52127914D02*
X153011904Y-52175533D01*
X154202380Y-51889819D02*
X154297618Y-51889819D01*
X154297618Y-51889819D02*
X154392856Y-51937438D01*
X154392856Y-51937438D02*
X154440475Y-51985057D01*
X154440475Y-51985057D02*
X154488094Y-52080295D01*
X154488094Y-52080295D02*
X154535713Y-52270771D01*
X154535713Y-52270771D02*
X154535713Y-52508866D01*
X154535713Y-52508866D02*
X154488094Y-52699342D01*
X154488094Y-52699342D02*
X154440475Y-52794580D01*
X154440475Y-52794580D02*
X154392856Y-52842200D01*
X154392856Y-52842200D02*
X154297618Y-52889819D01*
X154297618Y-52889819D02*
X154202380Y-52889819D01*
X154202380Y-52889819D02*
X154107142Y-52842200D01*
X154107142Y-52842200D02*
X154059523Y-52794580D01*
X154059523Y-52794580D02*
X154011904Y-52699342D01*
X154011904Y-52699342D02*
X153964285Y-52508866D01*
X153964285Y-52508866D02*
X153964285Y-52270771D01*
X153964285Y-52270771D02*
X154011904Y-52080295D01*
X154011904Y-52080295D02*
X154059523Y-51985057D01*
X154059523Y-51985057D02*
X154107142Y-51937438D01*
X154107142Y-51937438D02*
X154202380Y-51889819D01*
X122557141Y-86784580D02*
X122509522Y-86832200D01*
X122509522Y-86832200D02*
X122366665Y-86879819D01*
X122366665Y-86879819D02*
X122271427Y-86879819D01*
X122271427Y-86879819D02*
X122128570Y-86832200D01*
X122128570Y-86832200D02*
X122033332Y-86736961D01*
X122033332Y-86736961D02*
X121985713Y-86641723D01*
X121985713Y-86641723D02*
X121938094Y-86451247D01*
X121938094Y-86451247D02*
X121938094Y-86308390D01*
X121938094Y-86308390D02*
X121985713Y-86117914D01*
X121985713Y-86117914D02*
X122033332Y-86022676D01*
X122033332Y-86022676D02*
X122128570Y-85927438D01*
X122128570Y-85927438D02*
X122271427Y-85879819D01*
X122271427Y-85879819D02*
X122366665Y-85879819D01*
X122366665Y-85879819D02*
X122509522Y-85927438D01*
X122509522Y-85927438D02*
X122557141Y-85975057D01*
X123033332Y-86879819D02*
X123223808Y-86879819D01*
X123223808Y-86879819D02*
X123319046Y-86832200D01*
X123319046Y-86832200D02*
X123366665Y-86784580D01*
X123366665Y-86784580D02*
X123461903Y-86641723D01*
X123461903Y-86641723D02*
X123509522Y-86451247D01*
X123509522Y-86451247D02*
X123509522Y-86070295D01*
X123509522Y-86070295D02*
X123461903Y-85975057D01*
X123461903Y-85975057D02*
X123414284Y-85927438D01*
X123414284Y-85927438D02*
X123319046Y-85879819D01*
X123319046Y-85879819D02*
X123128570Y-85879819D01*
X123128570Y-85879819D02*
X123033332Y-85927438D01*
X123033332Y-85927438D02*
X122985713Y-85975057D01*
X122985713Y-85975057D02*
X122938094Y-86070295D01*
X122938094Y-86070295D02*
X122938094Y-86308390D01*
X122938094Y-86308390D02*
X122985713Y-86403628D01*
X122985713Y-86403628D02*
X123033332Y-86451247D01*
X123033332Y-86451247D02*
X123128570Y-86498866D01*
X123128570Y-86498866D02*
X123319046Y-86498866D01*
X123319046Y-86498866D02*
X123414284Y-86451247D01*
X123414284Y-86451247D02*
X123461903Y-86403628D01*
X123461903Y-86403628D02*
X123509522Y-86308390D01*
X124461903Y-86879819D02*
X123890475Y-86879819D01*
X124176189Y-86879819D02*
X124176189Y-85879819D01*
X124176189Y-85879819D02*
X124080951Y-86022676D01*
X124080951Y-86022676D02*
X123985713Y-86117914D01*
X123985713Y-86117914D02*
X123890475Y-86165533D01*
X126800812Y-48671904D02*
X125800812Y-48671904D01*
X126277002Y-48671904D02*
X126277002Y-48100476D01*
X126800812Y-48100476D02*
X125800812Y-48100476D01*
X125800812Y-47195714D02*
X125800812Y-47386190D01*
X125800812Y-47386190D02*
X125848431Y-47481428D01*
X125848431Y-47481428D02*
X125896050Y-47529047D01*
X125896050Y-47529047D02*
X126038907Y-47624285D01*
X126038907Y-47624285D02*
X126229383Y-47671904D01*
X126229383Y-47671904D02*
X126610335Y-47671904D01*
X126610335Y-47671904D02*
X126705573Y-47624285D01*
X126705573Y-47624285D02*
X126753193Y-47576666D01*
X126753193Y-47576666D02*
X126800812Y-47481428D01*
X126800812Y-47481428D02*
X126800812Y-47290952D01*
X126800812Y-47290952D02*
X126753193Y-47195714D01*
X126753193Y-47195714D02*
X126705573Y-47148095D01*
X126705573Y-47148095D02*
X126610335Y-47100476D01*
X126610335Y-47100476D02*
X126372240Y-47100476D01*
X126372240Y-47100476D02*
X126277002Y-47148095D01*
X126277002Y-47148095D02*
X126229383Y-47195714D01*
X126229383Y-47195714D02*
X126181764Y-47290952D01*
X126181764Y-47290952D02*
X126181764Y-47481428D01*
X126181764Y-47481428D02*
X126229383Y-47576666D01*
X126229383Y-47576666D02*
X126277002Y-47624285D01*
X126277002Y-47624285D02*
X126372240Y-47671904D01*
X151278333Y-63694580D02*
X151230714Y-63742200D01*
X151230714Y-63742200D02*
X151087857Y-63789819D01*
X151087857Y-63789819D02*
X150992619Y-63789819D01*
X150992619Y-63789819D02*
X150849762Y-63742200D01*
X150849762Y-63742200D02*
X150754524Y-63646961D01*
X150754524Y-63646961D02*
X150706905Y-63551723D01*
X150706905Y-63551723D02*
X150659286Y-63361247D01*
X150659286Y-63361247D02*
X150659286Y-63218390D01*
X150659286Y-63218390D02*
X150706905Y-63027914D01*
X150706905Y-63027914D02*
X150754524Y-62932676D01*
X150754524Y-62932676D02*
X150849762Y-62837438D01*
X150849762Y-62837438D02*
X150992619Y-62789819D01*
X150992619Y-62789819D02*
X151087857Y-62789819D01*
X151087857Y-62789819D02*
X151230714Y-62837438D01*
X151230714Y-62837438D02*
X151278333Y-62885057D01*
X151754524Y-63789819D02*
X151945000Y-63789819D01*
X151945000Y-63789819D02*
X152040238Y-63742200D01*
X152040238Y-63742200D02*
X152087857Y-63694580D01*
X152087857Y-63694580D02*
X152183095Y-63551723D01*
X152183095Y-63551723D02*
X152230714Y-63361247D01*
X152230714Y-63361247D02*
X152230714Y-62980295D01*
X152230714Y-62980295D02*
X152183095Y-62885057D01*
X152183095Y-62885057D02*
X152135476Y-62837438D01*
X152135476Y-62837438D02*
X152040238Y-62789819D01*
X152040238Y-62789819D02*
X151849762Y-62789819D01*
X151849762Y-62789819D02*
X151754524Y-62837438D01*
X151754524Y-62837438D02*
X151706905Y-62885057D01*
X151706905Y-62885057D02*
X151659286Y-62980295D01*
X151659286Y-62980295D02*
X151659286Y-63218390D01*
X151659286Y-63218390D02*
X151706905Y-63313628D01*
X151706905Y-63313628D02*
X151754524Y-63361247D01*
X151754524Y-63361247D02*
X151849762Y-63408866D01*
X151849762Y-63408866D02*
X152040238Y-63408866D01*
X152040238Y-63408866D02*
X152135476Y-63361247D01*
X152135476Y-63361247D02*
X152183095Y-63313628D01*
X152183095Y-63313628D02*
X152230714Y-63218390D01*
X127001666Y-51404819D02*
X127001666Y-52119104D01*
X127001666Y-52119104D02*
X126954047Y-52261961D01*
X126954047Y-52261961D02*
X126858809Y-52357200D01*
X126858809Y-52357200D02*
X126715952Y-52404819D01*
X126715952Y-52404819D02*
X126620714Y-52404819D01*
X127620714Y-51833390D02*
X127525476Y-51785771D01*
X127525476Y-51785771D02*
X127477857Y-51738152D01*
X127477857Y-51738152D02*
X127430238Y-51642914D01*
X127430238Y-51642914D02*
X127430238Y-51595295D01*
X127430238Y-51595295D02*
X127477857Y-51500057D01*
X127477857Y-51500057D02*
X127525476Y-51452438D01*
X127525476Y-51452438D02*
X127620714Y-51404819D01*
X127620714Y-51404819D02*
X127811190Y-51404819D01*
X127811190Y-51404819D02*
X127906428Y-51452438D01*
X127906428Y-51452438D02*
X127954047Y-51500057D01*
X127954047Y-51500057D02*
X128001666Y-51595295D01*
X128001666Y-51595295D02*
X128001666Y-51642914D01*
X128001666Y-51642914D02*
X127954047Y-51738152D01*
X127954047Y-51738152D02*
X127906428Y-51785771D01*
X127906428Y-51785771D02*
X127811190Y-51833390D01*
X127811190Y-51833390D02*
X127620714Y-51833390D01*
X127620714Y-51833390D02*
X127525476Y-51881009D01*
X127525476Y-51881009D02*
X127477857Y-51928628D01*
X127477857Y-51928628D02*
X127430238Y-52023866D01*
X127430238Y-52023866D02*
X127430238Y-52214342D01*
X127430238Y-52214342D02*
X127477857Y-52309580D01*
X127477857Y-52309580D02*
X127525476Y-52357200D01*
X127525476Y-52357200D02*
X127620714Y-52404819D01*
X127620714Y-52404819D02*
X127811190Y-52404819D01*
X127811190Y-52404819D02*
X127906428Y-52357200D01*
X127906428Y-52357200D02*
X127954047Y-52309580D01*
X127954047Y-52309580D02*
X128001666Y-52214342D01*
X128001666Y-52214342D02*
X128001666Y-52023866D01*
X128001666Y-52023866D02*
X127954047Y-51928628D01*
X127954047Y-51928628D02*
X127906428Y-51881009D01*
X127906428Y-51881009D02*
X127811190Y-51833390D01*
X134514207Y-48039991D02*
X134514207Y-47563523D01*
X134800088Y-48135285D02*
X133799505Y-47801757D01*
X133799505Y-47801757D02*
X134800088Y-47468230D01*
X134800088Y-47134701D02*
X133799505Y-47134701D01*
X133799505Y-47134701D02*
X134800088Y-46562940D01*
X134800088Y-46562940D02*
X133799505Y-46562940D01*
X133799505Y-46229412D02*
X133799505Y-45657650D01*
X134800088Y-45943531D02*
X133799505Y-45943531D01*
X134800088Y-44800008D02*
X134800088Y-45371769D01*
X134800088Y-45085888D02*
X133799505Y-45085888D01*
X133799505Y-45085888D02*
X133942446Y-45181182D01*
X133942446Y-45181182D02*
X134037739Y-45276476D01*
X134037739Y-45276476D02*
X134085386Y-45371769D01*
%TO.C,U8*%
D12*
X133050000Y-58700000D02*
G75*
G02*
X132850000Y-58700000I-100000J0D01*
G01*
X132850000Y-58700000D02*
G75*
G02*
X133050000Y-58700000I100000J0D01*
G01*
D13*
%TO.C,D17*%
X135685000Y-81720000D02*
X133025000Y-81720000D01*
X135685000Y-83420000D02*
X133025000Y-83420000D01*
X135685000Y-83420000D02*
X135685000Y-81720000D01*
%TO.C,D9*%
D14*
X154880000Y-99600000D02*
G75*
G02*
X154520000Y-99600000I-180000J0D01*
G01*
X154520000Y-99600000D02*
G75*
G02*
X154880000Y-99600000I180000J0D01*
G01*
D13*
%TO.C,C40*%
X156792164Y-80250000D02*
X157007836Y-80250000D01*
X156792164Y-80970000D02*
X157007836Y-80970000D01*
%TO.C,C50*%
X146040000Y-80857836D02*
X146040000Y-80642164D01*
X146760000Y-80857836D02*
X146760000Y-80642164D01*
%TO.C,D6*%
D14*
X135080000Y-99600000D02*
G75*
G02*
X134720000Y-99600000I-180000J0D01*
G01*
X134720000Y-99600000D02*
G75*
G02*
X135080000Y-99600000I180000J0D01*
G01*
D11*
%TO.C,X2*%
X155727540Y-68630000D02*
X155727540Y-69930000D01*
X155727540Y-69930000D02*
X157127540Y-69930000D01*
D13*
%TO.C,X4*%
X146022540Y-74265706D02*
X146022540Y-72915704D01*
X147772540Y-74265706D02*
X147772540Y-72915704D01*
%TO.C,U2*%
X122994432Y-60715000D02*
X125790000Y-60715000D01*
X125790000Y-62985000D02*
X122570000Y-62985000D01*
X122700000Y-60710000D02*
X122560000Y-60520000D01*
X122840000Y-60520000D01*
X122700000Y-60710000D01*
G36*
X122700000Y-60710000D02*
G01*
X122560000Y-60520000D01*
X122840000Y-60520000D01*
X122700000Y-60710000D01*
G37*
%TO.C,D1*%
X138460000Y-129927500D02*
X140280000Y-129927500D01*
X138460000Y-129977500D02*
X138460000Y-129927500D01*
X138460000Y-133047500D02*
X138460000Y-132997500D01*
X140280000Y-129927500D02*
X140280000Y-129977500D01*
X140280000Y-131097500D02*
X140280000Y-131877500D01*
X140280000Y-132997500D02*
X140280000Y-133047500D01*
X140280000Y-133047500D02*
X138460000Y-133047500D01*
X137920000Y-129977500D02*
X137680000Y-129647500D01*
X138160000Y-129647500D01*
X137920000Y-129977500D01*
G36*
X137920000Y-129977500D02*
G01*
X137680000Y-129647500D01*
X138160000Y-129647500D01*
X137920000Y-129977500D01*
G37*
%TO.C,C89*%
X120640000Y-79840580D02*
X120640000Y-79559420D01*
X121660000Y-79840580D02*
X121660000Y-79559420D01*
%TO.C,C90*%
X120440000Y-82940580D02*
X120440000Y-82659420D01*
X121460000Y-82940580D02*
X121460000Y-82659420D01*
%TO.C,C16*%
X145790000Y-60204420D02*
X145790000Y-60485580D01*
X146810000Y-60204420D02*
X146810000Y-60485580D01*
%TO.C,C17*%
X134580000Y-60181920D02*
X134580000Y-60463080D01*
X135600000Y-60181920D02*
X135600000Y-60463080D01*
%TO.C,D4*%
X125750000Y-124490000D02*
X125750000Y-126190000D01*
X125750000Y-124490000D02*
X128410000Y-124490000D01*
X125750000Y-126190000D02*
X128410000Y-126190000D01*
%TO.C,C39*%
X154840000Y-69977836D02*
X154840000Y-69762164D01*
X155560000Y-69977836D02*
X155560000Y-69762164D01*
%TO.C,FB1*%
X123587221Y-76570000D02*
X123912779Y-76570000D01*
X123587221Y-77590000D02*
X123912779Y-77590000D01*
%TO.C,D11*%
D14*
X147180000Y-125500000D02*
G75*
G02*
X146820000Y-125500000I-180000J0D01*
G01*
X146820000Y-125500000D02*
G75*
G02*
X147180000Y-125500000I180000J0D01*
G01*
D13*
%TO.C,Q7*%
X149882500Y-131290000D02*
X149882500Y-130640000D01*
X149882500Y-131290000D02*
X149882500Y-131940000D01*
X153002500Y-131290000D02*
X153002500Y-130640000D01*
X153002500Y-131290000D02*
X153002500Y-131940000D01*
X153282500Y-130367500D02*
X152952500Y-130127500D01*
X153282500Y-129887500D01*
X153282500Y-130367500D01*
G36*
X153282500Y-130367500D02*
G01*
X152952500Y-130127500D01*
X153282500Y-129887500D01*
X153282500Y-130367500D01*
G37*
%TO.C,C35*%
X147940000Y-80642164D02*
X147940000Y-80857836D01*
X148660000Y-80642164D02*
X148660000Y-80857836D01*
D15*
%TO.C,U4*%
X151650000Y-81962501D02*
X151705000Y-81962501D01*
X151650000Y-87962501D02*
X151650000Y-81962501D01*
X151650000Y-87962501D02*
X151705000Y-87962501D01*
X156595000Y-81962501D02*
X156650000Y-81962501D01*
X156650000Y-81962501D02*
X156650000Y-87962501D01*
X156650000Y-87962501D02*
X156595000Y-87962501D01*
D12*
X156155001Y-80597500D02*
G75*
G02*
X155954999Y-80597500I-100001J0D01*
G01*
X155954999Y-80597500D02*
G75*
G02*
X156155001Y-80597500I100001J0D01*
G01*
%TO.C,D13*%
D14*
X147180000Y-138500000D02*
G75*
G02*
X146820000Y-138500000I-180000J0D01*
G01*
X146820000Y-138500000D02*
G75*
G02*
X147180000Y-138500000I180000J0D01*
G01*
D16*
%TO.C,RF4*%
X132970000Y-53890000D02*
X133000000Y-53890000D01*
X132970000Y-56490000D02*
X132970000Y-53890000D01*
X133000000Y-56490000D02*
X132970000Y-56490000D01*
X135530000Y-53890000D02*
X135570000Y-53890000D01*
X135570000Y-53890000D02*
X135570000Y-54520000D01*
X135570000Y-55860000D02*
X135570000Y-56490000D01*
X135570000Y-56490000D02*
X135530000Y-56490000D01*
D13*
%TO.C,C28*%
X131888748Y-78015000D02*
X132411252Y-78015000D01*
X131888748Y-79485000D02*
X132411252Y-79485000D01*
%TO.C,D5*%
D14*
X123780000Y-99600000D02*
G75*
G02*
X123420000Y-99600000I-180000J0D01*
G01*
X123420000Y-99600000D02*
G75*
G02*
X123780000Y-99600000I180000J0D01*
G01*
D13*
%TO.C,C3*%
X120640000Y-71107836D02*
X120640000Y-70892164D01*
X121360000Y-71107836D02*
X121360000Y-70892164D01*
%TO.C,D10*%
D14*
X131480000Y-125500000D02*
G75*
G02*
X131120000Y-125500000I-180000J0D01*
G01*
X131120000Y-125500000D02*
G75*
G02*
X131480000Y-125500000I180000J0D01*
G01*
D13*
%TO.C,U14*%
X129152500Y-86839999D02*
X129152500Y-84119999D01*
X131922500Y-84119999D02*
X131922500Y-86839999D01*
X131537500Y-83589999D02*
X131297500Y-83259999D01*
X131777499Y-83259999D01*
X131537500Y-83589999D01*
G36*
X131537500Y-83589999D02*
G01*
X131297500Y-83259999D01*
X131777499Y-83259999D01*
X131537500Y-83589999D01*
G37*
%TO.C,L2*%
X129195436Y-80420000D02*
X130399564Y-80420000D01*
X129195436Y-83140000D02*
X130399564Y-83140000D01*
%TO.C,SW18*%
D17*
X148220000Y-42680000D02*
X146220000Y-42680000D01*
X146220000Y-42180000D01*
X148220000Y-42180000D01*
X148220000Y-42680000D01*
X149720000Y-46680000D02*
X144720000Y-46680000D01*
X144720000Y-42680000D01*
X149720000Y-42680000D01*
X149720000Y-46680000D01*
D18*
X144370000Y-46680000D02*
G75*
G02*
X144070000Y-46680000I-150000J0D01*
G01*
X144070000Y-46680000D02*
G75*
G02*
X144370000Y-46680000I150000J0D01*
G01*
D13*
%TO.C,BT2*%
X149010000Y-87590000D02*
X143010000Y-87590000D01*
X143010000Y-81590000D01*
X149010000Y-81590000D01*
X149010000Y-87590000D01*
%TO.C,L5*%
X149587221Y-68100000D02*
X149912779Y-68100000D01*
X149587221Y-69120000D02*
X149912779Y-69120000D01*
%TO.C,Q4*%
X132070000Y-126590000D02*
X131420000Y-126590000D01*
X132070000Y-126590000D02*
X132720000Y-126590000D01*
X132070000Y-129710000D02*
X131420000Y-129710000D01*
X132070000Y-129710000D02*
X132720000Y-129710000D01*
X133472500Y-129990000D02*
X132992500Y-129990000D01*
X133232500Y-129660000D01*
X133472500Y-129990000D01*
G36*
X133472500Y-129990000D02*
G01*
X132992500Y-129990000D01*
X133232500Y-129660000D01*
X133472500Y-129990000D01*
G37*
%TO.C,U5*%
X145490000Y-48730000D02*
X145965000Y-48730000D01*
X145490000Y-49205000D02*
X145490000Y-48730000D01*
X145490000Y-51950000D02*
X145490000Y-51475000D01*
X145965000Y-51950000D02*
X145490000Y-51950000D01*
X148235000Y-48730000D02*
X148710000Y-48730000D01*
X148710000Y-48730000D02*
X148710000Y-49205000D01*
X148710000Y-51475000D02*
X148710000Y-51950000D01*
X148710000Y-51950000D02*
X148235000Y-51950000D01*
X149550000Y-51330000D02*
X149219999Y-51090000D01*
X149550000Y-50850000D01*
X149550000Y-51330000D01*
G36*
X149550000Y-51330000D02*
G01*
X149219999Y-51090000D01*
X149550000Y-50850000D01*
X149550000Y-51330000D01*
G37*
%TO.C,D7*%
D14*
X143680000Y-99600000D02*
G75*
G02*
X143320000Y-99600000I-180000J0D01*
G01*
X143320000Y-99600000D02*
G75*
G02*
X143680000Y-99600000I180000J0D01*
G01*
D13*
%TO.C,C20*%
X144909420Y-46690000D02*
X145190580Y-46690000D01*
X144909420Y-47710000D02*
X145190580Y-47710000D01*
%TO.C,D8*%
X153480000Y-133230000D02*
X153480000Y-130570000D01*
X153480000Y-133230000D02*
X155180000Y-133230000D01*
X155180000Y-133230000D02*
X155180000Y-130570000D01*
%TO.C,D12*%
D14*
X131480000Y-138500000D02*
G75*
G02*
X131120000Y-138500000I-180000J0D01*
G01*
X131120000Y-138500000D02*
G75*
G02*
X131480000Y-138500000I180000J0D01*
G01*
D16*
%TO.C,RF3*%
X157910000Y-75220000D02*
X158540000Y-75220000D01*
X157910000Y-75260000D02*
X157910000Y-75220000D01*
X157910000Y-77820000D02*
X157910000Y-77790000D01*
X159880000Y-75220000D02*
X160510000Y-75220000D01*
X160510000Y-75220000D02*
X160510000Y-75260000D01*
X160510000Y-77790000D02*
X160510000Y-77820000D01*
X160510000Y-77820000D02*
X157910000Y-77820000D01*
D13*
%TO.C,Q1*%
X131310000Y-130160000D02*
X132830000Y-130160000D01*
X131310000Y-131160000D02*
X131310000Y-130160000D01*
X131310000Y-133280000D02*
X131310000Y-132280000D01*
X132830000Y-130160000D02*
X132830000Y-130210000D01*
X132830000Y-131330000D02*
X132830000Y-132110000D01*
X132830000Y-133230000D02*
X132830000Y-133280000D01*
X132830000Y-133280000D02*
X131310000Y-133280000D01*
X133370000Y-132100000D02*
X133130000Y-131770000D01*
X133610000Y-131770000D01*
X133370000Y-132100000D01*
G36*
X133370000Y-132100000D02*
G01*
X133130000Y-131770000D01*
X133610000Y-131770000D01*
X133370000Y-132100000D01*
G37*
%TO.C,L3*%
X157840000Y-55562779D02*
X157840000Y-55237221D01*
X158860000Y-55562779D02*
X158860000Y-55237221D01*
%TO.C,C47*%
X146990000Y-80857836D02*
X146990000Y-80642164D01*
X147710000Y-80857836D02*
X147710000Y-80642164D01*
%TO.C,C7*%
X135038748Y-84365000D02*
X135561252Y-84365000D01*
X135038748Y-85835000D02*
X135561252Y-85835000D01*
D15*
%TO.C,U6*%
X135620000Y-79038209D02*
X135620000Y-73038209D01*
X140620000Y-73038209D02*
X140620000Y-79038209D01*
D18*
X140261418Y-72438209D02*
G75*
G02*
X139978582Y-72438209I-141418J0D01*
G01*
X139978582Y-72438209D02*
G75*
G02*
X140261418Y-72438209I141418J0D01*
G01*
D13*
%TO.C,U3*%
X123037500Y-79850000D02*
X123512500Y-79850000D01*
X123037500Y-80325000D02*
X123037500Y-79850000D01*
X123037500Y-83070000D02*
X123037500Y-82595000D01*
X123512500Y-83070000D02*
X123037500Y-83070000D01*
X125782500Y-79850000D02*
X126257500Y-79850000D01*
X126257500Y-79850000D02*
X126257500Y-80325000D01*
X126257500Y-82595000D02*
X126257500Y-83070000D01*
X126257500Y-83070000D02*
X125782500Y-83070000D01*
X124137500Y-83930000D02*
X123657500Y-83930000D01*
X123897499Y-83600000D01*
X124137500Y-83930000D01*
G36*
X124137500Y-83930000D02*
G01*
X123657500Y-83930000D01*
X123897499Y-83600000D01*
X124137500Y-83930000D01*
G37*
D19*
%TO.C,U1*%
X138950000Y-56470000D02*
X140670000Y-56470000D01*
X138960000Y-53980000D02*
X138960000Y-53980000D01*
X138960000Y-53980000D02*
X138960000Y-54160000D01*
X138960000Y-56270000D02*
X138960000Y-56440000D01*
X138960000Y-56440000D02*
X138990000Y-56470001D01*
X140660000Y-53990000D02*
X138960000Y-53980000D01*
X140670000Y-53990000D02*
X140660000Y-53990000D01*
X140670000Y-54159999D02*
X140670000Y-53990000D01*
X140670000Y-56470000D02*
X140670000Y-56270000D01*
X140670000Y-56470000D02*
X140670000Y-56470000D01*
D20*
X141460000Y-56350000D02*
G75*
G02*
X141220000Y-56350000I-120000J0D01*
G01*
X141220000Y-56350000D02*
G75*
G02*
X141460000Y-56350000I120000J0D01*
G01*
D13*
%TO.C,Q6*%
X127455000Y-120807000D02*
X126805000Y-120807000D01*
X127455000Y-120807000D02*
X128105000Y-120807000D01*
X127455000Y-123927000D02*
X126805000Y-123927000D01*
X127455000Y-123927000D02*
X128105000Y-123927000D01*
X126292500Y-120857000D02*
X126052500Y-120527000D01*
X126532500Y-120527000D01*
X126292500Y-120857000D01*
G36*
X126292500Y-120857000D02*
G01*
X126052500Y-120527000D01*
X126532500Y-120527000D01*
X126292500Y-120857000D01*
G37*
%TO.C,J11*%
X126765000Y-61750000D02*
X126765000Y-59050000D01*
X129485000Y-59000000D02*
X129485000Y-59640000D01*
X129485000Y-61160000D02*
X130115000Y-61160000D01*
X129485000Y-61800000D02*
X129485000Y-61160000D01*
%TO.C,C92*%
X132290000Y-85240580D02*
X132290000Y-84959420D01*
X133310000Y-85240580D02*
X133310000Y-84959420D01*
D15*
%TO.C,U12*%
X121609999Y-63850000D02*
X123379999Y-63850000D01*
X121609999Y-65620000D02*
X121609999Y-63850000D01*
X121609999Y-76190000D02*
X121609999Y-74420000D01*
X121609999Y-76190000D02*
X123379999Y-76190000D01*
X132949999Y-63850000D02*
X131179999Y-63850000D01*
X132949999Y-65620000D02*
X132949999Y-63850000D01*
X132949999Y-74420000D02*
X132949999Y-76190000D01*
X132949999Y-76190000D02*
X131179999Y-76190000D01*
D12*
X122329999Y-76820000D02*
G75*
G02*
X122129999Y-76820000I-100000J0D01*
G01*
X122129999Y-76820000D02*
G75*
G02*
X122329999Y-76820000I100000J0D01*
G01*
D11*
%TO.C,X1*%
X151820001Y-60731863D02*
X151820001Y-62031863D01*
X151820001Y-62031863D02*
X153220001Y-62031863D01*
D13*
%TO.C,U7*%
X149277500Y-83490000D02*
X149277500Y-82190000D01*
X151257500Y-83490000D02*
X151257500Y-82440000D01*
X151537500Y-82070000D02*
X151257500Y-82070000D01*
X151257500Y-81790000D01*
X151537500Y-82070000D01*
G36*
X151537500Y-82070000D02*
G01*
X151257500Y-82070000D01*
X151257500Y-81790000D01*
X151537500Y-82070000D01*
G37*
D15*
%TO.C,U13*%
X149100000Y-71810000D02*
X150650000Y-71810000D01*
X149100000Y-72160000D02*
X149100000Y-71810000D01*
X149100000Y-78810000D02*
X149100000Y-77460000D01*
X149450000Y-78810000D02*
X149100000Y-78810000D01*
X155750000Y-71810000D02*
X156100000Y-71810000D01*
X156100000Y-71810000D02*
X156100000Y-72110000D01*
X156100000Y-78460000D02*
X156100000Y-78810000D01*
X156100000Y-78810000D02*
X155750000Y-78810000D01*
D12*
X147755000Y-72566800D02*
G75*
G02*
X147555000Y-72566800I-100000J0D01*
G01*
X147555000Y-72566800D02*
G75*
G02*
X147755000Y-72566800I100000J0D01*
G01*
%TO.C,ANT2*%
X158300000Y-85530000D02*
X158300000Y-84330000D01*
D17*
X158500000Y-81930000D02*
X158500000Y-81930000D01*
X158500001Y-81830000D02*
X158500001Y-81830000D01*
D12*
X159100001Y-82430000D02*
X159499999Y-82430000D01*
X159100001Y-87430000D02*
X159499999Y-87430000D01*
X160300000Y-85530000D02*
X160300000Y-84330000D01*
D17*
X158500000Y-81930000D02*
G75*
G02*
X158500001Y-81830000I0J50000D01*
G01*
X158500001Y-81830000D02*
G75*
G02*
X158500000Y-81930000I-1J-50000D01*
G01*
D13*
%TO.C,C6*%
X133388748Y-87265000D02*
X133911252Y-87265000D01*
X133388748Y-88735000D02*
X133911252Y-88735000D01*
D11*
%TO.C,U10*%
X151169999Y-53900000D02*
X151669999Y-53900000D01*
X151169999Y-54400000D02*
X151169999Y-53900000D01*
X151169999Y-57560000D02*
X151169999Y-58060000D01*
X151169999Y-58060000D02*
X151669999Y-58060000D01*
X155329999Y-53900000D02*
X154829999Y-53900000D01*
X155329999Y-54400000D02*
X155329999Y-53900000D01*
X155329999Y-57560000D02*
X155329999Y-58060000D01*
X155329999Y-58060000D02*
X154829999Y-58060000D01*
X152069999Y-58440000D02*
G75*
G02*
X151929999Y-58440000I-70000J0D01*
G01*
X151929999Y-58440000D02*
G75*
G02*
X152069999Y-58440000I70000J0D01*
G01*
D13*
%TO.C,C36*%
X158640000Y-72507835D02*
X158640000Y-72292163D01*
X159360000Y-72507835D02*
X159360000Y-72292163D01*
%TO.C,Q5*%
X127455000Y-117251000D02*
X126805000Y-117251000D01*
X127455000Y-117251000D02*
X128105000Y-117251000D01*
X127455000Y-120371000D02*
X126805000Y-120371000D01*
X127455000Y-120371000D02*
X128105000Y-120371000D01*
X128857500Y-120651000D02*
X128377500Y-120651000D01*
X128617500Y-120321000D01*
X128857500Y-120651000D01*
G36*
X128857500Y-120651000D02*
G01*
X128377500Y-120651000D01*
X128617500Y-120321000D01*
X128857500Y-120651000D01*
G37*
%TO.C,C91*%
X123059420Y-84290000D02*
X123340580Y-84290000D01*
X123059420Y-85310000D02*
X123340580Y-85310000D01*
%TO.C,C37*%
X149142164Y-69990000D02*
X149357836Y-69990000D01*
X149142164Y-70710000D02*
X149357836Y-70710000D01*
%TO.C,C8*%
X133240000Y-73407836D02*
X133240000Y-73192164D01*
X133960000Y-73407836D02*
X133960000Y-73192164D01*
%TO.C,C9*%
X149310000Y-60819419D02*
X149310000Y-61100581D01*
X150330000Y-60819419D02*
X150330000Y-61100581D01*
%TO.C,J8*%
X125935000Y-55660000D02*
X126575000Y-55660000D01*
X125985000Y-52940000D02*
X128685000Y-52940000D01*
X126575000Y-55660000D02*
X126575000Y-56290000D01*
X128735000Y-55660000D02*
X128095000Y-55660000D01*
%TO.C,U9*%
X125837500Y-83919999D02*
X127657500Y-83919999D01*
X125837500Y-83969999D02*
X125837500Y-83919999D01*
X125837500Y-87039999D02*
X125837500Y-86989999D01*
X127657500Y-83919999D02*
X127657500Y-83969999D01*
X127657500Y-86989999D02*
X127657500Y-87039999D01*
X127657500Y-87039999D02*
X125837500Y-87039999D01*
X125297500Y-83969999D02*
X125057500Y-83639999D01*
X125537500Y-83639999D01*
X125297500Y-83969999D01*
G36*
X125297500Y-83969999D02*
G01*
X125057500Y-83639999D01*
X125537500Y-83639999D01*
X125297500Y-83969999D01*
G37*
D12*
%TO.C,ANT1*%
X130950000Y-48920000D02*
X130950000Y-43920000D01*
X132950000Y-48920000D02*
X132950000Y-43920000D01*
X132199999Y-51170000D02*
G75*
G02*
X131700001Y-51170000I-249999J0D01*
G01*
X131700001Y-51170000D02*
G75*
G02*
X132199999Y-51170000I249999J0D01*
G01*
D21*
X132200215Y-48671930D02*
X131700000Y-48671930D01*
X131700000Y-47170000D01*
X132200215Y-47170000D01*
X132200215Y-48671930D01*
G36*
X132200215Y-48671930D02*
G01*
X131700000Y-48671930D01*
X131700000Y-47170000D01*
X132200215Y-47170000D01*
X132200215Y-48671930D01*
G37*
%TD*%
D22*
X154800000Y-146000000D03*
X127000000Y-146000000D03*
X157650000Y-47910000D03*
X134570000Y-64000000D03*
X159500000Y-126200000D03*
X122000000Y-126230000D03*
D23*
X150800000Y-73510000D03*
X150800000Y-74710000D03*
X150800000Y-75910000D03*
X150800000Y-77110000D03*
X152000000Y-73510000D03*
X152000000Y-74710000D03*
X152000000Y-75910000D03*
X152000000Y-77110000D03*
X153200000Y-73510000D03*
X153200000Y-74710000D03*
X153200000Y-75910000D03*
X153200000Y-77110000D03*
X154400000Y-73510000D03*
X154400000Y-74710000D03*
X154400000Y-75910000D03*
X154400000Y-77110000D03*
D22*
X123750000Y-47910000D03*
M02*
