%TF.GenerationSoftware,KiCad,Pcbnew,9.0.8+dfsg-1*%
%TF.CreationDate,2026-09-29T16:27:19+02:00*%
%TF.ProjectId,Mesh3310,4d657368-3333-4313-902e-6b696361645f,A*%
%TF.SameCoordinates,Original*%
%TF.FileFunction,Copper,L5,Inr*%
%TF.FilePolarity,Positive*%
%FSLAX46Y46*%
G04 Gerber Fmt 4.6, Leading zero omitted, Abs format (unit mm)*
G04 Created by KiCad (PCBNEW 9.0.8+dfsg-1) date 2026-09-29 16:27:19*
%MOMM*%
%LPD*%
G01*
G04 APERTURE LIST*
%TA.AperFunction,ComponentPad*%
%ADD10C,2.600000*%
%TD*%
%TA.AperFunction,ComponentPad*%
%ADD11C,0.600000*%
%TD*%
%TA.AperFunction,ViaPad*%
%ADD12C,0.450000*%
%TD*%
%TA.AperFunction,ViaPad*%
%ADD13C,0.600000*%
%TD*%
%TA.AperFunction,ViaPad*%
%ADD14C,0.350000*%
%TD*%
%TA.AperFunction,ViaPad*%
%ADD15C,0.300000*%
%TD*%
%TA.AperFunction,ViaPad*%
%ADD16C,0.800000*%
%TD*%
%TA.AperFunction,ViaPad*%
%ADD17C,0.500000*%
%TD*%
%TA.AperFunction,Conductor*%
%ADD18C,0.200000*%
%TD*%
%TA.AperFunction,Conductor*%
%ADD19C,0.100000*%
%TD*%
%ADD20C,0.250000*%
%ADD21C,0.300000*%
%ADD22C,0.200000*%
%ADD23C,0.150000*%
%ADD24C,0.350000*%
%ADD25C,0.305000*%
G04 APERTURE END LIST*
D10*
%TO.N,GND*%
%TO.C,H2*%
X154800000Y-146000000D03*
%TD*%
%TO.N,GND*%
%TO.C,H1*%
X127000000Y-146000000D03*
%TD*%
%TO.N,GND*%
%TO.C,H7*%
X157650000Y-47910000D03*
%TD*%
%TO.N,GND*%
%TO.C,H5*%
X134570000Y-64000000D03*
%TD*%
%TO.N,GND*%
%TO.C,H4*%
X159500000Y-126200000D03*
%TD*%
%TO.N,GND*%
%TO.C,H3*%
X122000000Y-126230000D03*
%TD*%
D11*
%TO.N,GND*%
%TO.C,U13*%
X150800000Y-73510000D03*
X150800000Y-74710000D03*
X150800000Y-75910000D03*
X150800000Y-77110000D03*
X152000000Y-73510000D03*
X152000000Y-74710000D03*
X152000000Y-75910000D03*
X152000000Y-77110000D03*
X153200000Y-73510000D03*
X153200000Y-74710000D03*
X153200000Y-75910000D03*
X153200000Y-77110000D03*
X154400000Y-73510000D03*
X154400000Y-74710000D03*
X154400000Y-75910000D03*
X154400000Y-77110000D03*
%TD*%
D10*
%TO.N,GND*%
%TO.C,H6*%
X123750000Y-47910000D03*
%TD*%
D12*
%TO.N,+3V3*%
X155353184Y-55281763D03*
X155399999Y-70380000D03*
X154700000Y-68000000D03*
X135470000Y-131039999D03*
D13*
X152715176Y-79267637D03*
D12*
X134549999Y-85200000D03*
X146350000Y-49102500D03*
X155510673Y-80074999D03*
X131058578Y-78891421D03*
X123212500Y-77080000D03*
D14*
X125605000Y-61600000D03*
D12*
X133225000Y-82570000D03*
X132899999Y-87950000D03*
X155260000Y-78990000D03*
X124755000Y-79130000D03*
X124900000Y-122000000D03*
D13*
X148771081Y-71307918D03*
X149180000Y-77620000D03*
D12*
X135850000Y-62600000D03*
D13*
X157479999Y-55480001D03*
D12*
X156228205Y-87907501D03*
D13*
X155225454Y-71438254D03*
D12*
X121900000Y-62520000D03*
X121200000Y-71480000D03*
X146850000Y-49102500D03*
X133149999Y-58879999D03*
X140899999Y-96650000D03*
X132639999Y-59180000D03*
D13*
X151125001Y-58515001D03*
D12*
X146024999Y-47200000D03*
D14*
X123205000Y-62107745D03*
D12*
X127275000Y-127293255D03*
D15*
X155350000Y-78560000D03*
D12*
X128759999Y-76760000D03*
D16*
X158690000Y-80630000D03*
D12*
X122554999Y-67270000D03*
X126031720Y-61210017D03*
X131737499Y-86692499D03*
X129509999Y-76760000D03*
X134775000Y-59062500D03*
X121280000Y-66400000D03*
X148459999Y-80230000D03*
X154966813Y-55678236D03*
X154435036Y-135111813D03*
X135470000Y-130289999D03*
X146905000Y-48040000D03*
X148970000Y-70350000D03*
X131737499Y-84267499D03*
D14*
%TO.N,/P0.31_BAT_MEAS*%
X151090000Y-71790000D03*
X149070000Y-69620000D03*
%TO.N,Net-(Q5-D)*%
X124600000Y-122600000D03*
D12*
X124400000Y-121400000D03*
D15*
%TO.N,VSS_PA*%
X155350000Y-73810000D03*
D12*
X160000000Y-75900000D03*
D17*
%TO.N,GND*%
X150660000Y-64585001D03*
D12*
X122000000Y-88000000D03*
X146000000Y-112000000D03*
X146000000Y-124000000D03*
X127114000Y-96465000D03*
X152000000Y-96000000D03*
X144000000Y-82000000D03*
X154716499Y-128423762D03*
D13*
X137950000Y-53260000D03*
D12*
X148000000Y-48000000D03*
X142462000Y-85172000D03*
X159487000Y-132008999D03*
D17*
X141689726Y-55360000D03*
D12*
X122000000Y-58000000D03*
D17*
X153162000Y-43307000D03*
D12*
X130000000Y-118000000D03*
X158000000Y-108000000D03*
D13*
X123260000Y-52110000D03*
X130340000Y-54120000D03*
D12*
X140000000Y-112000000D03*
X156812000Y-105252000D03*
X124000000Y-56000000D03*
D17*
X133960000Y-60934999D03*
D12*
X126600000Y-83909000D03*
X149737000Y-71178000D03*
X126000000Y-90000000D03*
X132000000Y-118000000D03*
X146000000Y-90000000D03*
X140000000Y-68000000D03*
X132000000Y-130000000D03*
X128114000Y-98465000D03*
X128000000Y-110000000D03*
X148218000Y-127298000D03*
D15*
X151339999Y-55230000D03*
D13*
X147850000Y-53690000D03*
D12*
X133100000Y-56725000D03*
X136820000Y-76487000D03*
X138000000Y-54000000D03*
X156000000Y-92000000D03*
X124302000Y-78209000D03*
X134000000Y-98000000D03*
D13*
X140450000Y-52210000D03*
D12*
X160000000Y-74000000D03*
D13*
X130610000Y-55380000D03*
D12*
X148218000Y-129298000D03*
X158000000Y-112000000D03*
X140000000Y-108000000D03*
X146000000Y-132000000D03*
X158000000Y-64000000D03*
X134000000Y-142000000D03*
X148952000Y-106247000D03*
D15*
X153780000Y-69550000D03*
D12*
X136025000Y-65899999D03*
X156000000Y-102000000D03*
X130000000Y-108000000D03*
X142000000Y-84000000D03*
D17*
X148209000Y-44323000D03*
D12*
X135481000Y-121341000D03*
X129898000Y-116234000D03*
X158360725Y-78291763D03*
X122000000Y-114000000D03*
X130000000Y-86000000D03*
X129114000Y-97465000D03*
D17*
X143729178Y-55360000D03*
D12*
X127361421Y-63471421D03*
D17*
X147930000Y-61014997D03*
D12*
X154882000Y-72755000D03*
X126000000Y-136000000D03*
X122008000Y-83807000D03*
D13*
X139520000Y-58690000D03*
D12*
X156000000Y-50000000D03*
X138069000Y-56191000D03*
X146000000Y-62000000D03*
X146000000Y-100000000D03*
X136000000Y-70000000D03*
X134302000Y-77209000D03*
X152799999Y-75310000D03*
X155359000Y-80879999D03*
X124051000Y-83909000D03*
X138000000Y-110000000D03*
D13*
X138130000Y-57130000D03*
X144190000Y-49620000D03*
D12*
X140000000Y-138000000D03*
D17*
X145768630Y-55360000D03*
D12*
X144000000Y-106000000D03*
X130000000Y-148000000D03*
X160381950Y-80160000D03*
X157812000Y-103252000D03*
X137439000Y-131590000D03*
X140000000Y-96000000D03*
X156000000Y-110000000D03*
X134000000Y-76000000D03*
X131898000Y-116234000D03*
X156000000Y-120000000D03*
X122734554Y-70425291D03*
X122000000Y-116000000D03*
X124471000Y-127477000D03*
X160000000Y-130000000D03*
X133804999Y-68545000D03*
X160000000Y-58000000D03*
X132587867Y-84537132D03*
X156812000Y-104252000D03*
X129301999Y-78209000D03*
D17*
X146431000Y-44323000D03*
D13*
X136240000Y-53640000D03*
D12*
X152004000Y-95221000D03*
X146000000Y-108000000D03*
X130114000Y-96465000D03*
X136439000Y-129590000D03*
X131898000Y-117234000D03*
D15*
X147027540Y-76040000D03*
D12*
X152888000Y-92684000D03*
X129358518Y-56795295D03*
X122000000Y-54000000D03*
X122000000Y-124000000D03*
X146000000Y-110000000D03*
X136000000Y-122000000D03*
X133804999Y-66994999D03*
X160000000Y-56000000D03*
D17*
X153924000Y-45593000D03*
D12*
X160000000Y-52000000D03*
X130000000Y-106000000D03*
D13*
X124540000Y-52130000D03*
D12*
X124000000Y-60000000D03*
D13*
X136050000Y-56540000D03*
X141730000Y-52170000D03*
X160500000Y-79250000D03*
D12*
X136820000Y-75487000D03*
X160000000Y-54000000D03*
X124000000Y-58000000D03*
X130000000Y-90000000D03*
X149218000Y-125298000D03*
D17*
X147930000Y-61649999D03*
D12*
X129114000Y-98465000D03*
X125810000Y-85479999D03*
D13*
X122210000Y-52110000D03*
D12*
X153004000Y-96221000D03*
X134000000Y-102000000D03*
X124600000Y-71938000D03*
X159487000Y-129008999D03*
X144000000Y-116000000D03*
X158000000Y-120000000D03*
X160381950Y-81160000D03*
X140462000Y-84172000D03*
X156000000Y-112000000D03*
X134804999Y-66994999D03*
X120600000Y-75938000D03*
X147218000Y-125298000D03*
X120600000Y-76938000D03*
X128000000Y-78000000D03*
X124000000Y-108000000D03*
X126600000Y-72938000D03*
D13*
X132520000Y-56840000D03*
D17*
X153924000Y-43307000D03*
D13*
X127000000Y-52080000D03*
D17*
X146838826Y-54167456D03*
D12*
X130000000Y-92000000D03*
X158000000Y-100000000D03*
X130000000Y-62000000D03*
X142000000Y-146000000D03*
D13*
X130380000Y-52040000D03*
D12*
X156000000Y-108000000D03*
X122000000Y-130000000D03*
X158000000Y-62000000D03*
X156460000Y-56239000D03*
D17*
X150660000Y-65855000D03*
D12*
X132000000Y-112000000D03*
X153554000Y-89564000D03*
X160000000Y-64000000D03*
X144000000Y-108000000D03*
X158000000Y-102000000D03*
X134000000Y-94000000D03*
D15*
X148300000Y-81230000D03*
D12*
X122000000Y-78000000D03*
X154851000Y-89187000D03*
X144000000Y-114000000D03*
X160000000Y-88000000D03*
X124000000Y-138000000D03*
D13*
X138950000Y-52270000D03*
X142910000Y-52190000D03*
D12*
X136000000Y-118000000D03*
X137820000Y-75487000D03*
X137575000Y-67069999D03*
X132406000Y-127506000D03*
X126000000Y-94000000D03*
X140000000Y-106000000D03*
X128000000Y-112000000D03*
X156000000Y-106000000D03*
X148000000Y-66000000D03*
X128513027Y-55948554D03*
X157460000Y-57239000D03*
X150851000Y-91187000D03*
X146000000Y-86000000D03*
D15*
X150267500Y-81915000D03*
D13*
X133030000Y-52080000D03*
D12*
X151186000Y-64900999D03*
X146000000Y-84000000D03*
X160000000Y-128000000D03*
X134000000Y-100000000D03*
D17*
X133960000Y-61570003D03*
D12*
X146000000Y-116000000D03*
X124000000Y-68000000D03*
X125600000Y-71938000D03*
X138000000Y-98000000D03*
X127114000Y-95465000D03*
X122000000Y-100000000D03*
X158438050Y-76400000D03*
X154000000Y-66000000D03*
X126000000Y-74000000D03*
X132000000Y-98000000D03*
X140000000Y-110000000D03*
X136000000Y-142000000D03*
X127114000Y-97465000D03*
X152888000Y-90684000D03*
X122000000Y-110000000D03*
X138000000Y-112000000D03*
X128000000Y-92000000D03*
X125600000Y-74938000D03*
X122000000Y-104000000D03*
X124000000Y-140000000D03*
X136100000Y-58275000D03*
X130000000Y-112000000D03*
X136000000Y-100000000D03*
X140462000Y-86172000D03*
X126000000Y-148000000D03*
X146000000Y-130000000D03*
D17*
X142709452Y-55360000D03*
D12*
X131836000Y-126829000D03*
D13*
X135840000Y-52110000D03*
D12*
X122000000Y-112000000D03*
X135820000Y-75487000D03*
X153004000Y-109221000D03*
X132000000Y-90000000D03*
X128000000Y-148000000D03*
X123600000Y-72938000D03*
X136000000Y-112000000D03*
X144000000Y-94000000D03*
X144000000Y-110000000D03*
X152000000Y-46000000D03*
X129600000Y-56410000D03*
X156000000Y-148000000D03*
X134000000Y-128000000D03*
X144000000Y-86000000D03*
X160000000Y-60000000D03*
X148218000Y-126298000D03*
X158000000Y-60000000D03*
X128066008Y-57738156D03*
X136000000Y-146000000D03*
X123600000Y-77938000D03*
X136000000Y-102000000D03*
X152000000Y-98000000D03*
X156250000Y-67980000D03*
X136820000Y-74487000D03*
X138000000Y-58000000D03*
D17*
X153924000Y-44831000D03*
D12*
X126000000Y-54000000D03*
D17*
X153924000Y-44069000D03*
D12*
X124000000Y-90000000D03*
X128000000Y-96000000D03*
X130000000Y-98000000D03*
X140000000Y-114000000D03*
D14*
X158900000Y-81400000D03*
D12*
X158308961Y-74861421D03*
X157812000Y-101252000D03*
X144000000Y-44000000D03*
X122000000Y-98000000D03*
D13*
X144130000Y-52210000D03*
D12*
X142000000Y-90000000D03*
X152000000Y-66000000D03*
X122000000Y-120000000D03*
X159487000Y-133008999D03*
D13*
X137710000Y-52170000D03*
D12*
X124000000Y-128000000D03*
X146000000Y-106000000D03*
D13*
X144170000Y-50820000D03*
D12*
X136302000Y-77209000D03*
D14*
X122500000Y-81300000D03*
D12*
X124000000Y-120000000D03*
X153449999Y-55980000D03*
X126090000Y-88200000D03*
D17*
X133960000Y-60300002D03*
D12*
X147218000Y-127298000D03*
D13*
X134500000Y-52110000D03*
D16*
X142367000Y-59436000D03*
D12*
X132836000Y-126829000D03*
X146700000Y-80320000D03*
X157812000Y-105252000D03*
X139499000Y-73487000D03*
X127382139Y-57008551D03*
X121900000Y-61880000D03*
X144000000Y-58000000D03*
X142000000Y-112000000D03*
D15*
X152687540Y-69740000D03*
D12*
X131768000Y-66066999D03*
D17*
X147930000Y-60379997D03*
D12*
X152000000Y-118000000D03*
X144000000Y-88000000D03*
X124000000Y-126000000D03*
D17*
X148209000Y-46355000D03*
D12*
X152774000Y-63963000D03*
X151119166Y-82767501D03*
X142000000Y-86000000D03*
D13*
X129310000Y-52080000D03*
D12*
X122000000Y-108000000D03*
X124000000Y-130000000D03*
X136000000Y-144000000D03*
X142000000Y-114000000D03*
X136000000Y-84000000D03*
X150000000Y-44000000D03*
X148000000Y-118000000D03*
X122000000Y-102000000D03*
X135820000Y-76487000D03*
X124000000Y-54000000D03*
D13*
X144220000Y-46850000D03*
D17*
X146431000Y-46355000D03*
D13*
X130360000Y-53090000D03*
D12*
X124600000Y-72938000D03*
X152004000Y-97221000D03*
X138000000Y-94000000D03*
X131609149Y-62234834D03*
X150851000Y-90187000D03*
X159487000Y-131008999D03*
X152000000Y-146000000D03*
X156812000Y-101252000D03*
X122000000Y-94000000D03*
D13*
X155969998Y-54140001D03*
X142410000Y-57710000D03*
D12*
X122000000Y-134000000D03*
D17*
X147320000Y-46355000D03*
D12*
X147438000Y-70164000D03*
X160000000Y-68000000D03*
X152000000Y-60000000D03*
X130000000Y-100000000D03*
X148218000Y-130298000D03*
X138000000Y-72000000D03*
X128000000Y-90000000D03*
X154000000Y-90000000D03*
X140000000Y-94000000D03*
D13*
X138300000Y-58560000D03*
D12*
X132768000Y-66066999D03*
X158000000Y-52000000D03*
X132000000Y-100000000D03*
X157003000Y-102779000D03*
D17*
X147930000Y-62284996D03*
D12*
X133768000Y-66066999D03*
X124000000Y-136000000D03*
X148000000Y-116000000D03*
X148000000Y-64000000D03*
X130000000Y-110000000D03*
X132898000Y-118234000D03*
X124000000Y-94000000D03*
X136000000Y-86000000D03*
X133000000Y-84325000D03*
X150000000Y-50000000D03*
D17*
X150660000Y-63950000D03*
D12*
X126000000Y-68000000D03*
X134836000Y-126829000D03*
X124000000Y-96000000D03*
X142302000Y-77209000D03*
X153004000Y-108221000D03*
X160000000Y-84000000D03*
D17*
X144748904Y-55360000D03*
D13*
X141450000Y-58750000D03*
D12*
X136439000Y-132590000D03*
X154000000Y-148000000D03*
X124000000Y-110000000D03*
X146000000Y-92000000D03*
X138000000Y-114000000D03*
X152000000Y-148000000D03*
X147218000Y-131298000D03*
X138000000Y-144000000D03*
X138000000Y-70000000D03*
X137302000Y-77209000D03*
X134502000Y-76314000D03*
X143462000Y-89172000D03*
X134820000Y-77487000D03*
X143612451Y-143641541D03*
X142000000Y-96000000D03*
D15*
X157380000Y-80610000D03*
D12*
X126000000Y-56000000D03*
X128000000Y-144000000D03*
X136000000Y-116000000D03*
X144400000Y-80359000D03*
D14*
X158880000Y-72910000D03*
D12*
X146000000Y-118000000D03*
X135804999Y-68545000D03*
X126000000Y-58000000D03*
X122000000Y-60000000D03*
D15*
X145337540Y-75210000D03*
D12*
X136000000Y-92000000D03*
X142000000Y-94000000D03*
X152282000Y-92285000D03*
X158000000Y-104000000D03*
D13*
X133700000Y-52880000D03*
D12*
X130000000Y-56000000D03*
D13*
X137380000Y-54190000D03*
D12*
X130000000Y-114000000D03*
X156000000Y-144000000D03*
X153004000Y-110221000D03*
X135820000Y-74487000D03*
X146000000Y-126000000D03*
D17*
X133960000Y-59665002D03*
D12*
X156812000Y-102252000D03*
X156870000Y-57225000D03*
X133301999Y-77209000D03*
X136000000Y-138000000D03*
X160000000Y-70000000D03*
X152774000Y-66962999D03*
X154000000Y-64000000D03*
X132768000Y-65066999D03*
X147218000Y-126298000D03*
X146000000Y-138000000D03*
X132000000Y-102000000D03*
X126000000Y-92000000D03*
X135804999Y-66994999D03*
X134836000Y-127829000D03*
X158000000Y-110000000D03*
D17*
X152400000Y-43307000D03*
D12*
X152000000Y-44000000D03*
X137820000Y-76487000D03*
D13*
X136870000Y-52780000D03*
D12*
X122000000Y-56000000D03*
X124000000Y-106000000D03*
D13*
X125740000Y-52080000D03*
D12*
X146000000Y-88000000D03*
X133836000Y-126829000D03*
X134820000Y-75487000D03*
X136000000Y-148000000D03*
X158000000Y-114000000D03*
X137820000Y-74487000D03*
X123051000Y-82909000D03*
X137820000Y-77487000D03*
X142000000Y-56000000D03*
X158000000Y-66000000D03*
X124000000Y-92000000D03*
X136105000Y-64899999D03*
X146000000Y-102000000D03*
X129114000Y-95465000D03*
X132898000Y-117234000D03*
X160000000Y-62000000D03*
X154000000Y-136000000D03*
X122000000Y-118000000D03*
X160000000Y-72000000D03*
X135302000Y-77209000D03*
X153004000Y-111221000D03*
X154000000Y-48000000D03*
D17*
X147930000Y-62920000D03*
D12*
X138000000Y-138000000D03*
X142000000Y-108000000D03*
D13*
X144250000Y-48200000D03*
D12*
X136000000Y-72000000D03*
X128898000Y-118234000D03*
X140000000Y-72000000D03*
X128000000Y-62000000D03*
X132000000Y-96000000D03*
X134000000Y-138000000D03*
X144000000Y-112000000D03*
D13*
X139730000Y-52930000D03*
X135190000Y-52990000D03*
D12*
X133215000Y-61620000D03*
X132479998Y-75520000D03*
D13*
X136940000Y-57020000D03*
D12*
X124000000Y-62000000D03*
X150711771Y-74008888D03*
X128000000Y-108000000D03*
X134481000Y-124341000D03*
X144000000Y-102000000D03*
X144000000Y-92000000D03*
X147218000Y-130298000D03*
D13*
X137270000Y-56140000D03*
D17*
X133960000Y-59030000D03*
D12*
X158000000Y-118000000D03*
X122000000Y-92000000D03*
X156000000Y-66000000D03*
X142000000Y-106000000D03*
X142000000Y-110000000D03*
X126600000Y-74938000D03*
D17*
X153924000Y-46355000D03*
D12*
X138000000Y-68000000D03*
X144000000Y-84000000D03*
X134000000Y-96000000D03*
X126000000Y-144000000D03*
X134804999Y-68545000D03*
X134000000Y-148000000D03*
X134481000Y-123341000D03*
X138000000Y-108000000D03*
X129898000Y-117234000D03*
X136820000Y-77487000D03*
X142000000Y-92000000D03*
X131768000Y-67066999D03*
X150000000Y-52000000D03*
X135820000Y-77487000D03*
X138000000Y-96000000D03*
X154812000Y-99252000D03*
X137575000Y-58780000D03*
D15*
X126320000Y-77400000D03*
D13*
X156169999Y-56860002D03*
D12*
X136000000Y-114000000D03*
X152000000Y-62000000D03*
X140462000Y-85172000D03*
D17*
X146492094Y-56083464D03*
D12*
X146000000Y-114000000D03*
X142945000Y-145033000D03*
D13*
X128120000Y-52080000D03*
X131550000Y-56120000D03*
D12*
X139069000Y-58191000D03*
D14*
X149345915Y-71659082D03*
D12*
X138439000Y-129590000D03*
X138000000Y-106000000D03*
X158000000Y-50000000D03*
X120600000Y-74938000D03*
X122000000Y-96000000D03*
X144000000Y-90000000D03*
X158000000Y-122000000D03*
X122000000Y-90000000D03*
X122000000Y-106000000D03*
X120600000Y-73938000D03*
X152000000Y-50000000D03*
X140462000Y-87172000D03*
D17*
X147320000Y-44323000D03*
D12*
X134000000Y-54000000D03*
X133820000Y-77487000D03*
X138000000Y-90000000D03*
X144000000Y-56000000D03*
X156000000Y-64000000D03*
X140000000Y-92000000D03*
X160000000Y-124000000D03*
X136701000Y-131008000D03*
X160000000Y-66000000D03*
X132000000Y-60000000D03*
X156000000Y-62000000D03*
X131100000Y-56725000D03*
X123600000Y-71938000D03*
X140000000Y-58000000D03*
X140462000Y-88172000D03*
X132449999Y-147920000D03*
X124000000Y-112000000D03*
X147218000Y-129298000D03*
X128000000Y-136000000D03*
X126647000Y-82716000D03*
X120600000Y-72938000D03*
X159753000Y-130497000D03*
D17*
X150660000Y-65219999D03*
D12*
X124000000Y-122000000D03*
X140025000Y-73688209D03*
D15*
X150527699Y-130564825D03*
D14*
%TO.N,/MCU/DEC4*%
X150597767Y-72559997D03*
X155849000Y-73560000D03*
D12*
X157200000Y-72500000D03*
D15*
%TO.N,/MCU/DECUSB*%
X150600000Y-78060000D03*
D14*
X147600000Y-81000000D03*
D13*
%TO.N,VBUS*%
X149820700Y-80651700D03*
X150267500Y-82956200D03*
X149059900Y-127346700D03*
X146965200Y-148944800D03*
X149584400Y-138441200D03*
X149591300Y-122627900D03*
X126993500Y-81425800D03*
X149584400Y-135236100D03*
X148303800Y-95176700D03*
X123106800Y-80138100D03*
X145740600Y-80770400D03*
D14*
%TO.N,/P0.11_DSP_SDIN*%
X149849000Y-76310001D03*
D17*
%TO.N,Net-(J7-Pin_2)*%
X143510000Y-59436000D03*
D14*
%TO.N,/P1.09_DSP_CSN*%
X143724107Y-73685403D03*
%TO.N,/P0.12_DSP_RESETn*%
X144140000Y-77050000D03*
X144130000Y-76240000D03*
X144120000Y-73380000D03*
D12*
%TO.N,/GSM/SIM_VCC*%
X139861500Y-89721000D03*
X134633900Y-119284800D03*
X137935700Y-122405000D03*
X134633900Y-95114400D03*
%TO.N,/MCU/P1.00_SWO*%
X151975400Y-144052800D03*
X146747900Y-135070000D03*
X154166200Y-119540900D03*
X146747900Y-136307800D03*
X154166200Y-100340100D03*
X157916500Y-95152300D03*
X151975400Y-134937900D03*
X147726400Y-133465200D03*
X146617100Y-121240500D03*
%TO.N,/MCU_RESETn*%
X156413500Y-134689800D03*
X152600000Y-94100000D03*
X148500000Y-78000000D03*
X153631500Y-95147000D03*
D14*
X152599000Y-78060000D03*
D12*
%TO.N,/MCU/DCC*%
X148835900Y-67630000D03*
X149803700Y-72161400D03*
%TO.N,/P0.14_VIBR*%
X137820500Y-121776400D03*
D14*
X151598999Y-78060000D03*
D12*
X152600000Y-80400000D03*
X150583900Y-120939700D03*
X150583900Y-96284100D03*
%TO.N,/P0.13_BUZZ*%
X149500000Y-98200000D03*
X152000000Y-118800000D03*
X142900000Y-81800000D03*
X149500000Y-113200000D03*
D14*
X142400000Y-78000000D03*
X151350000Y-78560000D03*
D12*
%TO.N,/P0.15_BACKLIGHT*%
X152560100Y-112578200D03*
X131167100Y-114323400D03*
X152558800Y-81225800D03*
X153230500Y-97079300D03*
D14*
%TO.N,Net-(R8-Pad1)*%
X138324999Y-100670000D03*
D12*
%TO.N,/P0.02_PWR_OFF*%
X125010300Y-88347200D03*
D14*
X152350000Y-72060000D03*
D12*
X124575500Y-86504800D03*
%TO.N,/USB_D+*%
X144444200Y-141997500D03*
X151108000Y-128467100D03*
X150955500Y-89163700D03*
X151108000Y-97729400D03*
X143910000Y-135426500D03*
%TO.N,/USB_D-*%
X145130000Y-135433600D03*
X156936300Y-125531000D03*
X144519300Y-142675500D03*
D14*
%TO.N,/MCU/P0.06*%
X146100000Y-77500000D03*
X148300000Y-75100000D03*
D12*
X140700000Y-100670000D03*
X143700000Y-80400000D03*
%TO.N,Net-(SW18-K)*%
X160500000Y-98200000D03*
X126800000Y-88200000D03*
D14*
X149845000Y-45530000D03*
D12*
X130600000Y-142100000D03*
X126200000Y-84700000D03*
X132199999Y-142100000D03*
%TO.N,/P0.30_LORA_RST*%
X153516567Y-52864450D03*
D14*
X151597002Y-72532998D03*
%TO.N,/P1.13_LORA_SCK*%
X153349000Y-72060000D03*
D12*
X153400000Y-65200000D03*
X151390000Y-54070000D03*
%TO.N,/P1.14_LORA_MOSI*%
X152516773Y-53451945D03*
D14*
X153099000Y-72560000D03*
D12*
%TO.N,/P1.12_LORA_SPI_NSS*%
X150700000Y-54740000D03*
D14*
X153599000Y-72560001D03*
%TO.N,/GSM/COEX0*%
X131900000Y-58600000D03*
D12*
X126600000Y-63800000D03*
X127900000Y-62900000D03*
D14*
%TO.N,/MCU/P0.25_QSPI_CSN*%
X154608813Y-78060000D03*
D12*
X155460000Y-82070000D03*
%TO.N,Net-(J2-Pin_1)*%
X130871300Y-134606000D03*
X134914000Y-129731000D03*
X134124800Y-132182900D03*
%TO.N,Net-(Q1-B)*%
X131730700Y-134751100D03*
X135866000Y-131964000D03*
D14*
%TO.N,/MCU/P0.23_QSPI_SIO_3*%
X154108811Y-78060002D03*
D12*
X154750000Y-87060000D03*
D14*
%TO.N,/P0.03_LORA_MISO*%
X152599000Y-72560000D03*
D12*
X152954504Y-53076015D03*
X154000000Y-68200000D03*
%TO.N,/P0.28_LORA_BUSY*%
X153950000Y-52448950D03*
D14*
X152098997Y-72560000D03*
D12*
%TO.N,/MCU/P0.21_QSPI_SCK*%
X153520000Y-87030000D03*
D14*
X153609001Y-78073878D03*
D12*
%TO.N,Net-(U10-DCC_SW)*%
X155971500Y-55031100D03*
X157624500Y-53923300D03*
%TO.N,/P0.26_BAT_RTC*%
X145800000Y-81800000D03*
D14*
X148280000Y-74100000D03*
X144800000Y-74080000D03*
D12*
%TO.N,/P0.05_~{CHG}*%
X125897100Y-80022500D03*
D14*
X144800000Y-74580003D03*
D12*
X144125200Y-72179600D03*
D14*
X149849000Y-74809999D03*
D12*
X142943600Y-80498000D03*
X145800000Y-69800000D03*
D14*
%TO.N,/P0.04_LORA_RF_SW1*%
X140300000Y-56810000D03*
X149350000Y-74560000D03*
D12*
%TO.N,/P0.29_LORA_DIO1*%
X154496999Y-53490000D03*
D14*
X154510000Y-62390000D03*
D12*
%TO.N,/GSM/SIM_CLK*%
X138243500Y-123168400D03*
X137485000Y-87868300D03*
%TO.N,/GSM/SIM_RST*%
X137298100Y-124724300D03*
X138121600Y-78923100D03*
X138755000Y-85949400D03*
X130070600Y-77029300D03*
D13*
%TO.N,Net-(U12-VDD)*%
X127917200Y-76353500D03*
X129030000Y-74954500D03*
D12*
X124900000Y-76700000D03*
%TO.N,/GSM/SIM_IO*%
X141394800Y-130030200D03*
X144067300Y-134498700D03*
X136850000Y-73647300D03*
X131201300Y-71833400D03*
%TO.N,Net-(J10-Pin_1)*%
X145500000Y-49500000D03*
%TO.N,Net-(J10-Pin_2)*%
X144800000Y-49200000D03*
%TO.N,/SWDCLK*%
X157293800Y-94482200D03*
X152122100Y-100026700D03*
X157435300Y-84777000D03*
X150902500Y-146659100D03*
X145033200Y-82182900D03*
X152548100Y-99227900D03*
X157013000Y-76506200D03*
%TO.N,Net-(U12-SWDCLK)*%
X123530000Y-76235500D03*
X148262100Y-79307500D03*
%TO.N,/SWDIO*%
X148963900Y-94162600D03*
X150113100Y-141351400D03*
D14*
X148800000Y-79700000D03*
D12*
X150120000Y-97366500D03*
D15*
X155850000Y-78060000D03*
D12*
%TO.N,Net-(U12-SWDIO)*%
X124030000Y-75045900D03*
X146444100Y-78720000D03*
%TO.N,Net-(U12-P0.03)*%
X128441700Y-67852400D03*
X145860700Y-78592800D03*
X128441700Y-73692900D03*
X124937100Y-65320900D03*
%TO.N,/GSM/FLASH_SCK*%
X122763600Y-65620900D03*
X126448600Y-61935900D03*
%TO.N,/GSM/FLASH_CS*%
X122775000Y-60594300D03*
X121701300Y-63880000D03*
%TO.N,/GSM/FLASH_MOSI*%
X122864100Y-66719300D03*
X126600000Y-62600000D03*
D14*
%TO.N,/P1.08_GSM_TX*%
X149850000Y-75810000D03*
D12*
X121557300Y-69897000D03*
%TO.N,/P1.07_GSM_RX*%
X151408700Y-67171000D03*
D14*
X155350000Y-75810000D03*
D12*
X141676500Y-68838100D03*
X121561400Y-68876200D03*
D14*
%TO.N,P1.05_ROW_5*%
X155350000Y-76310000D03*
X155555001Y-139660000D03*
D12*
X157850000Y-139600000D03*
D14*
X159400000Y-128199999D03*
%TO.N,P1.02_ROW_2*%
X156400000Y-77060000D03*
X154690000Y-118045001D03*
D12*
X159690000Y-119160000D03*
%TO.N,P1.04_ROW_4*%
X157224500Y-134010000D03*
D14*
X156320000Y-76550000D03*
D12*
X158060000Y-134020000D03*
%TO.N,/MIC_OUT*%
X121685900Y-76960200D03*
X130465100Y-129731800D03*
D13*
%TO.N,/POWER/VBAT*%
X125993300Y-83305500D03*
X141567500Y-82031700D03*
X122826400Y-85866100D03*
D14*
%TO.N,P1.01_ROW_1*%
X156880000Y-106880000D03*
X155350000Y-77310000D03*
D12*
%TO.N,/POWER/VSYS*%
X124500000Y-79800000D03*
X127300000Y-87200000D03*
X132400000Y-85500000D03*
X128300000Y-84700000D03*
D13*
X121910200Y-82960000D03*
D12*
%TO.N,P1.03_ROW_3*%
X158900000Y-105600000D03*
D14*
X155350000Y-76810000D03*
X156760000Y-127050000D03*
X153420000Y-126265001D03*
D12*
%TO.N,/P1.15_GSM_RESET*%
X146377700Y-63371400D03*
X142132900Y-74345300D03*
X150659000Y-63238200D03*
X141002700Y-75475500D03*
X153370000Y-68265700D03*
X140393600Y-81686100D03*
X127405900Y-82177800D03*
X144730200Y-71993400D03*
%TO.N,/I2S_SDOUT*%
X148537500Y-52592400D03*
X133100000Y-60200000D03*
X127900000Y-65000000D03*
D14*
%TO.N,/I2S_LRCK*%
X129100000Y-63800000D03*
D12*
X145999600Y-52444400D03*
%TO.N,/I2S_BCLK*%
X147850000Y-52544600D03*
X131167100Y-68235500D03*
D14*
%TO.N,/P0.27_GSM_WAKE*%
X147800000Y-78000000D03*
X149850000Y-74310000D03*
D12*
%TO.N,/Shutdown_Mono*%
X122746200Y-71480600D03*
X150270000Y-47879900D03*
%TO.N,P0.16_COL_1*%
X152785093Y-104596418D03*
D14*
X152099000Y-78060000D03*
D12*
X154800000Y-112100000D03*
X153650000Y-131640000D03*
X153100000Y-112100000D03*
X154690000Y-115670000D03*
X154700000Y-107400000D03*
X153420000Y-123890000D03*
D14*
X151600000Y-103900000D03*
D12*
X153200000Y-132900000D03*
X152400000Y-98600000D03*
X153180000Y-139660000D03*
%TO.N,P0.19_COL_3*%
X126490000Y-115670000D03*
X127960000Y-139660000D03*
X126840000Y-99531700D03*
D14*
X153099001Y-78060000D03*
D12*
X158245200Y-96111400D03*
X126840000Y-103000000D03*
X124800000Y-128400000D03*
X127770000Y-123890000D03*
X159424900Y-82707800D03*
%TO.N,P0.17_COL_2*%
X140700000Y-117500000D03*
X141400000Y-124300000D03*
X133860000Y-107800000D03*
X134000000Y-103400000D03*
X140700000Y-133500000D03*
X140800000Y-141900000D03*
D14*
X152350000Y-78560000D03*
D12*
X143300900Y-121214000D03*
X133860000Y-117848600D03*
X144000000Y-87200000D03*
D14*
%TO.N,/P0.07_DSP_D{slash}C*%
X149849000Y-75310000D03*
D12*
X140300000Y-63200000D03*
%TO.N,/P0.08_DSP_SCK*%
X141000000Y-68500000D03*
D14*
X148680000Y-76170000D03*
%TD*%
D18*
%TO.N,/P1.13_LORA_SCK*%
X152700000Y-69099999D02*
X153300000Y-69700000D01*
X153400000Y-65200000D02*
X153400000Y-67199999D01*
X152700000Y-67900000D02*
X152700000Y-69099999D01*
X153300000Y-69700000D02*
X153300000Y-71900000D01*
X153400000Y-67199999D02*
X152700000Y-67900000D01*
D19*
%TO.N,/P1.14_LORA_MOSI*%
X152900000Y-70800000D02*
X152300000Y-70200000D01*
X152500000Y-64400000D02*
X152300000Y-64200000D01*
X152300000Y-62400000D02*
X152500000Y-62200000D01*
X152300000Y-70200000D02*
X152300000Y-66400000D01*
X152900000Y-72200000D02*
X152900000Y-70800000D01*
X152300000Y-64200000D02*
X152300000Y-62400000D01*
X152300000Y-66400000D02*
X152500000Y-66200000D01*
X152500000Y-62200000D02*
X152500000Y-53600000D01*
X153100000Y-72400000D02*
X152900000Y-72200000D01*
X152500000Y-66200000D02*
X152500000Y-64400000D01*
D18*
%TO.N,/SWDIO*%
X155800000Y-82600000D02*
X153099999Y-82600000D01*
X155850000Y-78060000D02*
X155900000Y-78200000D01*
X153099999Y-82600000D02*
X150200000Y-79700000D01*
X156100000Y-82300000D02*
X155800000Y-82600000D01*
X150200000Y-79700000D02*
X148800000Y-79700000D01*
X156100000Y-78399999D02*
X156100000Y-82300000D01*
X155900000Y-78200000D02*
X156100000Y-78399999D01*
D19*
%TO.N,P1.03_ROW_3*%
X158900000Y-105600000D02*
X158900000Y-89100000D01*
X156500000Y-77800000D02*
X155500000Y-76800000D01*
X156500000Y-86700000D02*
X156500000Y-77800000D01*
X158900000Y-89100000D02*
X156500000Y-86700000D01*
%TO.N,/P0.07_DSP_D{slash}C*%
X148400000Y-74600000D02*
X149200000Y-75400000D01*
D18*
X146900000Y-73300000D02*
X140300000Y-66700000D01*
D19*
X147000000Y-73500000D02*
X148100000Y-74600000D01*
X149200000Y-75400000D02*
X149700000Y-75400000D01*
X148100000Y-74600000D02*
X148400000Y-74600000D01*
D18*
X147000000Y-73500000D02*
X146900000Y-73300000D01*
X140300000Y-66700000D02*
X140300000Y-63200000D01*
%TO.N,/P0.08_DSP_SCK*%
X147400000Y-75600000D02*
X147900000Y-76100000D01*
X141000000Y-74100000D02*
X141000000Y-68500000D01*
X142300000Y-75400000D02*
X141000000Y-74100000D01*
X146400000Y-75800000D02*
X146600000Y-75600000D01*
X146600000Y-75600000D02*
X147400000Y-75600000D01*
X147900000Y-76100000D02*
X148600000Y-76100000D01*
X142500000Y-75500000D02*
X142300000Y-75400000D01*
X142800000Y-75800000D02*
X146400000Y-75800000D01*
X142600000Y-75600000D02*
X142800000Y-75800000D01*
X142600000Y-75600000D02*
X142300000Y-75400000D01*
X142600000Y-75600000D02*
X142500000Y-75500000D01*
%TD*%
D20*
X155353184Y-55281763D03*
X155399999Y-70380000D03*
X154700000Y-68000000D03*
X135470000Y-131039999D03*
D21*
X152715176Y-79267637D03*
D20*
X134549999Y-85200000D03*
X146350000Y-49102500D03*
X155510673Y-80074999D03*
X131058578Y-78891421D03*
X123212500Y-77080000D03*
D22*
X125605000Y-61600000D03*
D20*
X133225000Y-82570000D03*
X132899999Y-87950000D03*
D21*
X155260000Y-78990000D03*
D20*
X124755000Y-79130000D03*
X124900000Y-122000000D03*
D21*
X148771081Y-71307918D03*
X149180000Y-77620000D03*
D20*
X135850000Y-62600000D03*
D21*
X157479999Y-55480001D03*
D20*
X156228205Y-87907501D03*
D21*
X155225454Y-71438254D03*
D20*
X121900000Y-62520000D03*
X121200000Y-71480000D03*
X146850000Y-49102500D03*
X133149999Y-58879999D03*
X140899999Y-96650000D03*
X132639999Y-59180000D03*
D21*
X151125001Y-58515001D03*
D20*
X146024999Y-47200000D03*
D22*
X123205000Y-62107745D03*
D20*
X127275000Y-127293255D03*
D23*
X155350000Y-78560000D03*
D20*
X128759999Y-76760000D03*
D24*
X158690000Y-80630000D03*
D20*
X122554999Y-67270000D03*
X126031720Y-61210017D03*
X131737499Y-86692499D03*
X129509999Y-76760000D03*
X134775000Y-59062500D03*
X121280000Y-66400000D03*
X148459999Y-80230000D03*
X154966813Y-55678236D03*
X154435036Y-135111813D03*
X135470000Y-130289999D03*
X146905000Y-48040000D03*
X148970000Y-70350000D03*
X131737499Y-84267499D03*
X151090000Y-71790000D03*
X149070000Y-69620000D03*
D22*
X124600000Y-122600000D03*
D20*
X124400000Y-121400000D03*
D23*
X155350000Y-73810000D03*
D20*
X160000000Y-75900000D03*
D21*
X150660000Y-64585001D03*
D20*
X122000000Y-88000000D03*
X146000000Y-112000000D03*
X146000000Y-124000000D03*
X127114000Y-96465000D03*
X152000000Y-96000000D03*
X144000000Y-82000000D03*
X154716499Y-128423762D03*
D21*
X137950000Y-53260000D03*
D20*
X148000000Y-48000000D03*
X142462000Y-85172000D03*
X159487000Y-132008999D03*
D21*
X141689726Y-55360000D03*
D20*
X122000000Y-58000000D03*
D21*
X153162000Y-43307000D03*
D20*
X130000000Y-118000000D03*
X158000000Y-108000000D03*
D21*
X123260000Y-52110000D03*
X130340000Y-54120000D03*
D20*
X140000000Y-112000000D03*
X156812000Y-105252000D03*
X124000000Y-56000000D03*
D21*
X133960000Y-60934999D03*
D20*
X126600000Y-83909000D03*
X149737000Y-71178000D03*
X126000000Y-90000000D03*
X132000000Y-118000000D03*
X146000000Y-90000000D03*
X140000000Y-68000000D03*
X132000000Y-130000000D03*
X128114000Y-98465000D03*
X128000000Y-110000000D03*
X148218000Y-127298000D03*
D23*
X151339999Y-55230000D03*
D21*
X147850000Y-53690000D03*
D20*
X133100000Y-56725000D03*
X136820000Y-76487000D03*
X138000000Y-54000000D03*
X156000000Y-92000000D03*
X124302000Y-78209000D03*
X134000000Y-98000000D03*
D21*
X140450000Y-52210000D03*
D20*
X160000000Y-74000000D03*
D21*
X130610000Y-55380000D03*
D20*
X148218000Y-129298000D03*
X158000000Y-112000000D03*
X140000000Y-108000000D03*
X146000000Y-132000000D03*
X158000000Y-64000000D03*
X134000000Y-142000000D03*
X148952000Y-106247000D03*
D23*
X153780000Y-69550000D03*
D20*
X136025000Y-65899999D03*
X156000000Y-102000000D03*
X130000000Y-108000000D03*
X142000000Y-84000000D03*
D21*
X148209000Y-44323000D03*
D20*
X135481000Y-121341000D03*
X129898000Y-116234000D03*
X158360725Y-78291763D03*
X122000000Y-114000000D03*
X130000000Y-86000000D03*
X129114000Y-97465000D03*
D21*
X143729178Y-55360000D03*
D20*
X127361421Y-63471421D03*
D21*
X147930000Y-61014997D03*
D20*
X154882000Y-72755000D03*
X126000000Y-136000000D03*
X122008000Y-83807000D03*
D21*
X139520000Y-58690000D03*
D20*
X156000000Y-50000000D03*
X138069000Y-56191000D03*
X146000000Y-62000000D03*
X146000000Y-100000000D03*
X136000000Y-70000000D03*
X134302000Y-77209000D03*
X152799999Y-75310000D03*
X155359000Y-80879999D03*
X124051000Y-83909000D03*
X138000000Y-110000000D03*
D21*
X138130000Y-57130000D03*
X144190000Y-49620000D03*
D20*
X140000000Y-138000000D03*
D21*
X145768630Y-55360000D03*
D20*
X144000000Y-106000000D03*
X130000000Y-148000000D03*
X160381950Y-80160000D03*
X157812000Y-103252000D03*
X137439000Y-131590000D03*
X140000000Y-96000000D03*
X156000000Y-110000000D03*
X134000000Y-76000000D03*
X131898000Y-116234000D03*
X156000000Y-120000000D03*
X122734554Y-70425291D03*
X122000000Y-116000000D03*
X124471000Y-127477000D03*
X160000000Y-130000000D03*
X133804999Y-68545000D03*
X160000000Y-58000000D03*
X132587867Y-84537132D03*
X156812000Y-104252000D03*
X129301999Y-78209000D03*
D21*
X146431000Y-44323000D03*
X136240000Y-53640000D03*
D20*
X152004000Y-95221000D03*
X146000000Y-108000000D03*
X130114000Y-96465000D03*
X136439000Y-129590000D03*
X131898000Y-117234000D03*
D23*
X147027540Y-76040000D03*
D20*
X152888000Y-92684000D03*
X129358518Y-56795295D03*
X122000000Y-54000000D03*
X122000000Y-124000000D03*
X146000000Y-110000000D03*
X136000000Y-122000000D03*
X133804999Y-66994999D03*
X160000000Y-56000000D03*
D21*
X153924000Y-45593000D03*
D20*
X160000000Y-52000000D03*
X130000000Y-106000000D03*
D21*
X124540000Y-52130000D03*
D20*
X124000000Y-60000000D03*
D21*
X136050000Y-56540000D03*
X141730000Y-52170000D03*
X160500000Y-79250000D03*
D20*
X136820000Y-75487000D03*
X160000000Y-54000000D03*
X124000000Y-58000000D03*
X130000000Y-90000000D03*
X149218000Y-125298000D03*
D21*
X147930000Y-61649999D03*
D20*
X129114000Y-98465000D03*
X125810000Y-85479999D03*
D21*
X122210000Y-52110000D03*
D20*
X153004000Y-96221000D03*
X134000000Y-102000000D03*
X124600000Y-71938000D03*
X159487000Y-129008999D03*
X144000000Y-116000000D03*
X158000000Y-120000000D03*
X160381950Y-81160000D03*
X140462000Y-84172000D03*
X156000000Y-112000000D03*
X134804999Y-66994999D03*
X120600000Y-75938000D03*
X147218000Y-125298000D03*
X120600000Y-76938000D03*
X128000000Y-78000000D03*
X124000000Y-108000000D03*
X126600000Y-72938000D03*
D21*
X132520000Y-56840000D03*
X153924000Y-43307000D03*
X127000000Y-52080000D03*
X146838826Y-54167456D03*
D20*
X130000000Y-92000000D03*
X158000000Y-100000000D03*
X130000000Y-62000000D03*
X142000000Y-146000000D03*
D21*
X130380000Y-52040000D03*
D20*
X156000000Y-108000000D03*
X122000000Y-130000000D03*
X158000000Y-62000000D03*
X156460000Y-56239000D03*
D21*
X150660000Y-65855000D03*
D20*
X132000000Y-112000000D03*
X153554000Y-89564000D03*
X160000000Y-64000000D03*
X144000000Y-108000000D03*
X158000000Y-102000000D03*
X134000000Y-94000000D03*
D23*
X148300000Y-81230000D03*
D20*
X122000000Y-78000000D03*
X154851000Y-89187000D03*
X144000000Y-114000000D03*
X160000000Y-88000000D03*
X124000000Y-138000000D03*
D21*
X138950000Y-52270000D03*
X142910000Y-52190000D03*
D20*
X136000000Y-118000000D03*
X137820000Y-75487000D03*
X137575000Y-67069999D03*
X132406000Y-127506000D03*
X126000000Y-94000000D03*
X140000000Y-106000000D03*
X128000000Y-112000000D03*
X156000000Y-106000000D03*
X148000000Y-66000000D03*
X128513027Y-55948554D03*
X157460000Y-57239000D03*
X150851000Y-91187000D03*
X146000000Y-86000000D03*
D23*
X150267500Y-81915000D03*
D21*
X133030000Y-52080000D03*
D20*
X151186000Y-64900999D03*
X146000000Y-84000000D03*
X160000000Y-128000000D03*
X134000000Y-100000000D03*
D21*
X133960000Y-61570003D03*
D20*
X146000000Y-116000000D03*
X124000000Y-68000000D03*
X125600000Y-71938000D03*
X138000000Y-98000000D03*
X127114000Y-95465000D03*
X122000000Y-100000000D03*
X158438050Y-76400000D03*
X154000000Y-66000000D03*
X126000000Y-74000000D03*
X132000000Y-98000000D03*
X140000000Y-110000000D03*
X136000000Y-142000000D03*
X127114000Y-97465000D03*
X152888000Y-90684000D03*
X122000000Y-110000000D03*
X138000000Y-112000000D03*
X128000000Y-92000000D03*
X125600000Y-74938000D03*
X122000000Y-104000000D03*
X124000000Y-140000000D03*
X136100000Y-58275000D03*
X130000000Y-112000000D03*
X136000000Y-100000000D03*
X140462000Y-86172000D03*
X126000000Y-148000000D03*
X146000000Y-130000000D03*
D21*
X142709452Y-55360000D03*
D20*
X131836000Y-126829000D03*
D21*
X135840000Y-52110000D03*
D20*
X122000000Y-112000000D03*
X135820000Y-75487000D03*
X153004000Y-109221000D03*
X132000000Y-90000000D03*
X128000000Y-148000000D03*
X123600000Y-72938000D03*
X136000000Y-112000000D03*
X144000000Y-94000000D03*
X144000000Y-110000000D03*
X152000000Y-46000000D03*
X129600000Y-56410000D03*
X156000000Y-148000000D03*
X134000000Y-128000000D03*
X144000000Y-86000000D03*
X160000000Y-60000000D03*
X148218000Y-126298000D03*
X158000000Y-60000000D03*
X128066008Y-57738156D03*
X136000000Y-146000000D03*
X123600000Y-77938000D03*
X136000000Y-102000000D03*
X152000000Y-98000000D03*
X156250000Y-67980000D03*
X136820000Y-74487000D03*
X138000000Y-58000000D03*
D21*
X153924000Y-44831000D03*
D20*
X126000000Y-54000000D03*
D21*
X153924000Y-44069000D03*
D20*
X124000000Y-90000000D03*
X128000000Y-96000000D03*
X130000000Y-98000000D03*
X140000000Y-114000000D03*
D22*
X158900000Y-81400000D03*
D20*
X158308961Y-74861421D03*
X157812000Y-101252000D03*
X144000000Y-44000000D03*
X122000000Y-98000000D03*
D21*
X144130000Y-52210000D03*
D20*
X142000000Y-90000000D03*
X152000000Y-66000000D03*
X122000000Y-120000000D03*
X159487000Y-133008999D03*
D21*
X137710000Y-52170000D03*
D20*
X124000000Y-128000000D03*
X146000000Y-106000000D03*
D21*
X144170000Y-50820000D03*
D20*
X136302000Y-77209000D03*
D22*
X122500000Y-81300000D03*
D20*
X124000000Y-120000000D03*
X153449999Y-55980000D03*
X126090000Y-88200000D03*
D21*
X133960000Y-60300002D03*
D20*
X147218000Y-127298000D03*
D21*
X134500000Y-52110000D03*
D24*
X142367000Y-59436000D03*
D20*
X132836000Y-126829000D03*
X146700000Y-80320000D03*
X157812000Y-105252000D03*
X139499000Y-73487000D03*
X127382139Y-57008551D03*
X121900000Y-61880000D03*
X144000000Y-58000000D03*
X142000000Y-112000000D03*
D23*
X152687540Y-69740000D03*
D20*
X131768000Y-66066999D03*
D21*
X147930000Y-60379997D03*
D20*
X152000000Y-118000000D03*
X144000000Y-88000000D03*
X124000000Y-126000000D03*
D21*
X148209000Y-46355000D03*
D20*
X152774000Y-63963000D03*
X151119166Y-82767501D03*
X142000000Y-86000000D03*
D21*
X129310000Y-52080000D03*
D20*
X122000000Y-108000000D03*
X124000000Y-130000000D03*
X136000000Y-144000000D03*
X142000000Y-114000000D03*
X136000000Y-84000000D03*
X150000000Y-44000000D03*
X148000000Y-118000000D03*
X122000000Y-102000000D03*
X135820000Y-76487000D03*
X124000000Y-54000000D03*
D21*
X144220000Y-46850000D03*
X146431000Y-46355000D03*
X130360000Y-53090000D03*
D20*
X124600000Y-72938000D03*
X152004000Y-97221000D03*
X138000000Y-94000000D03*
X131609149Y-62234834D03*
X150851000Y-90187000D03*
X159487000Y-131008999D03*
X152000000Y-146000000D03*
X156812000Y-101252000D03*
X122000000Y-94000000D03*
D21*
X155969998Y-54140001D03*
X142410000Y-57710000D03*
D20*
X122000000Y-134000000D03*
D21*
X147320000Y-46355000D03*
D20*
X147438000Y-70164000D03*
X160000000Y-68000000D03*
X152000000Y-60000000D03*
X130000000Y-100000000D03*
X148218000Y-130298000D03*
X138000000Y-72000000D03*
X128000000Y-90000000D03*
X154000000Y-90000000D03*
X140000000Y-94000000D03*
D21*
X138300000Y-58560000D03*
D20*
X132768000Y-66066999D03*
X158000000Y-52000000D03*
X132000000Y-100000000D03*
X157003000Y-102779000D03*
D21*
X147930000Y-62284996D03*
D20*
X133768000Y-66066999D03*
X124000000Y-136000000D03*
X148000000Y-116000000D03*
X148000000Y-64000000D03*
X130000000Y-110000000D03*
X132898000Y-118234000D03*
X124000000Y-94000000D03*
X136000000Y-86000000D03*
X133000000Y-84325000D03*
X150000000Y-50000000D03*
D21*
X150660000Y-63950000D03*
D20*
X126000000Y-68000000D03*
X134836000Y-126829000D03*
X124000000Y-96000000D03*
X142302000Y-77209000D03*
X153004000Y-108221000D03*
X160000000Y-84000000D03*
D21*
X144748904Y-55360000D03*
X141450000Y-58750000D03*
D20*
X136439000Y-132590000D03*
X154000000Y-148000000D03*
X124000000Y-110000000D03*
X146000000Y-92000000D03*
X138000000Y-114000000D03*
X152000000Y-148000000D03*
X147218000Y-131298000D03*
X138000000Y-144000000D03*
X138000000Y-70000000D03*
X137302000Y-77209000D03*
X134502000Y-76314000D03*
X143462000Y-89172000D03*
X134820000Y-77487000D03*
X143612451Y-143641541D03*
X142000000Y-96000000D03*
D23*
X157380000Y-80610000D03*
D20*
X126000000Y-56000000D03*
X128000000Y-144000000D03*
X136000000Y-116000000D03*
X144400000Y-80359000D03*
X158880000Y-72910000D03*
X146000000Y-118000000D03*
X135804999Y-68545000D03*
X126000000Y-58000000D03*
X122000000Y-60000000D03*
D23*
X145337540Y-75210000D03*
D20*
X136000000Y-92000000D03*
X142000000Y-94000000D03*
X152282000Y-92285000D03*
X158000000Y-104000000D03*
D21*
X133700000Y-52880000D03*
D20*
X130000000Y-56000000D03*
D21*
X137380000Y-54190000D03*
D20*
X130000000Y-114000000D03*
X156000000Y-144000000D03*
X153004000Y-110221000D03*
X135820000Y-74487000D03*
X146000000Y-126000000D03*
D21*
X133960000Y-59665002D03*
D20*
X156812000Y-102252000D03*
X156870000Y-57225000D03*
X133301999Y-77209000D03*
X136000000Y-138000000D03*
X160000000Y-70000000D03*
X152774000Y-66962999D03*
X154000000Y-64000000D03*
X132768000Y-65066999D03*
X147218000Y-126298000D03*
X146000000Y-138000000D03*
X132000000Y-102000000D03*
X126000000Y-92000000D03*
X135804999Y-66994999D03*
X134836000Y-127829000D03*
X158000000Y-110000000D03*
D21*
X152400000Y-43307000D03*
D20*
X152000000Y-44000000D03*
X137820000Y-76487000D03*
D21*
X136870000Y-52780000D03*
D20*
X122000000Y-56000000D03*
X124000000Y-106000000D03*
D21*
X125740000Y-52080000D03*
D20*
X146000000Y-88000000D03*
X133836000Y-126829000D03*
X134820000Y-75487000D03*
X136000000Y-148000000D03*
X158000000Y-114000000D03*
X137820000Y-74487000D03*
X123051000Y-82909000D03*
X137820000Y-77487000D03*
X142000000Y-56000000D03*
X158000000Y-66000000D03*
X124000000Y-92000000D03*
X136105000Y-64899999D03*
X146000000Y-102000000D03*
X129114000Y-95465000D03*
X132898000Y-117234000D03*
X160000000Y-62000000D03*
X154000000Y-136000000D03*
X122000000Y-118000000D03*
X160000000Y-72000000D03*
X135302000Y-77209000D03*
X153004000Y-111221000D03*
X154000000Y-48000000D03*
D21*
X147930000Y-62920000D03*
D20*
X138000000Y-138000000D03*
X142000000Y-108000000D03*
D21*
X144250000Y-48200000D03*
D20*
X136000000Y-72000000D03*
X128898000Y-118234000D03*
X140000000Y-72000000D03*
X128000000Y-62000000D03*
X132000000Y-96000000D03*
X134000000Y-138000000D03*
X144000000Y-112000000D03*
D21*
X139730000Y-52930000D03*
X135190000Y-52990000D03*
D20*
X133215000Y-61620000D03*
X132479998Y-75520000D03*
D21*
X136940000Y-57020000D03*
D20*
X124000000Y-62000000D03*
X150711771Y-74008888D03*
X128000000Y-108000000D03*
X134481000Y-124341000D03*
X144000000Y-102000000D03*
X144000000Y-92000000D03*
X147218000Y-130298000D03*
D21*
X137270000Y-56140000D03*
X133960000Y-59030000D03*
D20*
X158000000Y-118000000D03*
X122000000Y-92000000D03*
X156000000Y-66000000D03*
X142000000Y-106000000D03*
X142000000Y-110000000D03*
X126600000Y-74938000D03*
D21*
X153924000Y-46355000D03*
D20*
X138000000Y-68000000D03*
X144000000Y-84000000D03*
X134000000Y-96000000D03*
X126000000Y-144000000D03*
X134804999Y-68545000D03*
X134000000Y-148000000D03*
X134481000Y-123341000D03*
X138000000Y-108000000D03*
X129898000Y-117234000D03*
X136820000Y-77487000D03*
X142000000Y-92000000D03*
X131768000Y-67066999D03*
X150000000Y-52000000D03*
X135820000Y-77487000D03*
X138000000Y-96000000D03*
X154812000Y-99252000D03*
X137575000Y-58780000D03*
D23*
X126320000Y-77400000D03*
D21*
X156169999Y-56860002D03*
D20*
X136000000Y-114000000D03*
X152000000Y-62000000D03*
X140462000Y-85172000D03*
D21*
X146492094Y-56083464D03*
D20*
X146000000Y-114000000D03*
X142945000Y-145033000D03*
D21*
X128120000Y-52080000D03*
X131550000Y-56120000D03*
D20*
X139069000Y-58191000D03*
X149345915Y-71659082D03*
X138439000Y-129590000D03*
X138000000Y-106000000D03*
X158000000Y-50000000D03*
X120600000Y-74938000D03*
X122000000Y-96000000D03*
X144000000Y-90000000D03*
X158000000Y-122000000D03*
X122000000Y-90000000D03*
X122000000Y-106000000D03*
X120600000Y-73938000D03*
X152000000Y-50000000D03*
X140462000Y-87172000D03*
D21*
X147320000Y-44323000D03*
D20*
X134000000Y-54000000D03*
X133820000Y-77487000D03*
X138000000Y-90000000D03*
X144000000Y-56000000D03*
X156000000Y-64000000D03*
X140000000Y-92000000D03*
X160000000Y-124000000D03*
X136701000Y-131008000D03*
X160000000Y-66000000D03*
X132000000Y-60000000D03*
X156000000Y-62000000D03*
X131100000Y-56725000D03*
X123600000Y-71938000D03*
X140000000Y-58000000D03*
X140462000Y-88172000D03*
X132449999Y-147920000D03*
X124000000Y-112000000D03*
X147218000Y-129298000D03*
X128000000Y-136000000D03*
X126647000Y-82716000D03*
X120600000Y-72938000D03*
X159753000Y-130497000D03*
D21*
X150660000Y-65219999D03*
D20*
X124000000Y-122000000D03*
X140025000Y-73688209D03*
D23*
X150527699Y-130564825D03*
D20*
X150597767Y-72559997D03*
X155849000Y-73560000D03*
X157200000Y-72500000D03*
D23*
X150600000Y-78060000D03*
D22*
X147600000Y-81000000D03*
D21*
X149820700Y-80651700D03*
X150267500Y-82956200D03*
X149059900Y-127346700D03*
X146965200Y-148944800D03*
X149584400Y-138441200D03*
X149591300Y-122627900D03*
X126993500Y-81425800D03*
X149584400Y-135236100D03*
X148303800Y-95176700D03*
X123106800Y-80138100D03*
X145740600Y-80770400D03*
D20*
X149849000Y-76310001D03*
D21*
X143510000Y-59436000D03*
D20*
X143724107Y-73685403D03*
X144140000Y-77050000D03*
X144130000Y-76240000D03*
X144120000Y-73380000D03*
X139861500Y-89721000D03*
X134633900Y-119284800D03*
X137935700Y-122405000D03*
X134633900Y-95114400D03*
X151975400Y-144052800D03*
X146747900Y-135070000D03*
X154166200Y-119540900D03*
X146747900Y-136307800D03*
X154166200Y-100340100D03*
X157916500Y-95152300D03*
X151975400Y-134937900D03*
X147726400Y-133465200D03*
X146617100Y-121240500D03*
X156413500Y-134689800D03*
X152600000Y-94100000D03*
X148500000Y-78000000D03*
X153631500Y-95147000D03*
X152599000Y-78060000D03*
X148835900Y-67630000D03*
X149803700Y-72161400D03*
X137820500Y-121776400D03*
X151598999Y-78060000D03*
X152600000Y-80400000D03*
X150583900Y-120939700D03*
X150583900Y-96284100D03*
X149500000Y-98200000D03*
X152000000Y-118800000D03*
X142900000Y-81800000D03*
X149500000Y-113200000D03*
D22*
X142400000Y-78000000D03*
X151350000Y-78560000D03*
D20*
X152560100Y-112578200D03*
X131167100Y-114323400D03*
X152558800Y-81225800D03*
X153230500Y-97079300D03*
X138324999Y-100670000D03*
X125010300Y-88347200D03*
D22*
X152350000Y-72060000D03*
D20*
X124575500Y-86504800D03*
X144444200Y-141997500D03*
X151108000Y-128467100D03*
X150955500Y-89163700D03*
X151108000Y-97729400D03*
X143910000Y-135426500D03*
X145130000Y-135433600D03*
X156936300Y-125531000D03*
X144519300Y-142675500D03*
D22*
X146100000Y-77500000D03*
X148300000Y-75100000D03*
D20*
X140700000Y-100670000D03*
X143700000Y-80400000D03*
X160500000Y-98200000D03*
X126800000Y-88200000D03*
X149845000Y-45530000D03*
X130600000Y-142100000D03*
X126200000Y-84700000D03*
X132199999Y-142100000D03*
D21*
X153516567Y-52864450D03*
D20*
X151597002Y-72532998D03*
X153349000Y-72060000D03*
X153400000Y-65200000D03*
D21*
X151390000Y-54070000D03*
X152516773Y-53451945D03*
D20*
X153099000Y-72560000D03*
D21*
X150700000Y-54740000D03*
D20*
X153599000Y-72560001D03*
D22*
X131900000Y-58600000D03*
D20*
X126600000Y-63800000D03*
X127900000Y-62900000D03*
X154608813Y-78060000D03*
D21*
X155460000Y-82070000D03*
D20*
X130871300Y-134606000D03*
X134914000Y-129731000D03*
X134124800Y-132182900D03*
X131730700Y-134751100D03*
X135866000Y-131964000D03*
X154108811Y-78060002D03*
D21*
X154750000Y-87060000D03*
D20*
X152599000Y-72560000D03*
D21*
X152954504Y-53076015D03*
D20*
X154000000Y-68200000D03*
D21*
X153950000Y-52448950D03*
D20*
X152098997Y-72560000D03*
D21*
X153520000Y-87030000D03*
D20*
X153609001Y-78073878D03*
X155971500Y-55031100D03*
X157624500Y-53923300D03*
X145800000Y-81800000D03*
X148280000Y-74100000D03*
X144800000Y-74080000D03*
X125897100Y-80022500D03*
X144800000Y-74580003D03*
X144125200Y-72179600D03*
X149849000Y-74809999D03*
X142943600Y-80498000D03*
X145800000Y-69800000D03*
X140300000Y-56810000D03*
X149350000Y-74560000D03*
D21*
X154496999Y-53490000D03*
D20*
X154510000Y-62390000D03*
X138243500Y-123168400D03*
X137485000Y-87868300D03*
X137298100Y-124724300D03*
X138121600Y-78923100D03*
X138755000Y-85949400D03*
X130070600Y-77029300D03*
D21*
X127917200Y-76353500D03*
X129030000Y-74954500D03*
D20*
X124900000Y-76700000D03*
X141394800Y-130030200D03*
X144067300Y-134498700D03*
X136850000Y-73647300D03*
X131201300Y-71833400D03*
X145500000Y-49500000D03*
X144800000Y-49200000D03*
X157293800Y-94482200D03*
X152122100Y-100026700D03*
X157435300Y-84777000D03*
X150902500Y-146659100D03*
X145033200Y-82182900D03*
X152548100Y-99227900D03*
X157013000Y-76506200D03*
X123530000Y-76235500D03*
X148262100Y-79307500D03*
X148963900Y-94162600D03*
X150113100Y-141351400D03*
D22*
X148800000Y-79700000D03*
D20*
X150120000Y-97366500D03*
D23*
X155850000Y-78060000D03*
D20*
X124030000Y-75045900D03*
X146444100Y-78720000D03*
X128441700Y-67852400D03*
X145860700Y-78592800D03*
X128441700Y-73692900D03*
X124937100Y-65320900D03*
X122763600Y-65620900D03*
X126448600Y-61935900D03*
X122775000Y-60594300D03*
X121701300Y-63880000D03*
X122864100Y-66719300D03*
X126600000Y-62600000D03*
X149850000Y-75810000D03*
X121557300Y-69897000D03*
X151408700Y-67171000D03*
X155350000Y-75810000D03*
X141676500Y-68838100D03*
X121561400Y-68876200D03*
X155350000Y-76310000D03*
X155555001Y-139660000D03*
D21*
X157850000Y-139600000D03*
D22*
X159400000Y-128199999D03*
D20*
X156400000Y-77060000D03*
X154690000Y-118045001D03*
D21*
X159690000Y-119160000D03*
X157224500Y-134010000D03*
D20*
X156320000Y-76550000D03*
D21*
X158060000Y-134020000D03*
D20*
X121685900Y-76960200D03*
X130465100Y-129731800D03*
D21*
X125993300Y-83305500D03*
X141567500Y-82031700D03*
X122826400Y-85866100D03*
D20*
X156880000Y-106880000D03*
X155350000Y-77310000D03*
X124500000Y-79800000D03*
X127300000Y-87200000D03*
X132400000Y-85500000D03*
X128300000Y-84700000D03*
D21*
X121910200Y-82960000D03*
D20*
X158900000Y-105600000D03*
X155350000Y-76810000D03*
X156760000Y-127050000D03*
X153420000Y-126265001D03*
X146377700Y-63371400D03*
X142132900Y-74345300D03*
X150659000Y-63238200D03*
X141002700Y-75475500D03*
X153370000Y-68265700D03*
X140393600Y-81686100D03*
X127405900Y-82177800D03*
X144730200Y-71993400D03*
X148537500Y-52592400D03*
X133100000Y-60200000D03*
X127900000Y-65000000D03*
D22*
X129100000Y-63800000D03*
D20*
X145999600Y-52444400D03*
X147850000Y-52544600D03*
X131167100Y-68235500D03*
D22*
X147800000Y-78000000D03*
X149850000Y-74310000D03*
D20*
X122746200Y-71480600D03*
X150270000Y-47879900D03*
X152785093Y-104596418D03*
X152099000Y-78060000D03*
X154800000Y-112100000D03*
X153650000Y-131640000D03*
X153100000Y-112100000D03*
X154690000Y-115670000D03*
X154700000Y-107400000D03*
X153420000Y-123890000D03*
D22*
X151600000Y-103900000D03*
D20*
X153200000Y-132900000D03*
X152400000Y-98600000D03*
X153180000Y-139660000D03*
X126490000Y-115670000D03*
X127960000Y-139660000D03*
X126840000Y-99531700D03*
X153099001Y-78060000D03*
X158245200Y-96111400D03*
X126840000Y-103000000D03*
X124800000Y-128400000D03*
X127770000Y-123890000D03*
X159424900Y-82707800D03*
X140700000Y-117500000D03*
X141400000Y-124300000D03*
X133860000Y-107800000D03*
X134000000Y-103400000D03*
X140700000Y-133500000D03*
X140800000Y-141900000D03*
D22*
X152350000Y-78560000D03*
D20*
X143300900Y-121214000D03*
X133860000Y-117848600D03*
X144000000Y-87200000D03*
X149849000Y-75310000D03*
X140300000Y-63200000D03*
X141000000Y-68500000D03*
X148680000Y-76170000D03*
D24*
X154800000Y-146000000D03*
X127000000Y-146000000D03*
X157650000Y-47910000D03*
X134570000Y-64000000D03*
X159500000Y-126200000D03*
X122000000Y-126230000D03*
D25*
X150800000Y-73510000D03*
X150800000Y-74710000D03*
X150800000Y-75910000D03*
X150800000Y-77110000D03*
X152000000Y-73510000D03*
X152000000Y-74710000D03*
X152000000Y-75910000D03*
X152000000Y-77110000D03*
X153200000Y-73510000D03*
X153200000Y-74710000D03*
X153200000Y-75910000D03*
X153200000Y-77110000D03*
X154400000Y-73510000D03*
X154400000Y-74710000D03*
X154400000Y-75910000D03*
X154400000Y-77110000D03*
D24*
X123750000Y-47910000D03*
M02*
