%TF.GenerationSoftware,KiCad,Pcbnew,9.0.8+dfsg-1*%
%TF.CreationDate,2026-09-29T16:27:19+02:00*%
%TF.ProjectId,Mesh3310,4d657368-3333-4313-902e-6b696361645f,A*%
%TF.SameCoordinates,Original*%
%TF.FileFunction,Paste,Top*%
%TF.FilePolarity,Positive*%
%FSLAX46Y46*%
G04 Gerber Fmt 4.6, Leading zero omitted, Abs format (unit mm)*
G04 Created by KiCad (PCBNEW 9.0.8+dfsg-1) date 2026-09-29 16:27:19*
%MOMM*%
%LPD*%
G01*
G04 APERTURE LIST*
G04 Aperture macros list*
%AMRoundRect*
0 Rectangle with rounded corners*
0 $1 Rounding radius*
0 $2 $3 $4 $5 $6 $7 $8 $9 X,Y pos of 4 corners*
0 Add a 4 corners polygon primitive as box body*
4,1,4,$2,$3,$4,$5,$6,$7,$8,$9,$2,$3,0*
0 Add four circle primitives for the rounded corners*
1,1,$1+$1,$2,$3*
1,1,$1+$1,$4,$5*
1,1,$1+$1,$6,$7*
1,1,$1+$1,$8,$9*
0 Add four rect primitives between the rounded corners*
20,1,$1+$1,$2,$3,$4,$5,0*
20,1,$1+$1,$4,$5,$6,$7,0*
20,1,$1+$1,$6,$7,$8,$9,0*
20,1,$1+$1,$8,$9,$2,$3,0*%
%AMFreePoly0*
4,1,12,0.742426,0.642426,0.760000,0.600000,0.760000,-1.800000,0.742426,-1.842426,0.700000,-1.860000,0.657574,-1.842426,-1.742426,0.557574,-1.760000,0.600000,-1.742426,0.642426,-1.700000,0.660000,0.700000,0.660000,0.742426,0.642426,0.742426,0.642426,$1*%
G04 Aperture macros list end*
%ADD10C,0.050000*%
%ADD11C,0.010000*%
%ADD12RoundRect,0.079500X0.079500X0.100500X-0.079500X0.100500X-0.079500X-0.100500X0.079500X-0.100500X0*%
%ADD13RoundRect,0.079500X-0.100500X0.079500X-0.100500X-0.079500X0.100500X-0.079500X0.100500X0.079500X0*%
%ADD14RoundRect,0.079500X0.100500X-0.079500X0.100500X0.079500X-0.100500X0.079500X-0.100500X-0.079500X0*%
%ADD15RoundRect,0.112500X0.187500X0.112500X-0.187500X0.112500X-0.187500X-0.112500X0.187500X-0.112500X0*%
%ADD16RoundRect,0.079500X-0.079500X-0.100500X0.079500X-0.100500X0.079500X0.100500X-0.079500X0.100500X0*%
%ADD17R,1.250000X1.080000*%
%ADD18RoundRect,0.140000X-0.140000X-0.170000X0.140000X-0.170000X0.140000X0.170000X-0.140000X0.170000X0*%
%ADD19RoundRect,0.140000X0.170000X-0.140000X0.170000X0.140000X-0.170000X0.140000X-0.170000X-0.140000X0*%
%ADD20R,0.900000X0.800000*%
%ADD21R,1.800000X1.000000*%
%ADD22RoundRect,0.040000X-0.040000X-0.605000X0.040000X-0.605000X0.040000X0.605000X-0.040000X0.605000X0*%
%ADD23RoundRect,0.062500X-0.387500X-0.062500X0.387500X-0.062500X0.387500X0.062500X-0.387500X0.062500X0*%
%ADD24RoundRect,0.150000X-0.512500X-0.150000X0.512500X-0.150000X0.512500X0.150000X-0.512500X0.150000X0*%
%ADD25RoundRect,0.225000X0.250000X-0.225000X0.250000X0.225000X-0.250000X0.225000X-0.250000X-0.225000X0*%
%ADD26RoundRect,0.225000X-0.250000X0.225000X-0.250000X-0.225000X0.250000X-0.225000X0.250000X0.225000X0*%
%ADD27RoundRect,0.112500X-0.187500X-0.112500X0.187500X-0.112500X0.187500X0.112500X-0.187500X0.112500X0*%
%ADD28RoundRect,0.218750X-0.218750X-0.256250X0.218750X-0.256250X0.218750X0.256250X-0.218750X0.256250X0*%
%ADD29RoundRect,0.150000X-0.150000X0.587500X-0.150000X-0.587500X0.150000X-0.587500X0.150000X0.587500X0*%
%ADD30RoundRect,0.300000X0.700000X-1.200000X0.700000X1.200000X-0.700000X1.200000X-0.700000X-1.200000X0*%
%ADD31RoundRect,0.330000X0.770000X-0.920000X0.770000X0.920000X-0.770000X0.920000X-0.770000X-0.920000X0*%
%ADD32RoundRect,0.300000X0.700000X-1.100000X0.700000X1.100000X-0.700000X1.100000X-0.700000X-1.100000X0*%
%ADD33RoundRect,0.140000X-0.170000X0.140000X-0.170000X-0.140000X0.170000X-0.140000X0.170000X0.140000X0*%
%ADD34R,0.440000X1.040000*%
%ADD35R,1.050000X1.000000*%
%ADD36R,2.200000X1.050000*%
%ADD37RoundRect,0.250000X-0.250000X-0.475000X0.250000X-0.475000X0.250000X0.475000X-0.250000X0.475000X0*%
%ADD38RoundRect,0.120000X-0.285000X0.120000X-0.285000X-0.120000X0.285000X-0.120000X0.285000X0.120000X0*%
%ADD39RoundRect,0.062500X-0.062500X0.350000X-0.062500X-0.350000X0.062500X-0.350000X0.062500X0.350000X0*%
%ADD40RoundRect,0.250000X-0.375000X-1.075000X0.375000X-1.075000X0.375000X1.075000X-0.375000X1.075000X0*%
%ADD41RoundRect,0.250000X0.525000X0.250000X-0.525000X0.250000X-0.525000X-0.250000X0.525000X-0.250000X0*%
%ADD42FreePoly0,0.000000*%
%ADD43R,4.100000X1.700000*%
%ADD44RoundRect,0.150000X0.587500X0.150000X-0.587500X0.150000X-0.587500X-0.150000X0.587500X-0.150000X0*%
%ADD45RoundRect,0.125000X0.125000X0.125000X-0.125000X0.125000X-0.125000X-0.125000X0.125000X-0.125000X0*%
%ADD46RoundRect,0.062500X0.350000X0.062500X-0.350000X0.062500X-0.350000X-0.062500X0.350000X-0.062500X0*%
%ADD47RoundRect,0.062500X0.062500X0.350000X-0.062500X0.350000X-0.062500X-0.350000X0.062500X-0.350000X0*%
%ADD48RoundRect,0.225000X-0.225000X-0.250000X0.225000X-0.250000X0.225000X0.250000X-0.225000X0.250000X0*%
%ADD49RoundRect,0.112500X0.112500X-0.187500X0.112500X0.187500X-0.112500X0.187500X-0.112500X-0.187500X0*%
%ADD50R,1.000000X1.050000*%
%ADD51R,1.050000X2.200000*%
%ADD52RoundRect,0.218750X0.256250X-0.218750X0.256250X0.218750X-0.256250X0.218750X-0.256250X-0.218750X0*%
%ADD53R,0.510000X0.710000*%
%ADD54RoundRect,0.160000X0.160000X-0.160000X0.160000X0.160000X-0.160000X0.160000X-0.160000X-0.160000X0*%
%ADD55RoundRect,0.062500X0.062500X-0.375000X0.062500X0.375000X-0.062500X0.375000X-0.062500X-0.375000X0*%
%ADD56RoundRect,0.062500X0.375000X-0.062500X0.375000X0.062500X-0.375000X0.062500X-0.375000X-0.062500X0*%
%ADD57R,0.900000X0.350000*%
%ADD58RoundRect,0.150000X-0.587500X-0.150000X0.587500X-0.150000X0.587500X0.150000X-0.587500X0.150000X0*%
%ADD59RoundRect,0.250000X0.275000X0.250000X-0.275000X0.250000X-0.275000X-0.250000X0.275000X-0.250000X0*%
%ADD60RoundRect,0.250000X0.850000X0.275000X-0.850000X0.275000X-0.850000X-0.275000X0.850000X-0.275000X0*%
%ADD61RoundRect,0.093750X-0.093750X0.156250X-0.093750X-0.156250X0.093750X-0.156250X0.093750X0.156250X0*%
%ADD62RoundRect,0.075000X-0.075000X0.250000X-0.075000X-0.250000X0.075000X-0.250000X0.075000X0.250000X0*%
%ADD63C,0.475000*%
%ADD64R,0.600000X1.500000*%
%ADD65R,0.280000X0.660000*%
%ADD66R,0.660000X0.280000*%
%ADD67R,2.550000X2.550000*%
%ADD68RoundRect,0.250000X0.250000X-0.275000X0.250000X0.275000X-0.250000X0.275000X-0.250000X-0.275000X0*%
%ADD69RoundRect,0.250000X0.275000X-0.850000X0.275000X0.850000X-0.275000X0.850000X-0.275000X-0.850000X0*%
%ADD70R,2.000000X1.250000*%
%ADD71C,0.350000*%
%ADD72C,0.305000*%
G04 APERTURE END LIST*
D10*
%TO.C,U8*%
X131220000Y-59420000D02*
X131220000Y-58940000D01*
X131220000Y-61460000D02*
X131220000Y-60980000D01*
X131270000Y-58890000D02*
X131460000Y-58890000D01*
X131270000Y-60600000D02*
X131270000Y-59810000D01*
X131270000Y-60930000D02*
X131460000Y-60930000D01*
X131330000Y-59750000D02*
X131760000Y-59750000D01*
X131460000Y-59470000D02*
X131270000Y-59470000D01*
X131460000Y-61510000D02*
X131270000Y-61510000D01*
X131510000Y-58940000D02*
X131510000Y-59420000D01*
X131510000Y-60980000D02*
X131510000Y-61460000D01*
X131760000Y-59420000D02*
X131760000Y-58940000D01*
X131760000Y-60650000D02*
X131320000Y-60650000D01*
X131760000Y-61460000D02*
X131760000Y-60980000D01*
X131810000Y-58890000D02*
X132000000Y-58890000D01*
X131810000Y-59800000D02*
X131810000Y-60600000D01*
X131810000Y-60930000D02*
X132000000Y-60930000D01*
X131990000Y-60600000D02*
X131990000Y-59810000D01*
X132000000Y-59470000D02*
X131810000Y-59470000D01*
X132000000Y-61510000D02*
X131810000Y-61510000D01*
X132050000Y-58940000D02*
X132050000Y-59420000D01*
X132050000Y-59750000D02*
X132480000Y-59750000D01*
X132050000Y-60980000D02*
X132050000Y-61460000D01*
X132300000Y-59420000D02*
X132300000Y-58940000D01*
X132300000Y-61460000D02*
X132300000Y-60980000D01*
X132350000Y-58890000D02*
X132540000Y-58890000D01*
X132350000Y-60930000D02*
X132540000Y-60930000D01*
X132480000Y-60650000D02*
X132040000Y-60650000D01*
X132530000Y-59800000D02*
X132530000Y-60600000D01*
X132540000Y-59470000D02*
X132350000Y-59470000D01*
X132540000Y-61510000D02*
X132350000Y-61510000D01*
X132590000Y-58940000D02*
X132590000Y-59420000D01*
X132590000Y-60980000D02*
X132590000Y-61460000D01*
X131220000Y-58940000D02*
G75*
G02*
X131270000Y-58890000I50000J0D01*
G01*
X131220000Y-60980000D02*
G75*
G02*
X131270000Y-60930000I50000J0D01*
G01*
X131270000Y-59470000D02*
G75*
G02*
X131220000Y-59420000I0J50000D01*
G01*
X131270000Y-59810000D02*
G75*
G02*
X131330000Y-59750000I60000J0D01*
G01*
X131270000Y-61510000D02*
G75*
G02*
X131220000Y-61460000I0J50000D01*
G01*
X131320000Y-60650000D02*
G75*
G02*
X131270000Y-60600000I0J50000D01*
G01*
X131460000Y-58890000D02*
G75*
G02*
X131510000Y-58940000I0J-50000D01*
G01*
X131460000Y-60930000D02*
G75*
G02*
X131510000Y-60980000I0J-50000D01*
G01*
X131510000Y-59420000D02*
G75*
G02*
X131460000Y-59470000I-50000J0D01*
G01*
X131510000Y-61460000D02*
G75*
G02*
X131460000Y-61510000I-50000J0D01*
G01*
X131760000Y-58940000D02*
G75*
G02*
X131810000Y-58890000I50000J0D01*
G01*
X131760000Y-59750000D02*
G75*
G02*
X131810000Y-59800000I0J-50000D01*
G01*
X131760000Y-60980000D02*
G75*
G02*
X131810000Y-60930000I50000J0D01*
G01*
X131810000Y-59470000D02*
G75*
G02*
X131760000Y-59420000I0J50000D01*
G01*
X131810000Y-60600000D02*
G75*
G02*
X131760000Y-60650000I-50000J0D01*
G01*
X131810000Y-61510000D02*
G75*
G02*
X131760000Y-61460000I0J50000D01*
G01*
X131990000Y-59810000D02*
G75*
G02*
X132050000Y-59750000I60001J-1D01*
G01*
X132000000Y-58890000D02*
G75*
G02*
X132050000Y-58940000I-1J-50001D01*
G01*
X132000000Y-60930000D02*
G75*
G02*
X132050000Y-60980000I-1J-50001D01*
G01*
X132040000Y-60650000D02*
G75*
G02*
X131990000Y-60600000I1J50001D01*
G01*
X132050000Y-59420000D02*
G75*
G02*
X132000000Y-59470000I-50001J1D01*
G01*
X132050000Y-61460000D02*
G75*
G02*
X132000000Y-61510000I-50001J1D01*
G01*
X132300000Y-58940000D02*
G75*
G02*
X132350000Y-58890000I50001J-1D01*
G01*
X132300000Y-60980000D02*
G75*
G02*
X132350000Y-60930000I50001J-1D01*
G01*
X132350000Y-59470000D02*
G75*
G02*
X132300000Y-59420000I1J50001D01*
G01*
X132350000Y-61510000D02*
G75*
G02*
X132300000Y-61460000I1J50001D01*
G01*
X132480000Y-59750000D02*
G75*
G02*
X132530000Y-59800000I-1J-50001D01*
G01*
X132530000Y-60600000D02*
G75*
G02*
X132480000Y-60650000I-50001J1D01*
G01*
X132540000Y-58890000D02*
G75*
G02*
X132590000Y-58940000I-1J-50001D01*
G01*
X132540000Y-60930000D02*
G75*
G02*
X132590000Y-60980000I-1J-50001D01*
G01*
X132590000Y-59420000D02*
G75*
G02*
X132540000Y-59470000I-50001J1D01*
G01*
X132590000Y-61460000D02*
G75*
G02*
X132540000Y-61510000I-50001J1D01*
G01*
D11*
X131500000Y-59460000D02*
X131220000Y-59460000D01*
X131220000Y-58900000D01*
X131500000Y-58900000D01*
X131500000Y-59460000D01*
G36*
X131500000Y-59460000D02*
G01*
X131220000Y-59460000D01*
X131220000Y-58900000D01*
X131500000Y-58900000D01*
X131500000Y-59460000D01*
G37*
X131500000Y-61500000D02*
X131220000Y-61500000D01*
X131220000Y-60940000D01*
X131500000Y-60940000D01*
X131500000Y-61500000D01*
G36*
X131500000Y-61500000D02*
G01*
X131220000Y-61500000D01*
X131220000Y-60940000D01*
X131500000Y-60940000D01*
X131500000Y-61500000D01*
G37*
X131800000Y-60640000D02*
X131280000Y-60640000D01*
X131280000Y-59750000D01*
X131800000Y-59750000D01*
X131800000Y-60640000D01*
G36*
X131800000Y-60640000D02*
G01*
X131280000Y-60640000D01*
X131280000Y-59750000D01*
X131800000Y-59750000D01*
X131800000Y-60640000D01*
G37*
X132040000Y-59460000D02*
X131760000Y-59460000D01*
X131760000Y-58900000D01*
X132040000Y-58900000D01*
X132040000Y-59460000D01*
G36*
X132040000Y-59460000D02*
G01*
X131760000Y-59460000D01*
X131760000Y-58900000D01*
X132040000Y-58900000D01*
X132040000Y-59460000D01*
G37*
X132040000Y-61500000D02*
X131760000Y-61500000D01*
X131760000Y-60940000D01*
X132040000Y-60940000D01*
X132040000Y-61500000D01*
G36*
X132040000Y-61500000D02*
G01*
X131760000Y-61500000D01*
X131760000Y-60940000D01*
X132040000Y-60940000D01*
X132040000Y-61500000D01*
G37*
X132520000Y-60640000D02*
X132000000Y-60640000D01*
X132000000Y-59750000D01*
X132520000Y-59750000D01*
X132520000Y-60640000D01*
G36*
X132520000Y-60640000D02*
G01*
X132000000Y-60640000D01*
X132000000Y-59750000D01*
X132520000Y-59750000D01*
X132520000Y-60640000D01*
G37*
X132580000Y-59460000D02*
X132300000Y-59460000D01*
X132300000Y-58900000D01*
X132580000Y-58900000D01*
X132580000Y-59460000D01*
G36*
X132580000Y-59460000D02*
G01*
X132300000Y-59460000D01*
X132300000Y-58900000D01*
X132580000Y-58900000D01*
X132580000Y-59460000D01*
G37*
X132580000Y-61500000D02*
X132300000Y-61500000D01*
X132300000Y-60940000D01*
X132580000Y-60940000D01*
X132580000Y-61500000D01*
G36*
X132580000Y-61500000D02*
G01*
X132300000Y-61500000D01*
X132300000Y-60940000D01*
X132580000Y-60940000D01*
X132580000Y-61500000D01*
G37*
%TO.C,U4*%
X155414909Y-86037671D02*
X152885091Y-86037671D01*
X152885091Y-83887331D01*
X155414909Y-83887331D01*
X155414909Y-86037671D01*
G36*
X155414909Y-86037671D02*
G01*
X152885091Y-86037671D01*
X152885091Y-83887331D01*
X155414909Y-83887331D01*
X155414909Y-86037671D01*
G37*
%TO.C,U6*%
X137940000Y-75858209D02*
X136670000Y-75858209D01*
X136670000Y-74538209D01*
X137940000Y-74538209D01*
X137940000Y-75858209D01*
G36*
X137940000Y-75858209D02*
G01*
X136670000Y-75858209D01*
X136670000Y-74538209D01*
X137940000Y-74538209D01*
X137940000Y-75858209D01*
G37*
X137940000Y-77538209D02*
X136670000Y-77538209D01*
X136670000Y-76218209D01*
X137940000Y-76218209D01*
X137940000Y-77538209D01*
G36*
X137940000Y-77538209D02*
G01*
X136670000Y-77538209D01*
X136670000Y-76218209D01*
X137940000Y-76218209D01*
X137940000Y-77538209D01*
G37*
X139570000Y-75858209D02*
X138300000Y-75858209D01*
X138300000Y-74538209D01*
X139570000Y-74538209D01*
X139570000Y-75858209D01*
G36*
X139570000Y-75858209D02*
G01*
X138300000Y-75858209D01*
X138300000Y-74538209D01*
X139570000Y-74538209D01*
X139570000Y-75858209D01*
G37*
X139570000Y-77538209D02*
X138300000Y-77538209D01*
X138300000Y-76218209D01*
X139570000Y-76218209D01*
X139570000Y-77538209D01*
G36*
X139570000Y-77538209D02*
G01*
X138300000Y-77538209D01*
X138300000Y-76218209D01*
X139570000Y-76218209D01*
X139570000Y-77538209D01*
G37*
%TO.C,U12*%
X122379999Y-65395000D02*
X121929999Y-65395000D01*
X121929999Y-65145000D01*
X122379999Y-65145000D01*
X122379999Y-65395000D01*
G36*
X122379999Y-65395000D02*
G01*
X121929999Y-65395000D01*
X121929999Y-65145000D01*
X122379999Y-65145000D01*
X122379999Y-65395000D01*
G37*
X122379999Y-65895000D02*
X121929999Y-65895000D01*
X121929999Y-65645000D01*
X122379999Y-65645000D01*
X122379999Y-65895000D01*
G36*
X122379999Y-65895000D02*
G01*
X121929999Y-65895000D01*
X121929999Y-65645000D01*
X122379999Y-65645000D01*
X122379999Y-65895000D01*
G37*
X122379999Y-66395000D02*
X121929999Y-66395000D01*
X121929999Y-66145000D01*
X122379999Y-66145000D01*
X122379999Y-66395000D01*
G36*
X122379999Y-66395000D02*
G01*
X121929999Y-66395000D01*
X121929999Y-66145000D01*
X122379999Y-66145000D01*
X122379999Y-66395000D01*
G37*
X122379999Y-66895000D02*
X121929999Y-66895000D01*
X121929999Y-66645000D01*
X122379999Y-66645000D01*
X122379999Y-66895000D01*
G36*
X122379999Y-66895000D02*
G01*
X121929999Y-66895000D01*
X121929999Y-66645000D01*
X122379999Y-66645000D01*
X122379999Y-66895000D01*
G37*
X122379999Y-67395000D02*
X121929999Y-67395000D01*
X121929999Y-67145000D01*
X122379999Y-67145000D01*
X122379999Y-67395000D01*
G36*
X122379999Y-67395000D02*
G01*
X121929999Y-67395000D01*
X121929999Y-67145000D01*
X122379999Y-67145000D01*
X122379999Y-67395000D01*
G37*
X122379999Y-67895000D02*
X121929999Y-67895000D01*
X121929999Y-67645000D01*
X122379999Y-67645000D01*
X122379999Y-67895000D01*
G36*
X122379999Y-67895000D02*
G01*
X121929999Y-67895000D01*
X121929999Y-67645000D01*
X122379999Y-67645000D01*
X122379999Y-67895000D01*
G37*
X122379999Y-68395000D02*
X121929999Y-68395000D01*
X121929999Y-68145000D01*
X122379999Y-68145000D01*
X122379999Y-68395000D01*
G36*
X122379999Y-68395000D02*
G01*
X121929999Y-68395000D01*
X121929999Y-68145000D01*
X122379999Y-68145000D01*
X122379999Y-68395000D01*
G37*
X122379999Y-68895000D02*
X121929999Y-68895000D01*
X121929999Y-68645000D01*
X122379999Y-68645000D01*
X122379999Y-68895000D01*
G36*
X122379999Y-68895000D02*
G01*
X121929999Y-68895000D01*
X121929999Y-68645000D01*
X122379999Y-68645000D01*
X122379999Y-68895000D01*
G37*
X122379999Y-69395000D02*
X121929999Y-69395000D01*
X121929999Y-69145000D01*
X122379999Y-69145000D01*
X122379999Y-69395000D01*
G36*
X122379999Y-69395000D02*
G01*
X121929999Y-69395000D01*
X121929999Y-69145000D01*
X122379999Y-69145000D01*
X122379999Y-69395000D01*
G37*
X122379999Y-69895000D02*
X121929999Y-69895000D01*
X121929999Y-69645000D01*
X122379999Y-69645000D01*
X122379999Y-69895000D01*
G36*
X122379999Y-69895000D02*
G01*
X121929999Y-69895000D01*
X121929999Y-69645000D01*
X122379999Y-69645000D01*
X122379999Y-69895000D01*
G37*
X122379999Y-70395000D02*
X121929999Y-70395000D01*
X121929999Y-70145000D01*
X122379999Y-70145000D01*
X122379999Y-70395000D01*
G36*
X122379999Y-70395000D02*
G01*
X121929999Y-70395000D01*
X121929999Y-70145000D01*
X122379999Y-70145000D01*
X122379999Y-70395000D01*
G37*
X122379999Y-70895000D02*
X121929999Y-70895000D01*
X121929999Y-70645000D01*
X122379999Y-70645000D01*
X122379999Y-70895000D01*
G36*
X122379999Y-70895000D02*
G01*
X121929999Y-70895000D01*
X121929999Y-70645000D01*
X122379999Y-70645000D01*
X122379999Y-70895000D01*
G37*
X122379999Y-71395000D02*
X121929999Y-71395000D01*
X121929999Y-71145000D01*
X122379999Y-71145000D01*
X122379999Y-71395000D01*
G36*
X122379999Y-71395000D02*
G01*
X121929999Y-71395000D01*
X121929999Y-71145000D01*
X122379999Y-71145000D01*
X122379999Y-71395000D01*
G37*
X122379999Y-71895000D02*
X121929999Y-71895000D01*
X121929999Y-71645000D01*
X122379999Y-71645000D01*
X122379999Y-71895000D01*
G36*
X122379999Y-71895000D02*
G01*
X121929999Y-71895000D01*
X121929999Y-71645000D01*
X122379999Y-71645000D01*
X122379999Y-71895000D01*
G37*
X122379999Y-72395000D02*
X121929999Y-72395000D01*
X121929999Y-72145000D01*
X122379999Y-72145000D01*
X122379999Y-72395000D01*
G36*
X122379999Y-72395000D02*
G01*
X121929999Y-72395000D01*
X121929999Y-72145000D01*
X122379999Y-72145000D01*
X122379999Y-72395000D01*
G37*
X122379999Y-72895000D02*
X121929999Y-72895000D01*
X121929999Y-72645000D01*
X122379999Y-72645000D01*
X122379999Y-72895000D01*
G36*
X122379999Y-72895000D02*
G01*
X121929999Y-72895000D01*
X121929999Y-72645000D01*
X122379999Y-72645000D01*
X122379999Y-72895000D01*
G37*
X122379999Y-73395000D02*
X121929999Y-73395000D01*
X121929999Y-73145000D01*
X122379999Y-73145000D01*
X122379999Y-73395000D01*
G36*
X122379999Y-73395000D02*
G01*
X121929999Y-73395000D01*
X121929999Y-73145000D01*
X122379999Y-73145000D01*
X122379999Y-73395000D01*
G37*
X122379999Y-73895000D02*
X121929999Y-73895000D01*
X121929999Y-73645000D01*
X122379999Y-73645000D01*
X122379999Y-73895000D01*
G36*
X122379999Y-73895000D02*
G01*
X121929999Y-73895000D01*
X121929999Y-73645000D01*
X122379999Y-73645000D01*
X122379999Y-73895000D01*
G37*
X122379999Y-74395000D02*
X121929999Y-74395000D01*
X121929999Y-74145000D01*
X122379999Y-74145000D01*
X122379999Y-74395000D01*
G36*
X122379999Y-74395000D02*
G01*
X121929999Y-74395000D01*
X121929999Y-74145000D01*
X122379999Y-74145000D01*
X122379999Y-74395000D01*
G37*
X122379999Y-74895000D02*
X121929999Y-74895000D01*
X121929999Y-74645000D01*
X122379999Y-74645000D01*
X122379999Y-74895000D01*
G36*
X122379999Y-74895000D02*
G01*
X121929999Y-74895000D01*
X121929999Y-74645000D01*
X122379999Y-74645000D01*
X122379999Y-74895000D01*
G37*
X122584999Y-64825000D02*
X121974999Y-64825000D01*
X121974999Y-64215001D01*
X122584999Y-64215000D01*
X122584999Y-64825000D01*
G36*
X122584999Y-64825000D02*
G01*
X121974999Y-64825000D01*
X121974999Y-64215001D01*
X122584999Y-64215000D01*
X122584999Y-64825000D01*
G37*
X124579999Y-70695000D02*
X122829999Y-70695000D01*
X122829999Y-69345000D01*
X124579999Y-69345000D01*
X124579999Y-70695000D01*
G36*
X124579999Y-70695000D02*
G01*
X122829999Y-70695000D01*
X122829999Y-69345000D01*
X124579999Y-69345000D01*
X124579999Y-70695000D01*
G37*
X123154999Y-64620000D02*
X122904999Y-64620000D01*
X122904999Y-64170000D01*
X123154999Y-64170000D01*
X123154999Y-64620000D01*
G36*
X123154999Y-64620000D02*
G01*
X122904999Y-64620000D01*
X122904999Y-64170000D01*
X123154999Y-64170000D01*
X123154999Y-64620000D01*
G37*
X123154999Y-75870000D02*
X122904999Y-75870000D01*
X122904999Y-75420000D01*
X123154999Y-75420000D01*
X123154999Y-75870000D01*
G36*
X123154999Y-75870000D02*
G01*
X122904999Y-75870000D01*
X122904999Y-75420000D01*
X123154999Y-75420000D01*
X123154999Y-75870000D01*
G37*
X123654999Y-64619999D02*
X123404999Y-64620000D01*
X123404999Y-64170000D01*
X123654999Y-64170000D01*
X123654999Y-64619999D01*
G36*
X123654999Y-64619999D02*
G01*
X123404999Y-64620000D01*
X123404999Y-64170000D01*
X123654999Y-64170000D01*
X123654999Y-64619999D01*
G37*
X123654999Y-75420001D02*
X123654999Y-75870000D01*
X123404999Y-75870000D01*
X123404999Y-75420000D01*
X123654999Y-75420001D01*
G36*
X123654999Y-75420001D02*
G01*
X123654999Y-75870000D01*
X123404999Y-75870000D01*
X123404999Y-75420000D01*
X123654999Y-75420001D01*
G37*
X125124999Y-67865000D02*
X123734999Y-67864999D01*
X123734999Y-66475000D01*
X125124998Y-66475000D01*
X125124999Y-67865000D01*
G36*
X125124999Y-67865000D02*
G01*
X123734999Y-67864999D01*
X123734999Y-66475000D01*
X125124998Y-66475000D01*
X125124999Y-67865000D01*
G37*
X125124998Y-73565000D02*
X123734999Y-73565000D01*
X123734999Y-72175001D01*
X125124999Y-72175000D01*
X125124998Y-73565000D01*
G36*
X125124998Y-73565000D02*
G01*
X123734999Y-73565000D01*
X123734999Y-72175001D01*
X125124999Y-72175000D01*
X125124998Y-73565000D01*
G37*
X124009999Y-66050000D02*
X123749999Y-66050000D01*
X123749999Y-65790000D01*
X124009999Y-65790000D01*
X124009999Y-66050000D01*
G36*
X124009999Y-66050000D02*
G01*
X123749999Y-66050000D01*
X123749999Y-65790000D01*
X124009999Y-65790000D01*
X124009999Y-66050000D01*
G37*
X124009999Y-74250000D02*
X123749999Y-74250000D01*
X123749999Y-73990000D01*
X124009999Y-73990000D01*
X124009999Y-74250000D01*
G36*
X124009999Y-74250000D02*
G01*
X123749999Y-74250000D01*
X123749999Y-73990000D01*
X124009999Y-73990000D01*
X124009999Y-74250000D01*
G37*
X124154999Y-64620000D02*
X123904999Y-64620000D01*
X123904999Y-64170000D01*
X124154999Y-64170000D01*
X124154999Y-64620000D01*
G36*
X124154999Y-64620000D02*
G01*
X123904999Y-64620000D01*
X123904999Y-64170000D01*
X124154999Y-64170000D01*
X124154999Y-64620000D01*
G37*
X124154999Y-75870000D02*
X123904999Y-75870000D01*
X123904999Y-75420000D01*
X124154999Y-75420000D01*
X124154999Y-75870000D01*
G36*
X124154999Y-75870000D02*
G01*
X123904999Y-75870000D01*
X123904999Y-75420000D01*
X124154999Y-75420000D01*
X124154999Y-75870000D01*
G37*
X124559999Y-66050001D02*
X124299999Y-66050000D01*
X124299999Y-65790000D01*
X124559999Y-65790000D01*
X124559999Y-66050001D01*
G36*
X124559999Y-66050001D02*
G01*
X124299999Y-66050000D01*
X124299999Y-65790000D01*
X124559999Y-65790000D01*
X124559999Y-66050001D01*
G37*
X124559999Y-74250000D02*
X124299999Y-74250000D01*
X124299999Y-73990000D01*
X124559999Y-73989999D01*
X124559999Y-74250000D01*
G36*
X124559999Y-74250000D02*
G01*
X124299999Y-74250000D01*
X124299999Y-73990000D01*
X124559999Y-73989999D01*
X124559999Y-74250000D01*
G37*
X124654999Y-64620000D02*
X124404999Y-64619999D01*
X124404999Y-64170000D01*
X124654999Y-64170000D01*
X124654999Y-64620000D01*
G36*
X124654999Y-64620000D02*
G01*
X124404999Y-64619999D01*
X124404999Y-64170000D01*
X124654999Y-64170000D01*
X124654999Y-64620000D01*
G37*
X124654999Y-75870000D02*
X124404999Y-75870000D01*
X124404999Y-75420001D01*
X124654999Y-75420000D01*
X124654999Y-75870000D01*
G36*
X124654999Y-75870000D02*
G01*
X124404999Y-75870000D01*
X124404999Y-75420001D01*
X124654999Y-75420000D01*
X124654999Y-75870000D01*
G37*
X125109999Y-66050000D02*
X124849999Y-66050001D01*
X124849999Y-65790000D01*
X125109999Y-65790000D01*
X125109999Y-66050000D01*
G36*
X125109999Y-66050000D02*
G01*
X124849999Y-66050001D01*
X124849999Y-65790000D01*
X125109999Y-65790000D01*
X125109999Y-66050000D01*
G37*
X125109999Y-73990000D02*
X125109999Y-74250000D01*
X124849999Y-74250000D01*
X124849999Y-73989999D01*
X125109999Y-73990000D01*
G36*
X125109999Y-73990000D02*
G01*
X125109999Y-74250000D01*
X124849999Y-74250000D01*
X124849999Y-73989999D01*
X125109999Y-73990000D01*
G37*
X125154999Y-64619999D02*
X124904999Y-64620000D01*
X124904999Y-64170000D01*
X125154999Y-64170000D01*
X125154999Y-64619999D01*
G36*
X125154999Y-64619999D02*
G01*
X124904999Y-64620000D01*
X124904999Y-64170000D01*
X125154999Y-64170000D01*
X125154999Y-64619999D01*
G37*
X125154999Y-75420001D02*
X125154999Y-75870000D01*
X124904999Y-75870000D01*
X124904999Y-75420000D01*
X125154999Y-75420001D01*
G36*
X125154999Y-75420001D02*
G01*
X125154999Y-75870000D01*
X124904999Y-75870000D01*
X124904999Y-75420000D01*
X125154999Y-75420001D01*
G37*
X125259999Y-69600000D02*
X124999999Y-69600000D01*
X124999999Y-69340000D01*
X125259999Y-69340000D01*
X125259999Y-69600000D01*
G36*
X125259999Y-69600000D02*
G01*
X124999999Y-69600000D01*
X124999999Y-69340000D01*
X125259999Y-69340000D01*
X125259999Y-69600000D01*
G37*
X125259999Y-70150000D02*
X124999999Y-70149999D01*
X124999999Y-69890001D01*
X125259999Y-69890000D01*
X125259999Y-70150000D01*
G36*
X125259999Y-70150000D02*
G01*
X124999999Y-70149999D01*
X124999999Y-69890001D01*
X125259999Y-69890000D01*
X125259999Y-70150000D01*
G37*
X125259999Y-70700000D02*
X124999999Y-70700000D01*
X124999999Y-70440000D01*
X125259999Y-70440000D01*
X125259999Y-70700000D01*
G36*
X125259999Y-70700000D02*
G01*
X124999999Y-70700000D01*
X124999999Y-70440000D01*
X125259999Y-70440000D01*
X125259999Y-70700000D01*
G37*
X125654999Y-64620000D02*
X125404999Y-64620000D01*
X125404999Y-64170000D01*
X125654999Y-64170000D01*
X125654999Y-64620000D01*
G36*
X125654999Y-64620000D02*
G01*
X125404999Y-64620000D01*
X125404999Y-64170000D01*
X125654999Y-64170000D01*
X125654999Y-64620000D01*
G37*
X125654999Y-75870000D02*
X125404999Y-75870000D01*
X125404999Y-75420000D01*
X125654999Y-75420000D01*
X125654999Y-75870000D01*
G36*
X125654999Y-75870000D02*
G01*
X125404999Y-75870000D01*
X125404999Y-75420000D01*
X125654999Y-75420000D01*
X125654999Y-75870000D01*
G37*
X126154998Y-64620000D02*
X125904999Y-64620000D01*
X125904999Y-64170000D01*
X126154999Y-64170000D01*
X126154998Y-64620000D01*
G36*
X126154998Y-64620000D02*
G01*
X125904999Y-64620000D01*
X125904999Y-64170000D01*
X126154999Y-64170000D01*
X126154998Y-64620000D01*
G37*
X126154999Y-75870000D02*
X125904999Y-75870000D01*
X125904999Y-75420000D01*
X126154998Y-75420000D01*
X126154999Y-75870000D01*
G36*
X126154999Y-75870000D02*
G01*
X125904999Y-75870000D01*
X125904999Y-75420000D01*
X126154998Y-75420000D01*
X126154999Y-75870000D01*
G37*
X126654999Y-64620000D02*
X126404999Y-64620000D01*
X126404999Y-64170000D01*
X126654999Y-64170000D01*
X126654999Y-64620000D01*
G36*
X126654999Y-64620000D02*
G01*
X126404999Y-64620000D01*
X126404999Y-64170000D01*
X126654999Y-64170000D01*
X126654999Y-64620000D01*
G37*
X126654999Y-75870000D02*
X126404999Y-75870000D01*
X126404999Y-75420000D01*
X126654999Y-75420000D01*
X126654999Y-75870000D01*
G36*
X126654999Y-75870000D02*
G01*
X126404999Y-75870000D01*
X126404999Y-75420000D01*
X126654999Y-75420000D01*
X126654999Y-75870000D01*
G37*
X127974999Y-67865000D02*
X126584999Y-67865000D01*
X126584999Y-66475000D01*
X127974999Y-66475000D01*
X127974999Y-67865000D01*
G36*
X127974999Y-67865000D02*
G01*
X126584999Y-67865000D01*
X126584999Y-66475000D01*
X127974999Y-66475000D01*
X127974999Y-67865000D01*
G37*
X127974999Y-70715000D02*
X126584999Y-70715000D01*
X126584999Y-69325000D01*
X127974999Y-69325000D01*
X127974999Y-70715000D01*
G36*
X127974999Y-70715000D02*
G01*
X126584999Y-70715000D01*
X126584999Y-69325000D01*
X127974999Y-69325000D01*
X127974999Y-70715000D01*
G37*
X127974999Y-73565000D02*
X126584999Y-73565000D01*
X126584999Y-72175000D01*
X127974999Y-72175000D01*
X127974999Y-73565000D01*
G36*
X127974999Y-73565000D02*
G01*
X126584999Y-73565000D01*
X126584999Y-72175000D01*
X127974999Y-72175000D01*
X127974999Y-73565000D01*
G37*
X126859999Y-66050000D02*
X126599998Y-66050000D01*
X126599999Y-65790000D01*
X126859999Y-65790000D01*
X126859999Y-66050000D01*
G36*
X126859999Y-66050000D02*
G01*
X126599998Y-66050000D01*
X126599999Y-65790000D01*
X126859999Y-65790000D01*
X126859999Y-66050000D01*
G37*
X126859999Y-74250000D02*
X126599999Y-74250000D01*
X126599998Y-73990000D01*
X126859999Y-73990000D01*
X126859999Y-74250000D01*
G36*
X126859999Y-74250000D02*
G01*
X126599999Y-74250000D01*
X126599998Y-73990000D01*
X126859999Y-73990000D01*
X126859999Y-74250000D01*
G37*
X127154999Y-64620000D02*
X126904999Y-64619999D01*
X126904999Y-64170000D01*
X127154999Y-64170000D01*
X127154999Y-64620000D01*
G36*
X127154999Y-64620000D02*
G01*
X126904999Y-64619999D01*
X126904999Y-64170000D01*
X127154999Y-64170000D01*
X127154999Y-64620000D01*
G37*
X127154999Y-75870000D02*
X126904999Y-75870000D01*
X126904999Y-75420001D01*
X127154999Y-75420000D01*
X127154999Y-75870000D01*
G36*
X127154999Y-75870000D02*
G01*
X126904999Y-75870000D01*
X126904999Y-75420001D01*
X127154999Y-75420000D01*
X127154999Y-75870000D01*
G37*
X127409999Y-66050000D02*
X127149999Y-66050000D01*
X127149999Y-65790000D01*
X127409999Y-65790000D01*
X127409999Y-66050000D01*
G36*
X127409999Y-66050000D02*
G01*
X127149999Y-66050000D01*
X127149999Y-65790000D01*
X127409999Y-65790000D01*
X127409999Y-66050000D01*
G37*
X127409999Y-74250000D02*
X127149999Y-74250000D01*
X127149999Y-73990000D01*
X127409999Y-73990000D01*
X127409999Y-74250000D01*
G36*
X127409999Y-74250000D02*
G01*
X127149999Y-74250000D01*
X127149999Y-73990000D01*
X127409999Y-73990000D01*
X127409999Y-74250000D01*
G37*
X127654999Y-64619999D02*
X127404999Y-64620000D01*
X127404999Y-64170000D01*
X127654999Y-64170000D01*
X127654999Y-64619999D01*
G36*
X127654999Y-64619999D02*
G01*
X127404999Y-64620000D01*
X127404999Y-64170000D01*
X127654999Y-64170000D01*
X127654999Y-64619999D01*
G37*
X127654999Y-75420001D02*
X127654999Y-75870000D01*
X127404999Y-75870000D01*
X127404999Y-75420000D01*
X127654999Y-75420001D01*
G36*
X127654999Y-75420001D02*
G01*
X127654999Y-75870000D01*
X127404999Y-75870000D01*
X127404999Y-75420000D01*
X127654999Y-75420001D01*
G37*
X127960000Y-66050000D02*
X127699999Y-66050000D01*
X127699999Y-65790000D01*
X127959999Y-65790000D01*
X127960000Y-66050000D01*
G36*
X127960000Y-66050000D02*
G01*
X127699999Y-66050000D01*
X127699999Y-65790000D01*
X127959999Y-65790000D01*
X127960000Y-66050000D01*
G37*
X127959999Y-74250000D02*
X127699999Y-74250000D01*
X127699999Y-73990000D01*
X127960000Y-73990000D01*
X127959999Y-74250000D01*
G36*
X127959999Y-74250000D02*
G01*
X127699999Y-74250000D01*
X127699999Y-73990000D01*
X127960000Y-73990000D01*
X127959999Y-74250000D01*
G37*
X128154999Y-64620000D02*
X127904999Y-64620000D01*
X127904999Y-64170000D01*
X128154999Y-64170000D01*
X128154999Y-64620000D01*
G36*
X128154999Y-64620000D02*
G01*
X127904999Y-64620000D01*
X127904999Y-64170000D01*
X128154999Y-64170000D01*
X128154999Y-64620000D01*
G37*
X128154999Y-75870000D02*
X127904999Y-75870000D01*
X127904999Y-75420000D01*
X128154999Y-75420000D01*
X128154999Y-75870000D01*
G36*
X128154999Y-75870000D02*
G01*
X127904999Y-75870000D01*
X127904999Y-75420000D01*
X128154999Y-75420000D01*
X128154999Y-75870000D01*
G37*
X128654999Y-75870000D02*
X128404999Y-75870000D01*
X128405000Y-75420000D01*
X128654999Y-75420000D01*
X128654999Y-75870000D01*
G36*
X128654999Y-75870000D02*
G01*
X128404999Y-75870000D01*
X128405000Y-75420000D01*
X128654999Y-75420000D01*
X128654999Y-75870000D01*
G37*
X128654999Y-64620000D02*
X128405000Y-64620000D01*
X128404999Y-64170000D01*
X128654999Y-64170000D01*
X128654999Y-64620000D01*
G36*
X128654999Y-64620000D02*
G01*
X128405000Y-64620000D01*
X128404999Y-64170000D01*
X128654999Y-64170000D01*
X128654999Y-64620000D01*
G37*
X129154999Y-64620000D02*
X128904999Y-64620000D01*
X128904999Y-64170000D01*
X129154999Y-64170000D01*
X129154999Y-64620000D01*
G36*
X129154999Y-64620000D02*
G01*
X128904999Y-64620000D01*
X128904999Y-64170000D01*
X129154999Y-64170000D01*
X129154999Y-64620000D01*
G37*
X129154999Y-75870000D02*
X128904999Y-75870000D01*
X128904999Y-75420000D01*
X129154999Y-75420000D01*
X129154999Y-75870000D01*
G36*
X129154999Y-75870000D02*
G01*
X128904999Y-75870000D01*
X128904999Y-75420000D01*
X129154999Y-75420000D01*
X129154999Y-75870000D01*
G37*
X129559999Y-69600000D02*
X129299999Y-69600000D01*
X129299999Y-69340000D01*
X129559999Y-69340000D01*
X129559999Y-69600000D01*
G36*
X129559999Y-69600000D02*
G01*
X129299999Y-69600000D01*
X129299999Y-69340000D01*
X129559999Y-69340000D01*
X129559999Y-69600000D01*
G37*
X129559999Y-69890001D02*
X129559999Y-70149999D01*
X129299999Y-70150000D01*
X129299999Y-69890000D01*
X129559999Y-69890001D01*
G36*
X129559999Y-69890001D02*
G01*
X129559999Y-70149999D01*
X129299999Y-70150000D01*
X129299999Y-69890000D01*
X129559999Y-69890001D01*
G37*
X129559999Y-70700000D02*
X129299999Y-70700000D01*
X129299999Y-70440000D01*
X129559999Y-70440000D01*
X129559999Y-70700000D01*
G36*
X129559999Y-70700000D02*
G01*
X129299999Y-70700000D01*
X129299999Y-70440000D01*
X129559999Y-70440000D01*
X129559999Y-70700000D01*
G37*
X129654999Y-64620000D02*
X129404999Y-64619999D01*
X129404999Y-64170000D01*
X129654999Y-64170000D01*
X129654999Y-64620000D01*
G36*
X129654999Y-64620000D02*
G01*
X129404999Y-64619999D01*
X129404999Y-64170000D01*
X129654999Y-64170000D01*
X129654999Y-64620000D01*
G37*
X129654999Y-75870000D02*
X129404999Y-75870000D01*
X129404999Y-75420001D01*
X129654999Y-75420000D01*
X129654999Y-75870000D01*
G36*
X129654999Y-75870000D02*
G01*
X129404999Y-75870000D01*
X129404999Y-75420001D01*
X129654999Y-75420000D01*
X129654999Y-75870000D01*
G37*
X130824999Y-67864999D02*
X129434999Y-67865000D01*
X129435000Y-66475000D01*
X130824999Y-66475000D01*
X130824999Y-67864999D01*
G36*
X130824999Y-67864999D02*
G01*
X129434999Y-67865000D01*
X129435000Y-66475000D01*
X130824999Y-66475000D01*
X130824999Y-67864999D01*
G37*
X130824999Y-72175001D02*
X130824999Y-73565000D01*
X129435000Y-73565000D01*
X129434999Y-72175000D01*
X130824999Y-72175001D01*
G36*
X130824999Y-72175001D02*
G01*
X130824999Y-73565000D01*
X129435000Y-73565000D01*
X129434999Y-72175000D01*
X130824999Y-72175001D01*
G37*
X129709999Y-66050001D02*
X129449999Y-66050000D01*
X129449999Y-65790000D01*
X129709999Y-65790000D01*
X129709999Y-66050001D01*
G36*
X129709999Y-66050001D02*
G01*
X129449999Y-66050000D01*
X129449999Y-65790000D01*
X129709999Y-65790000D01*
X129709999Y-66050001D01*
G37*
X129709999Y-74250000D02*
X129449999Y-74250000D01*
X129449999Y-73990000D01*
X129709999Y-73989999D01*
X129709999Y-74250000D01*
G36*
X129709999Y-74250000D02*
G01*
X129449999Y-74250000D01*
X129449999Y-73990000D01*
X129709999Y-73989999D01*
X129709999Y-74250000D01*
G37*
X130154999Y-64619999D02*
X129904999Y-64620000D01*
X129904999Y-64170000D01*
X130154999Y-64170000D01*
X130154999Y-64619999D01*
G36*
X130154999Y-64619999D02*
G01*
X129904999Y-64620000D01*
X129904999Y-64170000D01*
X130154999Y-64170000D01*
X130154999Y-64619999D01*
G37*
X130154999Y-75420001D02*
X130154999Y-75870000D01*
X129904999Y-75870000D01*
X129904999Y-75420000D01*
X130154999Y-75420001D01*
G36*
X130154999Y-75420001D02*
G01*
X130154999Y-75870000D01*
X129904999Y-75870000D01*
X129904999Y-75420000D01*
X130154999Y-75420001D01*
G37*
X131729999Y-70695000D02*
X129979999Y-70695000D01*
X129979999Y-69345000D01*
X131729999Y-69345000D01*
X131729999Y-70695000D01*
G36*
X131729999Y-70695000D02*
G01*
X129979999Y-70695000D01*
X129979999Y-69345000D01*
X131729999Y-69345000D01*
X131729999Y-70695000D01*
G37*
X130259999Y-66050000D02*
X129999999Y-66050001D01*
X129999999Y-65790000D01*
X130259999Y-65790000D01*
X130259999Y-66050000D01*
G36*
X130259999Y-66050000D02*
G01*
X129999999Y-66050001D01*
X129999999Y-65790000D01*
X130259999Y-65790000D01*
X130259999Y-66050000D01*
G37*
X130259999Y-73990000D02*
X130259999Y-74250000D01*
X129999999Y-74250000D01*
X129999999Y-73989999D01*
X130259999Y-73990000D01*
G36*
X130259999Y-73990000D02*
G01*
X130259999Y-74250000D01*
X129999999Y-74250000D01*
X129999999Y-73989999D01*
X130259999Y-73990000D01*
G37*
X130654999Y-64620000D02*
X130404999Y-64620000D01*
X130404999Y-64170000D01*
X130654999Y-64170000D01*
X130654999Y-64620000D01*
G36*
X130654999Y-64620000D02*
G01*
X130404999Y-64620000D01*
X130404999Y-64170000D01*
X130654999Y-64170000D01*
X130654999Y-64620000D01*
G37*
X130654999Y-75870000D02*
X130404999Y-75870000D01*
X130404999Y-75420000D01*
X130654999Y-75420000D01*
X130654999Y-75870000D01*
G36*
X130654999Y-75870000D02*
G01*
X130404999Y-75870000D01*
X130404999Y-75420000D01*
X130654999Y-75420000D01*
X130654999Y-75870000D01*
G37*
X130809999Y-66050000D02*
X130549999Y-66050000D01*
X130549999Y-65790000D01*
X130809999Y-65790000D01*
X130809999Y-66050000D01*
G36*
X130809999Y-66050000D02*
G01*
X130549999Y-66050000D01*
X130549999Y-65790000D01*
X130809999Y-65790000D01*
X130809999Y-66050000D01*
G37*
X130809999Y-74250000D02*
X130549999Y-74250000D01*
X130549999Y-73990000D01*
X130809999Y-73990000D01*
X130809999Y-74250000D01*
G36*
X130809999Y-74250000D02*
G01*
X130549999Y-74250000D01*
X130549999Y-73990000D01*
X130809999Y-73990000D01*
X130809999Y-74250000D01*
G37*
X131154999Y-64620000D02*
X130904999Y-64619999D01*
X130904999Y-64170000D01*
X131154999Y-64170000D01*
X131154999Y-64620000D01*
G36*
X131154999Y-64620000D02*
G01*
X130904999Y-64619999D01*
X130904999Y-64170000D01*
X131154999Y-64170000D01*
X131154999Y-64620000D01*
G37*
X131154999Y-75870000D02*
X130904999Y-75870000D01*
X130904999Y-75420001D01*
X131154999Y-75420000D01*
X131154999Y-75870000D01*
G36*
X131154999Y-75870000D02*
G01*
X130904999Y-75870000D01*
X130904999Y-75420001D01*
X131154999Y-75420000D01*
X131154999Y-75870000D01*
G37*
X131654999Y-64620000D02*
X131404999Y-64620000D01*
X131404999Y-64170000D01*
X131654999Y-64170000D01*
X131654999Y-64620000D01*
G36*
X131654999Y-64620000D02*
G01*
X131404999Y-64620000D01*
X131404999Y-64170000D01*
X131654999Y-64170000D01*
X131654999Y-64620000D01*
G37*
X131654999Y-75870000D02*
X131404999Y-75870000D01*
X131404999Y-75420000D01*
X131654999Y-75420000D01*
X131654999Y-75870000D01*
G36*
X131654999Y-75870000D02*
G01*
X131404999Y-75870000D01*
X131404999Y-75420000D01*
X131654999Y-75420000D01*
X131654999Y-75870000D01*
G37*
X132584999Y-64215001D02*
X132584999Y-64825000D01*
X131974999Y-64825000D01*
X131974999Y-64215000D01*
X132584999Y-64215001D01*
G36*
X132584999Y-64215001D02*
G01*
X132584999Y-64825000D01*
X131974999Y-64825000D01*
X131974999Y-64215000D01*
X132584999Y-64215001D01*
G37*
X132584999Y-75824999D02*
X131974999Y-75825000D01*
X131974999Y-75215000D01*
X132584999Y-75215000D01*
X132584999Y-75824999D01*
G36*
X132584999Y-75824999D02*
G01*
X131974999Y-75825000D01*
X131974999Y-75215000D01*
X132584999Y-75215000D01*
X132584999Y-75824999D01*
G37*
X132629999Y-65395000D02*
X132179999Y-65395000D01*
X132179999Y-65145000D01*
X132629999Y-65145000D01*
X132629999Y-65395000D01*
G36*
X132629999Y-65395000D02*
G01*
X132179999Y-65395000D01*
X132179999Y-65145000D01*
X132629999Y-65145000D01*
X132629999Y-65395000D01*
G37*
X132629999Y-65895000D02*
X132179999Y-65895000D01*
X132179999Y-65645000D01*
X132629999Y-65645000D01*
X132629999Y-65895000D01*
G36*
X132629999Y-65895000D02*
G01*
X132179999Y-65895000D01*
X132179999Y-65645000D01*
X132629999Y-65645000D01*
X132629999Y-65895000D01*
G37*
X132629999Y-66395000D02*
X132179999Y-66395000D01*
X132179999Y-66145000D01*
X132629999Y-66145000D01*
X132629999Y-66395000D01*
G36*
X132629999Y-66395000D02*
G01*
X132179999Y-66395000D01*
X132179999Y-66145000D01*
X132629999Y-66145000D01*
X132629999Y-66395000D01*
G37*
X132629999Y-66895000D02*
X132179999Y-66895000D01*
X132179999Y-66645000D01*
X132629999Y-66645000D01*
X132629999Y-66895000D01*
G36*
X132629999Y-66895000D02*
G01*
X132179999Y-66895000D01*
X132179999Y-66645000D01*
X132629999Y-66645000D01*
X132629999Y-66895000D01*
G37*
X132629999Y-67395000D02*
X132179999Y-67395000D01*
X132179999Y-67145000D01*
X132629999Y-67145000D01*
X132629999Y-67395000D01*
G36*
X132629999Y-67395000D02*
G01*
X132179999Y-67395000D01*
X132179999Y-67145000D01*
X132629999Y-67145000D01*
X132629999Y-67395000D01*
G37*
X132629999Y-67895000D02*
X132179999Y-67895000D01*
X132179999Y-67645000D01*
X132629999Y-67645000D01*
X132629999Y-67895000D01*
G36*
X132629999Y-67895000D02*
G01*
X132179999Y-67895000D01*
X132179999Y-67645000D01*
X132629999Y-67645000D01*
X132629999Y-67895000D01*
G37*
X132629999Y-68395000D02*
X132179999Y-68395000D01*
X132179999Y-68145000D01*
X132629999Y-68145000D01*
X132629999Y-68395000D01*
G36*
X132629999Y-68395000D02*
G01*
X132179999Y-68395000D01*
X132179999Y-68145000D01*
X132629999Y-68145000D01*
X132629999Y-68395000D01*
G37*
X132629999Y-68895000D02*
X132179999Y-68895000D01*
X132179999Y-68645000D01*
X132629999Y-68645000D01*
X132629999Y-68895000D01*
G36*
X132629999Y-68895000D02*
G01*
X132179999Y-68895000D01*
X132179999Y-68645000D01*
X132629999Y-68645000D01*
X132629999Y-68895000D01*
G37*
X132629999Y-69395000D02*
X132179999Y-69395000D01*
X132179999Y-69145000D01*
X132629999Y-69145000D01*
X132629999Y-69395000D01*
G36*
X132629999Y-69395000D02*
G01*
X132179999Y-69395000D01*
X132179999Y-69145000D01*
X132629999Y-69145000D01*
X132629999Y-69395000D01*
G37*
X132629999Y-69895000D02*
X132179999Y-69895000D01*
X132179999Y-69645000D01*
X132629999Y-69645000D01*
X132629999Y-69895000D01*
G36*
X132629999Y-69895000D02*
G01*
X132179999Y-69895000D01*
X132179999Y-69645000D01*
X132629999Y-69645000D01*
X132629999Y-69895000D01*
G37*
X132629999Y-70395000D02*
X132179999Y-70395000D01*
X132179999Y-70145000D01*
X132629999Y-70145000D01*
X132629999Y-70395000D01*
G36*
X132629999Y-70395000D02*
G01*
X132179999Y-70395000D01*
X132179999Y-70145000D01*
X132629999Y-70145000D01*
X132629999Y-70395000D01*
G37*
X132629999Y-70895000D02*
X132179999Y-70895000D01*
X132179999Y-70645000D01*
X132629999Y-70645000D01*
X132629999Y-70895000D01*
G36*
X132629999Y-70895000D02*
G01*
X132179999Y-70895000D01*
X132179999Y-70645000D01*
X132629999Y-70645000D01*
X132629999Y-70895000D01*
G37*
X132629999Y-71395000D02*
X132179999Y-71395000D01*
X132179999Y-71145000D01*
X132629999Y-71145000D01*
X132629999Y-71395000D01*
G36*
X132629999Y-71395000D02*
G01*
X132179999Y-71395000D01*
X132179999Y-71145000D01*
X132629999Y-71145000D01*
X132629999Y-71395000D01*
G37*
X132629999Y-71895000D02*
X132179999Y-71895000D01*
X132179999Y-71645000D01*
X132629999Y-71645000D01*
X132629999Y-71895000D01*
G36*
X132629999Y-71895000D02*
G01*
X132179999Y-71895000D01*
X132179999Y-71645000D01*
X132629999Y-71645000D01*
X132629999Y-71895000D01*
G37*
X132629999Y-72395000D02*
X132179999Y-72395000D01*
X132179999Y-72145000D01*
X132629999Y-72145000D01*
X132629999Y-72395000D01*
G36*
X132629999Y-72395000D02*
G01*
X132179999Y-72395000D01*
X132179999Y-72145000D01*
X132629999Y-72145000D01*
X132629999Y-72395000D01*
G37*
X132629999Y-72895000D02*
X132179999Y-72895000D01*
X132179999Y-72645000D01*
X132629999Y-72645000D01*
X132629999Y-72895000D01*
G36*
X132629999Y-72895000D02*
G01*
X132179999Y-72895000D01*
X132179999Y-72645000D01*
X132629999Y-72645000D01*
X132629999Y-72895000D01*
G37*
X132629999Y-73395000D02*
X132179999Y-73395000D01*
X132179999Y-73145000D01*
X132629999Y-73145000D01*
X132629999Y-73395000D01*
G36*
X132629999Y-73395000D02*
G01*
X132179999Y-73395000D01*
X132179999Y-73145000D01*
X132629999Y-73145000D01*
X132629999Y-73395000D01*
G37*
X132629999Y-73895000D02*
X132179999Y-73895000D01*
X132179999Y-73645000D01*
X132629999Y-73645000D01*
X132629999Y-73895000D01*
G36*
X132629999Y-73895000D02*
G01*
X132179999Y-73895000D01*
X132179999Y-73645000D01*
X132629999Y-73645000D01*
X132629999Y-73895000D01*
G37*
X132629999Y-74395000D02*
X132179999Y-74395000D01*
X132179999Y-74145000D01*
X132629999Y-74145000D01*
X132629999Y-74395000D01*
G36*
X132629999Y-74395000D02*
G01*
X132179999Y-74395000D01*
X132179999Y-74145000D01*
X132629999Y-74145000D01*
X132629999Y-74395000D01*
G37*
X132629999Y-74895000D02*
X132179999Y-74895000D01*
X132179999Y-74645000D01*
X132629999Y-74645000D01*
X132629999Y-74895000D01*
G36*
X132629999Y-74895000D02*
G01*
X132179999Y-74895000D01*
X132179999Y-74645000D01*
X132629999Y-74645000D01*
X132629999Y-74895000D01*
G37*
X122584999Y-75420000D02*
X122584999Y-75825000D01*
X121974999Y-75824999D01*
X121974999Y-75215000D01*
X122379999Y-75215000D01*
X122584999Y-75420000D01*
G36*
X122584999Y-75420000D02*
G01*
X122584999Y-75825000D01*
X121974999Y-75824999D01*
X121974999Y-75215000D01*
X122379999Y-75215000D01*
X122584999Y-75420000D01*
G37*
%TO.C,U13*%
X152245000Y-74955000D02*
X150525000Y-74955000D01*
X150525000Y-73235000D01*
X152245000Y-73235000D01*
X152245000Y-74955000D01*
G36*
X152245000Y-74955000D02*
G01*
X150525000Y-74955000D01*
X150525000Y-73235000D01*
X152245000Y-73235000D01*
X152245000Y-74955000D01*
G37*
X152245000Y-77385000D02*
X150525000Y-77385000D01*
X150525000Y-75665000D01*
X152245000Y-75665000D01*
X152245000Y-77385000D01*
G36*
X152245000Y-77385000D02*
G01*
X150525000Y-77385000D01*
X150525000Y-75665000D01*
X152245000Y-75665000D01*
X152245000Y-77385000D01*
G37*
X154675000Y-74955000D02*
X152955000Y-74955000D01*
X152955000Y-73235000D01*
X154675000Y-73235000D01*
X154675000Y-74955000D01*
G36*
X154675000Y-74955000D02*
G01*
X152955000Y-74955000D01*
X152955000Y-73235000D01*
X154675000Y-73235000D01*
X154675000Y-74955000D01*
G37*
X154675000Y-77385000D02*
X152955000Y-77385000D01*
X152955000Y-75665000D01*
X154675000Y-75665000D01*
X154675000Y-77385000D01*
G36*
X154675000Y-77385000D02*
G01*
X152955000Y-77385000D01*
X152955000Y-75665000D01*
X154675000Y-75665000D01*
X154675000Y-77385000D01*
G37*
%TD*%
D12*
%TO.C,R28*%
X147695000Y-78720000D03*
X147005000Y-78720000D03*
%TD*%
D13*
%TO.C,C11*%
X130650000Y-58355000D03*
X130650000Y-59045000D03*
%TD*%
D14*
%TO.C,C94*%
X129600000Y-57525000D03*
X129600000Y-56835000D03*
%TD*%
D13*
%TO.C,C31*%
X145337540Y-71945000D03*
X145337540Y-72635000D03*
%TD*%
D12*
%TO.C,C87*%
X131995000Y-54300000D03*
X131305000Y-54300000D03*
%TD*%
D15*
%TO.C,D17*%
X135125000Y-82570000D03*
X133025000Y-82570000D03*
%TD*%
D16*
%TO.C,C12*%
X127955000Y-63330000D03*
X128645000Y-63330000D03*
%TD*%
%TO.C,R20*%
X151705000Y-128590000D03*
X152395000Y-128590000D03*
%TD*%
D13*
%TO.C,C76*%
X149810000Y-57705000D03*
X149810000Y-58395000D03*
%TD*%
D14*
%TO.C,R60*%
X145420000Y-71125000D03*
X145420000Y-70435000D03*
%TD*%
D17*
%TO.C,D9*%
X156200000Y-99660000D03*
X156200000Y-96540000D03*
%TD*%
D18*
%TO.C,C40*%
X156420000Y-80610000D03*
X157380000Y-80610000D03*
%TD*%
D19*
%TO.C,C50*%
X146400000Y-81230000D03*
X146400000Y-80270000D03*
%TD*%
D16*
%TO.C,R24*%
X131955000Y-121080000D03*
X132645000Y-121080000D03*
%TD*%
D17*
%TO.C,D6*%
X136400000Y-99660000D03*
X136400000Y-96540000D03*
%TD*%
D14*
%TO.C,C32*%
X145337540Y-75235000D03*
X145337540Y-74545000D03*
%TD*%
D13*
%TO.C,C26*%
X129310000Y-76735000D03*
X129310000Y-77425000D03*
%TD*%
D16*
%TO.C,C41*%
X146982540Y-71150000D03*
X147672540Y-71150000D03*
%TD*%
D20*
%TO.C,X2*%
X156677540Y-69030000D03*
X158077540Y-69030000D03*
X158077540Y-67930000D03*
X156677540Y-67930000D03*
%TD*%
D13*
%TO.C,R15*%
X134750000Y-128405000D03*
X134750000Y-129095000D03*
%TD*%
D14*
%TO.C,R35*%
X156650000Y-140275000D03*
X156650000Y-139585000D03*
%TD*%
D13*
%TO.C,C10*%
X126320000Y-76735000D03*
X126320000Y-77425000D03*
%TD*%
D16*
%TO.C,R27*%
X147715000Y-134060000D03*
X148405000Y-134060000D03*
%TD*%
D21*
%TO.C,X4*%
X146897540Y-72340706D03*
X146897540Y-74840704D03*
%TD*%
D16*
%TO.C,R49*%
X157502540Y-79000000D03*
X158192540Y-79000000D03*
%TD*%
D12*
%TO.C,C81*%
X146770000Y-56940000D03*
X146080000Y-56940000D03*
%TD*%
D22*
%TO.C,U2*%
X124180000Y-61850000D03*
D23*
X122755000Y-61100000D03*
X122755000Y-61600000D03*
X122755000Y-62100000D03*
X122755000Y-62600000D03*
X125605000Y-62600000D03*
X125605000Y-62100000D03*
X125605000Y-61600000D03*
X125605000Y-61100000D03*
%TD*%
D14*
%TO.C,C70*%
X151250001Y-60926863D03*
X151250001Y-60236863D03*
%TD*%
D12*
%TO.C,L1*%
X159635000Y-78240000D03*
X158945000Y-78240000D03*
%TD*%
D24*
%TO.C,D1*%
X138232500Y-130537501D03*
X138232500Y-131487500D03*
X138232500Y-132437499D03*
X140507500Y-132437499D03*
X140507500Y-130537501D03*
%TD*%
D14*
%TO.C,C19*%
X157059999Y-58785001D03*
X157059999Y-58095001D03*
%TD*%
%TO.C,R32*%
X156650000Y-119825000D03*
X156650000Y-119135000D03*
%TD*%
D25*
%TO.C,C89*%
X121150000Y-80475000D03*
X121150000Y-78925000D03*
%TD*%
D14*
%TO.C,R34*%
X158750000Y-134675000D03*
X158750000Y-133985000D03*
%TD*%
D13*
%TO.C,C69*%
X156799999Y-54655001D03*
X156799999Y-55345001D03*
%TD*%
D25*
%TO.C,C90*%
X120950000Y-83575000D03*
X120950000Y-82025000D03*
%TD*%
D26*
%TO.C,C16*%
X146300000Y-59570000D03*
X146300000Y-61120000D03*
%TD*%
%TO.C,C17*%
X135090000Y-59547500D03*
X135090000Y-61097500D03*
%TD*%
D14*
%TO.C,R61*%
X136800000Y-63845000D03*
X136800000Y-63155000D03*
%TD*%
D27*
%TO.C,D4*%
X126310000Y-125340000D03*
X128410000Y-125340000D03*
%TD*%
D14*
%TO.C,L16*%
X148290000Y-57605000D03*
X148290000Y-56915000D03*
%TD*%
D19*
%TO.C,C39*%
X155200000Y-70350000D03*
X155200000Y-69390000D03*
%TD*%
D13*
%TO.C,C4*%
X131520000Y-76725000D03*
X131520000Y-77415000D03*
%TD*%
D16*
%TO.C,R14*%
X126555000Y-63330000D03*
X127245000Y-63330000D03*
%TD*%
D12*
%TO.C,C21*%
X150300000Y-49190000D03*
X149610000Y-49190000D03*
%TD*%
D28*
%TO.C,FB1*%
X122962500Y-77080000D03*
X124537500Y-77080000D03*
%TD*%
D17*
%TO.C,D11*%
X148500000Y-125560000D03*
X148500000Y-122440000D03*
%TD*%
D29*
%TO.C,Q7*%
X152392500Y-130352500D03*
X150492500Y-130352500D03*
X151442500Y-132227500D03*
%TD*%
D16*
%TO.C,R7*%
X122375000Y-83680000D03*
X123065000Y-83680000D03*
%TD*%
D30*
%TO.C,J4*%
X148690000Y-147220000D03*
D31*
X142630000Y-143220000D03*
D32*
X143910000Y-140040000D03*
X141330000Y-140040000D03*
%TD*%
D33*
%TO.C,C35*%
X148300000Y-80270000D03*
X148300000Y-81230000D03*
%TD*%
D34*
%TO.C,U4*%
X156055000Y-82117501D03*
X154785000Y-82117501D03*
X153515000Y-82117501D03*
X152245000Y-82117501D03*
X152245000Y-87807501D03*
X153515000Y-87807501D03*
X154785000Y-87807501D03*
X156055000Y-87807501D03*
%TD*%
D12*
%TO.C,L4*%
X159635000Y-79760000D03*
X158945000Y-79760000D03*
%TD*%
%TO.C,L15*%
X149785000Y-56930000D03*
X149095000Y-56930000D03*
%TD*%
D14*
%TO.C,C58*%
X153780000Y-70215000D03*
X153780000Y-69525000D03*
%TD*%
%TO.C,C13*%
X121700000Y-62545000D03*
X121700000Y-61855000D03*
%TD*%
D12*
%TO.C,C1*%
X147692540Y-76040000D03*
X147002540Y-76040000D03*
%TD*%
%TO.C,R36*%
X135295000Y-131800000D03*
X134605000Y-131800000D03*
%TD*%
%TO.C,C30*%
X159635000Y-79000000D03*
X158945000Y-79000000D03*
%TD*%
D14*
%TO.C,R8*%
X140700000Y-97315000D03*
X140700000Y-96625000D03*
%TD*%
D17*
%TO.C,D13*%
X148500000Y-138560000D03*
X148500000Y-135440000D03*
%TD*%
D35*
%TO.C,RF4*%
X135790000Y-55190000D03*
D36*
X134270000Y-53890000D03*
X134270000Y-56490000D03*
%TD*%
D14*
%TO.C,R59*%
X144660000Y-71125000D03*
X144660000Y-70435000D03*
%TD*%
D16*
%TO.C,R50*%
X157502540Y-79760000D03*
X158192540Y-79760000D03*
%TD*%
%TO.C,R25*%
X147655000Y-121090000D03*
X148345000Y-121090000D03*
%TD*%
D13*
%TO.C,C34*%
X155609000Y-80214999D03*
X155609000Y-80904999D03*
%TD*%
D12*
%TO.C,R10*%
X147695000Y-79460000D03*
X147005000Y-79460000D03*
%TD*%
D13*
%TO.C,C77*%
X149050000Y-57705000D03*
X149050000Y-58395000D03*
%TD*%
D37*
%TO.C,C28*%
X131200000Y-78750000D03*
X133100000Y-78750000D03*
%TD*%
D16*
%TO.C,C14*%
X134615000Y-132550000D03*
X135305000Y-132550000D03*
%TD*%
D13*
%TO.C,R17*%
X129890000Y-119065000D03*
X129890000Y-119755000D03*
%TD*%
D14*
%TO.C,R31*%
X156240000Y-107585000D03*
X156240000Y-106895000D03*
%TD*%
D17*
%TO.C,D5*%
X125100000Y-99660000D03*
X125100000Y-96540000D03*
%TD*%
D12*
%TO.C,C46*%
X158192540Y-74720000D03*
X157502540Y-74720000D03*
%TD*%
%TO.C,C29*%
X156722540Y-70389999D03*
X156032540Y-70389999D03*
%TD*%
D19*
%TO.C,C3*%
X121000000Y-71480000D03*
X121000000Y-70520000D03*
%TD*%
D14*
%TO.C,L6*%
X150507540Y-70405000D03*
X150507540Y-69715000D03*
%TD*%
D17*
%TO.C,D10*%
X132800000Y-125560000D03*
X132800000Y-122440000D03*
%TD*%
D38*
%TO.C,U14*%
X131037499Y-85179999D03*
X130037501Y-85179999D03*
X131037499Y-85779999D03*
X130037501Y-85779999D03*
D39*
X131537500Y-84267499D03*
X131037499Y-84267499D03*
X130537500Y-84267499D03*
X130037501Y-84267499D03*
X129537500Y-84267499D03*
X129537500Y-86692499D03*
X130037501Y-86692499D03*
X130537500Y-86692499D03*
X131037499Y-86692499D03*
X131537500Y-86692499D03*
%TD*%
D12*
%TO.C,L18*%
X143105000Y-56910000D03*
X142415000Y-56910000D03*
%TD*%
D14*
%TO.C,R33*%
X156020000Y-127715000D03*
X156020000Y-127025000D03*
%TD*%
D16*
%TO.C,R52*%
X134630000Y-81220000D03*
X135320000Y-81220000D03*
%TD*%
D40*
%TO.C,L2*%
X128397501Y-81780000D03*
X131197499Y-81780000D03*
%TD*%
D12*
%TO.C,R3*%
X158192540Y-73960000D03*
X157502540Y-73960000D03*
%TD*%
D41*
%TO.C,SW18*%
X144595000Y-45530000D03*
X144595000Y-43830000D03*
X149845000Y-45530000D03*
X149845000Y-43830000D03*
%TD*%
D12*
%TO.C,L17*%
X146770000Y-57700000D03*
X146080000Y-57700000D03*
%TD*%
D16*
%TO.C,R30*%
X134605000Y-131040000D03*
X135295000Y-131040000D03*
%TD*%
%TO.C,R9*%
X134605000Y-130290000D03*
X135295000Y-130290000D03*
%TD*%
D12*
%TO.C,R6*%
X137815000Y-55210000D03*
X137125000Y-55210000D03*
%TD*%
%TO.C,C18*%
X147570000Y-47840000D03*
X146880000Y-47840000D03*
%TD*%
%TO.C,C45*%
X158192540Y-71360000D03*
X157502540Y-71360000D03*
%TD*%
D13*
%TO.C,C84*%
X141650000Y-56915000D03*
X141650000Y-57605000D03*
%TD*%
D16*
%TO.C,R4*%
X122375000Y-79310000D03*
X123065000Y-79310000D03*
%TD*%
D12*
%TO.C,R22*%
X145835000Y-95120000D03*
X145145000Y-95120000D03*
%TD*%
D13*
%TO.C,L13*%
X149780000Y-55045000D03*
X149780000Y-55735000D03*
%TD*%
D42*
%TO.C,BT2*%
X147860000Y-82490000D03*
D43*
X146510000Y-86440001D03*
%TD*%
D28*
%TO.C,L5*%
X148962500Y-68610000D03*
X150537500Y-68610000D03*
%TD*%
D13*
%TO.C,C71*%
X155639999Y-60236862D03*
X155639999Y-60926862D03*
%TD*%
D12*
%TO.C,C49*%
X158192540Y-72124187D03*
X157502540Y-72124187D03*
%TD*%
D13*
%TO.C,C43*%
X133199999Y-58855000D03*
X133199999Y-59545000D03*
%TD*%
D14*
%TO.C,R13*%
X125580000Y-77425000D03*
X125580000Y-76735000D03*
%TD*%
%TO.C,R12*%
X127070000Y-77425000D03*
X127070000Y-76735000D03*
%TD*%
D12*
%TO.C,R26*%
X133405000Y-134040000D03*
X132715000Y-134040000D03*
%TD*%
D44*
%TO.C,Q4*%
X133007500Y-129100000D03*
X133007500Y-127200000D03*
X131132500Y-128150000D03*
%TD*%
D12*
%TO.C,C15*%
X135300000Y-133300000D03*
X134610000Y-133300000D03*
%TD*%
D45*
%TO.C,U5*%
X147410000Y-50650000D03*
X147410000Y-50030000D03*
X146790000Y-50650000D03*
X146790000Y-50030000D03*
D46*
X148537500Y-51090000D03*
X148537500Y-50590000D03*
X148537500Y-50090000D03*
X148537500Y-49590000D03*
D47*
X147850000Y-48902500D03*
X147350000Y-48902500D03*
X146850000Y-48902500D03*
X146350000Y-48902500D03*
D46*
X145662500Y-49590000D03*
X145662500Y-50090000D03*
X145662500Y-50590000D03*
X145662500Y-51090000D03*
D47*
X146350000Y-51777500D03*
X146850000Y-51777500D03*
X147350000Y-51777500D03*
X147850000Y-51777500D03*
%TD*%
D17*
%TO.C,D7*%
X145000000Y-99660000D03*
X145000000Y-96540000D03*
%TD*%
D12*
%TO.C,C83*%
X144565000Y-56920000D03*
X143875000Y-56920000D03*
%TD*%
D14*
%TO.C,C80*%
X147530000Y-57595000D03*
X147530000Y-56905000D03*
%TD*%
D12*
%TO.C,C93*%
X136825000Y-66300000D03*
X136135000Y-66300000D03*
%TD*%
%TO.C,R44*%
X139745000Y-56780000D03*
X139055000Y-56780000D03*
%TD*%
D14*
%TO.C,L19*%
X131955000Y-53525000D03*
X131955000Y-52835000D03*
%TD*%
D12*
%TO.C,R55*%
X158192540Y-78240000D03*
X157502540Y-78240000D03*
%TD*%
%TO.C,R51*%
X126115000Y-88000000D03*
X125425000Y-88000000D03*
%TD*%
D48*
%TO.C,C20*%
X144275000Y-47200000D03*
X145825000Y-47200000D03*
%TD*%
D49*
%TO.C,D8*%
X154330000Y-132670000D03*
X154330000Y-130570000D03*
%TD*%
D12*
%TO.C,R29*%
X147695000Y-77980000D03*
X147005000Y-77980000D03*
%TD*%
D13*
%TO.C,R57*%
X151497540Y-80215000D03*
X151497540Y-80905000D03*
%TD*%
D16*
%TO.C,C22*%
X157502539Y-70400000D03*
X158192539Y-70400000D03*
%TD*%
D12*
%TO.C,R45*%
X140755000Y-53650000D03*
X140065000Y-53650000D03*
%TD*%
D17*
%TO.C,D12*%
X132800000Y-138560000D03*
X132800000Y-135440000D03*
%TD*%
D50*
%TO.C,RF3*%
X159210000Y-75000000D03*
D51*
X157910000Y-76520000D03*
X160510000Y-76520000D03*
%TD*%
D44*
%TO.C,Q1*%
X133007500Y-132670000D03*
X133007500Y-130770000D03*
X131132499Y-131720000D03*
%TD*%
D52*
%TO.C,L3*%
X158350000Y-56187500D03*
X158350000Y-54612500D03*
%TD*%
D12*
%TO.C,R37*%
X150295000Y-48440000D03*
X149605000Y-48440000D03*
%TD*%
D13*
%TO.C,C79*%
X147560000Y-55045000D03*
X147560000Y-55735000D03*
%TD*%
D19*
%TO.C,C47*%
X147350000Y-81230000D03*
X147350000Y-80270000D03*
%TD*%
D12*
%TO.C,C88*%
X131995000Y-52050000D03*
X131305000Y-52050000D03*
%TD*%
D13*
%TO.C,C2*%
X128560000Y-76735000D03*
X128560000Y-77425000D03*
%TD*%
D14*
%TO.C,C33*%
X121080000Y-66425000D03*
X121080000Y-65735000D03*
%TD*%
D37*
%TO.C,C7*%
X134350000Y-85100000D03*
X136250000Y-85100000D03*
%TD*%
D53*
%TO.C,U6*%
X140025000Y-73488209D03*
X138755000Y-73488209D03*
X137485000Y-73488209D03*
X136215000Y-73488209D03*
X136215000Y-78588209D03*
X137485000Y-78588209D03*
X138755000Y-78588209D03*
X140025000Y-78588209D03*
%TD*%
D54*
%TO.C,U3*%
X124247500Y-81860000D03*
X125047500Y-81860000D03*
X124247500Y-81060000D03*
X125047500Y-81060000D03*
D55*
X123897500Y-82897500D03*
X124397500Y-82897500D03*
X124897500Y-82897500D03*
X125397500Y-82897500D03*
D56*
X126085000Y-82210000D03*
X126085000Y-81710000D03*
X126085000Y-81210000D03*
X126085000Y-80710000D03*
D55*
X125397500Y-80022500D03*
X124897500Y-80022500D03*
X124397500Y-80022500D03*
X123897500Y-80022500D03*
D56*
X123210000Y-80710000D03*
X123210000Y-81210000D03*
X123210000Y-81710000D03*
X123210000Y-82210000D03*
%TD*%
D57*
%TO.C,U1*%
X140670000Y-55860000D03*
X140669999Y-55210000D03*
X140670000Y-54560000D03*
X139070000Y-54560000D03*
X139070001Y-55210000D03*
X139070000Y-55860000D03*
%TD*%
D16*
%TO.C,C78*%
X148325000Y-55740001D03*
X149015000Y-55740001D03*
%TD*%
D58*
%TO.C,Q6*%
X126517500Y-121417000D03*
X126517500Y-123317000D03*
X128392500Y-122367000D03*
%TD*%
D13*
%TO.C,R5*%
X122105000Y-81545000D03*
X122105000Y-82235000D03*
%TD*%
D12*
%TO.C,R19*%
X125945000Y-95210000D03*
X125255000Y-95210000D03*
%TD*%
D59*
%TO.C,J11*%
X129650000Y-60400000D03*
D60*
X128125000Y-61875000D03*
X128125000Y-58925000D03*
%TD*%
D12*
%TO.C,R21*%
X137275000Y-95140000D03*
X136585000Y-95140000D03*
%TD*%
D13*
%TO.C,C48*%
X152687540Y-69715000D03*
X152687540Y-70405000D03*
%TD*%
D25*
%TO.C,C92*%
X132800000Y-85875000D03*
X132800000Y-84325000D03*
%TD*%
D13*
%TO.C,R58*%
X150737540Y-80215000D03*
X150737540Y-80905000D03*
%TD*%
D20*
%TO.C,X1*%
X152770001Y-61131863D03*
X154170001Y-61131863D03*
X154170001Y-60031863D03*
X152770001Y-60031863D03*
%TD*%
D61*
%TO.C,U7*%
X150805000Y-81990000D03*
D62*
X150267500Y-81915000D03*
D61*
X149730000Y-81990000D03*
X149730000Y-83690000D03*
D62*
X150267500Y-83765000D03*
D61*
X150805000Y-83690000D03*
%TD*%
D14*
%TO.C,C38*%
X151267540Y-70405000D03*
X151267540Y-69715000D03*
%TD*%
D16*
%TO.C,R23*%
X155365000Y-95220000D03*
X156055000Y-95220000D03*
%TD*%
D63*
%TO.C,U13*%
X151350000Y-72060000D03*
X151850000Y-72060000D03*
X152350000Y-72060000D03*
X152850000Y-72060000D03*
X153350000Y-72060000D03*
X153850000Y-72060000D03*
X154350000Y-72060000D03*
X154850000Y-72060000D03*
X155350000Y-72060000D03*
X155850000Y-77560000D03*
X149850000Y-77810000D03*
X150600000Y-78060000D03*
X151600000Y-78060000D03*
X152100000Y-78060000D03*
X152600000Y-78060000D03*
X153100000Y-78060000D03*
X153600000Y-78060000D03*
X154100000Y-78060000D03*
X154600000Y-78060000D03*
X155850000Y-78060000D03*
X149850000Y-78560000D03*
X150350000Y-78560000D03*
X150850000Y-78560000D03*
X151350000Y-78560000D03*
X151850000Y-78560000D03*
X152350000Y-78560000D03*
X152850000Y-78560000D03*
X153350000Y-78560000D03*
X153850000Y-78560000D03*
X154350000Y-78560000D03*
X154850000Y-78560000D03*
X155350000Y-78560000D03*
X149350000Y-72560000D03*
X150100000Y-72560000D03*
X150600000Y-72560000D03*
X151100000Y-72560000D03*
X151600000Y-72560000D03*
X152100000Y-72560000D03*
X152600000Y-72560000D03*
X153100000Y-72560000D03*
X153600000Y-72560000D03*
X154100000Y-72560000D03*
X155850000Y-72560000D03*
X149350000Y-73060000D03*
X149850000Y-73310000D03*
X155350000Y-73310000D03*
X155850000Y-73560000D03*
X149850000Y-73810000D03*
X155350000Y-73810000D03*
X149350000Y-74060000D03*
X149850000Y-74310000D03*
X155350000Y-74310000D03*
X149350000Y-74560000D03*
X155850000Y-74560000D03*
X149850000Y-74810000D03*
X149350000Y-75060000D03*
X155850000Y-75060000D03*
X149850000Y-75310000D03*
X149350000Y-75560000D03*
X155850000Y-75560000D03*
X149850000Y-75810000D03*
X155350000Y-75810000D03*
X149350000Y-76060000D03*
X155850000Y-76060000D03*
X149850000Y-76310000D03*
X155350000Y-76310000D03*
X149350000Y-76560000D03*
X155850000Y-76560000D03*
X155350000Y-76810000D03*
X149350000Y-77060000D03*
X155850000Y-77060000D03*
X149850000Y-77310000D03*
X155350000Y-77310000D03*
%TD*%
D16*
%TO.C,C85*%
X139055000Y-57540000D03*
X139745000Y-57540000D03*
%TD*%
D64*
%TO.C,ANT2*%
X158500000Y-83180001D03*
X158500000Y-86679999D03*
X160100000Y-86679999D03*
X160100000Y-83180001D03*
%TD*%
D37*
%TO.C,C6*%
X132700000Y-88000000D03*
X134600000Y-88000000D03*
%TD*%
D12*
%TO.C,C86*%
X139295000Y-53650000D03*
X138605000Y-53650000D03*
%TD*%
D65*
%TO.C,U10*%
X151999999Y-57889999D03*
X152499999Y-57890000D03*
X152999999Y-57890000D03*
X153499999Y-57890000D03*
X153999999Y-57890000D03*
X154499999Y-57889999D03*
D66*
X155159998Y-57230000D03*
X155159999Y-56730000D03*
X155159999Y-56230000D03*
X155159999Y-55730000D03*
X155159999Y-55230000D03*
X155159998Y-54730000D03*
D65*
X154499999Y-54070001D03*
X153999999Y-54070000D03*
X153499999Y-54070000D03*
X152999999Y-54070000D03*
X152499999Y-54070000D03*
X151999999Y-54070001D03*
D66*
X151340000Y-54730000D03*
X151339999Y-55230000D03*
X151339999Y-55730000D03*
X151339999Y-56230000D03*
X151339999Y-56730000D03*
X151340000Y-57230000D03*
D67*
X153249999Y-55980000D03*
%TD*%
D14*
%TO.C,R38*%
X149600000Y-50640000D03*
X149600000Y-49950000D03*
%TD*%
D16*
%TO.C,C5*%
X129895000Y-88000000D03*
X130585000Y-88000000D03*
%TD*%
D19*
%TO.C,C36*%
X159000000Y-72879999D03*
X159000000Y-71919999D03*
%TD*%
D44*
%TO.C,Q5*%
X128392500Y-119761000D03*
X128392500Y-117861000D03*
X126517500Y-118811000D03*
%TD*%
D48*
%TO.C,C91*%
X122425000Y-84800000D03*
X123975000Y-84800000D03*
%TD*%
D13*
%TO.C,R18*%
X124900000Y-122675000D03*
X124900000Y-123365000D03*
%TD*%
D18*
%TO.C,C37*%
X148770000Y-70350000D03*
X149730000Y-70350000D03*
%TD*%
D16*
%TO.C,C75*%
X148325000Y-55010000D03*
X149015000Y-55010000D03*
%TD*%
D19*
%TO.C,C8*%
X133600000Y-73780000D03*
X133600000Y-72820000D03*
%TD*%
D14*
%TO.C,R16*%
X130660000Y-119755000D03*
X130660000Y-119065000D03*
%TD*%
%TO.C,C27*%
X146180000Y-71125000D03*
X146180000Y-70435000D03*
%TD*%
D13*
%TO.C,C82*%
X145320000Y-56905000D03*
X145320000Y-57595000D03*
%TD*%
D26*
%TO.C,C9*%
X149820000Y-60185000D03*
X149820000Y-61735000D03*
%TD*%
D68*
%TO.C,J8*%
X127335000Y-55825000D03*
D69*
X125860000Y-54300000D03*
X128810000Y-54300000D03*
%TD*%
D12*
%TO.C,R11*%
X125420000Y-78930000D03*
X124730000Y-78930000D03*
%TD*%
D24*
%TO.C,U9*%
X125610000Y-84530000D03*
X125610000Y-85479999D03*
X125610000Y-86429998D03*
X127885000Y-86429998D03*
X127885000Y-85479999D03*
X127885000Y-84530000D03*
%TD*%
D70*
%TO.C,ANT1*%
X131950000Y-49794999D03*
X131950000Y-43045001D03*
%TD*%
D71*
X154800000Y-146000000D03*
X127000000Y-146000000D03*
X157650000Y-47910000D03*
X134570000Y-64000000D03*
X159500000Y-126200000D03*
X122000000Y-126230000D03*
D72*
X150800000Y-73510000D03*
X150800000Y-74710000D03*
X150800000Y-75910000D03*
X150800000Y-77110000D03*
X152000000Y-73510000D03*
X152000000Y-74710000D03*
X152000000Y-75910000D03*
X152000000Y-77110000D03*
X153200000Y-73510000D03*
X153200000Y-74710000D03*
X153200000Y-75910000D03*
X153200000Y-77110000D03*
X154400000Y-73510000D03*
X154400000Y-74710000D03*
X154400000Y-75910000D03*
X154400000Y-77110000D03*
D71*
X123750000Y-47910000D03*
M02*
