#VRML V2.0 utf8
Transform { translation 0 0 0.2756 children [ Shape {
  appearance Appearance { material Material { diffuseColor 0.55 0.56 0.6 specularColor 0.3 0.3 0.3 shininess 0.4 } }
  geometry IndexedFaceSet { coord Coordinate { point [ 0.9449 0.0000 -0.2756, 0.9305 0.1641 -0.2756, 0.8879 0.3232 -0.2756, 0.8183 0.4724 -0.2756, 0.7238 0.6074 -0.2756, 0.6074 0.7238 -0.2756, 0.4724 0.8183 -0.2756, 0.3232 0.8879 -0.2756, 0.1641 0.9305 -0.2756, 0.0000 0.9449 -0.2756, -0.1641 0.9305 -0.2756, -0.3232 0.8879 -0.2756, -0.4724 0.8183 -0.2756, -0.6074 0.7238 -0.2756, -0.7238 0.6074 -0.2756, -0.8183 0.4724 -0.2756, -0.8879 0.3232 -0.2756, -0.9305 0.1641 -0.2756, -0.9449 0.0000 -0.2756, -0.9305 -0.1641 -0.2756, -0.8879 -0.3232 -0.2756, -0.8183 -0.4724 -0.2756, -0.7238 -0.6074 -0.2756, -0.6074 -0.7238 -0.2756, -0.4724 -0.8183 -0.2756, -0.3232 -0.8879 -0.2756, -0.1641 -0.9305 -0.2756, -0.0000 -0.9449 -0.2756, 0.1641 -0.9305 -0.2756, 0.3232 -0.8879 -0.2756, 0.4724 -0.8183 -0.2756, 0.6074 -0.7238 -0.2756, 0.7238 -0.6074 -0.2756, 0.8183 -0.4724 -0.2756, 0.8879 -0.3232 -0.2756, 0.9305 -0.1641 -0.2756, 0.9449 0.0000 0.2756, 0.9305 0.1641 0.2756, 0.8879 0.3232 0.2756, 0.8183 0.4724 0.2756, 0.7238 0.6074 0.2756, 0.6074 0.7238 0.2756, 0.4724 0.8183 0.2756, 0.3232 0.8879 0.2756, 0.1641 0.9305 0.2756, 0.0000 0.9449 0.2756, -0.1641 0.9305 0.2756, -0.3232 0.8879 0.2756, -0.4724 0.8183 0.2756, -0.6074 0.7238 0.2756, -0.7238 0.6074 0.2756, -0.8183 0.4724 0.2756, -0.8879 0.3232 0.2756, -0.9305 0.1641 0.2756, -0.9449 0.0000 0.2756, -0.9305 -0.1641 0.2756, -0.8879 -0.3232 0.2756, -0.8183 -0.4724 0.2756, -0.7238 -0.6074 0.2756, -0.6074 -0.7238 0.2756, -0.4724 -0.8183 0.2756, -0.3232 -0.8879 0.2756, -0.1641 -0.9305 0.2756, -0.0000 -0.9449 0.2756, 0.1641 -0.9305 0.2756, 0.3232 -0.8879 0.2756, 0.4724 -0.8183 0.2756, 0.6074 -0.7238 0.2756, 0.7238 -0.6074 0.2756, 0.8183 -0.4724 0.2756, 0.8879 -0.3232 0.2756, 0.9305 -0.1641 0.2756 ] } coordIndex [ 35 34 33 32 31 30 29 28 27 26 25 24 23 22 21 20 19 18 17 16 15 14 13 12 11 10 9 8 7 6 5 4 3 2 1 0 -1 36 37 38 39 40 41 42 43 44 45 46 47 48 49 50 51 52 53 54 55 56 57 58 59 60 61 62 63 64 65 66 67 68 69 70 71 -1 0 1 37 36 -1 1 2 38 37 -1 2 3 39 38 -1 3 4 40 39 -1 4 5 41 40 -1 5 6 42 41 -1 6 7 43 42 -1 7 8 44 43 -1 8 9 45 44 -1 9 10 46 45 -1 10 11 47 46 -1 11 12 48 47 -1 12 13 49 48 -1 13 14 50 49 -1 14 15 51 50 -1 15 16 52 51 -1 16 17 53 52 -1 17 18 54 53 -1 18 19 55 54 -1 19 20 56 55 -1 20 21 57 56 -1 21 22 58 57 -1 22 23 59 58 -1 23 24 60 59 -1 24 25 61 60 -1 25 26 62 61 -1 26 27 63 62 -1 27 28 64 63 -1 28 29 65 64 -1 29 30 66 65 -1 30 31 67 66 -1 31 32 68 67 -1 32 33 69 68 -1 33 34 70 69 -1 34 35 71 70 -1 35 0 36 71 -1 ] } } ] }
